<svg width="24" height="23" viewBox="0 0 24 23" fill="none" xmlns="http://www.w3.org/2000/svg">
<path d="M21.5975 19.728C25.775 15.1105 24.3215 7.9319 18.64 5.13156C16.9992 2.08658 13.6828 0 9.8672 0C4.4267 0 0.000571754 4.24197 0.000571754 9.45605C0.000571754 11.7515 0.848447 13.9225 2.40231 15.6401L0.209775 17.7137C-0.2346 18.1341 0.073228 18.8643 0.700322 18.8672L5.99513 18.8914C7.81974 21.4358 10.8339 23 14.1326 23C14.1394 23 23.2942 22.9551 23.2996 22.9551C23.9245 22.9522 24.2359 22.2233 23.7901 21.8016L21.5975 19.728ZM3.87948 15.1844C2.28493 13.6534 1.40673 11.619 1.40673 9.45605C1.40673 4.98507 5.2021 1.34766 9.8672 1.34766C14.5323 1.34766 18.3277 4.98507 18.3277 9.45605C18.3277 13.7404 14.7899 17.599 9.59284 17.5601L2.40887 17.5273L3.87573 16.14C4.15313 15.8776 4.15478 15.4487 3.87948 15.1844ZM14.1326 21.6523C11.6654 21.6523 9.37215 20.6421 7.77802 18.8995C10.4548 18.9164 9.7442 18.9121 9.8672 18.9121C16.2142 18.9121 20.9534 13.2066 19.462 7.24963C23.351 10.2942 23.6695 15.8647 20.1204 19.2722C19.845 19.5366 19.8467 19.9655 20.1241 20.2279L21.591 21.6152C21.5854 21.6152 14.1381 21.6523 14.1326 21.6523Z" fill="#020202"/>
<path d="M5.67232 7.45703H14.1094C14.4977 7.45703 14.8124 7.15534 14.8124 6.7832C14.8124 6.41107 14.4977 6.10938 14.1094 6.10938H5.67232C5.284 6.10938 4.96924 6.41107 4.96924 6.7832C4.96924 7.15534 5.28405 7.45703 5.67232 7.45703Z" fill="#020202"/>
<path d="M5.67232 10.1523H14.1094C14.4977 10.1523 14.8124 9.85065 14.8124 9.47852C14.8124 9.10638 14.4977 8.80469 14.1094 8.80469H5.67232C5.284 8.80469 4.96924 9.10638 4.96924 9.47852C4.96924 9.85065 5.28405 10.1523 5.67232 10.1523Z" fill="#020202"/>
<path d="M5.67232 12.8477H14.1094C14.4977 12.8477 14.8124 12.546 14.8124 12.1738C14.8124 11.8017 14.4977 11.5 14.1094 11.5H5.67232C5.284 11.5 4.96924 11.8017 4.96924 12.1738C4.96924 12.546 5.28405 12.8477 5.67232 12.8477Z" fill="#020202"/>
</svg>
