<svg width="22" height="25" viewBox="0 0 22 25" fill="#fff" xmlns="http://www.w3.org/2000/svg">
<path d="M20.9195 9.62164L11.9782 0.24268C11.6709 -0.0808935 11.0889 -0.0808935 10.7817 0.24268L1.8404 9.62164C1.62094 9.84986 1.56566 10.1812 1.69409 10.4642C1.82415 10.7487 2.11677 10.9316 2.43866 10.9316H6.50287V15.199C6.50287 17.0044 5.93388 18.7474 4.8593 20.2402C3.78635 21.7283 2.28747 22.8507 0.526851 23.4869C0.15782 23.6197 -0.0567701 23.9871 0.0131343 24.3591C0.0830388 24.7311 0.419556 25 0.812972 25H5.42992C11.4011 25 16.257 20.3293 16.257 14.5894V10.9316H20.3212C20.6431 10.9316 20.9357 10.7487 21.0658 10.4642C21.1942 10.1812 21.1389 9.84986 20.9195 9.62164ZM15.4441 9.3684C14.9955 9.3684 14.6313 9.71855 14.6313 10.15V14.5894C14.6313 19.468 10.5037 23.4368 5.42992 23.4368H3.92453C4.79265 22.7897 5.55835 22.0159 6.19562 21.1312C7.4604 19.3742 8.12856 17.3233 8.12856 15.199V10.15C8.12856 9.71855 7.7644 9.3684 7.31571 9.3684H4.28706L11.3799 1.92777L18.4728 9.3684H15.4441Z" fill="white"/>
</svg>
