<svg width="30" height="26" viewBox="0 0 30 26" fill="none" xmlns="http://www.w3.org/2000/svg">
<path d="M15.0478 8.9068C14.0015 10.9935 11.628 12.3436 9.00394 12.3447C8.48594 12.3447 7.98198 12.3229 7.49838 12.1948C7.49985 13.107 7.47158 13.9485 7.57973 14.7267C8.2906 19.8411 11.2884 22.2193 15.0686 23.9366C19.0769 22.2126 21.9765 19.8754 22.5887 14.7073C22.6791 13.9442 22.6421 13.0677 22.633 12.1766C22.1341 12.3331 21.6131 12.3374 21.077 12.3374C18.4597 12.3344 16.0928 10.9876 15.0478 8.9068Z" fill="#354D8A" stroke="#354D8A" stroke-width="0.5"/>
<path d="M13.8643 13.2251V15.3529H11.4104V17.4471H13.8643V19.575H16.2793V17.4471H18.7332V15.3529H16.2793V13.2251H13.8643Z" fill="white"/>
<path d="M14.6026 4.10211C12.8163 4.10211 11.3784 5.07534 11.3784 6.28429V6.9414C11.3784 6.95881 11.3796 6.97607 11.3802 6.99339C13.6253 6.036 16.4282 6.03519 18.6733 6.98997C18.6739 6.9738 18.6748 6.95768 18.6748 6.94141V6.2843C18.6748 5.07535 17.2369 4.10212 15.4507 4.10212L14.6026 4.10211Z" fill="white" stroke="#354D8A" stroke-width="0.7"/>
<path d="M20.8092 20.5683C20.5538 20.5644 20.3134 20.585 20.0896 20.6261C19.8855 20.8518 19.6701 21.0662 19.4458 21.272C19.7168 21.2416 20.0151 21.2495 20.3366 21.2809C20.4193 21.289 20.5023 21.3002 20.5851 21.3142C20.5911 21.3152 20.5969 21.3167 20.6029 21.3176C20.6793 21.3308 20.7557 21.3467 20.8315 21.3648C20.8498 21.3697 20.868 21.3747 20.8862 21.3799C20.9491 21.3957 21.0115 21.4131 21.0734 21.4323C21.1508 21.4567 21.2272 21.4837 21.3024 21.5132C21.37 21.54 21.4364 21.5688 21.5016 21.5995C21.5454 21.6203 21.5887 21.6419 21.6313 21.6644C21.6614 21.6796 21.6911 21.6952 21.7206 21.7112C21.7658 21.7367 21.8102 21.7632 21.8536 21.7905C21.8785 21.8055 21.9029 21.8207 21.9272 21.8363C21.975 21.8681 22.0216 21.901 22.0668 21.9349C22.0841 21.9473 22.1011 21.9598 22.1181 21.9725C22.1656 22.0097 22.2117 22.048 22.2559 22.0873C22.2694 22.0988 22.2828 22.1103 22.2959 22.122C22.3418 22.1642 22.3855 22.2073 22.4271 22.2515C22.4364 22.2608 22.4455 22.2702 22.4545 22.2797C22.4983 22.3275 22.5396 22.3764 22.5782 22.4261C22.5835 22.4325 22.5887 22.439 22.5939 22.4454C22.6332 22.4972 22.6696 22.5499 22.703 22.6032C22.7066 22.6086 22.7099 22.6139 22.7135 22.6193C22.7485 22.6762 22.7802 22.7339 22.8081 22.792L22.8096 22.7949L22.8099 22.7959C22.8386 22.8561 22.8636 22.9167 22.8845 22.9775C22.9603 23.0047 23.103 22.9049 23.1783 22.9342C23.9067 22.7645 24.8318 23.5722 25.0165 24.1818C25.387 23.2204 24.5421 21.9775 22.9292 21.0735L22.9291 21.0733C22.8755 21.0512 22.8209 21.0298 22.7655 21.0095C22.0571 20.7125 21.3948 20.5773 20.8092 20.5682L20.8092 20.5683Z" fill="white" stroke="#354D8A" stroke-width="0.7"/>
<path d="M9.3347 20.5683C8.74905 20.5773 8.08677 20.7126 7.37842 21.0095C7.32288 21.0298 7.26846 21.0513 7.21484 21.0735V21.0734C5.60185 21.9774 4.75686 23.2204 5.12738 24.1818C5.31213 23.5722 6.23717 22.7645 6.96558 22.9342C7.04087 22.9049 7.18355 23.0047 7.25942 22.9775C7.28033 22.9167 7.30522 22.8561 7.33398 22.796L7.33428 22.7949L7.33575 22.792C7.36372 22.7339 7.3955 22.6762 7.43055 22.6193C7.43411 22.6139 7.43747 22.6086 7.44106 22.6032C7.47444 22.5499 7.51084 22.4972 7.55017 22.4454C7.55529 22.439 7.56047 22.4326 7.56569 22.4261C7.60431 22.3764 7.64573 22.3275 7.68955 22.2797C7.69856 22.2703 7.70757 22.2608 7.71679 22.2516C7.75844 22.2073 7.80229 22.1642 7.84811 22.122C7.8613 22.1103 7.87449 22.0988 7.88798 22.0873C7.93217 22.048 7.97828 22.0097 8.02585 21.9725C8.04278 21.9598 8.05998 21.9473 8.07728 21.9349C8.12248 21.901 8.16887 21.8681 8.21667 21.8363C8.24096 21.8208 8.26545 21.8055 8.29032 21.7905C8.33372 21.7632 8.37828 21.7367 8.42346 21.7112C8.45295 21.6952 8.48265 21.6796 8.51279 21.6644C8.55534 21.6419 8.59847 21.6203 8.64228 21.5995C8.70746 21.5688 8.77409 21.54 8.84162 21.5132C8.91681 21.4837 8.99313 21.4567 9.07048 21.4323C9.13242 21.4132 9.19478 21.3957 9.25765 21.3799C9.27591 21.3747 9.29422 21.3697 9.31259 21.3649C9.38831 21.3467 9.46461 21.3308 9.54099 21.3176C9.54697 21.3166 9.5528 21.3153 9.55881 21.3142C9.6416 21.3002 9.72455 21.289 9.8073 21.2809C10.1949 21.243 10.549 21.2391 10.8617 21.2956C10.6413 21.0937 10.4291 20.883 10.2261 20.6621C9.95548 20.5967 9.65669 20.5633 9.33467 20.5683L9.3347 20.5683Z" fill="white" stroke="#354D8A" stroke-width="0.7"/>
<path opacity="0.91" d="M26.7689 14.9693C25.8079 15.2505 24.7505 15.3626 23.6916 15.2957C23.2975 15.2702 22.9088 15.2193 22.5296 15.1461C22.4873 15.4312 22.4378 15.7074 22.3811 15.975C22.794 15.9455 23.2138 15.9431 23.6347 15.9693C24.6935 16.0372 25.7207 16.282 26.624 16.6817C27.1717 16.181 28.067 15.9134 29 15.972C28.0671 15.9121 27.2264 15.534 26.7689 14.9693V14.9693Z" fill="white" stroke="#354D8A" stroke-width="0.7" stroke-linecap="round"/>
<path opacity="0.91" d="M3.23126 14.9693C2.77376 15.534 1.93287 15.9121 1 15.972C1.93298 15.9134 2.82847 16.181 3.37612 16.6817C4.27951 16.282 5.30663 16.0372 6.36548 15.9693C6.85301 15.939 7.33878 15.9474 7.81429 15.9916C7.74765 15.7081 7.689 15.4151 7.63869 15.1122C7.20659 15.2041 6.76106 15.2664 6.30842 15.2957C5.24949 15.3626 4.19225 15.2505 3.23126 14.9693Z" fill="white" stroke="#354D8A" stroke-width="0.7" stroke-linecap="round"/>
<path d="M2.65831 7.61798C2.30176 8.54316 3.11479 9.73937 4.66694 10.6093V10.6091C4.71854 10.6305 4.771 10.6512 4.82444 10.6708C5.95724 11.1456 6.96717 11.19 7.72006 10.9622C7.7726 10.779 7.83351 10.6013 7.9016 10.4288C7.67277 10.4445 7.4254 10.4353 7.16176 10.4095C7.08213 10.4017 7.00237 10.3911 6.9227 10.3776C6.91696 10.3768 6.91127 10.375 6.9055 10.3742C6.83199 10.3614 6.75849 10.3463 6.68562 10.3288C6.66795 10.324 6.6504 10.3192 6.63281 10.3143C6.57231 10.299 6.51239 10.2824 6.4528 10.264C6.37836 10.2404 6.3048 10.2145 6.23245 10.1861C6.16747 10.1603 6.10344 10.1325 6.04072 10.103C5.99856 10.083 5.95689 10.0621 5.91594 10.0405C5.88694 10.0258 5.8585 10.0109 5.83012 9.99547C5.78664 9.97093 5.74376 9.94546 5.70199 9.9192C5.67806 9.90478 5.65447 9.8901 5.63108 9.87514C5.58509 9.84452 5.54036 9.81283 5.49687 9.78026C5.48023 9.76828 5.46385 9.75631 5.44757 9.74411C5.40179 9.70832 5.3574 9.67145 5.31488 9.63367C5.30189 9.62264 5.28906 9.6115 5.27638 9.60028C5.23228 9.55966 5.19015 9.518 5.15008 9.47546C5.14119 9.4665 5.13257 9.45761 5.1239 9.44854C5.08174 9.40249 5.04177 9.35535 5.0046 9.30749C4.99959 9.30131 4.99462 9.29521 4.98969 9.289C4.95185 9.23917 4.91681 9.18846 4.88469 9.13713C4.88124 9.13194 4.87808 9.12673 4.87465 9.12155C4.84093 9.06681 4.81043 9.01134 4.78351 8.95543L4.78197 8.95252L4.78165 8.95175C4.75397 8.89387 4.72995 8.83561 4.70983 8.77705C4.63681 8.75092 4.49954 8.84684 4.4271 8.81861C3.72615 8.98192 2.83607 8.2046 2.65828 7.61801L2.65831 7.61798Z" fill="white" stroke="#354D8A" stroke-width="0.7"/>
<path d="M12.3736 5.30766C10.47 4.22633 10.47 4.19356 10.47 4.19356V1.1134" stroke="#354D8A" stroke-width="0.7"/>
<path d="M17.802 5.30766C19.7056 4.22633 19.7056 4.19356 19.7056 4.19356V1.1134" stroke="#354D8A" stroke-width="0.7"/>
<path d="M13.0751 3.33975C13.0641 3.29303 13.0056 3.01156 12.9453 2.71427C12.885 2.41698 12.8265 2.14115 12.8154 2.10133C12.7963 2.03293 12.804 2.03477 12.9549 2.13464C13.162 2.27173 13.3954 2.32839 13.7485 2.32727C13.9855 2.3265 14.0636 2.31274 14.2123 2.24541C14.6063 2.06703 14.882 1.7031 15.0506 1.139L15.0921 1L15.1581 1.225C15.305 1.72552 15.698 2.16473 16.0889 2.2654C16.464 2.36199 16.9506 2.28907 17.23 2.09437L17.3718 1.99553L17.3511 2.08463C17.3398 2.13364 17.2816 2.42392 17.2219 2.72971C17.1622 3.0355 17.1053 3.31696 17.0955 3.35519L17.0777 3.42469H15.0865H13.0952L13.0751 3.33975Z" fill="black" stroke="black" stroke-width="0.236831" stroke-linecap="round" stroke-linejoin="bevel"/>
<path d="M7.52197 12.1946C8.00556 12.2926 8.50953 12.3444 9.02754 12.3444C11.6516 12.3431 14.0251 10.9931 15.0714 8.90646C16.1164 10.9873 18.4833 12.334 21.1006 12.337C21.6367 12.337 22.1577 12.2811 22.6566 12.1763C22.0164 4.30309 8.15743 4.30309 7.52197 12.1946V12.1946Z" fill="white" stroke="#354D8A" stroke-width="0.5"/>
<path d="M22.3136 12.2315C22.3421 11.2471 22.1748 10.0403 21.8759 9.63306" stroke="black" stroke-width="0.426955"/>
<path d="M21.5976 12.4361C21.8301 11.0645 21.6495 9.72568 20.7713 8.28802" stroke="black" stroke-width="0.5"/>
<path d="M20.7083 12.2856C21.0488 11.1452 20.864 9.41998 19.7749 7.4845" stroke="black" stroke-width="0.53943"/>
<path d="M19.8252 12.283C20.2329 10.7506 19.6641 8.64701 18.8917 7.0484" stroke="black" stroke-width="0.563258"/>
<path d="M18.9376 12.083C19.1926 10.5209 18.8556 8.70213 18.0036 6.66003V6.79315" stroke="black" stroke-width="0.559166"/>
<path d="M18.054 11.8128C18.1705 10.1235 17.8556 8.37819 17.1205 6.57817V6.44305" stroke="black" stroke-width="0.563258"/>
<path d="M17.1701 11.3905C17.2949 9.75618 16.8769 8.04344 16.2384 6.29883" stroke="black" stroke-width="0.555118"/>
<path d="M16.2868 10.7764C16.3496 9.29496 15.8792 7.78045 15.3553 6.26263" stroke="black" stroke-width="0.522624"/>
<path d="M7.86813 12.2315C7.83962 11.2471 8.007 10.0403 8.30588 9.63306" stroke="black" stroke-width="0.426955"/>
<path d="M8.585 12.4361C8.3525 11.0645 8.53316 9.72568 9.41133 8.28802" stroke="black" stroke-width="0.5"/>
<path d="M9.47428 12.2856C9.1338 11.1452 9.31862 9.41998 10.4078 7.4845" stroke="black" stroke-width="0.53943"/>
<path d="M10.3574 12.283C9.9497 10.7506 10.5185 8.64701 11.2909 7.0484" stroke="black" stroke-width="0.563258"/>
<path d="M11.2438 12.083C10.9888 10.5209 11.3258 8.70213 12.1778 6.66003V6.79315" stroke="black" stroke-width="0.559166"/>
<path d="M12.1284 11.8129C12.0118 10.1237 12.3267 8.37831 13.0618 6.57829V6.44318" stroke="black" stroke-width="0.563258"/>
<path d="M13.0125 11.3906C12.8878 9.7563 13.3057 8.04356 13.9442 6.29895" stroke="black" stroke-width="0.555118"/>
<path d="M13.8963 10.7764C13.8335 9.29496 14.3039 7.78045 14.8278 6.26263" stroke="black" stroke-width="0.522624"/>
<path d="M15.0476 8.90525C15.0476 6.28013 15.0651 6.29266 15.0651 6.29266" stroke="black" stroke-width="0.5"/>
<g opacity="0.91">
<path opacity="0.91" d="M13.1473 5.85366C13.3912 5.85366 13.589 5.68218 13.589 5.47065C13.589 5.25912 13.3912 5.08765 13.1473 5.08765C12.9033 5.08765 12.7056 5.25912 12.7056 5.47065C12.7056 5.68218 12.9033 5.85366 13.1473 5.85366Z" fill="#D40000"/>
<path opacity="0.91" d="M16.9974 5.85366C17.2413 5.85366 17.4391 5.68218 17.4391 5.47065C17.4391 5.25912 17.2413 5.08765 16.9974 5.08765C16.7534 5.08765 16.5557 5.25912 16.5557 5.47065C16.5557 5.68218 16.7534 5.85366 16.9974 5.85366Z" fill="#D40000"/>
</g>
<path d="M15.0478 8.9068C14.0015 10.9935 11.628 12.3436 9.00394 12.3447C8.48594 12.3447 7.98198 12.3229 7.49838 12.1948C7.49985 13.107 7.47158 13.9485 7.57973 14.7267C8.2906 19.8411 11.2884 22.2193 15.0686 23.9366C19.0769 22.2126 21.9765 19.8754 22.5887 14.7073C22.6791 13.9442 22.6421 13.0677 22.633 12.1766C22.1341 12.3331 21.6131 12.3374 21.077 12.3374C18.4597 12.3344 16.0928 10.9876 15.0478 8.9068Z" fill="#354D8A" stroke="#354D8A" stroke-width="0.5"/>
<path d="M13.9168 18.518V17.4471H12.6818H11.4468V16.4227V15.3984H12.6818H13.9168V14.3275V13.2565H15.0982H16.2795V14.3275V15.3984H17.5145H18.7496V16.4227V17.4471H17.5145H16.2795V18.518V19.5889H15.0982H13.9168V18.518Z" fill="#D40000" stroke="#D30000" stroke-width="0.344606" stroke-linecap="round" stroke-linejoin="bevel"/>
</svg>
