<svg width="89" height="28" viewBox="0 0 89 28" fill="none" xmlns="http://www.w3.org/2000/svg">
<path d="M4.88812 1.93C5.02012 1.93 5.16412 1.93 5.32012 1.93C5.47612 1.918 5.62012 1.912 5.75212 1.912C5.89612 1.912 6.01612 1.912 6.11212 1.912C6.22012 1.9 6.29212 1.894 6.32812 1.894C7.87612 1.894 9.02212 2.146 9.76612 2.65C10.5101 3.154 10.8821 4.018 10.8821 5.242C10.8821 6.454 10.5101 7.312 9.76612 7.816C9.03412 8.32 7.88812 8.572 6.32812 8.572H5.82412C5.64412 8.572 5.45812 8.566 5.26612 8.554V11.956H6.86812V13H0.640117V11.956H2.24212V2.974H0.640117V1.93H4.88812ZM6.32812 2.812C6.12412 2.812 5.93212 2.818 5.75212 2.83C5.57212 2.842 5.41012 2.86 5.26612 2.884V7.564C5.56612 7.6 5.92012 7.618 6.32812 7.618C6.60412 7.618 6.82612 7.6 6.99412 7.564C7.09012 7.552 7.17412 7.534 7.24612 7.51C7.29412 7.342 7.34212 7.15 7.39012 6.934C7.42612 6.742 7.45612 6.508 7.48012 6.232C7.51612 5.944 7.53412 5.62 7.53412 5.26C7.53412 4.888 7.51612 4.558 7.48012 4.27C7.45612 3.982 7.42612 3.736 7.39012 3.532C7.34212 3.304 7.29412 3.1 7.24612 2.92C7.17412 2.908 7.09012 2.89 6.99412 2.866C6.91012 2.854 6.80812 2.842 6.68812 2.83C6.58012 2.818 6.46012 2.812 6.32812 2.812ZM20.9174 12.1H21.1514C21.2594 12.1 21.3674 12.094 21.4754 12.082L21.8714 12.046V12.91C21.6554 12.946 21.4454 12.976 21.2414 13C21.0734 13.024 20.8934 13.042 20.7014 13.054C20.5094 13.066 20.3534 13.072 20.2334 13.072C19.6454 13.072 19.2014 12.964 18.9014 12.748C18.6014 12.532 18.3854 12.298 18.2534 12.046C17.9894 12.382 17.6834 12.652 17.3354 12.856C16.9994 13.048 16.6094 13.144 16.1654 13.144C15.3494 13.144 14.7434 12.994 14.3474 12.694C13.9514 12.382 13.7534 11.848 13.7534 11.092C13.7534 10.828 13.7534 10.576 13.7534 10.336C13.7654 10.096 13.7834 9.886 13.8074 9.706C13.8314 9.49 13.8554 9.298 13.8794 9.13L18.0554 8.104C18.0434 7.756 18.0314 7.438 18.0194 7.15C18.0074 6.85 17.9954 6.598 17.9834 6.394C17.9594 6.154 17.9414 5.938 17.9294 5.746C17.8934 5.734 17.8394 5.722 17.7674 5.71C17.7074 5.698 17.6174 5.686 17.4974 5.674C17.3774 5.662 17.2334 5.656 17.0654 5.656C16.9574 5.656 16.8554 5.662 16.7594 5.674C16.6634 5.674 16.5674 5.68 16.4714 5.692C16.4354 5.86 16.3754 6.064 16.2914 6.304C16.2074 6.532 16.0754 6.754 15.8954 6.97C15.7154 7.174 15.4754 7.354 15.1754 7.51C14.8874 7.654 14.5154 7.726 14.0594 7.726V5.008C14.4434 4.972 14.8334 4.936 15.2294 4.9C15.5774 4.876 15.9494 4.852 16.3454 4.828C16.7414 4.804 17.1254 4.792 17.4974 4.792C18.2774 4.792 18.8894 4.858 19.3334 4.99C19.7894 5.122 20.1314 5.35 20.3594 5.674C20.5994 5.998 20.7494 6.43 20.8094 6.97C20.8814 7.51 20.9174 8.182 20.9174 8.986V12.1ZM16.7414 12.172C16.9814 12.112 17.2094 11.962 17.4254 11.722C17.6534 11.47 17.8694 11.17 18.0734 10.822V8.914L16.7054 9.292C16.6814 9.484 16.6634 9.682 16.6514 9.886C16.6394 10.078 16.6334 10.27 16.6334 10.462C16.6334 10.702 16.6334 10.924 16.6334 11.128C16.6454 11.332 16.6634 11.512 16.6874 11.668C16.6994 11.848 16.7174 12.016 16.7414 12.172ZM23.9346 5.242H24.9966L27.7146 4.72V5.98C27.7386 5.944 27.8046 5.86 27.9126 5.728C28.0206 5.596 28.1826 5.464 28.3986 5.332C28.6146 5.188 28.8966 5.062 29.2446 4.954C29.5926 4.846 30.0186 4.792 30.5226 4.792C30.7986 4.792 31.0746 4.816 31.3506 4.864C31.6386 4.912 31.8966 5.002 32.1246 5.134C32.3646 5.254 32.5566 5.422 32.7006 5.638C32.8446 5.854 32.9166 6.136 32.9166 6.484V12.082H33.9786V13H30.0726V5.908C30.0486 5.908 30.0126 5.902 29.9646 5.89C29.8686 5.866 29.7366 5.854 29.5686 5.854C29.3166 5.854 29.0886 5.908 28.8846 6.016C28.6926 6.112 28.5246 6.226 28.3806 6.358C28.2366 6.49 28.1166 6.628 28.0206 6.772C27.9366 6.904 27.8766 7.006 27.8406 7.078V12.082H28.9026V13H23.9346V12.082H24.9966V6.142H23.9346V5.242ZM40.5044 1.93H41.5664L44.4104 1.408V12.1H44.6444C44.7524 12.1 44.8604 12.094 44.9684 12.082L45.3644 12.046V12.91C45.1484 12.946 44.9384 12.976 44.7344 13C44.5664 13.024 44.3864 13.042 44.1944 13.054C44.0024 13.066 43.8464 13.072 43.7264 13.072C43.1384 13.072 42.6944 12.964 42.3944 12.748C42.0944 12.532 41.8784 12.298 41.7464 12.046C41.3984 12.394 41.0024 12.664 40.5584 12.856C40.1264 13.048 39.6704 13.144 39.1904 13.144C38.6984 13.144 38.2604 13.072 37.8764 12.928C37.4924 12.772 37.1684 12.532 36.9044 12.208C36.6524 11.872 36.4604 11.44 36.3284 10.912C36.1964 10.372 36.1304 9.724 36.1304 8.968C36.1304 8.2 36.2024 7.552 36.3464 7.024C36.4904 6.484 36.7304 6.052 37.0664 5.728C37.4024 5.392 37.8344 5.152 38.3624 5.008C38.8904 4.864 39.5444 4.792 40.3244 4.792C40.5404 4.792 40.7504 4.804 40.9544 4.828L41.5664 4.9V2.83H40.5044V1.93ZM39.4064 12.172C39.8024 12.172 40.1864 12.046 40.5584 11.794C40.9424 11.542 41.2784 11.224 41.5664 10.84V5.782C41.3624 5.722 41.1464 5.68 40.9184 5.656C40.7024 5.62 40.5044 5.602 40.3244 5.602C40.1684 5.602 40.0364 5.608 39.9284 5.62C39.8204 5.632 39.7244 5.644 39.6404 5.656C39.5444 5.68 39.4664 5.698 39.4064 5.71C39.3464 5.998 39.2924 6.31 39.2444 6.646C39.1964 6.934 39.1544 7.276 39.1184 7.672C39.0944 8.068 39.0824 8.5 39.0824 8.968C39.0824 9.544 39.0944 10.036 39.1184 10.444C39.1544 10.84 39.1964 11.17 39.2444 11.434C39.2924 11.746 39.3464 11.992 39.4064 12.172ZM51.7068 4.792C52.3668 4.792 52.9128 4.858 53.3448 4.99C53.7768 5.11 54.1248 5.308 54.3888 5.584C54.6528 5.86 54.8388 6.226 54.9468 6.682C55.0548 7.126 55.1088 7.678 55.1088 8.338C55.1088 8.542 55.1028 8.722 55.0908 8.878C55.0788 9.022 55.0668 9.142 55.0548 9.238C55.0428 9.358 55.0308 9.448 55.0188 9.508H50.5728C50.5848 9.916 50.6088 10.288 50.6448 10.624C50.6808 10.948 50.7168 11.23 50.7528 11.47C50.8008 11.758 50.8488 12.01 50.8968 12.226C50.9328 12.25 50.9868 12.268 51.0588 12.28C51.1188 12.292 51.2028 12.304 51.3108 12.316C51.4308 12.316 51.5808 12.316 51.7608 12.316C52.0608 12.316 52.3428 12.298 52.6068 12.262C52.8828 12.214 53.1228 12.142 53.3268 12.046C53.5308 11.95 53.6868 11.818 53.7948 11.65C53.9148 11.47 53.9748 11.254 53.9748 11.002H54.9468C54.9468 11.506 54.8328 11.902 54.6048 12.19C54.3888 12.478 54.1128 12.7 53.7768 12.856C53.4528 13 53.0988 13.09 52.7148 13.126C52.3308 13.162 51.9708 13.18 51.6348 13.18C50.9028 13.18 50.2788 13.108 49.7628 12.964C49.2588 12.808 48.8448 12.568 48.5208 12.244C48.2088 11.908 47.9808 11.476 47.8368 10.948C47.6928 10.408 47.6208 9.754 47.6208 8.986C47.6208 8.218 47.6808 7.57 47.8008 7.042C47.9328 6.502 48.1548 6.07 48.4668 5.746C48.7788 5.41 49.1928 5.17 49.7088 5.026C50.2368 4.87 50.9028 4.792 51.7068 4.792ZM50.8968 5.71C50.8368 5.974 50.7828 6.262 50.7348 6.574C50.6988 6.85 50.6628 7.174 50.6268 7.546C50.5908 7.906 50.5728 8.302 50.5728 8.734H52.3188C52.2948 8.23 52.2648 7.792 52.2288 7.42C52.1928 7.036 52.1508 6.718 52.1028 6.466C52.0548 6.166 52.0008 5.914 51.9408 5.71C51.9048 5.698 51.8628 5.68 51.8148 5.656C51.7668 5.644 51.7068 5.632 51.6348 5.62C51.5748 5.608 51.5028 5.602 51.4188 5.602C51.3348 5.602 51.2628 5.608 51.2028 5.62C51.1428 5.632 51.0888 5.644 51.0408 5.656C50.9928 5.68 50.9448 5.698 50.8968 5.71ZM57.5447 5.242H58.6067L61.3247 4.72V5.926C61.3727 5.854 61.4567 5.752 61.5767 5.62C61.7087 5.488 61.8767 5.362 62.0807 5.242C62.2847 5.122 62.5307 5.02 62.8187 4.936C63.1187 4.84 63.4667 4.792 63.8627 4.792C64.0907 4.792 64.3247 4.81 64.5647 4.846C64.8047 4.882 65.0267 4.942 65.2307 5.026C65.4467 5.11 65.6387 5.224 65.8067 5.368C65.9747 5.512 66.0947 5.698 66.1667 5.926C66.2027 5.878 66.2747 5.794 66.3827 5.674C66.4907 5.542 66.6407 5.41 66.8327 5.278C67.0367 5.146 67.2887 5.032 67.5887 4.936C67.8887 4.84 68.2487 4.792 68.6687 4.792C68.9447 4.792 69.2207 4.816 69.4967 4.864C69.7847 4.912 70.0427 5.002 70.2707 5.134C70.5107 5.254 70.7027 5.422 70.8467 5.638C70.9907 5.854 71.0627 6.136 71.0627 6.484V12.082H72.1247V13H68.2187V5.908L68.1647 5.89C68.1407 5.878 68.1047 5.872 68.0567 5.872C68.0087 5.86 67.9367 5.854 67.8407 5.854C67.6367 5.854 67.4447 5.908 67.2647 6.016C67.0967 6.124 66.9407 6.25 66.7967 6.394C66.6647 6.526 66.5507 6.664 66.4547 6.808C66.3587 6.94 66.2927 7.036 66.2567 7.096V12.082H67.3187V13H63.4127V5.908L63.3587 5.89C63.3347 5.878 63.2987 5.872 63.2507 5.872C63.2027 5.86 63.1307 5.854 63.0347 5.854C62.8307 5.854 62.6387 5.908 62.4587 6.016C62.2907 6.124 62.1347 6.25 61.9907 6.394C61.8587 6.526 61.7447 6.664 61.6487 6.808C61.5527 6.94 61.4867 7.036 61.4507 7.096V12.082H62.5127V13H57.5447V12.082H58.6067V6.142H57.5447V5.242ZM74.2032 5.062H75.2652L78.1092 4.63V12.082H79.1712V13H74.2032V12.082H75.2652V5.962H74.2032V5.062ZM75.2652 2.254C75.2652 1.75 75.3732 1.378 75.5892 1.138C75.8052 0.886 76.1712 0.76 76.6872 0.76C77.2272 0.76 77.5992 0.886 77.8032 1.138C78.0072 1.378 78.1092 1.75 78.1092 2.254C78.1092 2.77 77.9952 3.148 77.7672 3.388C77.5512 3.616 77.1912 3.73 76.6872 3.73C76.1712 3.73 75.8052 3.616 75.5892 3.388C75.3732 3.148 75.2652 2.77 75.2652 2.254ZM88.1023 7.69C87.5983 7.69 87.1903 7.606 86.8783 7.438C86.5783 7.258 86.3383 7.054 86.1583 6.826C85.9783 6.598 85.8523 6.37 85.7803 6.142C85.7083 5.902 85.6663 5.722 85.6543 5.602H85.2223C85.1383 5.602 85.0663 5.608 85.0063 5.62C84.9463 5.632 84.8923 5.644 84.8443 5.656C84.7963 5.68 84.7483 5.698 84.7003 5.71C84.6403 5.998 84.5863 6.31 84.5383 6.646C84.4903 6.934 84.4483 7.282 84.4123 7.69C84.3883 8.086 84.3763 8.518 84.3763 8.986C84.3763 9.454 84.3883 9.886 84.4123 10.282C84.4483 10.678 84.4903 11.02 84.5383 11.308C84.5863 11.644 84.6403 11.95 84.7003 12.226C84.7483 12.25 84.8143 12.268 84.8983 12.28C84.9583 12.292 85.0423 12.304 85.1503 12.316C85.2583 12.316 85.3903 12.316 85.5463 12.316C85.8103 12.316 86.0623 12.292 86.3023 12.244C86.5423 12.196 86.7463 12.112 86.9143 11.992C87.0943 11.86 87.2323 11.686 87.3283 11.47C87.4363 11.254 87.4903 10.978 87.4903 10.642H88.3543C88.3543 11.218 88.2583 11.674 88.0663 12.01C87.8743 12.346 87.6283 12.604 87.3283 12.784C87.0403 12.952 86.7223 13.06 86.3743 13.108C86.0383 13.156 85.7263 13.18 85.4383 13.18C84.7063 13.18 84.0823 13.108 83.5663 12.964C83.0623 12.808 82.6483 12.568 82.3243 12.244C82.0123 11.908 81.7843 11.476 81.6403 10.948C81.4963 10.408 81.4243 9.754 81.4243 8.986C81.4243 8.218 81.4843 7.57 81.6043 7.042C81.7363 6.502 81.9583 6.07 82.2703 5.746C82.5823 5.41 82.9963 5.17 83.5123 5.026C84.0403 4.87 84.7063 4.792 85.5103 4.792C85.7983 4.792 86.0923 4.798 86.3923 4.81C86.7043 4.822 86.9863 4.84 87.2383 4.864C87.5383 4.888 87.8263 4.906 88.1023 4.918V7.69ZM26.3734 16.416C26.9494 16.416 27.4474 16.494 27.8674 16.65C28.2874 16.794 28.6294 16.998 28.8934 17.262C29.1694 17.526 29.3734 17.838 29.5054 18.198C29.6374 18.558 29.7034 18.942 29.7034 19.35C29.7034 20.082 29.5234 20.658 29.1634 21.078C28.8154 21.498 28.2814 21.858 27.5614 22.158C27.1774 22.326 26.8054 22.494 26.4454 22.662C26.0854 22.83 25.7494 23.052 25.4374 23.328C25.3054 23.448 25.1854 23.562 25.0774 23.67C24.9694 23.778 24.8734 23.88 24.7894 23.976C24.6934 24.084 24.6094 24.18 24.5374 24.264H28.9654V23.058H29.9014C29.9254 23.19 29.9554 23.346 29.9914 23.526C30.0154 23.682 30.0394 23.868 30.0634 24.084C30.0874 24.288 30.0994 24.516 30.0994 24.768C30.0994 25.488 29.9434 26.04 29.6314 26.424C29.3314 26.808 28.7794 27 27.9754 27H22.6834C22.7434 25.992 22.9414 25.146 23.2774 24.462C23.6254 23.778 24.1534 23.172 24.8614 22.644C25.0414 22.512 25.2154 22.392 25.3834 22.284C25.5634 22.164 25.7194 22.062 25.8514 21.978L26.3014 21.708C26.3374 21.468 26.3794 21.222 26.4274 20.97C26.4514 20.754 26.4754 20.514 26.4994 20.25C26.5354 19.986 26.5534 19.722 26.5534 19.458C26.5534 19.254 26.5354 19.032 26.4994 18.792C26.4754 18.54 26.4454 18.312 26.4094 18.108C26.3614 17.868 26.3194 17.622 26.2834 17.37C25.9954 17.37 25.7014 17.388 25.4014 17.424C25.1134 17.448 24.8494 17.496 24.6094 17.568C24.3694 17.64 24.1714 17.742 24.0154 17.874C23.8594 18.006 23.7814 18.18 23.7814 18.396V18.864H22.7014V18.378C22.7014 17.922 22.8334 17.568 23.0974 17.316C23.3614 17.052 23.6794 16.854 24.0514 16.722C24.4354 16.59 24.8374 16.506 25.2574 16.47C25.6774 16.434 26.0494 16.416 26.3734 16.416ZM36.8776 21.816C36.8776 22.428 36.8956 22.998 36.9316 23.526C36.9796 24.054 37.0336 24.51 37.0936 24.894C37.1536 25.35 37.2316 25.77 37.3276 26.154C37.3996 26.178 37.4776 26.202 37.5616 26.226C37.6336 26.25 37.7176 26.268 37.8136 26.28C37.9216 26.292 38.0296 26.298 38.1376 26.298C38.2456 26.298 38.3476 26.292 38.4436 26.28C38.5516 26.268 38.6416 26.25 38.7136 26.226C38.7976 26.202 38.8756 26.178 38.9476 26.154C39.0316 25.758 39.1096 25.326 39.1816 24.858C39.2416 24.462 39.2956 24.006 39.3436 23.49C39.3916 22.962 39.4156 22.404 39.4156 21.816C39.4156 21.204 39.3916 20.64 39.3436 20.124C39.2956 19.596 39.2416 19.14 39.1816 18.756C39.1096 18.3 39.0316 17.88 38.9476 17.496C38.8756 17.472 38.7976 17.448 38.7136 17.424C38.6416 17.4 38.5516 17.382 38.4436 17.37C38.3476 17.358 38.2456 17.352 38.1376 17.352C38.0296 17.352 37.9216 17.358 37.8136 17.37C37.7176 17.382 37.6336 17.4 37.5616 17.424C37.4776 17.448 37.3996 17.472 37.3276 17.496C37.2316 17.892 37.1536 18.324 37.0936 18.792C37.0336 19.188 36.9796 19.65 36.9316 20.178C36.8956 20.694 36.8776 21.24 36.8776 21.816ZM33.6016 21.834C33.6016 20.862 33.6856 20.04 33.8536 19.368C34.0216 18.684 34.2916 18.126 34.6636 17.694C35.0356 17.262 35.5036 16.95 36.0676 16.758C36.6436 16.554 37.3396 16.452 38.1556 16.452C38.9596 16.452 39.6496 16.554 40.2256 16.758C40.8016 16.95 41.2696 17.262 41.6296 17.694C42.0016 18.126 42.2716 18.684 42.4396 19.368C42.6076 20.04 42.6916 20.862 42.6916 21.834C42.6916 22.794 42.6076 23.616 42.4396 24.3C42.2716 24.972 42.0016 25.524 41.6296 25.956C41.2696 26.388 40.8016 26.706 40.2256 26.91C39.6496 27.102 38.9596 27.198 38.1556 27.198C37.3396 27.198 36.6436 27.102 36.0676 26.91C35.5036 26.706 35.0356 26.388 34.6636 25.956C34.2916 25.524 34.0216 24.972 33.8536 24.3C33.6856 23.616 33.6016 22.794 33.6016 21.834ZM49.45 16.416C50.026 16.416 50.524 16.494 50.944 16.65C51.364 16.794 51.706 16.998 51.97 17.262C52.246 17.526 52.45 17.838 52.582 18.198C52.714 18.558 52.78 18.942 52.78 19.35C52.78 20.082 52.6 20.658 52.24 21.078C51.892 21.498 51.358 21.858 50.638 22.158C50.254 22.326 49.882 22.494 49.522 22.662C49.162 22.83 48.826 23.052 48.514 23.328C48.382 23.448 48.262 23.562 48.154 23.67C48.046 23.778 47.95 23.88 47.866 23.976C47.77 24.084 47.686 24.18 47.614 24.264H52.042V23.058H52.978C53.002 23.19 53.032 23.346 53.068 23.526C53.092 23.682 53.116 23.868 53.14 24.084C53.164 24.288 53.176 24.516 53.176 24.768C53.176 25.488 53.02 26.04 52.708 26.424C52.408 26.808 51.856 27 51.052 27H45.76C45.82 25.992 46.018 25.146 46.354 24.462C46.702 23.778 47.23 23.172 47.938 22.644C48.118 22.512 48.292 22.392 48.46 22.284C48.64 22.164 48.796 22.062 48.928 21.978L49.378 21.708C49.414 21.468 49.456 21.222 49.504 20.97C49.528 20.754 49.552 20.514 49.576 20.25C49.612 19.986 49.63 19.722 49.63 19.458C49.63 19.254 49.612 19.032 49.576 18.792C49.552 18.54 49.522 18.312 49.486 18.108C49.438 17.868 49.396 17.622 49.36 17.37C49.072 17.37 48.778 17.388 48.478 17.424C48.19 17.448 47.926 17.496 47.686 17.568C47.446 17.64 47.248 17.742 47.092 17.874C46.936 18.006 46.858 18.18 46.858 18.396V18.864H45.778V18.378C45.778 17.922 45.91 17.568 46.174 17.316C46.438 17.052 46.756 16.854 47.128 16.722C47.512 16.59 47.914 16.506 48.334 16.47C48.754 16.434 49.126 16.416 49.45 16.416ZM59.9541 21.816C59.9541 22.428 59.9721 22.998 60.0081 23.526C60.0561 24.054 60.1101 24.51 60.1701 24.894C60.2301 25.35 60.3081 25.77 60.4041 26.154C60.4761 26.178 60.5541 26.202 60.6381 26.226C60.7101 26.25 60.7941 26.268 60.8901 26.28C60.9981 26.292 61.1061 26.298 61.2141 26.298C61.3221 26.298 61.4241 26.292 61.5201 26.28C61.6281 26.268 61.7181 26.25 61.7901 26.226C61.8741 26.202 61.9521 26.178 62.0241 26.154C62.1081 25.758 62.1861 25.326 62.2581 24.858C62.3181 24.462 62.3721 24.006 62.4201 23.49C62.4681 22.962 62.4921 22.404 62.4921 21.816C62.4921 21.204 62.4681 20.64 62.4201 20.124C62.3721 19.596 62.3181 19.14 62.2581 18.756C62.1861 18.3 62.1081 17.88 62.0241 17.496C61.9521 17.472 61.8741 17.448 61.7901 17.424C61.7181 17.4 61.6281 17.382 61.5201 17.37C61.4241 17.358 61.3221 17.352 61.2141 17.352C61.1061 17.352 60.9981 17.358 60.8901 17.37C60.7941 17.382 60.7101 17.4 60.6381 17.424C60.5541 17.448 60.4761 17.472 60.4041 17.496C60.3081 17.892 60.2301 18.324 60.1701 18.792C60.1101 19.188 60.0561 19.65 60.0081 20.178C59.9721 20.694 59.9541 21.24 59.9541 21.816ZM56.6781 21.834C56.6781 20.862 56.7621 20.04 56.9301 19.368C57.0981 18.684 57.3681 18.126 57.7401 17.694C58.1121 17.262 58.5801 16.95 59.1441 16.758C59.7201 16.554 60.4161 16.452 61.2321 16.452C62.0361 16.452 62.7261 16.554 63.3021 16.758C63.8781 16.95 64.3461 17.262 64.7061 17.694C65.0781 18.126 65.3481 18.684 65.5161 19.368C65.6841 20.04 65.7681 20.862 65.7681 21.834C65.7681 22.794 65.6841 23.616 65.5161 24.3C65.3481 24.972 65.0781 25.524 64.7061 25.956C64.3461 26.388 63.8781 26.706 63.3021 26.91C62.7261 27.102 62.0361 27.198 61.2321 27.198C60.4161 27.198 59.7201 27.102 59.1441 26.91C58.5801 26.706 58.1121 26.388 57.7401 25.956C57.3681 25.524 57.0981 24.972 56.9301 24.3C56.7621 23.616 56.6781 22.794 56.6781 21.834Z" fill="#040404"/>
</svg>
