<svg width="22" height="20" viewBox="0 0 22 20" fill="none" xmlns="http://www.w3.org/2000/svg">
<g clip-path="url(#clip0)">
<path d="M19.9754 2.51043H2.02456C0.908231 2.51043 0 3.33605 0 4.35219C0 5.36703 0.908231 6.1927 2.02456 6.1927H19.9754C21.0918 6.1927 22 5.36703 22 4.35219C22 3.33605 21.0918 2.51043 19.9754 2.51043Z" fill="#9E9E9E"/>
<path d="M19.9754 8.15887H2.02456C0.908231 8.15887 0 8.9845 0 10.0006C0 11.0155 0.908231 11.8411 2.02456 11.8411H19.9754C21.0918 11.8411 22 11.0155 22 10.0006C22 8.9845 21.0918 8.15887 19.9754 8.15887Z" fill="#9E9E9E"/>
<path d="M19.9754 13.8073H2.02456C0.908231 13.8073 0 14.633 0 15.6491C0 16.6639 0.908231 17.4896 2.02456 17.4896H19.9754C21.0918 17.4896 22 16.6639 22 15.6491C22 14.633 21.0918 13.8073 19.9754 13.8073Z" fill="#9E9E9E"/>
</g>
<defs>
<clipPath id="clip0">
<rect width="22" height="20" fill="white"/>
</clipPath>
</defs>
</svg>
