<svg width="13" height="8" viewBox="0 0 13 8" fill="none" xmlns="http://www.w3.org/2000/svg">
<path d="M12.7922 0.908453L12.3664 0.508514C12.2324 0.383613 12.0541 0.314805 11.8635 0.314805C11.673 0.314805 11.4945 0.383613 11.3605 0.508514L6.50291 5.03945L1.6397 0.503487C1.5059 0.378586 1.32738 0.309875 1.13693 0.309875C0.946471 0.309875 0.767852 0.378586 0.63394 0.503487L0.208002 0.900961C-0.0693339 1.15944 -0.0693339 1.58047 0.208002 1.83895L5.99823 7.25898C6.13203 7.38378 6.31034 7.47171 6.50248 7.47171H6.5047C6.69527 7.47171 6.87357 7.38368 7.00737 7.25898L12.7922 1.85364C12.9262 1.72884 12.9998 1.5575 13 1.37986C13 1.20212 12.9262 1.03316 12.7922 0.908453Z" fill="white"/>
</svg>
