<svg width="96" height="30" viewBox="0 0 96 30" fill="none" xmlns="http://www.w3.org/2000/svg">
<path d="M27.9378 11C27.8045 11.5061 27.1371 12.1767 26.6116 12.0358C26.5573 12.0601 26.4543 11.9773 26.3996 11.9998C26.3845 12.0503 26.3665 12.1007 26.3457 12.1506L26.3455 12.1513L26.3446 12.1539C26.3245 12.2022 26.3016 12.25 26.2763 12.2972C26.2737 12.3017 26.2713 12.3062 26.2687 12.3107C26.2446 12.355 26.2183 12.3986 26.1899 12.4416C26.1862 12.4469 26.1825 12.4523 26.1788 12.4576C26.1509 12.4989 26.1209 12.5395 26.0893 12.5792C26.0828 12.587 26.0763 12.5948 26.0697 12.6025C26.0397 12.6392 26.0081 12.6752 25.975 12.7102C25.9655 12.7199 25.9559 12.7295 25.9461 12.739C25.9143 12.7716 25.881 12.8034 25.8467 12.8343C25.8344 12.8448 25.8221 12.8552 25.8097 12.8655C25.7771 12.8936 25.7435 12.9209 25.7091 12.9473C25.6915 12.9603 25.6738 12.9729 25.6559 12.9854C25.6246 13.008 25.5924 13.03 25.5598 13.0512C25.5386 13.0645 25.5172 13.0774 25.4955 13.09C25.4648 13.1086 25.4335 13.1267 25.4019 13.1439C25.3549 13.1694 25.3069 13.1934 25.2582 13.2157C25.2039 13.2401 25.1488 13.2624 25.093 13.2827C25.0483 13.2986 25.0034 13.3131 24.958 13.3262C24.9448 13.3305 24.9317 13.3346 24.9184 13.3387C24.8638 13.3538 24.8087 13.3669 24.7536 13.3779C24.7492 13.3785 24.745 13.3802 24.7407 13.3808C24.6809 13.3924 24.6211 13.4017 24.5614 13.4084C24.3612 13.4309 24.1734 13.4389 24 13.4245C24.0506 13.5726 24.0959 13.7251 24.135 13.8824C24.7003 14.082 25.4605 14.0454 26.3139 13.6338C26.3538 13.6169 26.3931 13.5991 26.4317 13.5807C27.5955 12.8302 28.205 11.7983 27.9377 11.0001L27.9378 11Z" fill="white" stroke="#354D8A" stroke-width="0.7"/>
<path d="M17.0479 11.9068C16.0016 13.9935 13.6281 15.3436 11.0041 15.3447C10.4861 15.3447 9.9821 15.3229 9.4985 15.1948C9.49998 16.107 9.47171 16.9485 9.57985 17.7267C10.2907 22.8411 13.2885 25.2193 17.0688 26.9366C21.0771 25.2126 23.9766 22.8754 24.5889 17.7073C24.6793 16.9442 24.6423 16.0677 24.6331 15.1766C24.1342 15.3331 23.6132 15.3374 23.0772 15.3374C20.4598 15.3344 18.0929 13.9876 17.0479 11.9068Z" fill="#354D8A" stroke="#354D8A" stroke-width="0.5"/>
<path d="M15.8643 16.2251V18.3529H13.4104V20.4471H15.8643V22.575H18.2793V20.4471H20.7332V18.3529H18.2793V16.2251H15.8643Z" fill="white"/>
<path d="M16.6025 7.10211C14.8162 7.10211 13.3783 8.07534 13.3783 9.28429V9.9414C13.3783 9.95881 13.3795 9.97607 13.3801 9.99339C15.6252 9.036 18.4281 9.03519 20.6732 9.98997C20.6738 9.9738 20.6747 9.95768 20.6747 9.94141V9.2843C20.6747 8.07535 19.2368 7.10212 17.4505 7.10212L16.6025 7.10211Z" fill="white" stroke="#354D8A" stroke-width="0.7"/>
<path d="M22.8094 23.5683C22.5539 23.5644 22.3135 23.585 22.0898 23.6261C21.8857 23.8518 21.6702 24.0662 21.4459 24.272C21.7169 24.2416 22.0152 24.2495 22.3367 24.2809C22.4195 24.289 22.5024 24.3002 22.5852 24.3142C22.5912 24.3152 22.5971 24.3167 22.603 24.3176C22.6794 24.3308 22.7559 24.3467 22.8316 24.3648C22.8499 24.3697 22.8681 24.3747 22.8864 24.3799C22.9492 24.3957 23.0116 24.4131 23.0735 24.4323C23.1509 24.4567 23.2274 24.4837 23.3026 24.5132C23.3701 24.54 23.4366 24.5688 23.5017 24.5995C23.5455 24.6203 23.5888 24.6419 23.6314 24.6644C23.6615 24.6796 23.6912 24.6952 23.7207 24.7112C23.7659 24.7367 23.8103 24.7632 23.8537 24.7905C23.8786 24.8055 23.9031 24.8207 23.9274 24.8363C23.9752 24.8681 24.0217 24.901 24.0669 24.9349C24.0842 24.9473 24.1013 24.9598 24.1182 24.9725C24.1657 25.0097 24.2118 25.048 24.256 25.0873C24.2696 25.0988 24.2829 25.1103 24.2961 25.122C24.3419 25.1642 24.3856 25.2073 24.4272 25.2515C24.4365 25.2608 24.4456 25.2702 24.4546 25.2797C24.4984 25.3275 24.5397 25.3764 24.5783 25.4261C24.5836 25.4325 24.5888 25.439 24.594 25.4454C24.6333 25.4972 24.6697 25.5499 24.7031 25.6032C24.7067 25.6086 24.71 25.6139 24.7136 25.6193C24.7487 25.6762 24.7803 25.7339 24.8083 25.792L24.8097 25.7949L24.81 25.7959C24.8388 25.8561 24.8637 25.9167 24.8846 25.9775C24.9605 26.0047 25.1031 25.9049 25.1784 25.9342C25.9068 25.7645 26.8319 26.5722 27.0166 27.1818C27.3871 26.2204 26.5422 24.9775 24.9293 24.0735L24.9292 24.0733C24.8756 24.0512 24.8211 24.0298 24.7656 24.0095C24.0572 23.7125 23.395 23.5773 22.8093 23.5682L22.8094 23.5683Z" fill="white" stroke="#354D8A" stroke-width="0.7"/>
<path d="M11.3347 23.5683C10.749 23.5773 10.0868 23.7126 9.37842 24.0095C9.32288 24.0298 9.26846 24.0513 9.21484 24.0735V24.0734C7.60185 24.9774 6.75686 26.2204 7.12738 27.1818C7.31213 26.5722 8.23717 25.7645 8.96558 25.9342C9.04087 25.9049 9.18355 26.0047 9.25942 25.9775C9.28033 25.9167 9.30522 25.8561 9.33398 25.796L9.33428 25.7949L9.33575 25.792C9.36372 25.7339 9.3955 25.6762 9.43055 25.6193C9.43411 25.6139 9.43747 25.6086 9.44106 25.6032C9.47444 25.5499 9.51084 25.4972 9.55017 25.4454C9.55529 25.439 9.56047 25.4326 9.56569 25.4261C9.60431 25.3764 9.64573 25.3275 9.68955 25.2797C9.69856 25.2703 9.70757 25.2608 9.71679 25.2516C9.75844 25.2073 9.80229 25.1642 9.84811 25.122C9.8613 25.1103 9.87449 25.0988 9.88798 25.0873C9.93217 25.048 9.97828 25.0097 10.0258 24.9725C10.0428 24.9598 10.06 24.9473 10.0773 24.9349C10.1225 24.901 10.1689 24.8681 10.2167 24.8363C10.241 24.8208 10.2654 24.8055 10.2903 24.7905C10.3337 24.7632 10.3783 24.7367 10.4235 24.7112C10.453 24.6952 10.4826 24.6796 10.5128 24.6644C10.5553 24.6419 10.5985 24.6203 10.6423 24.5995C10.7075 24.5688 10.7741 24.54 10.8416 24.5132C10.9168 24.4837 10.9931 24.4567 11.0705 24.4323C11.1324 24.4132 11.1948 24.3957 11.2577 24.3799C11.2759 24.3747 11.2942 24.3697 11.3126 24.3649C11.3883 24.3467 11.4646 24.3308 11.541 24.3176C11.547 24.3166 11.5528 24.3153 11.5588 24.3142C11.6416 24.3002 11.7246 24.289 11.8073 24.2809C12.1949 24.243 12.549 24.2391 12.8617 24.2956C12.6413 24.0937 12.4291 23.883 12.2261 23.6621C11.9555 23.5967 11.6567 23.5633 11.3347 23.5683L11.3347 23.5683Z" fill="white" stroke="#354D8A" stroke-width="0.7"/>
<path opacity="0.91" d="M28.7689 17.9693C27.8079 18.2505 26.7505 18.3626 25.6916 18.2957C25.2975 18.2702 24.9088 18.2193 24.5296 18.1461C24.4873 18.4312 24.4378 18.7074 24.3811 18.975C24.794 18.9455 25.2138 18.9431 25.6347 18.9693C26.6935 19.0372 27.7207 19.282 28.624 19.6817C29.1717 19.181 30.067 18.9134 31 18.972C30.0671 18.9121 29.2264 18.534 28.7689 17.9693V17.9693Z" fill="white" stroke="#354D8A" stroke-width="0.7" stroke-linecap="round"/>
<path opacity="0.91" d="M5.23126 17.9693C4.77376 18.534 3.93287 18.9121 3 18.972C3.93298 18.9134 4.82847 19.181 5.37612 19.6817C6.27951 19.282 7.30663 19.0372 8.36548 18.9693C8.85301 18.939 9.33878 18.9474 9.81429 18.9916C9.74765 18.7081 9.689 18.4151 9.63869 18.1122C9.20659 18.2041 8.76106 18.2664 8.30842 18.2957C7.24949 18.3626 6.19225 18.2505 5.23126 17.9693Z" fill="white" stroke="#354D8A" stroke-width="0.7" stroke-linecap="round"/>
<path d="M4.65831 10.618C4.30176 11.5432 5.11479 12.7394 6.66694 13.6093V13.6091C6.71854 13.6305 6.771 13.6512 6.82444 13.6708C7.95724 14.1456 8.96717 14.19 9.72006 13.9622C9.7726 13.779 9.83351 13.6013 9.9016 13.4288C9.67277 13.4445 9.4254 13.4353 9.16176 13.4095C9.08213 13.4017 9.00237 13.3911 8.9227 13.3776C8.91696 13.3768 8.91127 13.375 8.9055 13.3742C8.83199 13.3614 8.75849 13.3463 8.68562 13.3288C8.66795 13.324 8.6504 13.3192 8.63281 13.3143C8.57231 13.299 8.51239 13.2824 8.4528 13.264C8.37836 13.2404 8.3048 13.2145 8.23245 13.1861C8.16747 13.1603 8.10344 13.1325 8.04072 13.103C7.99856 13.083 7.95689 13.0621 7.91594 13.0405C7.88694 13.0258 7.8585 13.0109 7.83012 12.9955C7.78664 12.9709 7.74376 12.9455 7.70199 12.9192C7.67806 12.9048 7.65447 12.8901 7.63108 12.8751C7.58509 12.8445 7.54036 12.8128 7.49687 12.7803C7.48023 12.7683 7.46385 12.7563 7.44757 12.7441C7.40179 12.7083 7.3574 12.6714 7.31488 12.6337C7.30189 12.6226 7.28906 12.6115 7.27638 12.6003C7.23228 12.5597 7.19015 12.518 7.15008 12.4755C7.14119 12.4665 7.13257 12.4576 7.1239 12.4485C7.08174 12.4025 7.04177 12.3553 7.0046 12.3075C6.99959 12.3013 6.99462 12.2952 6.98969 12.289C6.95185 12.2392 6.91681 12.1885 6.88469 12.1371C6.88124 12.1319 6.87808 12.1267 6.87465 12.1216C6.84093 12.0668 6.81043 12.0113 6.78351 11.9554L6.78197 11.9525L6.78165 11.9518C6.75397 11.8939 6.72995 11.8356 6.70983 11.7771C6.63681 11.7509 6.49954 11.8468 6.4271 11.8186C5.72615 11.9819 4.83607 11.2046 4.65828 10.618L4.65831 10.618Z" fill="white" stroke="#354D8A" stroke-width="0.7"/>
<path d="M14.3737 8.30766C12.4701 7.22633 12.4701 7.19356 12.4701 7.19356V4.1134" stroke="#354D8A" stroke-width="0.7"/>
<path d="M19.802 8.30766C21.7056 7.22633 21.7056 7.19356 21.7056 7.19356V4.1134" stroke="#354D8A" stroke-width="0.7"/>
<path d="M15.0752 6.33975C15.0642 6.29303 15.0058 6.01156 14.9454 5.71427C14.8851 5.41698 14.8266 5.14115 14.8155 5.10133C14.7964 5.03293 14.8041 5.03477 14.955 5.13464C15.1621 5.27173 15.3955 5.32839 15.7486 5.32727C15.9856 5.3265 16.0637 5.31274 16.2124 5.24541C16.6064 5.06703 16.8821 4.7031 17.0507 4.139L17.0922 4L17.1583 4.225C17.3052 4.72552 17.6981 5.16473 18.0891 5.2654C18.4641 5.36199 18.9507 5.28907 19.2301 5.09437L19.3719 4.99553L19.3512 5.08463C19.3399 5.13364 19.2817 5.42392 19.222 5.72971C19.1623 6.0355 19.1055 6.31696 19.0957 6.35519L19.0778 6.42469H17.0866H15.0953L15.0752 6.33975Z" fill="black" stroke="black" stroke-width="0.236831" stroke-linecap="round" stroke-linejoin="bevel"/>
<path d="M9.52197 15.1946C10.0056 15.2926 10.5095 15.3444 11.0275 15.3444C13.6516 15.3431 16.0251 13.9931 17.0714 11.9065C18.1164 13.9873 20.4833 15.334 23.1006 15.337C23.6367 15.337 24.1577 15.2811 24.6566 15.1763C24.0164 7.30309 10.1574 7.30309 9.52197 15.1946V15.1946Z" fill="white" stroke="#354D8A" stroke-width="0.5"/>
<path d="M24.3136 15.2315C24.3421 14.2471 24.1748 13.0403 23.8759 12.6331" stroke="black" stroke-width="0.426955"/>
<path d="M23.5976 15.4361C23.8301 14.0645 23.6495 12.7257 22.7713 11.288" stroke="black" stroke-width="0.5"/>
<path d="M22.7082 15.2856C23.0487 14.1452 22.8639 12.42 21.7747 10.4845" stroke="black" stroke-width="0.53943"/>
<path d="M21.8252 15.283C22.2329 13.7506 21.6641 11.647 20.8917 10.0484" stroke="black" stroke-width="0.563258"/>
<path d="M20.9376 15.083C21.1926 13.5209 20.8556 11.7021 20.0036 9.66003V9.79315" stroke="black" stroke-width="0.559166"/>
<path d="M20.0539 14.8128C20.1704 13.1235 19.8555 11.3782 19.1204 9.57817V9.44305" stroke="black" stroke-width="0.563258"/>
<path d="M19.17 14.3905C19.2947 12.7562 18.8768 11.0434 18.2383 9.29883" stroke="black" stroke-width="0.555118"/>
<path d="M18.2868 13.7764C18.3496 12.295 17.8792 10.7804 17.3553 9.26263" stroke="black" stroke-width="0.522624"/>
<path d="M9.868 15.2315C9.8395 14.2471 10.0069 13.0403 10.3058 12.6331" stroke="black" stroke-width="0.426955"/>
<path d="M10.5849 15.4361C10.3524 14.0645 10.533 12.7257 11.4112 11.288" stroke="black" stroke-width="0.5"/>
<path d="M11.4742 15.2856C11.1337 14.1452 11.3185 12.42 12.4076 10.4845" stroke="black" stroke-width="0.53943"/>
<path d="M12.3573 15.283C11.9496 13.7506 12.5184 11.647 13.2908 10.0484" stroke="black" stroke-width="0.563258"/>
<path d="M13.2438 15.083C12.9888 13.5209 13.3258 11.7021 14.1778 9.66003V9.79315" stroke="black" stroke-width="0.559166"/>
<path d="M14.1283 14.8129C14.0117 13.1237 14.3266 11.3783 15.0617 9.57829V9.44318" stroke="black" stroke-width="0.563258"/>
<path d="M15.0124 14.3906C14.8876 12.7563 15.3056 11.0436 15.9441 9.29895" stroke="black" stroke-width="0.555118"/>
<path d="M15.896 13.7764C15.8332 12.295 16.3037 10.7804 16.8275 9.26263" stroke="black" stroke-width="0.522624"/>
<path d="M17.0476 11.9052C17.0476 9.28013 17.0651 9.29266 17.0651 9.29266" stroke="black" stroke-width="0.5"/>
<g opacity="0.91">
<path opacity="0.91" d="M15.1474 8.85366C15.3913 8.85366 15.5891 8.68218 15.5891 8.47065C15.5891 8.25912 15.3913 8.08765 15.1474 8.08765C14.9034 8.08765 14.7057 8.25912 14.7057 8.47065C14.7057 8.68218 14.9034 8.85366 15.1474 8.85366Z" fill="#D40000"/>
<path opacity="0.91" d="M18.9975 8.85366C19.2414 8.85366 19.4392 8.68218 19.4392 8.47065C19.4392 8.25912 19.2414 8.08765 18.9975 8.08765C18.7535 8.08765 18.5558 8.25912 18.5558 8.47065C18.5558 8.68218 18.7535 8.85366 18.9975 8.85366Z" fill="#D40000"/>
</g>
<path d="M17.0479 11.9068C16.0016 13.9935 13.6281 15.3436 11.0041 15.3447C10.4861 15.3447 9.9821 15.3229 9.4985 15.1948C9.49998 16.107 9.47171 16.9485 9.57985 17.7267C10.2907 22.8411 13.2885 25.2193 17.0688 26.9366C21.0771 25.2126 23.9766 22.8754 24.5889 17.7073C24.6793 16.9442 24.6423 16.0677 24.6331 15.1766C24.1342 15.3331 23.6132 15.3374 23.0772 15.3374C20.4598 15.3344 18.0929 13.9876 17.0479 11.9068Z" fill="#354D8A" stroke="#354D8A" stroke-width="0.5"/>
<path d="M15.9167 21.518V20.4471H14.6817H13.4467V19.4227V18.3984H14.6817H15.9167V17.3275V16.2565H17.098H18.2794V17.3275V18.3984H19.5144H20.7494V19.4227V20.4471H19.5144H18.2794V21.518V22.5889H17.098H15.9167V21.518Z" fill="#D40000" stroke="#D30000" stroke-width="0.344606" stroke-linecap="round" stroke-linejoin="bevel"/>
<path d="M48.059 27.754V16.414H49.137L52.357 23.946V16.414H53.673V27.754H52.665L49.403 20.012V27.754H48.059ZM54.7555 27.754V16.414H59.1515V17.59H56.3375V21.342H58.6195V22.462H56.3375V26.62H59.1795V27.754H54.7555ZM61.2267 27.754L59.3787 16.414H60.6947L61.9127 24.562L63.4387 16.456H64.5587L66.0987 24.604L67.2887 16.414H68.5767L66.7567 27.754H65.6087L64.0267 19.354L62.4307 27.754H61.2267ZM71.9299 27.88C71.2766 27.88 70.7306 27.74 70.2919 27.46C69.8626 27.18 69.5359 26.7926 69.3119 26.298C69.0879 25.8033 68.9572 25.2293 68.9199 24.576L70.3199 24.198C70.3479 24.5993 70.4086 24.9866 70.5019 25.36C70.6046 25.7333 70.7679 26.0413 70.9919 26.284C71.2159 26.5173 71.5286 26.634 71.9299 26.634C72.3406 26.634 72.6486 26.522 72.8539 26.298C73.0686 26.0646 73.1759 25.7333 73.1759 25.304C73.1759 24.7906 73.0592 24.38 72.8259 24.072C72.5926 23.7546 72.2986 23.4373 71.9439 23.12L70.0399 21.44C69.6666 21.1133 69.3912 20.7586 69.2139 20.376C69.0366 19.984 68.9479 19.5033 68.9479 18.934C68.9479 18.1033 69.1859 17.4593 69.6619 17.002C70.1379 16.5446 70.7866 16.316 71.6079 16.316C72.0559 16.316 72.4479 16.3766 72.7839 16.498C73.1292 16.61 73.4139 16.7873 73.6379 17.03C73.8712 17.2726 74.0532 17.5806 74.1839 17.954C74.3239 18.318 74.4172 18.7473 74.4639 19.242L73.1199 19.606C73.0919 19.2326 73.0359 18.892 72.9519 18.584C72.8679 18.2666 72.7186 18.0146 72.5039 17.828C72.2986 17.632 71.9999 17.534 71.6079 17.534C71.2159 17.534 70.9079 17.6413 70.6839 17.856C70.4692 18.0613 70.3619 18.3693 70.3619 18.78C70.3619 19.1253 70.4179 19.41 70.5299 19.634C70.6512 19.858 70.8426 20.0866 71.1039 20.32L73.0219 22C73.4512 22.3733 73.8292 22.8213 74.1559 23.344C74.4826 23.8573 74.6459 24.4686 74.6459 25.178C74.6459 25.738 74.5292 26.2233 74.2959 26.634C74.0626 27.0353 73.7406 27.3433 73.3299 27.558C72.9286 27.7726 72.4619 27.88 71.9299 27.88Z" fill="black"/>
<path d="M36.4133 12.4382C36.124 12.4382 35.8627 12.3682 35.6293 12.2282C35.4053 12.0788 35.2093 11.9155 35.0413 11.7382V12.3262H33.5433V0.986171H35.0413V4.87817C35.2187 4.67284 35.4287 4.4955 35.6713 4.34617C35.9233 4.19684 36.222 4.12217 36.5673 4.12217C36.9873 4.12217 37.3187 4.23417 37.5613 4.45817C37.8133 4.67284 38 4.94817 38.1213 5.28417C38.2427 5.61084 38.322 5.94684 38.3593 6.29217C38.3967 6.62817 38.4153 6.91751 38.4153 7.16017V9.12017C38.4153 9.68951 38.3593 10.2308 38.2473 10.7442C38.1353 11.2482 37.9347 11.6588 37.6453 11.9762C37.356 12.2842 36.9453 12.4382 36.4133 12.4382ZM36.1053 11.2622C36.3667 11.2622 36.5533 11.1688 36.6653 10.9822C36.7773 10.7862 36.8473 10.5248 36.8753 10.1982C36.9033 9.87151 36.9173 9.51217 36.9173 9.12017V7.16017C36.9173 6.82417 36.8987 6.51617 36.8613 6.23617C36.824 5.94684 36.7447 5.71817 36.6233 5.55017C36.502 5.38217 36.3107 5.29817 36.0493 5.29817C35.8533 5.29817 35.6667 5.34017 35.4893 5.42417C35.3213 5.50817 35.172 5.6015 35.0413 5.70417V10.8982C35.172 11.0008 35.326 11.0895 35.5033 11.1642C35.69 11.2295 35.8907 11.2622 36.1053 11.2622ZM40.939 12.4382C40.6217 12.4382 40.3744 12.3542 40.197 12.1862C40.0197 12.0182 39.8937 11.8082 39.819 11.5562C39.7537 11.3042 39.721 11.0475 39.721 10.7862V4.23417H41.219V10.3382C41.219 10.6275 41.261 10.8562 41.345 11.0242C41.429 11.1828 41.6017 11.2622 41.863 11.2622C42.031 11.2622 42.2037 11.2155 42.381 11.1222C42.5677 11.0195 42.745 10.8982 42.913 10.7582V4.23417H44.411V12.3262H42.913V11.5282C42.6517 11.7802 42.353 11.9948 42.017 12.1722C41.6904 12.3495 41.331 12.4382 40.939 12.4382ZM48.0431 14.8322C47.5577 14.8322 47.1191 14.7808 46.7271 14.6782C46.3351 14.5755 46.0271 14.4122 45.8031 14.1882C45.5791 13.9642 45.4671 13.6702 45.4671 13.3062C45.4671 13.0448 45.5231 12.8162 45.6351 12.6202C45.7471 12.4242 45.8917 12.2562 46.0691 12.1162C46.2464 11.9668 46.4331 11.8455 46.6291 11.7522C46.3677 11.6775 46.1717 11.5608 46.0411 11.4022C45.9104 11.2342 45.8451 11.0615 45.8451 10.8842C45.8451 10.5855 45.9244 10.3288 46.0831 10.1142C46.2417 9.89951 46.4611 9.66617 46.7411 9.41417C46.4331 9.18084 46.1997 8.88217 46.0411 8.51817C45.8824 8.15417 45.8031 7.65017 45.8031 7.00617C45.8031 6.3715 45.8871 5.84417 46.0551 5.42417C46.2324 4.99484 46.4891 4.67284 46.8251 4.45817C47.1704 4.23417 47.5904 4.12217 48.0851 4.12217C48.5237 4.12217 48.8737 4.19684 49.1351 4.34617C49.4057 4.4955 49.6111 4.7195 49.7511 5.01817C49.7977 4.9435 49.9237 4.8175 50.1291 4.64017C50.3344 4.45351 50.5724 4.29951 50.8431 4.17817L51.0671 4.08017L51.4451 5.04617C51.3237 5.06484 51.1604 5.1115 50.9551 5.18617C50.7591 5.2515 50.5724 5.3215 50.3951 5.39617C50.2271 5.4615 50.1197 5.5175 50.0731 5.56417C50.1384 5.72284 50.1944 5.9515 50.2411 6.25017C50.2971 6.54884 50.3251 6.81484 50.3251 7.04817C50.3251 7.59884 50.2551 8.08417 50.1151 8.50417C49.9751 8.92417 49.7417 9.25551 49.4151 9.49817C49.0977 9.73151 48.6544 9.84817 48.0851 9.84817C47.9637 9.84817 47.8331 9.83884 47.6931 9.82017C47.5531 9.80151 47.4271 9.77817 47.3151 9.75017C47.2591 9.83417 47.1984 9.93217 47.1331 10.0442C47.0771 10.1562 47.0491 10.2635 47.0491 10.3662C47.0491 10.4688 47.1004 10.5528 47.2031 10.6182C47.3151 10.6742 47.4877 10.7115 47.7211 10.7302L48.9811 10.8422C49.6157 10.8982 50.0871 11.0895 50.3951 11.4162C50.7031 11.7428 50.8571 12.2095 50.8571 12.8162C50.8571 13.2548 50.7544 13.6235 50.5491 13.9222C50.3437 14.2302 50.0311 14.4588 49.6111 14.6082C49.2004 14.7575 48.6777 14.8322 48.0431 14.8322ZM48.1551 13.6562C48.6871 13.6562 49.0791 13.5908 49.3311 13.4602C49.5831 13.3388 49.7091 13.1382 49.7091 12.8582C49.7091 12.6902 49.6764 12.5502 49.6111 12.4382C49.5551 12.3262 49.4477 12.2375 49.2891 12.1722C49.1304 12.1068 48.9017 12.0602 48.6031 12.0322L47.3291 11.9202C47.2264 12.0228 47.1284 12.1255 47.0351 12.2282C46.9417 12.3308 46.8671 12.4382 46.8111 12.5502C46.7551 12.6715 46.7271 12.7975 46.7271 12.9282C46.7271 13.1708 46.8297 13.3528 47.0351 13.4742C47.2404 13.5955 47.6137 13.6562 48.1551 13.6562ZM48.0851 8.79817C48.2997 8.79817 48.4677 8.76084 48.5891 8.68617C48.7197 8.60217 48.8177 8.4855 48.8831 8.33617C48.9484 8.1775 48.9904 7.98617 49.0091 7.76217C49.0371 7.53817 49.0511 7.28617 49.0511 7.00617C49.0511 6.72617 49.0371 6.47417 49.0091 6.25017C48.9904 6.01684 48.9484 5.82084 48.8831 5.66217C48.8271 5.49417 48.7337 5.36817 48.6031 5.28417C48.4817 5.20017 48.3137 5.15817 48.0991 5.15817C47.8937 5.15817 47.7211 5.20017 47.5811 5.28417C47.4504 5.36817 47.3524 5.4895 47.2871 5.64817C47.2217 5.7975 47.1751 5.98884 47.1471 6.22217C47.1191 6.44617 47.1051 6.7075 47.1051 7.00617C47.1051 7.25817 47.1144 7.49617 47.1331 7.72017C47.1611 7.93484 47.2077 8.1215 47.2731 8.28017C47.3477 8.43884 47.4504 8.56484 47.5811 8.65817C47.7117 8.75151 47.8797 8.79817 48.0851 8.79817ZM51.957 8.67217V7.53817H55.079V8.67217H51.957ZM58.4011 12.4382C57.7198 12.4382 57.2111 12.1908 56.8751 11.6962C56.5391 11.1922 56.3711 10.3428 56.3711 9.14817V7.58017C56.3711 6.96417 56.4224 6.39484 56.5251 5.87217C56.6278 5.34017 56.8191 4.9155 57.0991 4.59817C57.3884 4.28084 57.8084 4.12217 58.3591 4.12217C58.6298 4.12217 58.8771 4.18284 59.1011 4.30417C59.3251 4.42551 59.5258 4.57484 59.7031 4.75217V0.986171H61.2011V12.3262H59.7031V11.8082C59.5258 11.9948 59.3298 12.1488 59.1151 12.2702C58.9098 12.3822 58.6718 12.4382 58.4011 12.4382ZM58.7791 11.2622C58.9191 11.2622 59.0684 11.2388 59.2271 11.1922C59.3858 11.1362 59.5444 11.0568 59.7031 10.9542V5.64817C59.5724 5.55484 59.4278 5.4755 59.2691 5.41017C59.1104 5.3355 58.9378 5.29817 58.7511 5.29817C58.4058 5.29817 58.1724 5.46617 58.0511 5.80217C57.9298 6.12884 57.8691 6.5255 57.8691 6.99217V9.27417C57.8691 9.64751 57.8878 9.98817 57.9251 10.2962C57.9718 10.5948 58.0604 10.8328 58.1911 11.0102C58.3218 11.1782 58.5178 11.2622 58.7791 11.2622ZM64.9585 12.4382C64.3238 12.4382 63.8338 12.3168 63.4885 12.0742C63.1431 11.8222 62.9005 11.4582 62.7605 10.9822C62.6298 10.4968 62.5645 9.90417 62.5645 9.20417V7.35617C62.5645 6.63751 62.6345 6.04017 62.7745 5.56417C62.9145 5.08817 63.1571 4.72884 63.5025 4.48617C63.8571 4.2435 64.3425 4.12217 64.9585 4.12217C65.6398 4.12217 66.1391 4.26217 66.4565 4.54217C66.7831 4.82217 66.9978 5.22817 67.1005 5.76017C67.2031 6.28284 67.2545 6.91284 67.2545 7.65017V8.30817H64.0625V9.93217C64.0625 10.2588 64.0905 10.5248 64.1465 10.7302C64.2118 10.9355 64.3098 11.0895 64.4405 11.1922C64.5805 11.2855 64.7578 11.3322 64.9725 11.3322C65.1965 11.3322 65.3645 11.2808 65.4765 11.1782C65.5978 11.0662 65.6771 10.9122 65.7145 10.7162C65.7611 10.5108 65.7845 10.2728 65.7845 10.0022V9.51217H67.2405V9.82017C67.2405 10.6322 67.0678 11.2715 66.7225 11.7382C66.3771 12.2048 65.7891 12.4382 64.9585 12.4382ZM64.0625 7.49617H65.7845V6.76817C65.7845 6.43217 65.7658 6.15217 65.7285 5.92817C65.6911 5.69484 65.6118 5.52217 65.4905 5.41017C65.3785 5.28884 65.1965 5.22817 64.9445 5.22817C64.7018 5.22817 64.5151 5.28417 64.3845 5.39617C64.2631 5.50817 64.1791 5.6995 64.1325 5.97017C64.0858 6.2315 64.0625 6.5955 64.0625 7.06217V7.49617ZM70.067 12.4382C69.7497 12.4382 69.4697 12.3495 69.227 12.1722C68.9844 11.9855 68.793 11.7522 68.653 11.4722C68.513 11.1828 68.443 10.8795 68.443 10.5622C68.443 10.0582 68.527 9.63351 68.695 9.28817C68.863 8.94284 69.0917 8.65351 69.381 8.42017C69.6797 8.17751 70.0204 7.96751 70.403 7.79017C70.795 7.61284 71.2057 7.44017 71.635 7.27217V6.69817C71.635 6.37151 71.6164 6.10084 71.579 5.88617C71.5417 5.67151 71.4624 5.51284 71.341 5.41017C71.229 5.29817 71.0564 5.24217 70.823 5.24217C70.6177 5.24217 70.4497 5.28884 70.319 5.38217C70.1977 5.4755 70.109 5.61084 70.053 5.78817C69.997 5.95617 69.969 6.15684 69.969 6.39017V6.79617L68.485 6.74017C68.5037 5.84417 68.709 5.18617 69.101 4.76617C69.493 4.33684 70.0997 4.12217 70.921 4.12217C71.7237 4.12217 72.293 4.3415 72.629 4.78017C72.965 5.21884 73.133 5.8535 73.133 6.68417V10.3802C73.133 10.6322 73.1377 10.8748 73.147 11.1082C73.1657 11.3415 73.1844 11.5608 73.203 11.7662C73.231 11.9622 73.2544 12.1488 73.273 12.3262H71.901C71.873 12.1768 71.8357 11.9902 71.789 11.7662C71.7517 11.5328 71.7237 11.3228 71.705 11.1362C71.6117 11.4535 71.4297 11.7522 71.159 12.0322C70.8977 12.3028 70.5337 12.4382 70.067 12.4382ZM70.655 11.1502C70.8044 11.1502 70.9444 11.1082 71.075 11.0242C71.2057 10.9402 71.3224 10.8468 71.425 10.7442C71.5277 10.6322 71.5977 10.5435 71.635 10.4782V8.18217C71.4017 8.31284 71.1824 8.44351 70.977 8.57417C70.7717 8.70484 70.5897 8.84484 70.431 8.99417C70.2817 9.13417 70.1604 9.29751 70.067 9.48417C69.983 9.66151 69.941 9.86684 69.941 10.1002C69.941 10.4268 70.0017 10.6835 70.123 10.8702C70.2444 11.0568 70.4217 11.1502 70.655 11.1502ZM74.712 12.3262V0.986171H76.21V12.3262H74.712ZM80.0112 12.4382C79.3765 12.4382 78.8865 12.3168 78.5412 12.0742C78.1958 11.8222 77.9532 11.4582 77.8132 10.9822C77.6825 10.4968 77.6172 9.90417 77.6172 9.20417V7.35617C77.6172 6.63751 77.6872 6.04017 77.8272 5.56417C77.9672 5.08817 78.2098 4.72884 78.5552 4.48617C78.9098 4.2435 79.3952 4.12217 80.0112 4.12217C80.6925 4.12217 81.1918 4.26217 81.5092 4.54217C81.8358 4.82217 82.0505 5.22817 82.1532 5.76017C82.2558 6.28284 82.3072 6.91284 82.3072 7.65017V8.30817H79.1152V9.93217C79.1152 10.2588 79.1432 10.5248 79.1992 10.7302C79.2645 10.9355 79.3625 11.0895 79.4932 11.1922C79.6332 11.2855 79.8105 11.3322 80.0252 11.3322C80.2492 11.3322 80.4172 11.2808 80.5292 11.1782C80.6505 11.0662 80.7298 10.9122 80.7672 10.7162C80.8138 10.5108 80.8372 10.2728 80.8372 10.0022V9.51217H82.2932V9.82017C82.2932 10.6322 82.1205 11.2715 81.7752 11.7382C81.4298 12.2048 80.8418 12.4382 80.0112 12.4382ZM79.1152 7.49617H80.8372V6.76817C80.8372 6.43217 80.8185 6.15217 80.7812 5.92817C80.7438 5.69484 80.6645 5.52217 80.5432 5.41017C80.4312 5.28884 80.2492 5.22817 79.9972 5.22817C79.7545 5.22817 79.5678 5.28417 79.4372 5.39617C79.3158 5.50817 79.2318 5.6995 79.1852 5.97017C79.1385 6.2315 79.1152 6.5955 79.1152 7.06217V7.49617ZM83.7058 12.3262V4.23417H85.2038V5.38217C85.5024 4.8875 85.8011 4.55617 86.0998 4.38817C86.3984 4.22017 86.6971 4.13617 86.9958 4.13617C87.0331 4.13617 87.0658 4.13617 87.0938 4.13617C87.1311 4.13617 87.1778 4.14084 87.2338 4.15017V5.80217C87.1218 5.7555 86.9911 5.71817 86.8418 5.69017C86.7018 5.65284 86.5571 5.63417 86.4078 5.63417C86.1744 5.63417 85.9598 5.69017 85.7638 5.80217C85.5771 5.90484 85.3904 6.11017 85.2038 6.41817V12.3262H83.7058Z" fill="black"/>
</svg>
