<svg width="90" height="30" viewBox="0 0 90 30" fill="none" xmlns="http://www.w3.org/2000/svg">
<path d="M25.9378 11C25.8045 11.5061 25.1371 12.1767 24.6116 12.0358C24.5573 12.0601 24.4543 11.9773 24.3996 11.9998C24.3845 12.0503 24.3665 12.1007 24.3457 12.1506L24.3455 12.1513L24.3446 12.1539C24.3245 12.2022 24.3016 12.25 24.2763 12.2972C24.2737 12.3017 24.2713 12.3062 24.2687 12.3107C24.2446 12.355 24.2183 12.3986 24.1899 12.4416C24.1862 12.4469 24.1825 12.4523 24.1788 12.4576C24.1509 12.4989 24.1209 12.5395 24.0893 12.5792C24.0828 12.587 24.0763 12.5948 24.0697 12.6025C24.0397 12.6392 24.0081 12.6752 23.975 12.7102C23.9655 12.7199 23.9559 12.7295 23.9461 12.739C23.9143 12.7716 23.881 12.8034 23.8467 12.8343C23.8344 12.8448 23.8221 12.8552 23.8097 12.8655C23.7771 12.8936 23.7435 12.9209 23.7091 12.9473C23.6915 12.9603 23.6738 12.9729 23.6559 12.9854C23.6246 13.008 23.5924 13.03 23.5598 13.0512C23.5386 13.0645 23.5172 13.0774 23.4955 13.09C23.4648 13.1086 23.4335 13.1267 23.4019 13.1439C23.3549 13.1694 23.3069 13.1934 23.2582 13.2157C23.2039 13.2401 23.1488 13.2624 23.093 13.2827C23.0483 13.2986 23.0034 13.3131 22.958 13.3262C22.9448 13.3305 22.9317 13.3346 22.9184 13.3387C22.8638 13.3538 22.8087 13.3669 22.7536 13.3779C22.7492 13.3785 22.745 13.3802 22.7407 13.3808C22.6809 13.3924 22.6211 13.4017 22.5614 13.4084C22.3612 13.4309 22.1734 13.4389 22 13.4245C22.0506 13.5726 22.0959 13.7251 22.135 13.8824C22.7003 14.082 23.4605 14.0454 24.3139 13.6338C24.3538 13.6169 24.3931 13.5991 24.4317 13.5807C25.5955 12.8302 26.205 11.7983 25.9377 11.0001L25.9378 11Z" fill="white" stroke="white" stroke-width="0.7"/>
<path d="M15.0478 11.9068C14.0015 13.9935 11.628 15.3436 9.00394 15.3447C8.48594 15.3447 7.98198 15.3229 7.49838 15.1948C7.49985 16.107 7.47158 16.9485 7.57973 17.7267C8.2906 22.8411 11.2884 25.2193 15.0686 26.9366C19.0769 25.2126 21.9765 22.8754 22.5887 17.7073C22.6791 16.9442 22.6421 16.0677 22.633 15.1766C22.1341 15.3331 21.6131 15.3374 21.077 15.3374C18.4597 15.3344 16.0928 13.9876 15.0478 11.9068Z" fill="white" stroke="white" stroke-width="0.5"/>
<path d="M13.864 16.2251V18.3529H11.4102V20.4471H13.864V22.575H16.2791V20.4471H18.733V18.3529H16.2791V16.2251H13.864Z" fill="white"/>
<path d="M14.6021 7.10211C12.8158 7.10211 11.3779 8.07534 11.3779 9.28429V9.9414C11.3779 9.95881 11.3791 9.97607 11.3797 9.99339C13.6248 9.036 16.4277 9.03519 18.6729 9.98997C18.6734 9.9738 18.6743 9.95768 18.6743 9.94141V9.2843C18.6743 8.07535 17.2364 7.10212 15.4502 7.10212L14.6021 7.10211Z" fill="white" stroke="white" stroke-width="0.7"/>
<path d="M20.8097 23.5683C20.5543 23.5644 20.3138 23.585 20.0901 23.6261C19.886 23.8518 19.6706 24.0662 19.4463 24.272C19.7173 24.2416 20.0156 24.2495 20.3371 24.2809C20.4198 24.289 20.5028 24.3002 20.5856 24.3142C20.5916 24.3152 20.5974 24.3167 20.6034 24.3176C20.6798 24.3308 20.7562 24.3467 20.832 24.3648C20.8503 24.3697 20.8685 24.3747 20.8867 24.3799C20.9496 24.3957 21.012 24.4131 21.0739 24.4323C21.1513 24.4567 21.2277 24.4837 21.3029 24.5132C21.3705 24.54 21.4369 24.5688 21.5021 24.5995C21.5459 24.6203 21.5892 24.6419 21.6318 24.6644C21.6619 24.6796 21.6916 24.6952 21.7211 24.7112C21.7663 24.7367 21.8107 24.7632 21.8541 24.7905C21.879 24.8055 21.9034 24.8207 21.9277 24.8363C21.9755 24.8681 22.0221 24.901 22.0673 24.9349C22.0846 24.9473 22.1016 24.9598 22.1185 24.9725C22.1661 25.0097 22.2122 25.048 22.2564 25.0873C22.2699 25.0988 22.2833 25.1103 22.2964 25.122C22.3422 25.1642 22.3859 25.2073 22.4276 25.2515C22.4368 25.2608 22.4459 25.2702 22.455 25.2797C22.4988 25.3275 22.5401 25.3764 22.5787 25.4261C22.5839 25.4325 22.5892 25.439 22.5944 25.4454C22.6337 25.4972 22.6701 25.5499 22.7035 25.6032C22.7071 25.6086 22.7104 25.6139 22.714 25.6193C22.749 25.6762 22.7807 25.7339 22.8086 25.792L22.8101 25.7949L22.8104 25.7959C22.8391 25.8561 22.864 25.9167 22.885 25.9775C22.9608 26.0047 23.1035 25.9049 23.1788 25.9342C23.9072 25.7645 24.8322 26.5722 25.017 27.1818C25.3875 26.2204 24.5426 24.9775 22.9297 24.0735L22.9295 24.0733C22.876 24.0512 22.8214 24.0298 22.766 24.0095C22.0576 23.7125 21.3953 23.5773 20.8097 23.5682L20.8097 23.5683Z" fill="white" stroke="white" stroke-width="0.7"/>
<path d="M9.3347 23.5683C8.74905 23.5773 8.08677 23.7126 7.37842 24.0095C7.32288 24.0298 7.26846 24.0513 7.21484 24.0735V24.0734C5.60185 24.9774 4.75686 26.2204 5.12738 27.1818C5.31213 26.5722 6.23717 25.7645 6.96558 25.9342C7.04087 25.9049 7.18355 26.0047 7.25942 25.9775C7.28033 25.9167 7.30522 25.8561 7.33398 25.796L7.33428 25.7949L7.33575 25.792C7.36372 25.7339 7.3955 25.6762 7.43055 25.6193C7.43411 25.6139 7.43747 25.6086 7.44106 25.6032C7.47444 25.5499 7.51084 25.4972 7.55017 25.4454C7.55529 25.439 7.56047 25.4326 7.56569 25.4261C7.60431 25.3764 7.64573 25.3275 7.68955 25.2797C7.69856 25.2703 7.70757 25.2608 7.71679 25.2516C7.75844 25.2073 7.80229 25.1642 7.84811 25.122C7.8613 25.1103 7.87449 25.0988 7.88798 25.0873C7.93217 25.048 7.97828 25.0097 8.02585 24.9725C8.04278 24.9598 8.05998 24.9473 8.07728 24.9349C8.12248 24.901 8.16887 24.8681 8.21667 24.8363C8.24096 24.8208 8.26545 24.8055 8.29032 24.7905C8.33372 24.7632 8.37828 24.7367 8.42346 24.7112C8.45295 24.6952 8.48265 24.6796 8.51279 24.6644C8.55534 24.6419 8.59847 24.6203 8.64228 24.5995C8.70746 24.5688 8.77409 24.54 8.84162 24.5132C8.91681 24.4837 8.99313 24.4567 9.07048 24.4323C9.13242 24.4132 9.19478 24.3957 9.25765 24.3799C9.27591 24.3747 9.29422 24.3697 9.31259 24.3649C9.38831 24.3467 9.46461 24.3308 9.54099 24.3176C9.54697 24.3166 9.5528 24.3153 9.55881 24.3142C9.6416 24.3002 9.72455 24.289 9.8073 24.2809C10.1949 24.243 10.549 24.2391 10.8617 24.2956C10.6413 24.0937 10.4291 23.883 10.2261 23.6621C9.95548 23.5967 9.65669 23.5633 9.33467 23.5683L9.3347 23.5683Z" fill="white" stroke="white" stroke-width="0.7"/>
<path opacity="0.91" d="M26.7687 17.9693C25.8077 18.2505 24.7503 18.3626 23.6913 18.2957C23.2972 18.2702 22.9086 18.2193 22.5294 18.1461C22.4871 18.4312 22.4376 18.7074 22.3809 18.975C22.7937 18.9455 23.2135 18.9431 23.6344 18.9693C24.6933 19.0372 25.7204 19.282 26.6238 19.6817C27.1714 19.181 28.0668 18.9134 28.9998 18.972C28.0669 18.9121 27.2262 18.534 26.7687 17.9693V17.9693Z" fill="white" stroke="white" stroke-width="0.7" stroke-linecap="round"/>
<path opacity="0.91" d="M3.23126 17.9693C2.77376 18.534 1.93287 18.9121 1 18.972C1.93298 18.9134 2.82847 19.181 3.37612 19.6817C4.27951 19.282 5.30663 19.0372 6.36548 18.9693C6.85301 18.939 7.33878 18.9474 7.81429 18.9916C7.74765 18.7081 7.689 18.4151 7.63869 18.1122C7.20659 18.2041 6.76106 18.2664 6.30842 18.2957C5.24949 18.3626 4.19225 18.2505 3.23126 17.9693Z" fill="white" stroke="white" stroke-width="0.7" stroke-linecap="round"/>
<path d="M2.65831 10.618C2.30176 11.5432 3.11479 12.7394 4.66694 13.6093V13.6091C4.71854 13.6305 4.771 13.6512 4.82444 13.6708C5.95724 14.1456 6.96717 14.19 7.72006 13.9622C7.7726 13.779 7.83351 13.6013 7.9016 13.4288C7.67277 13.4445 7.4254 13.4353 7.16176 13.4095C7.08213 13.4017 7.00237 13.3911 6.9227 13.3776C6.91696 13.3768 6.91127 13.375 6.9055 13.3742C6.83199 13.3614 6.75849 13.3463 6.68562 13.3288C6.66795 13.324 6.6504 13.3192 6.63281 13.3143C6.57231 13.299 6.51239 13.2824 6.4528 13.264C6.37836 13.2404 6.3048 13.2145 6.23245 13.1861C6.16747 13.1603 6.10344 13.1325 6.04072 13.103C5.99856 13.083 5.95689 13.0621 5.91594 13.0405C5.88694 13.0258 5.8585 13.0109 5.83012 12.9955C5.78664 12.9709 5.74376 12.9455 5.70199 12.9192C5.67806 12.9048 5.65447 12.8901 5.63108 12.8751C5.58509 12.8445 5.54036 12.8128 5.49687 12.7803C5.48023 12.7683 5.46385 12.7563 5.44757 12.7441C5.40179 12.7083 5.3574 12.6714 5.31488 12.6337C5.30189 12.6226 5.28906 12.6115 5.27638 12.6003C5.23228 12.5597 5.19015 12.518 5.15008 12.4755C5.14119 12.4665 5.13257 12.4576 5.1239 12.4485C5.08174 12.4025 5.04177 12.3553 5.0046 12.3075C4.99959 12.3013 4.99462 12.2952 4.98969 12.289C4.95185 12.2392 4.91681 12.1885 4.88469 12.1371C4.88124 12.1319 4.87808 12.1267 4.87465 12.1216C4.84093 12.0668 4.81043 12.0113 4.78351 11.9554L4.78197 11.9525L4.78165 11.9518C4.75397 11.8939 4.72995 11.8356 4.70983 11.7771C4.63681 11.7509 4.49954 11.8468 4.4271 11.8186C3.72615 11.9819 2.83607 11.2046 2.65828 10.618L2.65831 10.618Z" fill="white" stroke="white" stroke-width="0.7"/>
<path d="M12.3733 8.30766C10.4697 7.22633 10.4697 7.19356 10.4697 7.19356V4.1134" stroke="white" stroke-width="0.7"/>
<path d="M17.8018 8.30766C19.7054 7.22633 19.7054 7.19356 19.7054 7.19356V4.1134" stroke="white" stroke-width="0.7"/>
<path d="M13.0748 6.33975C13.0638 6.29303 13.0054 6.01156 12.9451 5.71427C12.8847 5.41698 12.8263 5.14115 12.8151 5.10133C12.796 5.03293 12.8037 5.03477 12.9546 5.13464C13.1617 5.27173 13.3952 5.32839 13.7483 5.32727C13.9852 5.3265 14.0633 5.31274 14.212 5.24541C14.606 5.06703 14.8818 4.7031 15.0503 4.139L15.0919 4L15.1579 4.225C15.3048 4.72552 15.6977 5.16473 16.0887 5.2654C16.4638 5.36199 16.9503 5.28907 17.2297 5.09437L17.3716 4.99553L17.3509 5.08463C17.3395 5.13364 17.2814 5.42392 17.2217 5.72971C17.162 6.0355 17.1051 6.31696 17.0953 6.35519L17.0775 6.42469H15.0862H13.095L13.0748 6.33975Z" fill="black" stroke="black" stroke-width="0.236831" stroke-linecap="round" stroke-linejoin="bevel"/>
<path d="M7.52148 15.1946C8.00508 15.2926 8.50904 15.3444 9.02705 15.3444C11.6511 15.3431 14.0246 13.9931 15.0709 11.9065C16.1159 13.9873 18.4828 15.334 21.1001 15.337C21.6362 15.337 22.1572 15.2811 22.6561 15.1763C22.0159 7.30309 8.15695 7.30309 7.52148 15.1946V15.1946Z" fill="white" stroke="white" stroke-width="0.5"/>
<path d="M22.3133 15.2315C22.3418 14.2471 22.1744 13.0403 21.8755 12.6331" stroke="black" stroke-width="0.426955"/>
<path d="M21.5969 15.4361C21.8294 14.0645 21.6487 12.7257 20.7706 11.288" stroke="black" stroke-width="0.5"/>
<path d="M20.7078 15.2856C21.0483 14.1452 20.8635 12.42 19.7744 10.4845" stroke="black" stroke-width="0.53943"/>
<path d="M19.8252 15.283C20.2329 13.7506 19.6641 11.647 18.8917 10.0484" stroke="black" stroke-width="0.563258"/>
<path d="M18.9373 15.083C19.1923 13.5209 18.8554 11.7021 18.0034 9.66003V9.79315" stroke="black" stroke-width="0.559166"/>
<path d="M18.0535 14.8128C18.1701 13.1235 17.8552 11.3782 17.12 9.57817V9.44305" stroke="black" stroke-width="0.563258"/>
<path d="M17.1694 14.3905C17.2941 12.7562 16.8762 11.0434 16.2377 9.29883" stroke="black" stroke-width="0.555118"/>
<path d="M16.2863 13.7764C16.3491 12.295 15.8787 10.7804 15.3549 9.26263" stroke="black" stroke-width="0.522624"/>
<path d="M7.86837 15.2315C7.83986 14.2471 8.00724 13.0403 8.30613 12.6331" stroke="black" stroke-width="0.426955"/>
<path d="M8.58476 15.4361C8.35225 14.0645 8.53292 12.7257 9.41109 11.288" stroke="black" stroke-width="0.5"/>
<path d="M9.47477 15.2856C9.13429 14.1452 9.31911 12.42 10.4082 10.4845" stroke="black" stroke-width="0.53943"/>
<path d="M10.3574 15.283C9.9497 13.7506 10.5185 11.647 11.2909 10.0484" stroke="black" stroke-width="0.563258"/>
<path d="M11.2443 15.083C10.9893 13.5209 11.3262 11.7021 12.1783 9.66003V9.79315" stroke="black" stroke-width="0.559166"/>
<path d="M12.1291 14.8129C12.0126 13.1237 12.3275 11.3783 13.0626 9.57829V9.44318" stroke="black" stroke-width="0.563258"/>
<path d="M13.0123 14.3906C12.8875 12.7563 13.3054 11.0436 13.944 9.29895" stroke="black" stroke-width="0.555118"/>
<path d="M13.8963 13.7764C13.8335 12.295 14.3039 10.7804 14.8278 9.26263" stroke="black" stroke-width="0.522624"/>
<path d="M15.0479 11.9052C15.0479 9.28013 15.0653 9.29266 15.0653 9.29266" stroke="black" stroke-width="0.5"/>
<g opacity="0.91">
<path opacity="0.91" d="M13.1478 8.85366C13.3917 8.85366 13.5895 8.68218 13.5895 8.47065C13.5895 8.25912 13.3917 8.08765 13.1478 8.08765C12.9038 8.08765 12.7061 8.25912 12.7061 8.47065C12.7061 8.68218 12.9038 8.85366 13.1478 8.85366Z" fill="#D40000"/>
<path opacity="0.91" d="M16.9974 8.85366C17.2413 8.85366 17.4391 8.68218 17.4391 8.47065C17.4391 8.25912 17.2413 8.08765 16.9974 8.08765C16.7534 8.08765 16.5557 8.25912 16.5557 8.47065C16.5557 8.68218 16.7534 8.85366 16.9974 8.85366Z" fill="#D40000"/>
</g>
<path d="M15.0478 11.9068C14.0015 13.9935 11.628 15.3436 9.00394 15.3447C8.48594 15.3447 7.98198 15.3229 7.49838 15.1948C7.49985 16.107 7.47158 16.9485 7.57973 17.7267C8.2906 22.8411 11.2884 25.2193 15.0686 26.9366C19.0769 25.2126 21.9765 22.8754 22.5887 17.7073C22.6791 16.9442 22.6421 16.0677 22.633 15.1766C22.1341 15.3331 21.6131 15.3374 21.077 15.3374C18.4597 15.3344 16.0928 13.9876 15.0478 11.9068Z" fill="white" stroke="white" stroke-width="0.5"/>
<path d="M13.9163 21.518V20.4471H12.6813H11.4463V19.4227V18.3984H12.6813H13.9163V17.3275V16.2565H15.0977H16.279V17.3275V18.3984H17.514H18.7491V19.4227V20.4471H17.514H16.279V21.518V22.5889H15.0977H13.9163V21.518Z" fill="#D40000" stroke="#D30000" stroke-width="0.344606" stroke-linecap="round" stroke-linejoin="bevel"/>
<path d="M46.0587 27.754V16.414H47.1367L50.3567 23.946V16.414H51.6727V27.754H50.6647L47.4027 20.012V27.754H46.0587ZM52.7551 27.754V16.414H57.1511V17.59H54.3371V21.342H56.6191V22.462H54.3371V26.62H57.1791V27.754H52.7551ZM59.2263 27.754L57.3783 16.414H58.6943L59.9123 24.562L61.4383 16.456H62.5583L64.0983 24.604L65.2883 16.414H66.5763L64.7563 27.754H63.6083L62.0263 19.354L60.4303 27.754H59.2263ZM69.9295 27.88C69.2762 27.88 68.7302 27.74 68.2915 27.46C67.8622 27.18 67.5355 26.7926 67.3115 26.298C67.0875 25.8033 66.9569 25.2293 66.9195 24.576L68.3195 24.198C68.3475 24.5993 68.4082 24.9866 68.5015 25.36C68.6042 25.7333 68.7675 26.0413 68.9915 26.284C69.2155 26.5173 69.5282 26.634 69.9295 26.634C70.3402 26.634 70.6482 26.522 70.8535 26.298C71.0682 26.0646 71.1755 25.7333 71.1755 25.304C71.1755 24.7906 71.0589 24.38 70.8255 24.072C70.5922 23.7546 70.2982 23.4373 69.9435 23.12L68.0395 21.44C67.6662 21.1133 67.3909 20.7586 67.2135 20.376C67.0362 19.984 66.9475 19.5033 66.9475 18.934C66.9475 18.1033 67.1855 17.4593 67.6615 17.002C68.1375 16.5446 68.7862 16.316 69.6075 16.316C70.0555 16.316 70.4475 16.3766 70.7835 16.498C71.1289 16.61 71.4135 16.7873 71.6375 17.03C71.8709 17.2726 72.0529 17.5806 72.1835 17.954C72.3235 18.318 72.4169 18.7473 72.4635 19.242L71.1195 19.606C71.0915 19.2326 71.0355 18.892 70.9515 18.584C70.8675 18.2666 70.7182 18.0146 70.5035 17.828C70.2982 17.632 69.9995 17.534 69.6075 17.534C69.2155 17.534 68.9075 17.6413 68.6835 17.856C68.4689 18.0613 68.3615 18.3693 68.3615 18.78C68.3615 19.1253 68.4175 19.41 68.5295 19.634C68.6509 19.858 68.8422 20.0866 69.1035 20.32L71.0215 22C71.4509 22.3733 71.8289 22.8213 72.1555 23.344C72.4822 23.8573 72.6455 24.4686 72.6455 25.178C72.6455 25.738 72.5289 26.2233 72.2955 26.634C72.0622 27.0353 71.7402 27.3433 71.3295 27.558C70.9282 27.7726 70.4615 27.88 69.9295 27.88Z" fill="white"/>
<path d="M34.4131 12.4382C34.1237 12.4382 33.8624 12.3682 33.6291 12.2282C33.4051 12.0788 33.2091 11.9155 33.0411 11.7382V12.3262H31.5431V0.986171H33.0411V4.87817C33.2184 4.67284 33.4284 4.4955 33.6711 4.34617C33.9231 4.19684 34.2217 4.12217 34.5671 4.12217C34.9871 4.12217 35.3184 4.23417 35.5611 4.45817C35.8131 4.67284 35.9997 4.94817 36.1211 5.28417C36.2424 5.61084 36.3217 5.94684 36.3591 6.29217C36.3964 6.62817 36.4151 6.91751 36.4151 7.16017V9.12017C36.4151 9.68951 36.3591 10.2308 36.2471 10.7442C36.1351 11.2482 35.9344 11.6588 35.6451 11.9762C35.3557 12.2842 34.9451 12.4382 34.4131 12.4382ZM34.1051 11.2622C34.3664 11.2622 34.5531 11.1688 34.6651 10.9822C34.7771 10.7862 34.8471 10.5248 34.8751 10.1982C34.9031 9.87151 34.9171 9.51217 34.9171 9.12017V7.16017C34.9171 6.82417 34.8984 6.51617 34.8611 6.23617C34.8237 5.94684 34.7444 5.71817 34.6231 5.55017C34.5017 5.38217 34.3104 5.29817 34.0491 5.29817C33.8531 5.29817 33.6664 5.34017 33.4891 5.42417C33.3211 5.50817 33.1717 5.6015 33.0411 5.70417V10.8982C33.1717 11.0008 33.3257 11.0895 33.5031 11.1642C33.6897 11.2295 33.8904 11.2622 34.1051 11.2622ZM38.9388 12.4382C38.6215 12.4382 38.3741 12.3542 38.1968 12.1862C38.0195 12.0182 37.8935 11.8082 37.8188 11.5562C37.7535 11.3042 37.7208 11.0475 37.7208 10.7862V4.23417H39.2188V10.3382C39.2188 10.6275 39.2608 10.8562 39.3448 11.0242C39.4288 11.1828 39.6015 11.2622 39.8628 11.2622C40.0308 11.2622 40.2035 11.2155 40.3808 11.1222C40.5675 11.0195 40.7448 10.8982 40.9128 10.7582V4.23417H42.4108V12.3262H40.9128V11.5282C40.6515 11.7802 40.3528 11.9948 40.0168 12.1722C39.6901 12.3495 39.3308 12.4382 38.9388 12.4382ZM46.0428 14.8322C45.5575 14.8322 45.1188 14.7808 44.7268 14.6782C44.3348 14.5755 44.0268 14.4122 43.8028 14.1882C43.5788 13.9642 43.4668 13.6702 43.4668 13.3062C43.4668 13.0448 43.5228 12.8162 43.6348 12.6202C43.7468 12.4242 43.8915 12.2562 44.0688 12.1162C44.2461 11.9668 44.4328 11.8455 44.6288 11.7522C44.3675 11.6775 44.1715 11.5608 44.0408 11.4022C43.9101 11.2342 43.8448 11.0615 43.8448 10.8842C43.8448 10.5855 43.9241 10.3288 44.0828 10.1142C44.2415 9.89951 44.4608 9.66617 44.7408 9.41417C44.4328 9.18084 44.1995 8.88217 44.0408 8.51817C43.8821 8.15417 43.8028 7.65017 43.8028 7.00617C43.8028 6.3715 43.8868 5.84417 44.0548 5.42417C44.2321 4.99484 44.4888 4.67284 44.8248 4.45817C45.1701 4.23417 45.5901 4.12217 46.0848 4.12217C46.5235 4.12217 46.8735 4.19684 47.1348 4.34617C47.4055 4.4955 47.6108 4.7195 47.7508 5.01817C47.7975 4.9435 47.9235 4.8175 48.1288 4.64017C48.3341 4.45351 48.5721 4.29951 48.8428 4.17817L49.0668 4.08017L49.4448 5.04617C49.3235 5.06484 49.1601 5.1115 48.9548 5.18617C48.7588 5.2515 48.5721 5.3215 48.3948 5.39617C48.2268 5.4615 48.1195 5.5175 48.0728 5.56417C48.1381 5.72284 48.1941 5.9515 48.2408 6.25017C48.2968 6.54884 48.3248 6.81484 48.3248 7.04817C48.3248 7.59884 48.2548 8.08417 48.1148 8.50417C47.9748 8.92417 47.7415 9.25551 47.4148 9.49817C47.0975 9.73151 46.6541 9.84817 46.0848 9.84817C45.9635 9.84817 45.8328 9.83884 45.6928 9.82017C45.5528 9.80151 45.4268 9.77817 45.3148 9.75017C45.2588 9.83417 45.1981 9.93217 45.1328 10.0442C45.0768 10.1562 45.0488 10.2635 45.0488 10.3662C45.0488 10.4688 45.1001 10.5528 45.2028 10.6182C45.3148 10.6742 45.4875 10.7115 45.7208 10.7302L46.9808 10.8422C47.6155 10.8982 48.0868 11.0895 48.3948 11.4162C48.7028 11.7428 48.8568 12.2095 48.8568 12.8162C48.8568 13.2548 48.7541 13.6235 48.5488 13.9222C48.3435 14.2302 48.0308 14.4588 47.6108 14.6082C47.2001 14.7575 46.6775 14.8322 46.0428 14.8322ZM46.1548 13.6562C46.6868 13.6562 47.0788 13.5908 47.3308 13.4602C47.5828 13.3388 47.7088 13.1382 47.7088 12.8582C47.7088 12.6902 47.6761 12.5502 47.6108 12.4382C47.5548 12.3262 47.4475 12.2375 47.2888 12.1722C47.1301 12.1068 46.9015 12.0602 46.6028 12.0322L45.3288 11.9202C45.2261 12.0228 45.1281 12.1255 45.0348 12.2282C44.9415 12.3308 44.8668 12.4382 44.8108 12.5502C44.7548 12.6715 44.7268 12.7975 44.7268 12.9282C44.7268 13.1708 44.8295 13.3528 45.0348 13.4742C45.2401 13.5955 45.6135 13.6562 46.1548 13.6562ZM46.0848 8.79817C46.2995 8.79817 46.4675 8.76084 46.5888 8.68617C46.7195 8.60217 46.8175 8.4855 46.8828 8.33617C46.9481 8.1775 46.9901 7.98617 47.0088 7.76217C47.0368 7.53817 47.0508 7.28617 47.0508 7.00617C47.0508 6.72617 47.0368 6.47417 47.0088 6.25017C46.9901 6.01684 46.9481 5.82084 46.8828 5.66217C46.8268 5.49417 46.7335 5.36817 46.6028 5.28417C46.4815 5.20017 46.3135 5.15817 46.0988 5.15817C45.8935 5.15817 45.7208 5.20017 45.5808 5.28417C45.4501 5.36817 45.3521 5.4895 45.2868 5.64817C45.2215 5.7975 45.1748 5.98884 45.1468 6.22217C45.1188 6.44617 45.1048 6.7075 45.1048 7.00617C45.1048 7.25817 45.1141 7.49617 45.1328 7.72017C45.1608 7.93484 45.2075 8.1215 45.2728 8.28017C45.3475 8.43884 45.4501 8.56484 45.5808 8.65817C45.7115 8.75151 45.8795 8.79817 46.0848 8.79817ZM49.9568 8.67217V7.53817H53.0788V8.67217H49.9568ZM56.4008 12.4382C55.7195 12.4382 55.2108 12.1908 54.8748 11.6962C54.5388 11.1922 54.3708 10.3428 54.3708 9.14817V7.58017C54.3708 6.96417 54.4222 6.39484 54.5248 5.87217C54.6275 5.34017 54.8188 4.9155 55.0988 4.59817C55.3882 4.28084 55.8082 4.12217 56.3588 4.12217C56.6295 4.12217 56.8768 4.18284 57.1008 4.30417C57.3248 4.42551 57.5255 4.57484 57.7028 4.75217V0.986171H59.2008V12.3262H57.7028V11.8082C57.5255 11.9948 57.3295 12.1488 57.1148 12.2702C56.9095 12.3822 56.6715 12.4382 56.4008 12.4382ZM56.7788 11.2622C56.9188 11.2622 57.0682 11.2388 57.2268 11.1922C57.3855 11.1362 57.5442 11.0568 57.7028 10.9542V5.64817C57.5722 5.55484 57.4275 5.4755 57.2688 5.41017C57.1102 5.3355 56.9375 5.29817 56.7508 5.29817C56.4055 5.29817 56.1722 5.46617 56.0508 5.80217C55.9295 6.12884 55.8688 6.5255 55.8688 6.99217V9.27417C55.8688 9.64751 55.8875 9.98817 55.9248 10.2962C55.9715 10.5948 56.0602 10.8328 56.1908 11.0102C56.3215 11.1782 56.5175 11.2622 56.7788 11.2622ZM62.9582 12.4382C62.3235 12.4382 61.8335 12.3168 61.4882 12.0742C61.1429 11.8222 60.9002 11.4582 60.7602 10.9822C60.6295 10.4968 60.5642 9.90417 60.5642 9.20417V7.35617C60.5642 6.63751 60.6342 6.04017 60.7742 5.56417C60.9142 5.08817 61.1569 4.72884 61.5022 4.48617C61.8569 4.2435 62.3422 4.12217 62.9582 4.12217C63.6395 4.12217 64.1389 4.26217 64.4562 4.54217C64.7829 4.82217 64.9975 5.22817 65.1002 5.76017C65.2029 6.28284 65.2542 6.91284 65.2542 7.65017V8.30817H62.0622V9.93217C62.0622 10.2588 62.0902 10.5248 62.1462 10.7302C62.2115 10.9355 62.3095 11.0895 62.4402 11.1922C62.5802 11.2855 62.7575 11.3322 62.9722 11.3322C63.1962 11.3322 63.3642 11.2808 63.4762 11.1782C63.5975 11.0662 63.6769 10.9122 63.7142 10.7162C63.7609 10.5108 63.7842 10.2728 63.7842 10.0022V9.51217H65.2402V9.82017C65.2402 10.6322 65.0675 11.2715 64.7222 11.7382C64.3769 12.2048 63.7889 12.4382 62.9582 12.4382ZM62.0622 7.49617H63.7842V6.76817C63.7842 6.43217 63.7655 6.15217 63.7282 5.92817C63.6909 5.69484 63.6115 5.52217 63.4902 5.41017C63.3782 5.28884 63.1962 5.22817 62.9442 5.22817C62.7015 5.22817 62.5149 5.28417 62.3842 5.39617C62.2629 5.50817 62.1789 5.6995 62.1322 5.97017C62.0855 6.2315 62.0622 6.5955 62.0622 7.06217V7.49617ZM68.0668 12.4382C67.7494 12.4382 67.4694 12.3495 67.2268 12.1722C66.9841 11.9855 66.7928 11.7522 66.6528 11.4722C66.5128 11.1828 66.4428 10.8795 66.4428 10.5622C66.4428 10.0582 66.5268 9.63351 66.6948 9.28817C66.8628 8.94284 67.0914 8.65351 67.3808 8.42017C67.6794 8.17751 68.0201 7.96751 68.4028 7.79017C68.7948 7.61284 69.2054 7.44017 69.6348 7.27217V6.69817C69.6348 6.37151 69.6161 6.10084 69.5788 5.88617C69.5414 5.67151 69.4621 5.51284 69.3408 5.41017C69.2288 5.29817 69.0561 5.24217 68.8228 5.24217C68.6174 5.24217 68.4494 5.28884 68.3188 5.38217C68.1974 5.4755 68.1088 5.61084 68.0528 5.78817C67.9968 5.95617 67.9688 6.15684 67.9688 6.39017V6.79617L66.4848 6.74017C66.5034 5.84417 66.7088 5.18617 67.1008 4.76617C67.4928 4.33684 68.0994 4.12217 68.9208 4.12217C69.7234 4.12217 70.2928 4.3415 70.6288 4.78017C70.9648 5.21884 71.1328 5.8535 71.1328 6.68417V10.3802C71.1328 10.6322 71.1374 10.8748 71.1468 11.1082C71.1654 11.3415 71.1841 11.5608 71.2028 11.7662C71.2308 11.9622 71.2541 12.1488 71.2728 12.3262H69.9008C69.8728 12.1768 69.8354 11.9902 69.7888 11.7662C69.7514 11.5328 69.7234 11.3228 69.7048 11.1362C69.6114 11.4535 69.4294 11.7522 69.1588 12.0322C68.8974 12.3028 68.5334 12.4382 68.0668 12.4382ZM68.6548 11.1502C68.8041 11.1502 68.9441 11.1082 69.0748 11.0242C69.2054 10.9402 69.3221 10.8468 69.4248 10.7442C69.5274 10.6322 69.5974 10.5435 69.6348 10.4782V8.18217C69.4014 8.31284 69.1821 8.44351 68.9768 8.57417C68.7714 8.70484 68.5894 8.84484 68.4308 8.99417C68.2814 9.13417 68.1601 9.29751 68.0668 9.48417C67.9828 9.66151 67.9408 9.86684 67.9408 10.1002C67.9408 10.4268 68.0014 10.6835 68.1228 10.8702C68.2441 11.0568 68.4214 11.1502 68.6548 11.1502ZM72.7117 12.3262V0.986171H74.2097V12.3262H72.7117ZM78.0109 12.4382C77.3763 12.4382 76.8863 12.3168 76.5409 12.0742C76.1956 11.8222 75.9529 11.4582 75.8129 10.9822C75.6823 10.4968 75.6169 9.90417 75.6169 9.20417V7.35617C75.6169 6.63751 75.6869 6.04017 75.8269 5.56417C75.9669 5.08817 76.2096 4.72884 76.5549 4.48617C76.9096 4.2435 77.3949 4.12217 78.0109 4.12217C78.6923 4.12217 79.1916 4.26217 79.5089 4.54217C79.8356 4.82217 80.0503 5.22817 80.1529 5.76017C80.2556 6.28284 80.3069 6.91284 80.3069 7.65017V8.30817H77.1149V9.93217C77.1149 10.2588 77.1429 10.5248 77.1989 10.7302C77.2643 10.9355 77.3623 11.0895 77.4929 11.1922C77.6329 11.2855 77.8103 11.3322 78.0249 11.3322C78.2489 11.3322 78.4169 11.2808 78.5289 11.1782C78.6503 11.0662 78.7296 10.9122 78.7669 10.7162C78.8136 10.5108 78.8369 10.2728 78.8369 10.0022V9.51217H80.2929V9.82017C80.2929 10.6322 80.1203 11.2715 79.7749 11.7382C79.4296 12.2048 78.8416 12.4382 78.0109 12.4382ZM77.1149 7.49617H78.8369V6.76817C78.8369 6.43217 78.8183 6.15217 78.7809 5.92817C78.7436 5.69484 78.6643 5.52217 78.5429 5.41017C78.4309 5.28884 78.2489 5.22817 77.9969 5.22817C77.7543 5.22817 77.5676 5.28417 77.4369 5.39617C77.3156 5.50817 77.2316 5.6995 77.1849 5.97017C77.1383 6.2315 77.1149 6.5955 77.1149 7.06217V7.49617ZM81.7055 12.3262V4.23417H83.2035V5.38217C83.5022 4.8875 83.8008 4.55617 84.0995 4.38817C84.3982 4.22017 84.6969 4.13617 84.9955 4.13617C85.0328 4.13617 85.0655 4.13617 85.0935 4.13617C85.1308 4.13617 85.1775 4.14084 85.2335 4.15017V5.80217C85.1215 5.7555 84.9909 5.71817 84.8415 5.69017C84.7015 5.65284 84.5568 5.63417 84.4075 5.63417C84.1742 5.63417 83.9595 5.69017 83.7635 5.80217C83.5769 5.90484 83.3902 6.11017 83.2035 6.41817V12.3262H81.7055Z" fill="white"/>
</svg>
