<svg width="160" height="54" viewBox="0 0 160 54" fill="none" xmlns="http://www.w3.org/2000/svg">
<path d="M49.9529 25.592C47.687 26.1992 45.358 24.8545 44.7508 22.5886C44.1437 20.3226 45.4884 17.9936 47.7543 17.3864C50.0202 16.7793 52.3492 18.124 52.9564 20.3899C53.5635 22.6558 52.2189 24.9849 49.9529 25.592Z" fill="white"/>
<path d="M30.3941 11.7774C28.5401 12.2742 26.6345 11.174 26.1378 9.32006C25.641 7.46613 26.7412 5.56053 28.5951 5.06377C30.4491 4.56701 32.3547 5.66721 32.8514 7.52114C33.3482 9.37506 32.248 11.2807 30.3941 11.7774Z" fill="#E96654"/>
<path d="M12.0428 43.7452C10.1202 44.2604 8.144 43.1195 7.62884 41.1969C7.11369 39.2743 8.25464 37.2981 10.1772 36.7829C12.0998 36.2678 14.076 37.4087 14.5912 39.3313C15.1063 41.2539 13.9654 43.2301 12.0428 43.7452Z" fill="#E96654"/>
<path d="M7.30094 23.5619C5.72167 23.985 4.09838 23.0478 3.67521 21.4685C3.25205 19.8893 4.18926 18.266 5.76853 17.8428C7.3478 17.4196 8.97109 18.3569 9.39426 19.9361C9.81742 21.5154 8.88021 23.1387 7.30094 23.5619Z" fill="white"/>
<path fill-rule="evenodd" clip-rule="evenodd" d="M46.2429 22.1886C46.6293 23.6305 48.1114 24.4862 49.5533 24.0999C50.9953 23.7135 51.851 22.2313 51.4646 20.7894C51.0783 19.3475 49.5961 18.4917 48.1542 18.8781C46.7122 19.2645 45.8565 20.7466 46.2429 22.1886ZM45.3302 23.863C46.3156 25.3256 48.1542 26.0738 49.9531 25.5918C52.219 24.9846 53.5637 22.6556 52.9566 20.3896C52.3494 18.1237 50.0203 16.779 47.7544 17.3862C45.8458 17.8976 44.5908 19.6307 44.6053 21.5188C44.1798 21.8369 43.6987 22.0708 43.185 22.2084L34.8536 24.4408C34.2192 24.6108 33.5965 24.1091 33.1985 23.5867C33.1576 23.5329 33.1175 23.48 33.0792 23.4291C32.8401 23.1118 32.6682 22.75 32.5654 22.3663L32.4628 21.9834C32.3797 21.6731 32.2688 21.371 32.1315 21.0806L31.9116 20.6156C31.8802 20.549 31.8566 20.4967 31.8363 20.4518C31.7756 20.3173 31.7451 20.2495 31.6232 20.0657C31.0669 19.2268 30.1396 18.3583 29.2629 17.8639C29.1095 17.7774 29.0021 17.7119 28.9795 17.6864C28.7204 17.3942 28.5127 17.0568 28.4717 16.6684L28.4055 16.0413C28.4091 15.6406 28.4222 14.8109 28.4453 14.6981C28.4535 14.6578 28.4862 14.4739 28.5295 14.2265C28.6689 13.4301 28.863 12.6441 29.1127 11.8756C29.5305 11.9219 29.9638 11.8927 30.3944 11.7773C32.2483 11.2805 33.3485 9.37493 32.8517 7.521C32.355 5.66707 30.4494 4.56687 28.5954 5.06363C26.7415 5.56039 25.6413 7.46599 26.1381 9.31992C26.3767 10.2104 26.9403 10.9269 27.667 11.3762L27.5137 12.216C27.3188 12.9777 27.0601 13.7216 26.7404 14.4399L26.5138 14.9491L25.9677 15.895L25.4338 16.6377L25.1075 17.0223C24.8914 17.2772 24.6027 17.46 24.2799 17.5465C24.0335 17.6125 23.7752 17.6203 23.5253 17.5691L22.6364 17.3872L21.1189 17.1942C20.8923 17.1834 20.4763 17.2052 20.0602 17.2352C19.5007 17.2756 18.9703 17.447 18.4374 17.6191C18.1916 17.6985 17.9453 17.7781 17.6955 17.845C17.6381 17.8604 17.3239 18.0334 16.9872 18.2243C16.5324 18.4823 16.1237 18.8137 15.7703 19.1991L15.6548 19.325C15.3333 19.6755 15.0735 20.0779 14.8865 20.5151L14.7443 20.8475C14.7271 20.8877 14.7141 20.9296 14.7053 20.9725C14.6331 21.3253 14.2871 21.5516 13.9349 21.4764L11.2528 20.9039L9.48165 20.4138C9.46591 20.255 9.43707 20.0953 9.3944 19.936C8.97123 18.3568 7.34794 17.4196 5.76867 17.8427C4.1894 18.2659 3.25219 19.8892 3.67536 21.4684C4.09852 23.0477 5.72181 23.9849 7.30109 23.5618C8.0996 23.3478 8.73397 22.827 9.11134 22.1602L10.6807 22.6261C11.1849 22.7758 11.8138 23.0966 12.2629 23.3704C12.562 23.5527 12.692 23.6704 12.9443 23.9134C13.1326 24.0947 13.3448 24.3042 13.4666 24.4415C13.6968 24.7011 13.7437 25.0755 13.5847 25.3838L13.1114 26.302C13.0186 26.4819 12.9495 26.673 12.9058 26.8706L12.8153 27.2798C12.6599 27.9823 12.6419 28.7083 12.7625 29.4177L12.8138 29.7194C12.8887 30.1604 13.0094 30.5925 13.174 31.0085L13.2333 31.1584C13.4405 31.6823 13.7283 32.1706 14.0863 32.6057C14.3836 32.9671 14.7265 33.2884 15.1065 33.5615L15.2768 33.684C15.4867 33.8684 15.5606 34.1633 15.4626 34.4249L15.293 34.8776C15.2558 34.977 15.2071 35.0717 15.1481 35.1599L14.7913 35.6926C14.5812 36.0063 14.3456 36.3022 14.0869 36.5773L13.6655 37.0254C13.5444 37.1542 13.4138 37.2734 13.2748 37.3822C12.4199 36.7409 11.2897 36.4846 10.1774 36.7827C8.25476 37.2978 7.11381 39.274 7.62897 41.1966C8.14412 43.1192 10.1203 44.2601 12.0429 43.745C13.9655 43.2298 15.1064 41.2536 14.5913 39.3311C14.4892 38.9503 14.3299 38.6001 14.125 38.2875C14.3042 38.0968 14.5122 37.8681 14.6968 37.6628C15.03 37.2922 15.3735 36.9307 15.737 36.5898C15.8046 36.5265 15.8591 36.4758 15.8854 36.4525C15.9931 36.357 16.4237 35.9751 16.5481 35.9418L16.7652 35.8836C17.7928 35.6083 18.9631 36.0585 19.7087 36.8173C19.7379 36.8471 19.7424 36.8531 19.7516 36.8653C19.7574 36.873 19.7651 36.8832 19.7821 36.9035L20.3706 37.6043C20.8429 38.1669 21.2601 38.5526 21.9233 38.8685C22.4604 39.1244 23.2148 39.3038 23.8097 39.3104L24.0038 39.3126C24.3886 39.3169 24.773 39.2879 25.1528 39.2258L25.8165 39.1172C26.268 39.0433 26.7072 38.9078 27.1218 38.7144C27.376 38.5958 27.6197 38.4561 27.8505 38.2966L27.8961 38.265C28.1587 38.0835 28.4055 37.88 28.6338 37.6568L28.6864 37.6054C28.9851 37.3133 29.255 36.9932 29.4925 36.6495L30.0956 35.7763L30.4632 35.2395C30.6644 34.9455 30.8977 34.6748 31.1587 34.4323C31.4997 34.1155 31.8848 33.8497 32.3021 33.6434L33.1437 33.2273L33.5578 33.0389C33.9877 32.8433 34.3628 32.5448 34.6499 32.1697C34.7857 31.9924 34.9003 31.7999 34.9914 31.596L35.1102 31.3304C35.2998 30.9064 35.4336 30.4589 35.5081 30.0004C35.5838 29.5349 35.5979 29.0608 35.5499 28.5917L35.4225 27.3456C35.4186 27.3073 35.4116 27.2695 35.4017 27.2323C35.3061 26.8755 35.4957 26.5047 35.8423 26.3768C36.3775 26.1792 36.9988 25.9537 37.1817 25.8874C37.2176 25.8744 37.2526 25.8627 37.2892 25.8515C37.71 25.7229 40.4904 24.8756 42.6364 24.283C43.5155 24.0403 44.4196 23.9081 45.3302 23.863ZM27.3587 8.99285C27.6749 10.1726 28.8875 10.8727 30.0673 10.5566C31.2471 10.2405 31.9472 9.02785 31.6311 7.84808C31.315 6.6683 30.1023 5.96818 28.9225 6.2843C27.7427 6.60041 27.0426 7.81307 27.3587 8.99285ZM11.7037 42.4791C10.4802 42.8069 9.22267 42.0809 8.89484 40.8574C8.56701 39.6339 9.29308 38.3764 10.5165 38.0485C11.74 37.7207 12.9976 38.4468 13.3254 39.6702C13.6532 40.8937 12.9272 42.1513 11.7037 42.4791ZM4.71518 21.1898C4.98447 22.1948 6.01747 22.7912 7.02247 22.5219C8.02745 22.2526 8.62386 21.2196 8.35457 20.2147C8.08528 19.2097 7.05228 18.6133 6.04729 18.8825C5.0423 19.1518 4.44589 20.1848 4.71518 21.1898Z" fill="#354D8A"/>
<path d="M22.8268 18.9471C22.6536 18.8713 22.2496 18.7784 21.8488 18.6988C21.3231 18.5943 20.7866 18.56 20.2506 18.569C19.7274 18.5778 19.1998 18.6144 18.7034 18.7803C16.7279 19.4405 15.9567 20.947 15.764 21.9082C15.7186 22.1348 15.7293 22.3669 15.754 22.5966C15.8721 23.6982 15.5204 24.7942 14.8176 25.6507C14.307 26.2728 14.0251 27.025 14.0286 27.8298C14.03 28.1484 14.05 28.463 14.1079 28.6789L14.4576 29.9844C14.7175 30.954 15.304 31.7886 16.0272 32.4849C16.1914 32.6429 16.4078 32.7956 16.6328 32.8318C16.8576 32.8679 17.1504 32.9046 17.4045 32.9028C17.6469 32.901 17.7173 32.8599 17.9415 32.952C18.5469 33.2004 19.0066 33.9436 19.3844 34.4779C19.4909 34.6284 19.6312 34.8197 19.8198 35.077C19.9849 35.3021 20.1168 35.4789 20.2222 35.6178C20.4851 35.9642 20.7244 36.2074 21.0641 36.4788C21.8661 37.1196 22.8478 37.7267 23.8585 37.9065C24.0162 37.9346 24.155 37.9524 24.2549 37.9528C24.3783 37.9706 24.5695 37.9857 24.7906 37.9832C25.5718 37.9744 26.3838 37.759 26.9911 37.2675C27.4088 36.9296 27.6693 36.4985 27.938 36.0332C28.12 35.7179 28.1944 35.4981 28.5751 34.9297C29.0369 34.2402 29.7165 33.7334 30.2933 33.1368C30.4213 33.0044 30.5543 32.8908 30.6821 32.7946C31.1359 32.4532 31.5802 32.27 32.0155 31.9052C33.1953 30.9167 34.1335 29.46 33.9685 27.9297C33.9586 27.838 33.9474 27.7491 33.9352 27.6638C33.8802 27.2788 33.7992 26.8928 33.6808 26.6325C33.3566 25.9198 33.3444 26.1229 32.8792 25.3814C32.414 24.64 31.9533 24.1638 31.588 23.7952C31.2228 23.4267 31.1728 23.2402 30.8896 22.1835C30.7037 21.4896 30.3344 20.864 29.8967 20.2945C29.6867 20.0213 29.4589 19.757 29.1827 19.551L28.3528 18.9322C28.2808 18.8757 28.129 18.8029 27.9486 18.7276C27.2508 18.4363 26.4711 18.437 25.7407 18.6327L24.311 19.0158C24.0001 19.0991 23.2042 19.1125 22.8268 18.9471Z" fill="#E96654"/>
<path d="M25.8303 26.3254C24.6287 26.6474 23.4085 25.99 23.1049 24.857C22.8013 23.7241 23.5293 22.5446 24.731 22.2226C25.9326 21.9007 27.1528 22.5581 27.4563 23.691C27.7599 24.824 27.0319 26.0035 25.8303 26.3254Z" fill="white"/>
<path d="M20.6157 29.988C19.7917 30.2088 18.9149 29.6085 18.6573 28.6472C18.3998 27.6859 18.8589 26.7276 19.6829 26.5068C20.5068 26.2861 21.3836 26.8864 21.6412 27.8477C21.8988 28.809 21.4396 29.7672 20.6157 29.988Z" fill="white"/>
<path d="M26.6601 32.0044C25.84 32.4303 24.883 32.213 24.5226 31.519C24.1623 30.8251 24.5349 29.9173 25.3551 29.4914C26.1752 29.0655 27.1322 29.2827 27.4926 29.9767C27.8529 30.6706 27.4803 31.5785 26.6601 32.0044Z" fill="white"/>
<path d="M37.7232 18.7414C36.6933 19.0174 35.6346 18.4062 35.3586 17.3762C35.0827 16.3462 35.6939 15.2876 36.7238 15.0116C37.7538 14.7356 38.8125 15.3468 39.0884 16.3768C39.3644 17.4068 38.7532 18.4654 37.7232 18.7414Z" fill="white"/>
<path fill-rule="evenodd" clip-rule="evenodd" d="M36.2289 17.143C36.3761 17.6923 36.9407 18.0183 37.49 17.8711C38.0394 17.7239 38.3653 17.1593 38.2182 16.61C38.071 16.0607 37.5063 15.7347 36.957 15.8819C36.4077 16.0291 36.0817 16.5937 36.2289 17.143ZM35.3586 17.3762C35.6346 18.4062 36.6933 19.0174 37.7232 18.7414C38.7532 18.4654 39.3644 17.4068 39.0884 16.3768C38.8125 15.3468 37.7538 14.7356 36.7238 15.0116C35.6939 15.2876 35.0827 16.3462 35.3586 17.3762Z" fill="#E96654"/>
<path d="M23.0372 47.7283C21.8356 48.0503 20.6004 47.3372 20.2785 46.1356C19.9565 44.934 20.6696 43.6989 21.8712 43.3769C23.0728 43.0549 24.3079 43.768 24.6299 44.9696C24.9519 46.1713 24.2388 47.4064 23.0372 47.7283Z" fill="white"/>
<path fill-rule="evenodd" clip-rule="evenodd" d="M21.1488 45.9024C21.3419 46.6234 22.083 47.0512 22.804 46.8581C23.525 46.6649 23.9528 45.9238 23.7596 45.2028C23.5664 44.4819 22.8254 44.054 22.1044 44.2472C21.3834 44.4404 20.9556 45.1814 21.1488 45.9024ZM20.2785 46.1356C20.6004 47.3372 21.8356 48.0503 23.0372 47.7283C24.2388 47.4064 24.9519 46.1713 24.6299 44.9696C24.3079 43.768 23.0728 43.0549 21.8712 43.3769C20.6696 43.6989 19.9565 44.934 20.2785 46.1356Z" fill="#E96654"/>
<path d="M30.7234 48.0671C30.2084 48.2051 29.6791 47.8995 29.5411 47.3845C29.4031 46.8696 29.7087 46.3402 30.2237 46.2022C30.7387 46.0643 31.268 46.3699 31.406 46.8848C31.544 47.3998 31.2384 47.9292 30.7234 48.0671Z" fill="white"/>
<path fill-rule="evenodd" clip-rule="evenodd" d="M30.163 47.218C30.209 47.3896 30.3855 47.4915 30.5571 47.4455C30.7288 47.3995 30.8306 47.2231 30.7846 47.0514C30.7387 46.8798 30.5622 46.7779 30.3905 46.8239C30.2189 46.8699 30.117 47.0463 30.163 47.218ZM29.5414 47.3845C29.6794 47.8995 30.2087 48.2051 30.7237 48.0671C31.2387 47.9292 31.5443 47.3998 31.4063 46.8848C31.2683 46.3699 30.739 46.0643 30.224 46.2022C29.709 46.3402 29.4034 46.8696 29.5414 47.3845Z" fill="#E96654"/>
<path d="M41.2597 32.1854C40.6074 32.3602 39.9369 31.9731 39.7621 31.3208C39.5873 30.6685 39.9744 29.998 40.6268 29.8232C41.2791 29.6484 41.9496 30.0355 42.1243 30.6879C42.2991 31.3402 41.912 32.0107 41.2597 32.1854Z" fill="white"/>
<path fill-rule="evenodd" clip-rule="evenodd" d="M40.3835 31.1543C40.4662 31.4633 40.7838 31.6467 41.0928 31.5639C41.4018 31.4811 41.5852 31.1635 41.5024 30.8545C41.4196 30.5455 41.102 30.3621 40.793 30.4449C40.484 30.5277 40.3007 30.8453 40.3835 31.1543ZM39.7618 31.3209C39.9366 31.9732 40.6071 32.3603 41.2594 32.1855C41.9117 32.0107 42.2988 31.3402 42.124 30.6879C41.9492 30.0356 41.2788 29.6485 40.6264 29.8233C39.9741 29.9981 39.587 30.6686 39.7618 31.3209Z" fill="#E96654"/>
<path d="M34.7348 36.2334C34.4757 36.1552 34.203 36.1321 33.9344 36.1655C33.6418 36.202 33.3613 36.3045 33.1143 36.4655L33.1018 36.4736C32.883 36.6162 32.6777 36.8783 32.6098 37.1305C32.5511 37.3482 32.5604 37.5026 32.5883 37.7263L32.6099 37.9005C32.638 38.1263 32.6823 38.3527 32.7865 38.5551C32.9138 38.8025 33.1457 39.1414 33.628 39.5966C34.0245 39.9313 34.1176 40.1028 34.2282 40.405C34.3447 40.7235 34.3032 41.0957 34.297 41.4348C34.288 41.9196 34.3184 42.4064 34.4352 42.8771C34.4868 43.0852 34.5504 43.2953 34.6226 43.44C34.7575 43.7102 34.9119 44.0021 35.022 44.1577C35.0286 44.167 35.0351 44.1761 35.0415 44.1851C35.3211 44.5769 35.7034 44.8735 36.1095 45.1317C36.1796 45.1763 36.2498 45.2201 36.3162 45.2604C36.6685 45.4742 37.3451 45.6379 37.8345 45.6645C38.2954 45.6895 38.7594 45.6575 39.2003 45.5209C39.3704 45.4682 39.5472 45.403 39.6978 45.3256C39.8569 45.2438 40.008 45.1405 40.1379 45.0401C40.4315 44.8133 40.8366 44.4417 41.0674 44.1512C41.2913 43.8692 41.3988 43.7094 41.5169 43.3693C41.5277 43.3383 41.5382 43.3069 41.5485 43.2754C41.663 42.9253 41.7088 42.5579 41.6807 42.1905C41.6755 42.1215 41.6696 42.0513 41.6634 41.9822C41.6255 41.5553 41.5333 41.1356 41.4041 40.7271L41.3329 40.5562C41.2157 40.2753 41.0577 40.0132 40.864 39.7784C40.5702 39.4224 40.2005 39.1367 39.7819 38.9423L39.5617 38.84C39.2531 38.6967 38.9281 38.5887 38.609 38.4706C38.1 38.2822 37.411 37.9773 37.1601 37.8251C36.8783 37.6541 36.3784 37.3115 36.1637 37.1616L35.6319 36.7066C35.3906 36.5002 35.109 36.3462 34.8049 36.2545L34.7348 36.2334Z" fill="#354D8A"/>
<path d="M34.8703 37.9171C34.7348 37.8758 34.5621 37.8495 34.4121 37.8553C34.362 37.8572 34.3135 37.8714 34.2676 37.8916C34.1252 37.9544 34.0192 38.0801 34.023 38.2357C34.0242 38.2877 34.0275 38.3301 34.029 38.3483C34.0296 38.3547 34.0302 38.3609 34.0312 38.3673C34.0333 38.382 34.0362 38.3988 34.0397 38.4172C34.0981 38.7211 34.2153 39.0154 34.4176 39.2494C34.4862 39.3288 34.569 39.4158 34.6694 39.5111C35.2099 39.9699 35.4771 40.5909 35.5345 41.2976L35.5564 41.5669C35.5515 41.8655 35.5708 42.1654 35.643 42.4554C35.6749 42.5837 35.7141 42.7131 35.7586 42.8023C35.8415 42.9689 35.9366 43.1489 36.0042 43.2449C36.0083 43.2506 36.0123 43.2562 36.0162 43.2618C36.1881 43.5034 36.4227 43.6866 36.6719 43.8462C36.7149 43.8737 36.758 43.9008 36.7987 43.9257C37.0149 44.0578 37.4297 44.1595 37.7297 44.1766C38.0121 44.1926 38.2965 44.1735 38.5665 44.0899C38.6706 44.0577 38.7789 44.0178 38.8711 43.9703C38.9684 43.9201 39.0609 43.8567 39.1404 43.795C39.32 43.6557 39.5678 43.4274 39.7088 43.2487C39.8457 43.0754 39.9113 42.9771 39.9833 42.7678C39.9898 42.7487 39.9962 42.7294 40.0025 42.71C40.0722 42.4945 40.0998 42.2683 40.0821 42.042C40.0788 41.9995 40.0751 41.9562 40.0712 41.9137C40.0475 41.6507 39.9904 41.3921 39.9107 41.1403L39.8668 41.035C39.7947 40.8618 39.6975 40.7002 39.5785 40.5553C39.398 40.3357 39.171 40.1593 38.9142 40.039L38.7792 39.9757C38.5899 39.8871 38.3906 39.8201 38.1949 39.7469C38.0651 39.6984 37.7038 39.6179 37.326 39.5404C36.6247 39.3966 35.9936 39.0119 35.562 38.4406C35.4395 38.2784 35.3052 38.1201 35.1263 38.0238C35.0448 37.98 34.9591 37.9442 34.8703 37.9171Z" fill="#E96654"/>
<path d="M70.888 21.856C70.664 21.9307 70.3707 21.9947 70.008 22.048C69.656 22.1013 69.32 22.128 69 22.128C67.9973 22.128 67.2613 21.9627 66.792 21.632C66.3227 21.3013 66.008 20.752 65.848 19.984C65.6987 19.216 65.624 18.0533 65.624 16.496C65.624 14.9493 65.704 13.792 65.864 13.024C66.024 12.2453 66.3387 11.6907 66.808 11.36C67.288 11.0293 68.0187 10.864 69 10.864C69.352 10.864 69.6987 10.8907 70.04 10.944C70.392 10.9867 70.664 11.0453 70.856 11.12V12.912C70.2373 12.8373 69.768 12.8 69.448 12.8C68.904 12.8 68.5253 12.8747 68.312 13.024C68.1093 13.1627 67.976 13.4667 67.912 13.936C67.8587 14.4053 67.832 15.2587 67.832 16.496C67.832 17.7333 67.8587 18.5867 67.912 19.056C67.976 19.5253 68.1093 19.8347 68.312 19.984C68.5253 20.1227 68.904 20.192 69.448 20.192C69.9387 20.192 70.4187 20.1547 70.888 20.08V21.856ZM75.3918 22.128C74.2824 22.128 73.4931 21.968 73.0238 21.648C72.5544 21.3173 72.2611 20.7947 72.1438 20.08C72.0264 19.3547 71.9678 18.16 71.9678 16.496C71.9678 14.8213 72.0264 13.6267 72.1438 12.912C72.2611 12.1973 72.5544 11.68 73.0238 11.36C73.4931 11.0293 74.2824 10.864 75.3918 10.864C76.5011 10.864 77.2904 11.0293 77.7598 11.36C78.2291 11.68 78.5224 12.1973 78.6398 12.912C78.7571 13.6267 78.8158 14.8213 78.8158 16.496C78.8158 18.16 78.7571 19.3547 78.6398 20.08C78.5224 20.7947 78.2291 21.3173 77.7598 21.648C77.2904 21.968 76.5011 22.128 75.3918 22.128ZM75.3918 20.192C75.8184 20.192 76.1064 20.1333 76.2558 20.016C76.4051 19.8987 76.5011 19.6107 76.5438 19.152C76.5864 18.6933 76.6078 17.808 76.6078 16.496C76.6078 15.184 76.5864 14.2987 76.5438 13.84C76.5011 13.3813 76.4051 13.0933 76.2558 12.976C76.1064 12.8587 75.8184 12.8 75.3918 12.8C74.9651 12.8 74.6771 12.8587 74.5278 12.976C74.3784 13.0933 74.2824 13.3813 74.2398 13.84C74.1971 14.2987 74.1758 15.184 74.1758 16.496C74.1758 17.808 74.1971 18.6933 74.2398 19.152C74.2824 19.6107 74.3784 19.8987 74.5278 20.016C74.6771 20.1333 74.9651 20.192 75.3918 20.192ZM84.7335 22L83.6615 18.16H82.4775V22H80.2695V10.992H83.9815C84.7708 10.992 85.3628 11.1253 85.7575 11.392C86.1628 11.6587 86.4348 12.0427 86.5735 12.544C86.7122 13.0453 86.7815 13.7173 86.7815 14.56C86.7815 15.36 86.7068 16.0213 86.5575 16.544C86.4188 17.0667 86.1308 17.4613 85.6935 17.728L87.0215 22H84.7335ZM83.4535 16.256C83.8055 16.256 84.0562 16.2187 84.2055 16.144C84.3548 16.0587 84.4508 15.9093 84.4935 15.696C84.5468 15.472 84.5735 15.0987 84.5735 14.576C84.5735 14.064 84.5468 13.7013 84.4935 13.488C84.4508 13.2747 84.3548 13.1307 84.2055 13.056C84.0562 12.9707 83.8055 12.928 83.4535 12.928H82.4775V16.256H83.4535ZM91.3918 22.128C90.2824 22.128 89.4931 21.968 89.0238 21.648C88.5544 21.3173 88.2611 20.7947 88.1438 20.08C88.0264 19.3547 87.9678 18.16 87.9678 16.496C87.9678 14.8213 88.0264 13.6267 88.1438 12.912C88.2611 12.1973 88.5544 11.68 89.0238 11.36C89.4931 11.0293 90.2824 10.864 91.3918 10.864C92.5011 10.864 93.2904 11.0293 93.7598 11.36C94.2291 11.68 94.5224 12.1973 94.6398 12.912C94.7571 13.6267 94.8158 14.8213 94.8158 16.496C94.8158 18.16 94.7571 19.3547 94.6398 20.08C94.5224 20.7947 94.2291 21.3173 93.7598 21.648C93.2904 21.968 92.5011 22.128 91.3918 22.128ZM91.3918 20.192C91.8184 20.192 92.1064 20.1333 92.2558 20.016C92.4051 19.8987 92.5011 19.6107 92.5438 19.152C92.5864 18.6933 92.6078 17.808 92.6078 16.496C92.6078 15.184 92.5864 14.2987 92.5438 13.84C92.5011 13.3813 92.4051 13.0933 92.2558 12.976C92.1064 12.8587 91.8184 12.8 91.3918 12.8C90.9651 12.8 90.6771 12.8587 90.5278 12.976C90.3784 13.0933 90.2824 13.3813 90.2398 13.84C90.1971 14.2987 90.1758 15.184 90.1758 16.496C90.1758 17.808 90.1971 18.6933 90.2398 19.152C90.2824 19.6107 90.3784 19.8987 90.5278 20.016C90.6771 20.1333 90.9651 20.192 91.3918 20.192ZM100.99 22L98.4295 15.968H98.3655V22H96.2695V10.992H98.3975L100.782 16.56H100.862V10.992H102.974V22H100.99ZM109.461 22L109.029 19.744H106.565L106.133 22H103.941L106.213 10.992H109.429L111.701 22H109.461ZM107.845 13.072H107.749L106.885 17.84H108.693L107.845 13.072ZM113.663 22L111.551 10.992H113.791L115.231 19.696H115.375L116.767 10.992H118.975L116.863 22H113.663ZM120.004 22V10.992H122.196V22H120.004ZM128.343 22L127.271 18.16H126.087V22H123.879V10.992H127.591C128.38 10.992 128.972 11.1253 129.367 11.392C129.772 11.6587 130.044 12.0427 130.183 12.544C130.322 13.0453 130.391 13.7173 130.391 14.56C130.391 15.36 130.316 16.0213 130.167 16.544C130.028 17.0667 129.74 17.4613 129.303 17.728L130.631 22H128.343ZM127.063 16.256C127.415 16.256 127.666 16.2187 127.815 16.144C127.964 16.0587 128.06 15.9093 128.103 15.696C128.156 15.472 128.183 15.0987 128.183 14.576C128.183 14.064 128.156 13.7013 128.103 13.488C128.06 13.2747 127.964 13.1307 127.815 13.056C127.666 12.9707 127.415 12.928 127.063 12.928H126.087V16.256H127.063ZM138.281 10.992V17.12C138.281 18.5707 138.217 19.6267 138.089 20.288C137.972 20.9387 137.684 21.408 137.225 21.696C136.777 21.984 136.036 22.128 135.001 22.128C133.966 22.128 133.22 21.984 132.761 21.696C132.313 21.408 132.025 20.9387 131.897 20.288C131.78 19.6267 131.721 18.5707 131.721 17.12V10.992H133.913V17.856C133.913 18.6347 133.929 19.1733 133.961 19.472C134.004 19.76 134.094 19.952 134.233 20.048C134.382 20.144 134.638 20.192 135.001 20.192C135.364 20.192 135.614 20.144 135.753 20.048C135.892 19.952 135.977 19.76 136.009 19.472C136.052 19.184 136.073 18.6453 136.073 17.856V10.992H138.281ZM142.583 22.128C142.135 22.128 141.644 22.1013 141.111 22.048C140.588 22.0053 140.124 21.9413 139.719 21.856V20.064C140.807 20.1493 141.559 20.192 141.975 20.192C142.348 20.192 142.631 20.1707 142.823 20.128C143.015 20.0853 143.159 20.0107 143.255 19.904C143.34 19.8187 143.394 19.7013 143.415 19.552C143.447 19.392 143.463 19.168 143.463 18.88C143.463 18.4853 143.442 18.208 143.399 18.048C143.356 17.8773 143.266 17.7547 143.127 17.68C142.999 17.5947 142.77 17.52 142.439 17.456L140.935 17.184C140.402 17.088 140.034 16.7947 139.831 16.304C139.628 15.8133 139.527 15.104 139.527 14.176C139.527 13.2693 139.655 12.576 139.911 12.096C140.178 11.616 140.54 11.2907 140.999 11.12C141.458 10.9493 142.039 10.864 142.743 10.864C143.234 10.864 143.703 10.896 144.151 10.96C144.61 11.024 144.983 11.088 145.271 11.152V12.944C144.695 12.848 144.05 12.8 143.335 12.8C142.951 12.8 142.652 12.816 142.439 12.848C142.236 12.88 142.087 12.9387 141.991 13.024C141.874 13.1093 141.799 13.232 141.767 13.392C141.735 13.552 141.719 13.7867 141.719 14.096C141.719 14.4267 141.735 14.6667 141.767 14.816C141.81 14.9653 141.879 15.072 141.975 15.136C142.071 15.2 142.236 15.2533 142.471 15.296L143.879 15.552C144.252 15.6053 144.567 15.7227 144.823 15.904C145.09 16.0747 145.298 16.3627 145.447 16.768C145.596 17.1947 145.671 17.7973 145.671 18.576C145.671 19.5893 145.548 20.352 145.303 20.864C145.058 21.376 144.716 21.7173 144.279 21.888C143.852 22.048 143.287 22.128 142.583 22.128ZM70.888 42.856C70.664 42.9307 70.3707 42.9947 70.008 43.048C69.656 43.1013 69.32 43.128 69 43.128C67.9973 43.128 67.2613 42.9627 66.792 42.632C66.3227 42.3013 66.008 41.752 65.848 40.984C65.6987 40.216 65.624 39.0533 65.624 37.496C65.624 35.9493 65.704 34.792 65.864 34.024C66.024 33.2453 66.3387 32.6907 66.808 32.36C67.288 32.0293 68.0187 31.864 69 31.864C69.352 31.864 69.6987 31.8907 70.04 31.944C70.392 31.9867 70.664 32.0453 70.856 32.12V33.912C70.2373 33.8373 69.768 33.8 69.448 33.8C68.904 33.8 68.5253 33.8747 68.312 34.024C68.1093 34.1627 67.976 34.4667 67.912 34.936C67.8587 35.4053 67.832 36.2587 67.832 37.496C67.832 38.7333 67.8587 39.5867 67.912 40.056C67.976 40.5253 68.1093 40.8347 68.312 40.984C68.5253 41.1227 68.904 41.192 69.448 41.192C69.9387 41.192 70.4187 41.1547 70.888 41.08V42.856ZM75.3918 43.128C74.2824 43.128 73.4931 42.968 73.0238 42.648C72.5544 42.3173 72.2611 41.7947 72.1438 41.08C72.0264 40.3547 71.9678 39.16 71.9678 37.496C71.9678 35.8213 72.0264 34.6267 72.1438 33.912C72.2611 33.1973 72.5544 32.68 73.0238 32.36C73.4931 32.0293 74.2824 31.864 75.3918 31.864C76.5011 31.864 77.2904 32.0293 77.7598 32.36C78.2291 32.68 78.5224 33.1973 78.6398 33.912C78.7571 34.6267 78.8158 35.8213 78.8158 37.496C78.8158 39.16 78.7571 40.3547 78.6398 41.08C78.5224 41.7947 78.2291 42.3173 77.7598 42.648C77.2904 42.968 76.5011 43.128 75.3918 43.128ZM75.3918 41.192C75.8184 41.192 76.1064 41.1333 76.2558 41.016C76.4051 40.8987 76.5011 40.6107 76.5438 40.152C76.5864 39.6933 76.6078 38.808 76.6078 37.496C76.6078 36.184 76.5864 35.2987 76.5438 34.84C76.5011 34.3813 76.4051 34.0933 76.2558 33.976C76.1064 33.8587 75.8184 33.8 75.3918 33.8C74.9651 33.8 74.6771 33.8587 74.5278 33.976C74.3784 34.0933 74.2824 34.3813 74.2398 34.84C74.1971 35.2987 74.1758 36.184 74.1758 37.496C74.1758 38.808 74.1971 39.6933 74.2398 40.152C74.2824 40.6107 74.3784 40.8987 74.5278 41.016C74.6771 41.1333 74.9651 41.192 75.3918 41.192ZM81.5533 43L79.4413 31.992H81.6813L83.1213 40.696H83.2653L84.6573 31.992H86.8653L84.7533 43H81.5533ZM87.8949 43V31.992H90.0869V43H87.8949ZM91.7695 31.992H94.7455C95.8762 31.992 96.6815 32.152 97.1615 32.472C97.6522 32.7813 97.9562 33.288 98.0735 33.992C98.1908 34.6853 98.2495 35.8533 98.2495 37.496C98.2495 39.1387 98.1908 40.312 98.0735 41.016C97.9562 41.7093 97.6522 42.216 97.1615 42.536C96.6815 42.8453 95.8762 43 94.7455 43H91.7695V31.992ZM94.7135 41.064C95.1828 41.064 95.4975 41.0107 95.6575 40.904C95.8282 40.7867 95.9348 40.504 95.9775 40.056C96.0308 39.608 96.0575 38.7547 96.0575 37.496C96.0575 36.248 96.0308 35.4 95.9775 34.952C95.9242 34.4933 95.8175 34.2107 95.6575 34.104C95.4975 33.9867 95.1828 33.928 94.7135 33.928H93.9615V41.064H94.7135ZM102.502 39.368V37.512H105.718V39.368H102.502ZM111.232 43V34.52L109.616 35.176V33.16L111.792 31.992H113.44V43H111.232ZM117.673 43.128C117.321 43.128 116.91 43.096 116.441 43.032C115.982 42.968 115.566 42.888 115.193 42.792V41.016C116.057 41.1333 116.745 41.192 117.257 41.192C117.844 41.192 118.254 41.1227 118.489 40.984C118.734 40.8453 118.889 40.584 118.953 40.2C119.028 39.8053 119.065 39.1333 119.065 38.184H118.953C118.654 38.696 118.073 38.952 117.209 38.952C116.633 38.952 116.18 38.8773 115.849 38.728C115.518 38.568 115.262 38.2533 115.081 37.784C114.91 37.3147 114.825 36.616 114.825 35.688C114.825 34.6853 114.91 33.9173 115.081 33.384C115.252 32.84 115.556 32.4507 115.993 32.216C116.441 31.9813 117.097 31.864 117.961 31.864C118.59 31.864 119.097 31.912 119.481 32.008C119.865 32.0933 120.174 32.2693 120.409 32.536C120.654 32.8027 120.841 33.192 120.969 33.704C121.065 34.1093 121.134 34.616 121.177 35.224C121.22 35.8213 121.241 36.5733 121.241 37.48C121.241 39.2507 121.113 40.5147 120.857 41.272C120.633 41.9547 120.27 42.4347 119.769 42.712C119.278 42.9893 118.58 43.128 117.673 43.128ZM118.009 37.016C118.329 37.016 118.558 36.984 118.697 36.92C118.836 36.856 118.926 36.728 118.969 36.536C119.022 36.3333 119.049 36.0027 119.049 35.544C119.049 34.9893 119.017 34.5893 118.953 34.344C118.9 34.0987 118.804 33.944 118.665 33.88C118.526 33.816 118.308 33.784 118.009 33.784C117.689 33.784 117.46 33.816 117.321 33.88C117.193 33.9333 117.102 34.0667 117.049 34.28C116.996 34.4933 116.969 34.8613 116.969 35.384C116.969 35.9173 116.996 36.296 117.049 36.52C117.102 36.7333 117.193 36.872 117.321 36.936C117.449 36.9893 117.678 37.016 118.009 37.016ZM130.271 43L127.711 36.968H127.647V43H125.551V31.992H127.679L130.063 37.56H130.143V31.992H132.255V43H130.271ZM133.926 43V31.992H139.27V33.928H136.134V36.472H138.838V38.408H136.134V41.064H139.27V43H133.926ZM147.06 43L145.924 35.336H145.828L144.708 43H141.684L140.1 31.992H142.324L143.268 40.616H143.38L144.628 31.992H147.22L148.484 40.616H148.596L149.492 31.992H151.668L150.068 43H147.06ZM155.458 43.128C155.01 43.128 154.519 43.1013 153.986 43.048C153.463 43.0053 152.999 42.9413 152.594 42.856V41.064C153.682 41.1493 154.434 41.192 154.85 41.192C155.223 41.192 155.506 41.1707 155.698 41.128C155.89 41.0853 156.034 41.0107 156.13 40.904C156.215 40.8187 156.269 40.7013 156.29 40.552C156.322 40.392 156.338 40.168 156.338 39.88C156.338 39.4853 156.317 39.208 156.274 39.048C156.231 38.8773 156.141 38.7547 156.002 38.68C155.874 38.5947 155.645 38.52 155.314 38.456L153.81 38.184C153.277 38.088 152.909 37.7947 152.706 37.304C152.503 36.8133 152.402 36.104 152.402 35.176C152.402 34.2693 152.53 33.576 152.786 33.096C153.053 32.616 153.415 32.2907 153.874 32.12C154.333 31.9493 154.914 31.864 155.618 31.864C156.109 31.864 156.578 31.896 157.026 31.96C157.485 32.024 157.858 32.088 158.146 32.152V33.944C157.57 33.848 156.925 33.8 156.21 33.8C155.826 33.8 155.527 33.816 155.314 33.848C155.111 33.88 154.962 33.9387 154.866 34.024C154.749 34.1093 154.674 34.232 154.642 34.392C154.61 34.552 154.594 34.7867 154.594 35.096C154.594 35.4267 154.61 35.6667 154.642 35.816C154.685 35.9653 154.754 36.072 154.85 36.136C154.946 36.2 155.111 36.2533 155.346 36.296L156.754 36.552C157.127 36.6053 157.442 36.7227 157.698 36.904C157.965 37.0747 158.173 37.3627 158.322 37.768C158.471 38.1947 158.546 38.7973 158.546 39.576C158.546 40.5893 158.423 41.352 158.178 41.864C157.933 42.376 157.591 42.7173 157.154 42.888C156.727 43.048 156.162 43.128 155.458 43.128Z" fill="#354D8A"/>
</svg>
