<svg width="16" height="17" viewBox="0 0 16 17" fill="none" xmlns="http://www.w3.org/2000/svg">
<path d="M11.7417 10.5625C12.529 9.50241 12.9999 8.20034 12.9999 6.78879C12.9999 3.25527 10.0839 0.38031 6.49996 0.38031C2.91599 0.38031 0 3.25527 0 6.78879C0 10.3223 2.91602 13.1973 6.49999 13.1973C7.93169 13.1973 9.25248 12.7329 10.3277 11.9566L14.586 16.155L16 14.7608C16 14.7608 11.7417 10.5625 11.7417 10.5625V10.5625ZM6.49999 11.2254C4.01854 11.2254 2.00001 9.23529 2.00001 6.78879C2.00001 4.34228 4.01854 2.35216 6.49999 2.35216C8.98143 2.35216 11 4.34228 11 6.78879C11 9.23529 8.9814 11.2254 6.49999 11.2254Z" fill="white"/>
</svg>
