<svg width="19" height="18" viewBox="0 0 19 18" fill="none" xmlns="http://www.w3.org/2000/svg">
<path d="M9.00433 9.62536e-08C5.40275 -0.000524861 2.14771 2.14629 0.73014 5.45716L0.617949 5.49435L0.661446 5.62484C-1.205 10.2282 1.01365 15.473 5.61701 17.3395C6.69216 17.7754 7.84148 17.9992 9.00167 17.9985C13.9718 17.9993 18.0015 13.9708 18.0023 9.00062C18.003 4.03047 13.9745 0.000712538 9.00433 9.62536e-08ZM16.0632 13.5366L15.6011 13.0747V11.999C15.6017 11.9526 15.5914 11.9067 15.5711 11.8649L14.4012 9.52843V8.39932C14.4012 8.29905 14.3512 8.20539 14.2677 8.14974L13.3678 7.54979C13.2973 7.50269 13.2101 7.48766 13.1278 7.50839L12.0257 7.78377L10.1746 6.98943L9.9199 5.20518L10.6257 4.49964H12.1409L12.6509 5.26607C12.6969 5.33499 12.7695 5.38183 12.8513 5.39536L14.6511 5.69534C14.6993 5.70344 14.7488 5.6995 14.7951 5.68394L16.4528 5.13138C17.8431 7.79948 17.6944 11.0085 16.0632 13.5366ZM14.826 2.95596L14.3382 3.28113L12.9784 3.00906L12.0962 2.71538C12.0422 2.69704 11.9841 2.69472 11.9288 2.70878L10.8135 2.98746L10.3246 2.82457L10.6869 2.09983H11.7015C11.748 2.09987 11.7939 2.08911 11.8355 2.06833L12.8735 1.54937C13.5882 1.92247 14.2458 2.39613 14.826 2.95596ZM5.71604 1.2698L6.43598 1.74976C6.47137 1.77331 6.51135 1.78905 6.55327 1.79595L8.00695 2.03833L7.86506 2.4628L7.10762 2.71568C7.03979 2.73825 6.98223 2.7843 6.94534 2.84557L6.08381 4.28125L4.70002 5.11159L2.66018 5.40286C2.51233 5.42375 2.40239 5.55023 2.4022 5.69954V6.59947C2.4022 6.67903 2.43385 6.7553 2.4901 6.81155L3.00216 7.32361V7.83896L1.75426 7.00683L1.30159 5.64884C2.16282 3.681 3.74133 2.11513 5.71604 1.2698ZM4.86201 11.1051L3.50612 10.8336L3.00216 9.8284V9.12346L4.11987 8.00575L4.53353 8.83338C4.58434 8.93508 4.68832 8.99931 4.80201 8.99927H6.73205L7.54469 10.3537C7.59891 10.4439 7.69648 10.4991 7.80177 10.4991H8.6357L8.42572 11.5512L7.29001 12.6869C7.23365 12.7431 7.20193 12.8193 7.20182 12.899V13.6489L6.1219 14.4588C6.04638 14.5155 6.00191 14.6044 6.00191 14.6988V15.7823L5.62874 15.6587L5.10199 14.3412V11.3991C5.10202 11.2565 5.00168 11.1336 4.86201 11.1051ZM3.96028 15.7165C1.13192 13.5946 -0.0641954 9.9283 0.968621 6.54667L1.2179 7.29421C1.2389 7.35747 1.28037 7.41195 1.33579 7.449L2.83117 8.44582L2.4901 8.78719C2.43385 8.84343 2.4022 8.9197 2.4022 8.99927V9.8992C2.40217 9.94573 2.41293 9.99163 2.4337 10.0333L3.03365 11.2332C3.0752 11.3161 3.15271 11.3751 3.24364 11.3931L4.50353 11.6448V14.3988C4.5035 14.4369 4.51073 14.4747 4.52483 14.5101L5.12478 16.01C5.15763 16.0919 5.2249 16.1553 5.30867 16.1831L6.2086 16.4831C6.23867 16.4933 6.27017 16.4985 6.30189 16.4987C6.46755 16.4987 6.60186 16.3643 6.60186 16.1987V14.8488L7.68178 14.0389C7.7573 13.9822 7.80177 13.8933 7.80177 13.7989V13.0231L8.91378 11.9111C8.95559 11.8693 8.98408 11.8159 8.99567 11.7578L9.29565 10.258C9.32812 10.0955 9.22275 9.93748 9.06028 9.90501C9.04097 9.90115 9.02136 9.8992 9.00167 9.8992H7.97155L7.15892 8.54481C7.1047 8.45455 7.00713 8.39936 6.90184 8.39932H4.9874L4.47204 7.3653C4.42888 7.27899 4.34683 7.21869 4.25155 7.20332C4.15631 7.18686 4.05908 7.21828 3.99148 7.28731L3.60211 7.67518V7.19942C3.60211 7.11985 3.57046 7.04358 3.51421 6.98733L3.00216 6.47528V5.95962L4.84461 5.69654C4.88417 5.6908 4.92223 5.67723 4.9565 5.65664L6.45638 4.75671C6.49845 4.73144 6.53369 4.69619 6.55897 4.65412L7.4019 3.24934L8.19654 2.98416C8.28627 2.95472 8.35668 2.88434 8.38612 2.79457L8.6861 1.89465C8.73807 1.73735 8.65269 1.56767 8.49539 1.5157C8.48088 1.5109 8.46599 1.50723 8.45092 1.50468L6.71466 1.2152L6.40958 1.01182C8.29729 0.397393 10.3418 0.473437 12.1787 1.2263L11.6307 1.49988H10.5015C10.3873 1.49924 10.2826 1.56359 10.2316 1.66577L9.63162 2.86567C9.55771 3.01393 9.61797 3.19407 9.76623 3.26797C9.77887 3.27427 9.79192 3.27967 9.8053 3.28413L10.7052 3.58411C10.7592 3.60245 10.8173 3.60477 10.8726 3.59071L11.9879 3.31203L12.8051 3.58411C12.8168 3.58831 12.8288 3.59153 12.8411 3.59371L14.3409 3.89368C14.4189 3.90958 14.5001 3.89361 14.5662 3.84929L15.249 3.39392C15.585 3.76818 15.8869 4.17165 16.1513 4.59953L14.6754 5.09149L13.0774 4.82511L12.5495 4.03317C12.4941 3.95019 12.4011 3.90017 12.3014 3.89968H10.5015C10.422 3.89968 10.3457 3.93133 10.2895 3.98758L9.38954 4.8875C9.32272 4.95429 9.29126 5.04867 9.30465 5.14218L9.60462 7.24201C9.61973 7.34584 9.68798 7.43422 9.78461 7.47509L11.8844 8.37502C11.9446 8.40108 12.0117 8.40644 12.0752 8.39032L13.1464 8.12244L13.8013 8.55981V9.59922C13.8008 9.64564 13.811 9.69154 13.8313 9.73331L15.0012 12.0698V13.1989C15.0012 13.2785 15.0328 13.3548 15.0891 13.411L15.7166 14.0389C12.9335 17.7486 7.66997 18.4997 3.96028 15.7165Z" fill="white"/>
</svg>
