<svg width="25" height="25" viewBox="0 0 25 25" fill="none" xmlns="http://www.w3.org/2000/svg">
<path fill-rule="evenodd" clip-rule="evenodd" d="M7.71637 0.951576C8.50029 0.626945 9.37386 0.587654 10.1788 0.83065C10.8295 0.298119 11.6516 0 12.5 0C13.3484 0 14.1705 0.298119 14.8212 0.83065C15.6261 0.587654 16.4997 0.626945 17.2836 0.951385C18.0674 1.27621 18.7128 1.86615 19.1103 2.60715C19.9469 2.6907 20.7388 3.06129 21.3388 3.66116C21.9387 4.26102 22.3093 5.05314 22.3928 5.8897C23.1339 6.28719 23.7238 6.93264 24.0484 7.71637C24.3731 8.50029 24.4123 9.37386 24.1693 10.1788C24.7019 10.8295 25 11.6516 25 12.5C25 13.3484 24.7019 14.1705 24.1693 14.8211C24.4123 15.6261 24.3731 16.4997 24.0484 17.2834C23.7238 18.0672 23.1339 18.7128 22.3928 19.1101C22.3093 19.9469 21.9387 20.739 21.3388 21.3388C20.739 21.9387 19.9469 22.3093 19.1103 22.3928C18.7128 23.1339 18.0674 23.7238 17.2836 24.0484C16.4997 24.3731 15.6261 24.4123 14.8212 24.1693C14.1705 24.7019 13.3484 25 12.5 25C11.6516 25 10.8295 24.7019 10.1788 24.1695C9.37386 24.4123 8.50029 24.3731 7.71637 24.0486C6.93264 23.7238 6.28719 23.1339 5.8897 22.3928C5.05314 22.3093 4.26102 21.9387 3.66116 21.3388C3.06129 20.739 2.6907 19.9469 2.60715 19.1103C1.86615 18.7128 1.27621 18.0674 0.951576 17.2836C0.626945 16.4997 0.587654 15.6261 0.83065 14.8212C0.298119 14.1705 0 13.3484 0 12.5C0 11.6516 0.298119 10.8295 0.83065 10.1789C0.587654 9.37386 0.626945 8.50029 0.951576 7.71656C1.27621 6.93283 1.86615 6.28719 2.60715 5.88989C2.6907 5.05314 3.06129 4.26102 3.66116 3.66116C4.26102 3.06129 5.05314 2.6907 5.8897 2.60715C6.28719 1.86615 6.93264 1.27621 7.71637 0.951576Z" fill="#364B81"/>
<path fill-rule="evenodd" clip-rule="evenodd" d="M12.5 21C7.80563 21 4 17.1944 4 12.5C4 7.80563 7.80563 4 12.5 4C17.1944 4 21 7.80563 21 12.5C21 17.1944 17.1944 21 12.5 21Z" fill="#688CE8"/>
<path fill-rule="evenodd" clip-rule="evenodd" d="M10.4076 10.892L12.5 9L14.5924 10.892L17 10.4566L16.4134 13.4733L15.922 16H12.5H9.07798L8.58664 13.4733L8 10.4566L10.4076 10.892Z" fill="white"/>
</svg>
