<svg width="35" height="35" viewBox="0 0 35 35" fill="none" xmlns="http://www.w3.org/2000/svg">
<circle cx="17.5" cy="17.5" r="17.5" fill="white"/>
<path d="M26.5 17.6004C26.5 12.6029 22.4474 8.55035 17.45 8.55035C12.4526 8.55035 8.40002 12.6029 8.40002 17.6004C8.40002 22.5978 12.4526 26.6504 17.45 26.6504C17.5032 26.6504 17.5561 26.6492 17.6091 26.6483V19.6032H15.6648V17.3373H17.6091V15.6698C17.6091 13.736 18.7897 12.6834 20.5147 12.6834C21.3408 12.6834 22.0508 12.745 22.2578 12.7725V14.7936H21.0683C20.1298 14.7936 19.9481 15.2397 19.9481 15.8941V17.3373H22.1921L21.8996 19.6032H19.9481V26.3007C23.7309 25.2163 26.5 21.7312 26.5 17.6004Z" fill="black"/>
</svg>
