<svg width="34" height="34" viewBox="0 0 34 34" fill="none" xmlns="http://www.w3.org/2000/svg">
<circle cx="17" cy="17" r="17" transform="rotate(-180 17 17)" fill="white"/>
<g clip-path="url(#clip0)">
<path d="M17 2.97237e-06C7.61113 1.33077e-06 -1.33077e-06 7.61113 -2.97237e-06 17C-4.61394e-06 26.3886 7.61112 34 17 34C26.3889 34 34 26.3887 34 17C34 7.61113 26.3889 4.61398e-06 17 2.97237e-06ZM22.1802 18.1514C22.0974 18.2342 22.0065 18.3042 21.9119 18.3651L15.5318 24.7452C15.2219 25.0553 14.8157 25.2102 14.4095 25.2102C14.0033 25.2102 13.5974 25.0553 13.2873 24.7452C12.6674 24.1253 12.6674 23.12 13.2873 22.5003L18.785 17.0018L13.315 11.5318C12.695 10.9115 12.695 9.90658 13.315 9.28688C13.9349 8.66694 14.9399 8.66728 15.5599 9.28654L21.9118 15.6381C22.0064 15.6989 22.0973 15.7689 22.1798 15.8518C22.4967 16.1687 22.6496 16.5861 22.6424 17.0017C22.6499 17.4171 22.4973 17.8343 22.1802 18.1514Z" fill="#1E2023"/>
</g>
<defs>
<clipPath id="clip0">
<rect width="34" height="34" fill="white"/>
</clipPath>
</defs>
</svg>
