<svg width="34" height="34" viewBox="0 0 34 34" fill="none" xmlns="http://www.w3.org/2000/svg">
<circle cx="17" cy="17" r="17" fill="white"/>
<g clip-path="url(#clip0)">
<path d="M17 34C26.3889 34 34 26.3889 34 17C34 7.61135 26.3889 -6.65386e-07 17 -1.48619e-06C7.61113 -2.30699e-06 2.30697e-06 7.61135 1.48619e-06 17C6.65386e-07 26.3889 7.61113 34 17 34ZM11.8198 15.8486C11.9026 15.7658 11.9935 15.6958 12.0881 15.6349L18.4682 9.2548C18.7781 8.94472 19.1843 8.78979 19.5905 8.78979C19.9966 8.78979 20.4026 8.94472 20.7127 9.2548C21.3326 9.87473 21.3326 10.88 20.7127 11.4997L15.215 16.9982L20.685 22.4682C21.305 23.0885 21.305 24.0934 20.685 24.7131C20.0651 25.3331 19.0601 25.3327 18.4401 24.7135L12.0882 18.3619C11.9936 18.3011 11.9027 18.2311 11.8202 18.1482C11.5033 17.8313 11.3504 17.4139 11.3576 16.9983C11.3501 16.5829 11.5027 16.1658 11.8198 15.8486Z" fill="#1E2023"/>
</g>
<defs>
<clipPath id="clip0">
<rect x="34" y="34" width="34" height="34" transform="rotate(-180 34 34)" fill="white"/>
</clipPath>
</defs>
</svg>
