<svg width="23" height="23" viewBox="0 0 23 23" fill="none" xmlns="http://www.w3.org/2000/svg">
<path d="M10.1083 13.0512C10.1313 13.0792 10.158 13.1042 10.1873 13.1261C11.3272 14.1898 12.8558 14.8417 14.5342 14.8417C16.191 14.8417 17.7022 14.2065 18.8374 13.1668C18.9 13.1308 18.9529 13.0803 18.9916 13.0203C20.1752 11.862 20.9112 10.2478 20.9112 8.46493C20.9112 4.94856 18.0504 2.08795 14.5342 2.08795C11.0178 2.08795 8.15723 4.94856 8.15723 8.46493C8.15723 10.2637 8.90616 11.8907 10.1083 13.0512ZM10.9352 12.5919C11.1644 11.4126 12.1962 10.5487 13.4212 10.5487H14.085V12.2461C14.085 12.494 14.2861 12.6953 14.5342 12.6953C14.7822 12.6953 14.9834 12.494 14.9834 12.2461V10.5487H15.6471C16.8736 10.5487 17.9042 11.412 18.1332 12.5918C17.1699 13.433 15.9105 13.9435 14.5342 13.9435C13.1578 13.9433 11.8986 13.433 10.9352 12.5919ZM13.1785 7.96149H13.6117C14.2031 7.96149 14.7662 7.74846 15.2052 7.36715L15.8898 7.76934V8.29454C15.8898 9.04207 15.2816 9.65027 14.5342 9.65027C13.7867 9.65027 13.1785 9.04207 13.1785 8.29454V7.96149ZM15.8898 6.72736L15.3591 6.41572C15.17 6.30447 14.9283 6.34623 14.7872 6.51451C14.4951 6.86318 14.0667 7.06305 13.6117 7.06305H13.1785V6.63331C13.1785 5.88578 13.7867 5.27776 14.5342 5.27776C15.2816 5.27776 15.8898 5.88578 15.8898 6.63331V6.72736ZM14.5342 2.98639C17.555 2.98639 20.0127 5.44393 20.0127 8.46493C20.0127 9.73625 19.5772 10.9079 18.8478 11.8385C18.4242 10.7394 17.4589 9.9284 16.287 9.7094C16.6003 9.32213 16.7882 8.82992 16.7882 8.29454V6.63331C16.7882 5.39041 15.7771 4.37914 14.5342 4.37914C13.2913 4.37914 12.28 5.39041 12.28 6.63331V8.29454C12.28 8.83009 12.4681 9.3223 12.7812 9.7094C11.6106 9.92892 10.6446 10.7403 10.2208 11.8388C9.4912 10.9081 9.05566 9.73643 9.05566 8.46493C9.05566 5.44393 11.5132 2.98639 14.5342 2.98639Z" fill="#9D9D9D"/>
<path d="M14.4674 17.0645C16.7465 17.0645 18.8893 16.1769 20.5008 14.5653C22.1124 12.9538 23 10.811 23 8.53196C23 6.25288 22.1124 4.11014 20.5008 2.49857C19.1247 1.12267 17.3033 0.252134 15.372 0.0473541C13.4688 -0.154443 11.5345 0.29302 9.92456 1.30745C9.71469 1.43958 9.65169 1.71701 9.78382 1.92687C9.91613 2.13674 10.1936 2.19991 10.4034 2.06761C13.4362 0.156851 17.327 0.595365 19.8654 3.13397C21.3073 4.57586 22.1015 6.49293 22.1015 8.53196C22.1015 10.5712 21.3073 12.4882 19.8654 13.9301C18.4237 15.372 16.5067 16.166 14.4674 16.166C12.4282 16.166 10.5112 15.372 9.06946 13.9301C6.53086 11.3917 6.09234 7.50069 8.00292 4.46811C8.13523 4.25807 8.07223 3.98082 7.86237 3.84851C7.65232 3.7162 7.37507 3.7792 7.24276 3.98907C6.22851 5.59906 5.78105 7.53368 5.98284 9.43653C6.10568 10.5961 6.46891 11.7158 7.0371 12.7234L5.20689 14.5536L0.670844 19.09C0.238296 19.5225 0 20.0976 0 20.7093C0 21.321 0.238296 21.8962 0.670844 22.3287C1.10339 22.7613 1.67843 22.9994 2.29031 22.9994C2.90202 22.9994 3.47705 22.7613 3.9096 22.3287L8.44582 17.7925C8.44582 17.7925 8.44582 17.7923 8.446 17.7923L10.2722 15.9662C11.5379 16.683 12.9733 17.0645 14.4674 17.0645ZM3.27438 21.6933C3.01134 21.9562 2.66197 22.101 2.29013 22.101C1.91848 22.101 1.56893 21.9562 1.30607 21.6933C0.763495 21.1508 0.763495 20.2678 1.30607 19.7252L5.52468 15.5066L7.49281 17.4749L3.27438 21.6933ZM8.12821 16.8395L6.1599 14.8714L7.53159 13.4997C7.80183 13.8775 8.10312 14.2344 8.43406 14.5653C8.76712 14.8984 9.12316 15.1999 9.49797 15.4697L8.12821 16.8395Z" fill="#9D9D9D"/>
<path d="M8.75185 3.26506C8.86679 3.26506 8.98173 3.22136 9.06946 3.13363C9.24494 2.95815 9.24494 2.6737 9.06946 2.49823V2.49805C8.89399 2.32275 8.60954 2.32275 8.43407 2.49805C8.25877 2.67353 8.25877 2.95815 8.43424 3.13345C8.52198 3.22136 8.63692 3.26506 8.75185 3.26506Z" fill="#9D9D9D"/>
</svg>
