<svg width="13" height="14" viewBox="0 0 13 14" fill="none" xmlns="http://www.w3.org/2000/svg">
<g clip-path="url(#clip0)">
<path d="M7.54807 13.6654C7.49391 13.6737 7.43956 13.6813 7.38501 13.6883C7.43956 13.6813 7.49391 13.6737 7.54807 13.6654Z" fill="#120888"/>
<path d="M7.67809 13.6432C7.65221 13.6479 7.62632 13.6521 7.60043 13.6565C7.62632 13.6521 7.65221 13.6479 7.67809 13.6432Z" fill="#120888"/>
<path d="M7.2398 13.7079C7.17642 13.7146 7.11265 13.7205 7.04868 13.7256C7.11265 13.7205 7.17642 13.7146 7.2398 13.7079Z" fill="#120888"/>
<path d="M7.36467 13.6926C7.33422 13.6964 7.30357 13.7 7.27303 13.7034C7.30357 13.7 7.33422 13.6964 7.36467 13.6926Z" fill="#120888"/>
<path d="M7.85503 13.6081C7.83221 13.6128 7.8093 13.6176 7.78639 13.6222C7.8093 13.6176 7.83221 13.6128 7.85503 13.6081Z" fill="#120888"/>
<path d="M8.2942 13.499C8.27576 13.5041 8.25731 13.509 8.23886 13.5141C8.25731 13.509 8.27576 13.5041 8.2942 13.499Z" fill="#120888"/>
<path d="M8.16141 13.5353C8.14137 13.5404 8.12124 13.5457 8.1011 13.5506C8.12124 13.5457 8.14137 13.5405 8.16141 13.5353Z" fill="#120888"/>
<path d="M7.98763 13.5787C7.9664 13.5836 7.94498 13.5881 7.92355 13.5928C7.94498 13.5881 7.9664 13.5836 7.98763 13.5787Z" fill="#120888"/>
<path d="M7.0466 13.7269C7.01238 13.7292 6.97816 13.7314 6.94385 13.7332C6.97816 13.7314 7.01238 13.7292 7.0466 13.7269Z" fill="#120888"/>
<path d="M13 7.25C13 3.6607 10.0893 0.75 6.5 0.75C2.9107 0.75 0 3.6607 0 7.25C0 10.8393 2.9107 13.75 6.5 13.75C6.53819 13.75 6.57617 13.7492 6.61426 13.7485V8.68854H5.21777V7.06106H6.61426V5.86343C6.61426 4.47449 7.46217 3.71852 8.70115 3.71852C9.29446 3.71852 9.80445 3.76276 9.95312 3.78249V5.23412H9.09877C8.42473 5.23412 8.2942 5.55448 8.2942 6.02451V7.06106H9.90591L9.69585 8.68854H8.2942V13.4989C11.0111 12.72 13 10.2169 13 7.25Z" fill="#120888"/>
<path d="M6.92946 13.7355C6.86182 13.7393 6.79388 13.7422 6.72574 13.7442C6.79388 13.7422 6.86182 13.7393 6.92946 13.7355Z" fill="#120888"/>
<path d="M6.72226 13.7458C6.68636 13.7477 6.65035 13.749 6.61435 13.7499C6.65035 13.749 6.68636 13.7477 6.72226 13.7458Z" fill="#120888"/>
</g>
<defs>
<clipPath id="clip0">
<rect y="0.75" width="13" height="13" fill="white"/>
</clipPath>
</defs>
</svg>
