<svg width="13" height="13" viewBox="0 0 13 13" fill="none" xmlns="http://www.w3.org/2000/svg">
<path d="M0.847986 0.902551C-0.170662 1.96042 0.0378204 3.08417 0.0378204 6.49808C0.0378204 9.3331 -0.456921 12.1751 2.13237 12.8442C2.94091 13.0521 10.1049 13.0521 10.9124 12.8431C11.9905 12.565 12.8676 11.6908 12.9875 10.1663C13.0043 9.95356 13.0043 3.04637 12.987 2.82929C12.8595 1.20549 11.8598 0.269666 10.5424 0.080124C10.2405 0.0363836 10.18 0.0234235 8.63098 0.0207235C3.13643 0.0234235 1.93199 -0.221199 0.847986 0.902551V0.902551Z" fill="url(#paint0_linear)"/>
<path d="M6.50011 2.00434C4.65692 2.00434 2.90662 1.8405 2.23808 3.55492C1.96193 4.26301 2.00203 5.18261 2.00203 6.49937C2.00203 7.65483 1.96497 8.74079 2.23808 9.4433C2.9051 11.1587 4.66961 10.9944 6.4991 10.9944C8.26411 10.9944 10.084 11.178 10.7606 9.4433C11.0373 8.72811 10.9967 7.82221 10.9967 6.49937C10.9967 4.74335 11.0936 3.60971 10.2413 2.75858C9.37835 1.8963 8.21132 2.00434 6.49808 2.00434H6.50011ZM6.09706 2.81438C9.94182 2.80829 10.4312 2.38121 10.1611 8.31422C10.0652 10.4126 8.46615 10.1823 6.50062 10.1823C2.91677 10.1823 2.81373 10.0799 2.81373 6.49734C2.81373 2.87321 3.098 2.81641 6.09706 2.81336V2.81438ZM8.90119 3.5605C8.60321 3.5605 8.36158 3.80194 8.36158 4.09968C8.36158 4.39743 8.60321 4.63886 8.90119 4.63886C9.19916 4.63886 9.44079 4.39743 9.44079 4.09968C9.44079 3.80194 9.19916 3.5605 8.90119 3.5605V3.5605ZM6.50011 4.19098C5.22445 4.19098 4.19041 5.22471 4.19041 6.49937C4.19041 7.77402 5.22445 8.80724 6.50011 8.80724C7.77578 8.80724 8.80931 7.77402 8.80931 6.49937C8.80931 5.22471 7.77578 4.19098 6.50011 4.19098V4.19098ZM6.50011 5.00102C8.48239 5.00102 8.48493 7.99771 6.50011 7.99771C4.51834 7.99771 4.51529 5.00102 6.50011 5.00102Z" fill="white"/>
<defs>
<linearGradient id="paint0_linear" x1="0.872842" y1="12.1531" x2="12.9182" y2="1.72586" gradientUnits="userSpaceOnUse">
<stop stop-color="#FFDD55"/>
<stop offset="0.5" stop-color="#FF543E"/>
<stop offset="1" stop-color="#C837AB"/>
</linearGradient>
</defs>
</svg>
