<svg width="20" height="20" viewBox="0 0 20 20" fill="none" xmlns="http://www.w3.org/2000/svg">
<path d="M0.324219 7.10876C0.658592 6.45657 1.06953 5.84657 1.54859 5.29157Z" fill="#9E9E9E"/>
<path d="M10 0C4.47719 0 0 4.47719 0 10C0 15.5228 4.47719 20 10 20C15.5228 20 20 15.5228 20 10C20 4.47719 15.5228 0 10 0Z" fill="#9E9E9E"/>
<path d="M8.29092 1.74719C8.18154 1.6275 8.03717 1.545 7.87842 1.51125C7.60717 1.43719 7.31999 1.44875 7.32562 1.55781C7.05781 1.55781 6.94593 1.6625 6.94062 1.8025C6.92999 2.08719 7.36718 2.52125 7.88498 2.53812C8.65747 2.5625 8.42873 1.93281 8.29092 1.74719Z" fill="white"/>
<path d="M15.1287 2.9175L15.1055 2.90094C14.9877 2.81594 14.868 2.73406 14.7459 2.655L14.6899 2.61906C14.5759 2.54625 14.4602 2.47625 14.3427 2.40875L14.2771 2.37094C14.1568 2.30312 14.0346 2.23812 13.9109 2.17594C13.8934 2.16719 13.8762 2.15781 13.8587 2.14906C13.5705 2.00656 13.2749 1.88 12.9727 1.77031L12.9537 1.76375C12.8152 1.71437 12.6752 1.66812 12.5337 1.625C12.4921 1.6125 12.4499 1.60125 12.4087 1.58937C12.3012 1.55812 12.193 1.52906 12.0837 1.50219C12.0305 1.48906 11.9771 1.47719 11.9237 1.46531C11.8234 1.44281 11.7227 1.42187 11.6215 1.40281C11.5634 1.39187 11.5052 1.38125 11.4468 1.37156C11.3465 1.35469 11.2455 1.34031 11.144 1.32687C11.0859 1.31937 11.0277 1.31094 10.969 1.30469C10.8599 1.2925 10.7502 1.28375 10.6399 1.27562C10.589 1.27187 10.5384 1.26688 10.4871 1.26406C10.3249 1.25531 10.1627 1.25 9.9993 1.25C9.81586 1.25 9.6343 1.2575 9.45367 1.26875C9.29742 1.32906 9.0193 1.47625 9.15492 1.72188C9.33836 2.05375 9.83586 2.51312 9.33836 2.58969C8.84086 2.66625 8.55274 2.99812 8.10774 2.99812C7.66274 2.99812 6.5368 2.53875 6.4843 2.87062C6.4318 3.2025 5.33211 3.78937 5.07023 3.76375C4.80836 3.73812 4.67742 4.22312 3.97055 4.22312C3.77023 4.22687 3.57055 4.25062 3.37492 4.29375C2.91898 4.82219 2.52742 5.40312 2.20898 6.02437C2.33086 6.06156 2.46023 6.06531 2.58398 6.03531C3.26492 5.88219 4.15492 4.96344 4.78336 5.42281C5.4118 5.88219 5.77836 6.08625 5.72586 6.95406C5.67336 7.82187 5.51648 8.89344 6.45899 9.35281C7.40149 9.81219 6.82555 10.2716 7.55867 10.5778C8.2918 10.8841 9.2868 11.0372 9.54867 11.2412C9.81055 11.4453 10.2805 11.9044 10.2805 11.9044C10.2805 11.9044 9.59961 12.67 9.86149 13.0784C10.1234 13.4869 11.3802 13.6909 11.2755 14.7119C11.1709 15.7328 10.3896 17.4756 10.3896 17.8328C10.3896 18.19 10.3505 18.71 10.3505 18.71C10.3505 18.71 11.5549 18.2506 11.8168 17.7412C12.0787 17.2319 13.1605 15.7847 13.4749 15.6316C13.7893 15.4784 14.7318 14.8659 15.0459 14.2534C15.3599 13.6409 16.5121 12.9262 15.3599 12.62C14.2077 12.3137 14.103 11.3441 13.2127 11.2928C12.3224 11.2416 12.558 11.0631 11.9559 11.0887C11.3537 11.1144 10.9609 11.395 10.699 11.4459C10.4371 11.4969 10.0968 11.395 10.0443 11.1397C9.9918 10.8844 9.73024 10.5016 9.5468 10.5772C9.36336 10.6528 9.80867 10.1178 9.5468 10.0669C9.28492 10.0159 9.0268 10.4241 8.74992 10.4241C8.47305 10.4241 8.44711 9.37781 8.44711 9.37781C8.44711 9.37781 10.018 9.19906 10.0968 9.37781C10.1755 9.55656 10.568 9.96469 10.699 9.76062C10.8299 9.55656 10.4371 9.02062 10.5159 8.89281C10.5946 8.765 12.3487 7.64281 12.4012 7.18312C12.4537 6.72344 13.3962 6.77469 13.3437 6.21437C13.2912 5.65406 12.7684 5.805 12.6899 5.5C12.6115 5.195 12.2709 4.86187 12.009 5.16812C11.9552 5.22937 11.8837 5.27312 11.8046 5.29312C11.9155 5.16969 11.9921 5.05156 11.9827 4.99C11.9565 4.81125 12.7421 4.3775 12.8993 4.17344C13.0565 3.96937 11.9043 3.30562 11.4593 3.1525C11.234 3.0775 10.998 3.04062 10.7609 3.0425C10.7065 2.78375 10.7709 2.51437 10.9368 2.30875C11.2493 2.05344 11.5377 2.7425 11.7734 2.7425C12.009 2.7425 12.8468 2.76812 13.0302 3.02375C13.2137 3.27937 13.554 3.63625 13.554 3.86594C13.554 4.09562 13.868 5.625 14.6012 5.47312C15.3343 5.32125 15.3605 4.86062 15.7009 4.75844C16.0412 4.65625 16.3818 5.03969 17.0362 4.88594C16.9859 4.78125 16.9284 4.68 16.8637 4.58344C16.364 3.95156 15.7802 3.39125 15.1287 2.9175ZM10.8309 3.71219C10.8309 3.69719 10.8274 3.67812 10.8259 3.66219C10.9112 3.69875 11.0009 3.72437 11.0927 3.73781C11.3546 3.76344 11.4593 4.37594 10.9365 4.75875C10.5437 5.04594 10.7268 5.3675 10.9302 5.55969C10.8118 5.735 10.6784 5.92531 10.4927 5.90719C10.1299 5.83281 9.79992 5.645 9.55024 5.37125C9.39399 5.14156 9.8643 4.50344 10.1787 4.29937C10.493 4.09531 10.8568 4.09375 10.8309 3.71219Z" fill="white"/>
<path d="M12.4072 1.58999C12.4491 1.60187 12.4913 1.61312 12.5322 1.62562C12.4913 1.61281 12.4491 1.60187 12.4072 1.58999Z" fill="#41B9A4"/>
<path d="M10.9688 1.30501C11.0275 1.31157 11.0853 1.3197 11.1437 1.3272C11.0856 1.3197 11.0278 1.31251 10.9688 1.30501Z" fill="#41B9A4"/>
<path d="M11.9238 1.46564C11.9773 1.47782 12.0307 1.4897 12.0838 1.50251C12.0313 1.4897 11.9773 1.47782 11.9238 1.46564Z" fill="#41B9A4"/>
<path d="M14.6904 2.61938L14.7464 2.65531L14.6904 2.61938Z" fill="#41B9A4"/>
<path d="M15.1045 2.90125L15.1276 2.91936L15.1045 2.90125Z" fill="#41B9A4"/>
<path d="M12.9541 1.76437L12.9731 1.77381L12.9541 1.76437Z" fill="#41B9A4"/>
<path d="M10.4854 1.26571C10.5366 1.26879 10.5872 1.27426 10.6382 1.27836C10.5872 1.27426 10.5366 1.26879 10.4854 1.26571Z" fill="#41B9A4"/>
<path d="M11.4453 1.37188C11.5037 1.38157 11.5619 1.39219 11.62 1.40313C11.5622 1.39219 11.5037 1.38157 11.4453 1.37188Z" fill="#41B9A4"/>
<path d="M13.8594 2.14968C13.8769 2.15843 13.8941 2.16749 13.9116 2.17655C13.8941 2.1678 13.8769 2.15843 13.8594 2.14968Z" fill="#41B9A4"/>
<path d="M14.2773 2.37124L14.343 2.40906L14.2773 2.37124Z" fill="#41B9A4"/>
<path d="M15.127 2.91751C15.7785 3.39126 16.3623 3.95189 16.862 4.58377C16.3626 3.95158 15.7785 3.39095 15.127 2.91751Z" fill="#41B9A4"/>
<path d="M12.9736 1.77094C13.2755 1.88062 13.5711 2.00719 13.8593 2.14969C13.5711 2.00719 13.2755 1.88062 12.9736 1.77094Z" fill="#41B9A4"/>
<path d="M10 1.25C10.1634 1.25 10.3256 1.25581 10.4872 1.26572C10.3256 1.25581 10.1634 1.25 10 1.25Z" fill="#41B9A4"/>
<path d="M14.3428 2.40907C14.4603 2.47657 14.5759 2.54657 14.69 2.61938C14.5759 2.54657 14.46 2.47657 14.3428 2.40907Z" fill="#41B9A4"/>
<path d="M14.7461 2.65625C14.868 2.73531 14.988 2.8175 15.1058 2.90219C14.988 2.81656 14.868 2.73469 14.7461 2.65625Z" fill="#41B9A4"/>
<path d="M9.99871 1.25C9.81529 1.25 9.63374 1.2582 9.45312 1.27051C9.63374 1.2582 9.81529 1.25 9.99871 1.25Z" fill="#41B9A4"/>
<path d="M13.9111 2.17656C14.0349 2.23906 14.1571 2.30406 14.2774 2.37156C14.1571 2.30375 14.0352 2.23875 13.9111 2.17656Z" fill="#41B9A4"/>
<path d="M11.1426 1.32718C11.2438 1.34062 11.3451 1.35499 11.4454 1.37187C11.3451 1.35499 11.2438 1.34062 11.1426 1.32718Z" fill="#41B9A4"/>
<path d="M12.5342 1.62499C12.6757 1.6678 12.8157 1.71437 12.9542 1.76405C12.8157 1.71437 12.6757 1.66812 12.5342 1.62499Z" fill="#41B9A4"/>
<path d="M10.6396 1.27594C10.75 1.28406 10.8584 1.29282 10.9687 1.305C10.8596 1.29282 10.7496 1.28406 10.6396 1.27594Z" fill="#41B9A4"/>
<path d="M11.6211 1.40313C11.7227 1.4222 11.8233 1.44313 11.9233 1.46563C11.8233 1.44313 11.7227 1.4222 11.6211 1.40313Z" fill="#41B9A4"/>
<path d="M12.083 1.50283C12.1924 1.5297 12.3018 1.55908 12.408 1.59001C12.3002 1.55908 12.1921 1.52939 12.083 1.50283Z" fill="#41B9A4"/>
</svg>
