<svg width="20" height="20" viewBox="0 0 20 20" fill="none" xmlns="http://www.w3.org/2000/svg">
<g clip-path="url(#clip0)">
<path d="M19.6875 9.0457L17.5 6.89574V1.45812C17.5 1.11327 17.22 0.833117 16.875 0.833117H13.9583C13.6133 0.833117 13.3333 1.11327 13.3333 1.45812V2.84819L10.4233 0.165697C10.1808 -0.0584545 9.80591 -0.0543346 9.56757 0.174089L0.30838 9.04982C0.112457 9.24574 0 9.51567 0 9.79155C0 10.3657 0.467529 10.8331 1.04172 10.8331H2.5V18.7498C2.5 19.4398 3.06 19.9998 3.75 19.9998H7.29172C7.63672 19.9998 7.91672 19.7198 7.91672 19.3748V13.7498C7.91672 13.6357 8.00995 13.5416 8.125 13.5416H11.875C11.9891 13.5416 12.0833 13.6357 12.0833 13.7498V19.3748C12.0833 19.7198 12.3633 19.9998 12.7083 19.9998H16.25C16.94 19.9998 17.5 19.4398 17.5 18.7498V10.8331H18.9583C19.5325 10.8331 20 10.3657 20 9.79155C20 9.51567 19.8875 9.24574 19.6875 9.0457Z" fill="#9E9E9E"/>
</g>
<defs>
<clipPath id="clip0">
<rect width="20" height="20" fill="white"/>
</clipPath>
</defs>
</svg>
