<svg width="231" height="231" viewBox="0 0 231 231" fill="none" xmlns="http://www.w3.org/2000/svg">
<rect x="2.5" y="2.5" width="226" height="226" rx="113" stroke="#3A4D6A" stroke-width="5"/>
<circle cx="115.469" cy="115.469" r="102.5" fill="#3A4D6A"/>
<path d="M166.888 54.8837H77.3039C71.9347 54.8837 67.5665 59.2026 67.5665 64.5113V94.5226L56.4522 105.512C56.088 105.872 55.8816 106.363 55.8816 106.873V174.266H59.7766V107.67L67.5665 99.968V104.947C67.5665 106.01 68.439 106.873 69.514 106.873H92.6365C91.7699 110.191 88.7162 112.65 85.0939 112.65H77.3039C76.2289 112.65 75.3564 113.512 75.3564 114.575C75.3564 121.053 70.2229 126.128 63.6715 126.128V129.979C65.0231 129.979 66.324 129.804 67.5665 129.498V156.937C67.5665 162.245 71.9347 166.564 77.3039 166.564H83.1464V174.266H87.0414V166.564H118.201V170.415C118.201 170.926 118.406 171.417 118.772 171.777L122.667 175.628L125.42 172.905L122.096 169.618V157.734L125.991 153.879V162.713H129.886V109.757C129.886 108.167 131.195 106.873 132.811 106.873C134.42 106.873 135.729 108.167 135.729 109.757V136.715V153.086H139.623V136.715C139.623 135.124 140.932 133.83 142.549 133.83C144.157 133.83 145.466 135.124 145.466 136.715V153.086H149.361V136.715C149.361 135.124 150.67 133.83 152.286 133.83C153.895 133.83 155.203 135.124 155.203 136.715V153.086H157.151H159.098L159.106 136.711C159.106 135.122 160.415 133.828 162.023 133.828C163.632 133.828 164.941 135.122 164.941 136.713V174.266H168.836V166.37C173.274 165.474 176.626 161.585 176.626 156.937V64.5113C176.626 59.2026 172.257 54.8837 166.888 54.8837ZM172.731 156.937C172.731 159.444 171.097 161.562 168.836 162.359V136.715C168.836 133 165.78 129.979 162.023 129.979C160.115 129.979 158.391 130.765 157.155 132.02C155.916 130.765 154.191 129.979 152.278 129.979C150.372 129.979 148.65 130.763 147.413 132.015C146.175 130.763 144.451 129.979 142.541 129.979C141.493 129.979 140.512 130.233 139.623 130.653V109.757C139.623 106.043 136.568 103.022 132.803 103.022C129.047 103.022 125.991 106.043 125.991 109.757V148.43L118.77 155.575C118.406 155.937 118.201 156.426 118.201 156.937V162.713H77.3039C74.0828 162.713 71.4615 160.121 71.4615 156.937V127.963C75.6213 125.631 78.5347 121.47 79.1365 116.501H85.0939C91.5381 116.501 96.7788 111.319 96.7788 104.947C96.7788 103.885 95.9063 103.022 94.8313 103.022H71.4615V95.3198V64.5113C71.4615 61.3265 74.0828 58.7347 77.3039 58.7347H166.888C170.109 58.7347 172.731 61.3265 172.731 64.5113V156.937Z" fill="white"/>
<path d="M110.411 62.5858H81.1988C80.1238 62.5858 79.2513 63.4485 79.2513 64.5113V74.139C79.2513 75.2019 80.1238 76.0645 81.1988 76.0645H110.411C111.486 76.0645 112.359 75.2019 112.359 74.139V64.5113C112.359 63.4485 111.486 62.5858 110.411 62.5858ZM108.464 72.2135H83.1463V66.4369H108.464V72.2135Z" fill="white"/>
<path d="M162.993 62.5858H133.781C132.706 62.5858 131.833 63.4485 131.833 64.5113V74.139C131.833 75.2019 132.706 76.0645 133.781 76.0645H162.993C164.068 76.0645 164.941 75.2019 164.941 74.139V64.5113C164.941 63.4485 164.068 62.5858 162.993 62.5858ZM161.046 72.2135H135.728V66.4369H161.046V72.2135Z" fill="white"/>
<path d="M110.411 120.352H81.1988C80.1238 120.352 79.2513 121.214 79.2513 122.277V131.905C79.2513 132.968 80.1238 133.83 81.1988 133.83H110.411C111.486 133.83 112.359 132.968 112.359 131.905V122.277C112.359 121.214 111.486 120.352 110.411 120.352ZM108.464 129.979H83.1463V124.203H108.464V129.979Z" fill="white"/>
<path d="M124.044 62.5858H120.149V99.1709H124.044V62.5858Z" fill="white"/>
<path d="M100.674 79.9155H79.2513V83.7666H100.674V79.9155Z" fill="white"/>
<path d="M112.359 79.9155H106.516V83.7666H112.359V79.9155Z" fill="white"/>
<path d="M100.674 87.6177H79.2513V91.4687H100.674V87.6177Z" fill="white"/>
<path d="M112.359 87.6177H106.516V91.4687H112.359V87.6177Z" fill="white"/>
<path d="M100.674 95.3201H79.2513V99.1711H100.674V95.3201Z" fill="white"/>
<path d="M112.359 95.3201H106.516V99.1711H112.359V95.3201Z" fill="white"/>
<path d="M112.359 103.022H106.516V106.873H112.359V103.022Z" fill="white"/>
<path d="M112.359 110.724H106.516V114.575H112.359V110.724Z" fill="white"/>
<path d="M100.674 137.682H79.2513V141.533H100.674V137.682Z" fill="white"/>
<path d="M112.359 137.682H106.516V141.533H112.359V137.682Z" fill="white"/>
<path d="M100.674 145.384H79.2513V149.235H100.674V145.384Z" fill="white"/>
<path d="M112.359 145.384H106.516V149.235H112.359V145.384Z" fill="white"/>
<path d="M100.674 153.086H79.2513V156.937H100.674V153.086Z" fill="white"/>
<path d="M112.359 153.086H106.516V156.937H112.359V153.086Z" fill="white"/>
<path d="M153.256 79.9155H131.833V83.7666H153.256V79.9155Z" fill="white"/>
<path d="M164.941 79.9155H159.098V83.7666H164.941V79.9155Z" fill="white"/>
<path d="M153.256 87.6177H131.833V91.4687H153.256V87.6177Z" fill="white"/>
<path d="M164.941 87.6177H159.098V91.4687H164.941V87.6177Z" fill="white"/>
<path d="M153.256 95.3201H131.833V99.1711H153.256V95.3201Z" fill="white"/>
<path d="M164.941 95.3201H159.098V99.1711H164.941V95.3201Z" fill="white"/>
<path d="M153.256 103.022H143.518V106.873H153.256V103.022Z" fill="white"/>
<path d="M164.941 103.022H159.098V106.873H164.941V103.022Z" fill="white"/>
<path d="M153.256 110.724H143.518V114.575H153.256V110.724Z" fill="white"/>
<path d="M164.941 110.724H159.098V114.575H164.941V110.724Z" fill="white"/>
<path d="M153.256 118.426H143.518V122.277H153.256V118.426Z" fill="white"/>
<path d="M164.941 118.426H159.098V122.277H164.941V118.426Z" fill="white"/>
</svg>
