<svg width="231" height="231" viewBox="0 0 231 231" fill="none" xmlns="http://www.w3.org/2000/svg">
<rect x="2.5" y="2.5" width="226" height="226" rx="113" stroke="#3A4D6A" stroke-width="5"/>
<circle cx="115.496" cy="115.496" r="102.5" fill="#3A4D6A"/>
<path d="M150.028 120.553L136.943 103.897C141.589 99.1335 144.395 92.8762 144.861 86.2385H165.123V88.4559C160.433 89.4197 157.065 93.5452 157.059 98.3332C157.061 103.9 161.574 108.411 167.141 108.41C172.707 108.409 177.219 103.896 177.218 98.3292C177.217 93.5404 173.847 89.4136 169.155 88.4559V84.2227C169.155 83.1095 168.252 82.2069 167.139 82.2069H144.861C144.467 76.6219 142.41 71.2826 138.955 66.8769L141.767 64.0649H165.494C166.607 67.2138 170.063 68.8639 173.211 67.7505C176.36 66.6373 178.011 63.182 176.897 60.0333C175.784 56.8846 172.329 55.2342 169.18 56.3474C167.458 56.9562 166.103 58.3111 165.494 60.033H140.933C140.398 60.033 139.885 60.2457 139.507 60.6237L136.252 63.8792C125.049 53.0907 107.221 53.4261 96.4319 64.6283C91.8463 69.3896 89.0817 75.6123 88.6226 82.2067H71.6893L65.0991 67.3849C68.0451 65.8345 69.1765 62.1899 67.6263 59.2441C66.0761 56.2983 62.4311 55.1672 59.4851 56.7173C56.5394 58.2675 55.408 61.912 56.9582 64.8578C57.7729 66.4059 59.2203 67.524 60.9242 67.9208L68.5342 85.0429C68.8582 85.7703 69.5804 86.2388 70.3767 86.2382H88.6224C89.0865 92.7996 91.8382 98.9901 96.3976 103.731L79.3796 120.748C68.3757 119.1 58.1186 126.683 56.4699 137.687C54.8212 148.69 62.4049 158.947 73.4088 160.595C73.7409 160.645 74.0743 160.686 74.4084 160.719V170.901C74.4084 172.014 75.311 172.917 76.4243 172.917H94.9381C96.0514 176.066 99.5069 177.716 102.656 176.603C105.804 175.489 107.455 172.034 106.341 168.885C105.228 165.737 101.773 164.086 98.6239 165.2C96.9016 165.809 95.5469 167.163 94.9381 168.885H78.4402V160.719C89.5119 159.616 97.5928 149.746 96.4891 138.675C95.7422 131.183 90.8799 124.733 83.8831 121.952L99.4053 106.43C109.514 114.389 123.742 114.446 133.915 106.569L145.099 120.805C129.656 122.959 118.884 137.223 121.038 152.665C123.192 168.108 137.457 178.88 152.9 176.726C168.343 174.571 179.115 160.307 176.961 144.865C175.069 131.301 163.715 121.052 150.028 120.553ZM173.186 98.3332C173.186 101.673 170.479 104.381 167.139 104.381C163.799 104.381 161.091 101.673 161.091 98.3332C161.091 94.9933 163.799 92.2859 167.139 92.2859C170.479 92.2859 173.186 94.9933 173.186 98.3332ZM171.171 60.0333C172.284 60.0333 173.186 60.9359 173.186 62.0491C173.186 63.1623 172.284 64.0649 171.171 64.0649C170.057 64.0649 169.155 63.1623 169.155 62.0491C169.155 60.9359 170.057 60.0333 171.171 60.0333ZM62.3132 64.0649C61.1999 64.0649 60.2973 63.1623 60.2973 62.0491C60.2973 60.9359 61.1999 60.0333 62.3132 60.0333C63.4264 60.0333 64.329 60.9359 64.329 62.0491C64.329 63.1623 63.4264 64.0649 62.3132 64.0649ZM100.615 168.886C101.728 168.886 102.631 169.788 102.631 170.901C102.631 172.015 101.728 172.917 100.615 172.917C99.5016 172.917 98.599 172.015 98.599 170.901C98.599 169.788 99.5016 168.886 100.615 168.886ZM84.4878 154.61C79.5058 157.519 73.3428 157.519 68.3608 154.61V150.744C68.3608 146.29 71.971 142.68 76.4243 142.68C80.8776 142.68 84.4878 146.29 84.4878 150.744V154.61ZM72.3926 134.617C72.3926 132.391 74.1975 130.586 76.4243 130.586C78.6511 130.586 80.4561 132.391 80.4561 134.617C80.4561 136.844 78.6511 138.649 76.4243 138.649C74.1975 138.649 72.3926 136.844 72.3926 134.617ZM88.5196 129.963C91.1256 132.918 92.5599 136.725 92.5513 140.665C92.5506 144.582 91.1165 148.363 88.5196 151.296V150.744C88.5171 146.337 86.1174 142.28 82.2562 140.155C85.3312 136.933 85.2123 131.83 81.9909 128.755C78.7695 125.68 73.6653 125.799 70.5904 129.02C67.6162 132.136 67.6162 137.039 70.5904 140.154C66.73 142.28 64.3313 146.337 64.329 150.743V151.296C58.4379 144.616 59.0774 134.425 65.7573 128.534C72.4374 122.644 82.6284 123.283 88.5196 129.963ZM130.853 103.824C122.437 109.934 111.046 109.934 102.631 103.824V98.9379C102.631 95.2642 105.609 92.2859 109.283 92.2859H113.758L110.833 99.5991C110.534 100.348 110.71 101.204 111.281 101.774L115.313 105.806C116.1 106.593 117.376 106.593 118.163 105.806L122.195 101.774C122.766 101.204 122.942 100.348 122.642 99.5991L119.719 92.2859H124.201C127.875 92.2859 130.853 95.2642 130.853 98.9379V103.824ZM117.03 71.0899C116.955 71.2159 116.893 71.3494 116.847 71.4888C115.827 74.5467 110.32 75.7058 106.774 76.0424C107.315 69.287 110.494 66.0804 116.742 66.0804C122.463 66.0804 125.612 68.7856 126.513 74.4298L119.796 70.3982C118.841 69.8257 117.603 70.1354 117.03 71.0899ZM119.522 74.938L126.727 79.2619C125.918 84.1965 119.836 88.2543 116.742 88.2543C112.246 87.4885 108.505 84.3709 106.943 80.0863C110.394 79.8021 116.625 78.7559 119.522 74.938ZM118.407 99.8632L116.742 101.53L115.077 99.8632L116.742 95.6966L118.407 99.8632ZM125.537 88.347C128.682 85.8724 130.617 82.1699 130.853 78.1754C130.853 64.847 123.179 62.0491 116.742 62.0491C110.305 62.0491 102.631 64.847 102.631 78.1754C102.865 82.1722 104.8 85.8772 107.947 88.3531C102.603 89.0115 98.5911 93.554 98.599 98.9379V100.164C89.7621 90.1441 90.7212 74.8581 100.741 66.0217C110.762 57.1852 126.048 58.1443 134.885 68.1637C142.948 77.3066 142.948 91.0204 134.885 100.163V98.9377C134.896 93.5518 130.883 89.0054 125.537 88.347ZM163.107 168.329C154.691 174.439 143.3 174.439 134.885 168.329V163.443C134.885 159.769 137.863 156.791 141.537 156.791H146.012L143.087 164.104C142.788 164.853 142.964 165.709 143.535 166.279L147.567 170.311C148.354 171.098 149.63 171.098 150.417 170.311L154.449 166.279C155.02 165.709 155.196 164.853 154.896 164.104L151.973 156.791H156.455C160.129 156.791 163.107 159.769 163.107 163.443V168.329ZM151.776 139.443V139.441L158.981 143.765C158.172 148.702 152.09 152.759 148.996 152.759C144.5 151.994 140.76 148.876 139.197 144.591C142.648 144.307 148.879 143.261 151.776 139.443ZM139.027 140.548C139.568 133.793 142.747 130.586 148.996 130.586C154.717 130.586 157.866 133.291 158.767 138.935L152.05 134.904C151.095 134.331 149.857 134.641 149.284 135.595C149.209 135.721 149.147 135.855 149.101 135.994C148.081 139.052 142.573 140.211 139.027 140.548ZM150.661 164.368L148.996 166.035L147.331 164.368L148.996 160.202L150.661 164.368ZM167.139 164.674V163.443C167.15 158.057 163.137 153.511 157.791 152.852C160.936 150.377 162.871 146.675 163.107 142.68C163.107 129.352 155.433 126.554 148.996 126.554C142.559 126.554 134.885 129.352 134.885 142.68C135.119 146.677 137.054 150.382 140.201 152.858C134.857 153.516 130.845 158.059 130.853 163.443V164.668C122.037 154.641 123.019 139.366 133.047 130.55C143.075 121.734 158.351 122.716 167.167 132.743C171.052 137.162 173.192 142.845 173.186 148.727C173.185 154.603 171.034 160.276 167.139 164.674Z" fill="white"/>
</svg>
