<svg width="20" height="20" viewBox="0 0 20 20" fill="none" xmlns="http://www.w3.org/2000/svg">
    <path d="M10 20C15.5228 20 20 15.5228 20 10C20 4.47715 15.5228 0 10 0C4.47715 0 0 4.47715 0 10C0 15.5228 4.47715 20 10 20Z" fill="#039BE5"/>
    <path d="M4.57556 9.78332L14.2172 6.06582C14.6647 5.90416 15.0556 6.17499 14.9106 6.85166L14.9114 6.85082L13.2697 14.585C13.1481 15.1333 12.8222 15.2667 12.3664 15.0083L9.8664 13.1658L8.66056 14.3275C8.52723 14.4608 8.41473 14.5733 8.1564 14.5733L8.3339 12.0292L12.9672 7.84332C13.1689 7.66582 12.9222 7.56582 12.6564 7.74249L6.93056 11.3475L4.46223 10.5775C3.9264 10.4075 3.91473 10.0417 4.57556 9.78332Z" fill="white"/>
</svg>
