<svg width="16" height="16" viewBox="0 0 16 16" fill="none" xmlns="http://www.w3.org/2000/svg">
<path d="M14.909 6.54545H9.4545V1.09091C9.4545 0.488725 8.96578 0 8.36359 0H7.63636C7.03418 0 6.54545 0.488725 6.54545 1.09091V6.54545H1.09091C0.488725 6.54545 0 7.03418 0 7.63636V8.36359C0 8.96578 0.488725 9.4545 1.09091 9.4545H6.54545V14.909C6.54545 15.5112 7.03418 16 7.63636 16H8.36359C8.96578 16 9.4545 15.5112 9.4545 14.909V9.4545H14.909C15.5112 9.4545 16 8.96578 16 8.36359V7.63636C16 7.03418 15.5112 6.54545 14.909 6.54545Z" fill="#777777"/>
</svg>
