<svg width="500" height="400" viewBox="0 0 500 400" fill="none" xmlns="http://www.w3.org/2000/svg">
<path d="M85.8423 77.6352L83.2992 79.1114L79.9582 80.7911L77.6644 82.8271L76.0687 85.6266L71.2317 85.5757L68.539 87.6117L70.6832 94.2797L69.7357 98.3008L67.1926 101.049L64.5996 101.864L62.0564 102.576L58.9648 106.903L58.0173 110.364L56.8205 110.008L55.7734 108.837L56.5213 105.122L55.9728 102.424L53.6291 102.678L52.8313 103.085L52.6318 102.169L52.4324 98.199L51.5847 92.7018V91.073L52.582 89.4951L52.0334 87.6117L54.2774 80.333L53.679 76.1082L53.3798 76.0064L43.8056 74.8357L41.811 73.8686L38.3703 71.4254L34.6802 70.5601L32.9848 69.5421L29.0454 65.5718L28.6964 64.8083L28.6465 64.0448L41.5617 53.1012L44.3043 52.0832L47.0968 52.2359L52.7814 55.2899L54.0779 55.5444L55.8232 55.3917L58.6157 54.5264L59.8623 54.73L61.109 56.2061L63.9015 58.853L76.1185 63.7394L81.6536 64.9101L83.6482 65.7245L83.748 66.4371L82.5013 67.0988L80.5566 67.8114L78.6617 70.2547L80.7062 73.5123L84.2466 76.6172L85.8423 77.6352Z" fill="#4E4E4E" stroke="#5E5D5D" stroke-width="2" stroke-linecap="round" stroke-linejoin="round"/>
<path d="M112.122 144.926L115.263 147.013L118.305 149.354L120.649 150.83L122.593 152.51L119.801 156.887L116.759 161.57L118.953 165.082L121.796 167.627L124.638 169.765V173.226L120.699 177.655L118.654 183.661L112.72 184.272L106.786 183.814L101.45 182.796L96.6634 184.73L95.9154 188.853L95.317 189.056L93.6216 188.955L90.0312 184.883L90.7294 182.847L90.7792 181.116L91.6269 179.843L92.2253 177.502L92.2752 174.753L93.2227 172.463L92.4747 170.172L91.3278 168.289L90.3304 166.304L91.8264 159.025L97.91 155.208L101.301 150.525L104.692 145.486L108.033 142.686L112.122 144.926Z" fill="#4E4E4E" stroke="#5E5D5D" stroke-width="2" stroke-linecap="round" stroke-linejoin="round"/>
<path d="M97.9094 155.208L91.8258 159.025L90.3299 166.304L91.3272 168.289L92.4741 170.172L93.2221 172.463L92.2746 174.753L92.2248 177.502L91.6264 179.843L90.7787 181.116L90.7288 182.847L90.0307 184.883L89.9309 184.781L70.1343 173.277L65.0979 168.442L62.3553 162.435L61.6073 161.112L59.862 159.941L59.0641 159.025L58.7151 157.803L58.5156 155.258L58.1666 154.139L56.6706 152.255L54.9752 150.881L53.3296 149.201L52.1328 146.554V141.668L54.277 137.851L57.5682 135L61.0089 133.32L61.6073 134.593L62.0561 138.36L64.5494 139.988L67.6909 140.09L70.3338 141.261L72.0791 143.704L71.8297 146.809L73.8243 148.132L75.8688 149.812L77.9632 150.881L80.0575 148.641L80.6559 145.129L81.1047 139.785L81.0549 134.796L80.7058 129.757L81.8028 124.718L83.3985 126.856L84.9444 128.79L85.9916 130.674L86.5401 133.015L89.183 137.596L92.8231 140.65L96.0145 143.755L97.9593 147.318L97.6601 149.863L97.9094 152.561L97.3111 153.884L97.9094 155.208ZM66.893 147.827L68.0399 144.824L65.796 143.551L64.5992 143.399H63.3526L62.1558 143.755L61.1086 144.569L60.61 145.689L60.4105 146.86L60.61 148.082L61.1086 149.15L64.0507 150.067L66.893 147.827Z" fill="#4E4E4E" stroke="#5E5D5D" stroke-width="2" stroke-linecap="round" stroke-linejoin="round"/>
<path d="M140.445 140.497L138.002 144.62L134.811 147.725L131.569 147.267L130.771 143.704L132.068 140.141L133.863 137.342L134.362 136.018L138.7 136.12L140.445 140.497Z" fill="#4E4E4E" stroke="#5E5D5D" stroke-width="2" stroke-linecap="round" stroke-linejoin="round"/>
<path d="M134.362 136.018L133.863 137.342L132.068 140.141L130.772 143.704L131.57 147.267L134.811 147.725L138.002 144.62L140.446 140.497L145.432 140.955L147.776 146.453L147.577 153.222L148.873 154.749L148.324 156.786L146.479 159.076L144.535 161.316L141.443 164.268L138.651 167.678L137.005 170.427L135.06 172.87L132.517 179.334L132.417 187.224L125.287 186.155L118.654 183.661L120.699 177.655L124.638 173.226V169.765L121.796 167.627L118.954 165.082L116.76 161.57L119.801 156.887L122.594 152.51L120.649 150.83L118.305 149.354L115.264 147.013L112.122 144.926L115.214 142.635L118.704 141.821L121.447 141.872L123.741 140.141L124.19 138.156L124.489 136.12L125.835 132.811L126.035 130.521L126.384 128.383L127.63 125.991L128.977 123.598L131.52 129.299L134.362 136.018Z" fill="#4E4E4E" stroke="#5E5D5D" stroke-width="2" stroke-linecap="round" stroke-linejoin="round"/>
<path d="M183.978 164.013L180.039 167.933L178.393 169.002L175.002 171.648L173.157 172.717L170.016 172.819L166.824 172.717L162.586 174.601L158.497 177.247L153.809 179.131L150.867 183.05L141.891 188.751L132.417 187.224L132.517 179.334L135.06 172.87L137.005 170.427L138.65 167.678L141.443 164.268L144.534 161.316L146.479 159.076L148.324 156.785L148.873 154.749L147.576 153.222L147.776 146.453L145.432 140.955L146.928 135.662L150.319 132.404L151.865 130.775L151.416 128.434L152.164 126.805L153.859 125.787L158.247 121.562L162.536 117.185L166.226 112.706L170.016 108.328L169.218 112.909L169.766 122.275L169.068 126.907L167.572 131.386L169.567 134.695L172.958 135.204L175.8 137.24L173.706 140.752L171.063 144.468L172.609 146.962L176 144.824L178.942 145.078L181.136 147.572L180.986 152.459L181.485 157.447L183.878 158.262L186.521 157.854L187.219 158.923L186.87 160.654L185.923 163.097L183.978 164.013ZM176 162.181L176.797 161.621L176.897 160.501L175.75 159.432L174.404 160.959L174.703 161.672L175.252 162.232L176 162.181Z" fill="#4E4E4E" stroke="#5E5D5D" stroke-width="2" stroke-linecap="round" stroke-linejoin="round"/>
<path d="M118.654 183.661L125.286 186.155L132.417 187.224L141.891 188.751L150.867 183.05L150.518 185.035L149.97 186.919L148.274 188.395L147.875 192.569L148.823 196.641L149.571 200.356L150.668 203.461L152.612 202.85L154.507 201.323L159.594 201.832L163.832 205.955L166.026 207.737L167.073 210.027L168.17 212.572L170.165 214.863L167.223 215.117L164.78 216.543L161.239 217.204L158.148 218.884L156.253 221.735L153.61 223.312L151.316 221.582L148.723 220.258L143.736 223.363L140.196 224.992L136.606 226.316L132.766 226.926L129.126 228.555L123.142 230.642L117.008 231.558L114.016 232.525L111.124 232.882L108.98 230.439L106.786 228.606L105.091 231.355L103.495 235.121L100.403 237.972L97.0622 240.415L95.4665 241.688L93.6713 240.771L89.8317 236.852L85.3438 227.435L83.4987 225.348L81.2049 224.178L72.3288 223.262L69.6361 221.989L69.3369 219.291L74.7224 215.728L88.7346 218.121L94.6686 217.51L95.8155 216.543L96.3641 215.321L97.4112 210.129L97.7104 209.264L99.6053 207.533L101.201 205.345L102.248 202.545L103.794 195.215L103.844 194.554L103.644 193.23L101.45 190.278L100.204 189.056L99.0069 188.395L97.112 188.497L95.9153 188.853L96.6633 184.73L101.45 182.796L106.786 183.814L112.72 184.272L118.654 183.661Z" fill="#4E4E4E" stroke="#5E5D5D" stroke-width="2" stroke-linecap="round" stroke-linejoin="round"/>
<path d="M186.371 129.605L189.563 130.826L191.258 130.215L192.904 130.266L193.801 131.488L194.599 133.066L187.718 135.967L183.679 131.081L186.371 129.605Z" fill="#4E4E4E" stroke="#5E5D5D" stroke-width="2" stroke-linecap="round" stroke-linejoin="round"/>
<path d="M39.1179 106.801L38.2203 108.074L36.2257 107.768L35.4278 105.122L35.9763 104.663H36.6744L39.1179 106.801ZM22.9115 99.0644L21.6649 101.711L18.5732 100.642L17.5261 99.268L16.9775 97.4865L17.2767 95.9085L18.5732 94.9414L21.9641 95.7558L22.9115 99.0644ZM52.8309 103.086L48.8915 105.122L46.9468 104.816L43.2068 103.238L39.2176 102.729L37.7715 101.558L36.475 100.082L34.7297 98.9626L31.9372 96.0103L30.541 95.2468L30.2917 97.3338L29.793 98.7081L28.1474 98.5554L26.3024 97.232L25.2054 95.3486L26.1029 91.6329L34.5302 91.9892L37.4224 89.8005L37.3227 87.968L36.2257 86.3392L31.7876 82.7762L30.3415 82.2672H24.7566L23.3105 81.6055L22.8617 80.1803L23.7094 77.737L20.5679 70.9164L28.6461 64.0448L28.696 64.8083L29.045 65.5718L32.9844 69.5421L34.6798 70.5601L38.3699 71.4254L41.8106 73.8686L43.8052 74.8357L53.3794 76.0064L53.6786 76.1082L54.277 80.333L52.0331 87.6117L52.5816 89.4951L51.5843 91.073V92.7018L52.432 98.1991L52.6314 102.169L52.8309 103.086Z" fill="#4E4E4E" stroke="#5E5D5D" stroke-width="2" stroke-linecap="round" stroke-linejoin="round"/>
<path d="M128.977 123.598L127.63 125.991L126.384 128.383L126.035 130.521L125.835 132.811L124.489 136.12L124.19 138.156L123.741 140.141L121.447 141.872L118.704 141.821L115.214 142.635L112.122 144.926L108.033 142.686L104.692 145.486L101.301 150.525L97.9104 155.208L97.312 153.884L97.9104 152.561L97.661 149.863L97.9602 147.318L96.0155 143.755L92.8241 140.65L89.1839 137.596L86.541 133.015L85.9925 130.674L84.9453 128.79L83.3995 126.856L81.8038 124.718L81.7539 121.155L83.2499 118.407L85.793 116.676L88.1866 114.589L90.979 112.553L93.7216 110.415L95.3672 106.954L96.6138 103.747L100.703 102.933L109.23 104.002L113.419 103.035L114.017 101.406L114.765 99.6752L116.66 97.0792L120.15 93.2617L122.793 88.6807L126.384 93.5671L129.874 98.5554L131.819 102.424L131.37 106.496L130.074 108.735L129.425 111.433L129.026 113.52L128.328 115.505L127.481 119.577L128.977 123.598Z" fill="#4E4E4E" stroke="#5E5D5D" stroke-width="2" stroke-linecap="round" stroke-linejoin="round"/>
<path d="M157.748 91.8874L160.241 93.8216L164.131 93.9743L167.522 96.0612L167.871 99.2679L168.37 102.627L169.616 105.274L170.015 108.328L166.225 112.706L162.535 117.185L158.247 121.562L153.859 125.787L152.163 126.805L151.415 128.434L151.864 130.775L150.318 132.404L146.927 135.662L145.431 140.955L140.445 140.497L138.7 136.12L134.361 136.018L131.519 129.299L128.976 123.598L127.48 119.577L128.327 115.505L129.026 113.52L129.425 111.433L130.073 108.735L131.369 106.496L131.818 102.424L129.873 98.5553L126.383 93.5671L122.792 88.6806L118.005 86.2883L113.318 83.5397L112.869 83.2343L115.013 81.8091L116.908 81.351H123.291L124.837 81.86L126.183 83.2343L128.677 86.3901L133.663 91.0729L135.408 92.1419L140.495 93.8216L141.891 95.0941L144.284 98.3517L145.78 99.3188L147.625 99.2679L148.373 98.0463L148.872 96.2139L149.82 94.3815L151.615 93.2108L153.31 93.4144L154.906 93.8725L156.601 93.5671L157.748 91.8874Z" fill="#4E4E4E" stroke="#5E5D5D" stroke-width="2" stroke-linecap="round" stroke-linejoin="round"/>
<path d="M112.87 83.2343L113.319 83.5397L118.006 86.2883L122.793 88.6806L120.15 93.2617L116.66 97.0792L114.765 99.6751L114.017 101.406L113.418 103.035L109.23 104.002L100.703 102.933L96.6135 103.747L95.3669 106.954L93.7213 110.415L90.9787 112.553L88.1863 114.589L85.7927 116.676L83.2496 118.406L81.7536 121.155L81.8035 124.718L80.7064 129.757L81.0555 134.796L81.1053 139.785L80.6566 145.129L80.0582 148.641L77.9638 150.881L75.8695 149.812L73.825 148.132L71.8303 146.809L72.0797 143.704L70.3344 141.261L67.6915 140.09L64.55 139.988L62.0567 138.359L61.6079 134.593L61.0095 133.32L67.6416 130.063L69.8856 127.467L71.4813 122.733L71.2818 120.188L69.8357 119.374L67.8411 119.221L66.0958 118.661L64.7494 117.287L61.1092 112.451L58.8653 110.568L58.0176 110.364L58.965 106.903L62.0567 102.576L64.5998 101.864L67.1928 101.049L69.736 98.3008L70.6834 94.2797L68.5392 87.6117L71.232 85.5757L76.0689 85.6266L77.6646 82.8271L79.9584 80.7911L83.2994 79.1114L85.8426 77.6353L90.131 80.333L102.797 85.0158L106.886 85.5248L108.93 85.3212L110.626 84.7104L112.87 83.2343Z" fill="#4E4E4E" stroke="#5E5D5D" stroke-width="2" stroke-linecap="round" stroke-linejoin="round"/>
<path d="M184.477 114.64L192.206 118.661L199.835 123.038L206.318 125.787L212.8 128.688L210.407 137.952L209.31 141.821L209.26 145.944L210.357 149.405L209.459 152.917L208.113 154.597L207.564 155.258L205.171 156.684L202.229 163.352L197.242 164.166L191.957 164.98L187.818 171.343L186.322 169.612L185.025 167.678L184.626 165.795L183.978 164.013L185.923 163.097L186.87 160.654L187.219 158.923L186.521 157.854L183.878 158.262L181.485 157.447L180.986 152.459L181.136 147.572L178.942 145.078L176 144.824L172.609 146.962L171.063 144.468L173.706 140.752L175.8 137.24L172.958 135.204L169.567 134.695L167.572 131.386L169.068 126.907L169.766 122.275L169.218 112.909L170.016 108.328L177.346 110.619L184.477 114.64ZM186.372 129.605L183.679 131.081L187.718 135.967L194.599 133.066L193.802 131.488L192.904 130.266L191.258 130.215L189.563 130.826L186.372 129.605ZM206.019 152.561L205.819 151.848L205.769 150.474L205.969 149.659L206.816 147.623L206.966 146.147L206.567 145.791L205.62 145.689L203.775 145.791H199.885L198.389 148.234L199.586 151.95L202.279 153.579L205.221 153.731L206.019 152.561Z" fill="#4E4E4E" stroke="#5E5D5D" stroke-width="2" stroke-linecap="round" stroke-linejoin="round"/>
<path d="M497.233 180.251L498.43 181.574L498.829 183.356L498.231 184.526L496.635 184.119L495.588 184.475L494.341 183.406L493.493 181.727L493.693 180.251L494.79 181.116L495.588 180.861L496.336 180.251H497.233ZM473.348 163.81L474.395 164.37L475.691 163.912L476.29 164.624L476.489 167.017L477.287 168.289L478.334 169.256L479.232 170.834L479.332 172.157L478.633 172.972L477.387 173.226L475.691 173.175L476.09 170.376L473.348 166.508V163.81ZM391.069 256.347L390.222 252.936L389.873 249.119L389.673 244.232L390.92 239.906L390.82 236.954L390.471 234.103L389.274 232.322L388.028 230.642L386.881 227.028L385.385 223.923L386.432 220.869L387.08 217.764L388.526 215.626L389.823 213.438L389.573 211.147L389.175 208.806L390.222 206.312L391.718 204.123L392.266 201.985L392.166 200.102L392.815 198.168L394.261 196.691L396.754 191.754L397.103 185.392L396.305 179.131L396.206 173.379L398.898 170.58L402.489 170.02L404.583 167.831L406.777 165.235L413.758 165.031L416.252 164.573L418.845 164.472L422.684 165.693L424.729 165.031L426.723 164.013L430.613 163.148L434.502 162.079L436.098 160.196L433.156 159.025L429.516 157.804L425.975 156.684L424.38 157.193L422.884 157.905L420.889 157.498L419.293 155.615L420.69 153.019L420.939 151.899L422.136 152.51L426.374 153.07L430.014 154.241L432.009 154.444L433.605 154.088L438.292 152.103L440.337 151.746L450.011 152.103L450.759 152.815L451.756 155.208L453.302 157.142L454.897 158.618L456.643 159.636L464.322 161.316L465.818 162.181L466.765 163.861L467.763 166.508L469.059 168.951L470.755 170.02L472.6 170.732L474.195 172.463L475.442 174.753L476.29 177.095L477.137 186.511L477.736 187.428L478.434 189.565L478.883 191.958L478.584 193.536L476.988 190.278L475.193 187.428L473.098 184.933L468.91 181.421L467.114 180.403L465.17 179.64L461.38 179.131L458.189 178.062L456.493 177.807L455.496 177.909L453.551 178.673H450.31L448.814 179.334L445.922 181.778H444.226L443.628 181.218L442.531 179.436L441.833 178.673L440.935 178.316L438.791 177.909L436.547 176.688L434.851 177.655L432.009 180.251L432.607 182.948L430.214 185.442L426.773 187.275L421.089 188.598L416.152 191.551L409.619 193.994L408.123 195.164L404.832 198.829L403.386 199.898L402.439 201.12L402.289 203.614L402.738 206.668L402.788 207.89L398.2 209.722L397.353 211.504L397.552 213.794L398.699 216.085L399.497 216.899L400.694 217.866L401.342 218.731L401.691 219.902L401.242 220.615L400.394 221.175L398.898 222.6L397.602 223.414L396.954 224.585L396.605 225.908L396.555 226.926L396.954 229.217L397.951 231.66L398.25 232.983L397.851 234.256L396.455 235.681L395.956 236.343L395.807 237.412L396.455 239.295L396.405 240.11L396.056 240.619L394.66 241.637L394.111 243.265L394.161 243.978L394.66 244.741L394.261 246.218L394.759 247.745L396.704 250.544L396.605 251.46L395.408 252.427L393.214 253.7L391.069 256.347ZM413.459 176.331L415.354 176.789L417.398 176.535L419.293 175.619L420.291 174.499L419.343 172.819L417.548 169.969L414.008 170.172L411.315 171.903L412.811 174.193L413.459 176.331Z" fill="#DB0505" stroke="#5E5D5D" stroke-width="2" stroke-linecap="round" stroke-linejoin="round"/>
<path d="M413.459 176.331L412.811 174.193L411.315 171.903L414.008 170.172L417.548 169.969L419.343 172.819L420.291 174.499L419.293 175.619L417.398 176.535L415.354 176.789L413.459 176.331ZM419.293 155.615L420.889 157.498L422.884 157.905L424.38 157.193L425.975 156.684L429.516 157.804L433.156 159.025L436.098 160.196L434.502 162.079L430.613 163.148L426.723 164.013L424.729 165.031L422.684 165.693L418.844 164.472L416.252 164.573L413.758 165.031L406.777 165.235L404.583 167.831L402.489 170.02L398.898 170.58L396.206 173.379L396.305 179.131L397.103 185.392L396.754 191.754L394.261 196.691L392.815 198.168L392.166 200.102L392.266 201.985L391.718 204.123L390.222 206.312L389.174 208.806L389.573 211.147L389.823 213.438L388.526 215.626L387.08 217.764L386.432 220.869L385.385 223.923L383.839 221.684L382.143 219.597L381.395 217.713L381.246 215.474L379.401 212.267L377.705 208.857L377.007 205.09L374.913 202.24L371.023 201.578L366.984 201.629L363.893 201.323L360.951 200.458L358.457 197.15L356.064 193.434L353.62 190.634L350.928 188.089L348.634 185.493L347.836 181.269L350.778 182.49L355.116 185.493L356.662 183.763L358.507 181.829L362.746 177.298L365.688 176.331L367.383 174.499L368.68 172.005L371.123 170.529L373.816 170.02L376.359 168.849L378.802 166.864L381.146 164.421L382.941 161.061L389.174 160.858L394.66 158.313L395.458 153.986L396.405 152.561L397.552 151.186L399.896 149.049L401.591 146.096L404.882 148.336L407.824 151.797L409.171 154.342L410.667 156.735L414.955 157.142L419.293 155.615Z" fill="#4E4E4E" stroke="#5E5D5D" stroke-width="2" stroke-linecap="round" stroke-linejoin="round"/>
<path d="M197.79 199.695L203.824 199.186L209.908 199.338L206.417 202.952L202.428 205.599L202.079 208.195L204.622 210.435L202.278 212.623L199.087 213.641L198.987 216.746L198.738 219.902L197.691 220.767L196.594 221.48L198.488 227.079L205.47 228.606L209.06 227.181L212.8 226.621L214.745 229.879L212.949 233.849L211.603 234.816L208.91 234.103L206.218 234.409L204.871 236.241L203.774 238.023L198.937 236.852L194.3 233.645L190.759 231.864L187.069 232.78L186.172 236.038L184.476 238.786L181.135 240.11L177.944 241.789L179.589 238.277L181.484 234.918L183.23 232.576L183.978 229.522L180.487 227.843L177.495 224.992L175.351 219.953L171.262 217.815L167.771 218.833L164.779 216.543L167.223 215.117L170.165 214.863L170.564 210.791L171.81 207.737L174.004 205.395L174.653 201.527L179.24 199.389L184.576 196.691L184.077 194.859L184.676 193.434L185.773 193.841L186.67 194.757L188.814 195.164L190.759 194.299L192.355 196.386L193.153 199.287L195.397 200L197.79 199.695Z" fill="#4E4E4E" stroke="#5E5D5D" stroke-width="2" stroke-linecap="round" stroke-linejoin="round"/>
<path d="M235.14 131.793L235.44 136.832L235.689 141.821L237.733 144.111L240.526 145.791L241.922 147.471L243.069 149.201L242.72 150.474L241.673 151.594L240.626 155.004L240.326 158.821L237.035 157.753L233.844 158.109L231.301 159.84L230.054 167.322L231.251 170.172L233.644 171.598L234.941 174.193L233.794 177.298L232.498 180.2L229.755 183.254L228.109 184.73L227.561 183.763L226.663 182.745L226.264 182.948L226.514 180.607L226.863 179.589L227.361 178.673L226.364 177.247L223.173 177.756L221.577 177.095L223.272 174.55L222.624 173.277L218.037 171.598L218.735 170.732L220.48 169.358L220.979 168.493L221.128 166.66L220.48 166.406L219.532 166.813L218.485 167.016L217.189 166.966L216.89 166.711L216.939 165.591L216.341 164.98L215.892 164.166L215.194 163.403L214.247 162.995L213.598 162.13L214.147 160.043L214.346 157.956L212.851 156.785L212.202 157.091L211.404 157.956L210.158 159.534L209.36 160.043L209.061 159.025L209.16 157.549L209.908 156.276L208.911 155.157L208.113 154.597L209.46 152.917L210.357 149.405L209.26 145.944L209.31 141.821L210.407 137.952L212.801 128.688L216.341 129.401L219.832 130.317L221.976 131.233L224.02 131.284L225.566 130.47L227.062 130.928L228.558 131.692L231.799 132.455L235.14 131.793Z" fill="#4E4E4E" stroke="#5E5D5D" stroke-width="2" stroke-linecap="round" stroke-linejoin="round"/>
<path d="M315.772 180.963L314.027 183.508L312.93 186.969L310.038 184.526L308.143 180.658L305.749 179.436L303.206 178.52L303.107 174.244L302.907 169.714L299.566 168.034L295.776 168.34L290.889 172.514L287.598 169.256L284.606 169.867L282.263 167.627L283.011 162.741L284.706 158.058L286.352 159.127L287.898 157.905L288.546 154.546L289.992 152.764L291.737 151.339L293.881 150.067L295.876 148.641L296.325 147.522L297.023 146.504L305.4 142.381L310.487 138.461L313.08 133.728L314.725 128.078L315.473 129.656L316.072 131.183L318.714 133.931L320.31 137.545L319.413 139.683L318.365 141.821L318.415 143.806L317.169 145.689L313.479 149.303L312.531 154.037L314.925 157.244L318.166 158.618L324.05 158.771L325.895 159.789L327.64 161.112L329.535 162.028L330.981 163.25L329.635 164.879L327.89 165.795L323.551 167.729L319.861 170.783L319.313 176.331L317.667 178.673L315.772 180.963Z" fill="#4E4E4E" stroke="#5E5D5D" stroke-width="2" stroke-linecap="round" stroke-linejoin="round"/>
<path d="M347.837 181.269L348.634 185.493L350.928 188.089L353.621 190.634L356.064 193.434L358.458 197.15L360.951 200.458L363.893 201.323L366.985 201.629L371.024 201.578L374.914 202.24L377.008 205.09L377.706 208.857L379.402 212.267L381.247 215.474L381.396 217.713L382.144 219.597L383.84 221.684L385.385 223.923L386.881 227.028L388.028 230.642L389.275 232.322L390.472 234.103L390.821 236.954L390.921 239.906L388.328 237.819L385.834 235.681L384.588 233.849L383.092 232.576L378.803 233.747L375.911 233.136L371.623 232.729L367.234 232.016L363.893 230.133L360.602 227.843L357.56 228.046L354.718 228.402L356.015 226.977L357.161 225.603L357.261 222.243L356.912 221.276L356.114 220.767L355.117 220.92L352.873 220.818L351.028 220.309L349.781 220.716L346.889 218.324L345.194 217.764L340.357 216.899L339.31 216.441L338.661 214.863L337.115 214.303L335.171 213.947L332.977 212.725L332.378 212.674L332.279 210.027L332.029 209.824L331.73 207.737L331.88 206.312L330.035 205.243L322.355 203.105L314.427 203.003L315.125 198.269L314.925 193.739L314.476 189.871L312.931 186.969L314.028 183.508L315.773 180.963L319.214 181.828L322.605 182.796L326.045 184.933L329.735 186.715L332.628 188.191L335.42 186.715L337.913 183.864L339.01 179.436L343.199 181.778L347.837 181.269Z" fill="#4E4E4E" stroke="#5E5D5D" stroke-width="2" stroke-linecap="round" stroke-linejoin="round"/>
<path d="M321.059 390.266L322.006 387.466L323.303 385.176L323.901 382.58L325.447 381.053L327.242 380.035L329.237 379.424L331.131 379.679L333.026 378.915L334.871 377.795L342.501 377.388L349.382 375.454L349.881 394.185L344.396 393.014L341.653 392.964L339.758 394.032L338.063 395.763L335.918 397.137L333.625 398.155L331.58 398.766L327.192 398.41L324.499 395.712L322.156 391.691L321.059 390.266Z" fill="#DB0505" stroke="#5E5D5D" stroke-width="2" stroke-linecap="round" stroke-linejoin="round"/>
<path d="M228.109 184.73L228.308 185.646L235.04 186.511L234.342 187.478L232.746 188.14L232.048 188.853L231.649 189.82L224.469 195.368L217.288 200.254L214.446 201.222L211.952 199.389L209.758 197.557L209.908 199.338L203.824 199.186L197.79 199.695L197.392 197.506L196.893 195.419L196.693 191.5L197.043 184.323L194.599 183.406L192.555 181.523L191.059 178.724L189.862 177.858L188.964 176.637L187.817 171.343L191.956 164.98L197.242 164.166L202.229 163.352L205.171 156.684L207.564 155.259L208.113 154.597L208.911 155.157L209.908 156.277L209.16 157.549L209.06 159.025L209.359 160.043L210.157 159.534L211.404 157.956L212.202 157.091L212.85 156.786L214.346 157.956L214.146 160.043L213.598 162.13L214.246 162.995L215.194 163.403L215.892 164.166L216.34 164.98L216.939 165.591L216.889 166.711L217.188 166.966L218.485 167.017L219.532 166.813L220.479 166.406L221.128 166.66L220.978 168.493L220.479 169.358L218.734 170.732L218.036 171.598L222.624 173.277L223.272 174.55L221.576 177.095L223.172 177.756L226.363 177.247L227.361 178.673L226.862 179.589L226.513 180.607L226.264 182.948L226.663 182.745L227.56 183.763L228.109 184.73Z" fill="#4E4E4E" stroke="#5E5D5D" stroke-width="2" stroke-linecap="round" stroke-linejoin="round"/>
<path d="M257.729 205.701L254.138 209.111L257.18 212.369L259.973 215.728L259.823 220.157L256.482 222.6L254.787 223.618L253.54 225.298L254.537 227.079L256.133 228.148L254.687 232.22L254.138 235.528L257.33 237.208L260.122 239.804L263.164 242.4L266.106 244.64L265.558 248.101L261.917 250.29L258.277 253.598L257.479 257.365L253.839 261.182L243.617 267.087V262.455L238.181 257.823L236.336 254.769L234.292 252.326L231.449 251.562L230.053 248.254L228.458 245.556L227.261 243.316L228.358 242.349L229.505 241.586L228.408 238.277L229.854 235.783L232.447 234.663L232.995 233.492L233.993 232.78L236.037 232.983L238.082 232.78L240.824 231.609L243.667 230.795L246.16 228.097L247.456 224.076L248.404 218.782L249.251 213.285L251.146 208.958L254.787 200.509L255.983 200.611L257.08 201.222L257.18 202.596L257.629 205.446L257.729 205.701Z" fill="#4E4E4E" stroke="#5E5D5D" stroke-width="2" stroke-linecap="round" stroke-linejoin="round"/>
<path d="M307.794 261.386L312.431 256.856L317.268 259.859L321.507 262.2L324.998 258.027L328.688 258.637L332.378 260.266L336.566 261.793L340.755 263.218L338.91 269.021L338.461 274.824L340.157 277.012L341.703 279.354L341.304 282.357L340.456 285.36L338.312 285.411L336.267 284.851L334.871 284.139H333.475L332.477 285.462L331.779 287.04L330.483 288.261L330.184 289.89L330.034 294.777L327.391 297.322L324.599 295.54L323.701 291.519L321.756 288.363H318.764L316.171 291.519L313.229 294.064L311.484 294.268L309.888 295.133L308.891 296.406L307.644 297.525L304.553 295.744L304.303 290.399L303.456 289.025L304.353 288.72L302.458 284.648L300.065 281.288L294.23 275.791L279.919 258.179L274.733 253.191L273.087 252.071L271.891 251.766L271.99 250.697L277.176 251.155L283.16 255.736L288.695 261.335L298.668 267.596L307.794 261.386Z" fill="#4E4E4E" stroke="#5E5D5D" stroke-width="2" stroke-linecap="round" stroke-linejoin="round"/>
<path d="M194.998 278.947L198.04 280.474L200.982 282.255L202.628 285.36L204.323 288.058L206.667 287.701L209.11 287.142L211.703 288.821L212.701 290.145L211.703 290.705L203.226 294.064L199.137 296.66L198.339 297.627L198.04 298.696L194.948 303.735L193.502 308.011L193.103 308.825L192.206 309.945L186.521 313.203L185.474 313.406L184.227 313.05L181.834 311.981H180.487L179.091 312.694L178.293 309.538L175.401 305.669L172.609 303.582L169.667 301.801L168.37 298.645L168.071 294.929L166.425 292.435L165.229 289.992L165.777 286.531L167.772 284.546L171.163 285.869L174.304 286.174L175.401 282.51L174.105 278.896L175.95 277.623L178.094 279.099L180.737 280.117L181.285 281.39L181.185 282.968L183.679 285.156L186.521 286.785L187.618 288.821L189.762 288.465L191.208 287.091L192.904 286.836L194.2 286.785L194.25 285.309L193.203 281.848L194.998 278.947Z" fill="#4E4E4E" stroke="#5E5D5D" stroke-width="2" stroke-linecap="round" stroke-linejoin="round"/>
<path d="M340.456 285.36L338.262 288.261L336.367 291.417L335.719 295.693L336.367 299.969L339.409 307.095L338.462 314.73L336.766 313.966L335.021 314.017L334.871 315.799L334.073 316.613L332.478 316.104L330.882 316.511L330.782 319.107L332.129 321.652L330.134 323.128L327.741 324.044L325.347 325.724L323.452 328.218L320.36 331.629L316.122 332.799L313.778 329.796L310.836 327.811L308.841 328.269L306.847 328.931L301.162 329.185L301.561 327.658L301.611 326.08L301.162 324.706L298.569 319.056L297.322 317.784L292.436 315.697L287.599 310.912L285.504 307.909L284.357 304.906L284.557 301.037L286.103 297.831L288.546 295.438L291.438 293.911L296.774 292.842L301.212 289.737L303.456 289.025L304.304 290.399L304.553 295.744L307.645 297.525L308.891 296.405L309.889 295.133L311.484 294.268L313.23 294.064L316.172 291.519L318.765 288.363H321.757L323.701 291.519L324.599 295.54L327.391 297.322L330.034 294.777L330.184 289.89L330.483 288.261L331.78 287.04L332.478 285.462L333.475 284.138H334.871L336.268 284.851L338.312 285.411L340.456 285.36Z" fill="#4E4E4E" stroke="#5E5D5D" stroke-width="2" stroke-linecap="round" stroke-linejoin="round"/>
<path d="M367.234 63.1795L369.827 68.6768L371.073 70.5092L372.121 72.6979L372.619 75.192L373.666 85.2194L374.215 87.3573L375.212 88.3244L374.015 88.4262L370.625 85.6775L367.383 82.9289L364.691 83.7942L361.998 84.9649H355.864L353.072 88.9861L354.618 92.9054L354.668 97.232L353.82 99.2171L352.573 100.795L349.232 101.406L346.789 103.187L345.542 106.241L346.24 111.484L347.337 116.778L344.545 118.559L342.002 121.053L337.713 118.661L333.325 116.472L333.624 111.382L333.176 107.005L331.929 104.256L333.574 101.711L335.719 99.9806L336.866 97.0284L333.774 92.9054L330.184 89.1897L332.428 83.6415L336.866 79.6204L339.06 76.77V75.0902L337.913 73.665L337.813 68.9822L338.81 64.1975L341.553 63.8921L344.246 62.6196L346.938 63.6376L349.881 63.8412L353.77 62.3142L357.759 62.6705L362.197 63.4849L366.735 63.3322L367.234 63.1795Z" fill="#4E4E4E" stroke="#5E5D5D" stroke-width="2" stroke-linecap="round" stroke-linejoin="round"/>
<path d="M243.618 267.087L242.072 267.952L237.584 272.635L236.487 273.398L234.592 273.602L228.608 275.689L225.068 277.725L222.275 280.117L218.037 285.665L215.244 288.618L212.701 290.145L211.704 288.821L209.111 287.142L206.667 287.701L204.324 288.058L202.628 285.36L200.983 282.255L198.041 280.474L194.999 278.947L195.647 277.471V276.249L197.243 275.944L198.739 275.485L198.34 273.297L197.841 271.057L198.539 269.734L199.387 268.512L198.739 266.018L196.245 267.087L194.5 268.614L192.605 268.817L192.057 266.934L193.453 265.254L196.943 264.44L198.888 261.946L196.146 262.353L192.954 261.691L194.45 259.095L198.34 258.79L200.284 257.976L202.179 256.856L203.675 255.227L205.271 254.311L207.814 253.853L210.407 253.14L213.698 252.478L216.94 251.664L223.472 249.882L230.054 248.254L231.45 251.562L234.293 252.326L236.337 254.769L238.182 257.823L243.618 262.455V267.087Z" fill="#4E4E4E" stroke="#5E5D5D" stroke-width="2" stroke-linecap="round" stroke-linejoin="round"/>
<path d="M277.825 160.247L278.473 166.304L274.883 168.391L272.689 167.475L270.445 167.729L267.154 167.271L264.012 165.795L258.228 162.741L256.532 162.588L255.136 163.81L253.441 164.726L251.396 163.81L249.302 162.079L247.058 160.807L243.567 162.028L241.772 160.552L240.326 158.821L240.625 155.004L241.673 151.594L242.72 150.474L243.069 149.201L241.922 147.471L240.526 145.791L243.617 143.959L246.958 143.195L249.95 143.093L252.743 141.719L255.685 142.533L260.771 144.315L262.865 144.162L267.154 144.62L271.492 146.046L275.98 147.318L279.57 150.423L277.476 155.666L277.825 160.247Z" fill="#4E4E4E" stroke="#5E5D5D" stroke-width="2" stroke-linecap="round" stroke-linejoin="round"/>
<path d="M302.458 214.099L303.106 215.168L302.957 216.492L301.91 217.306L300.214 217.764L298.419 219.24L296.724 220.92L295.577 222.803L294.729 224.738L295.577 226.061L296.624 227.333L296.973 229.929L295.876 232.373L294.48 235.07L293.782 238.023L294.579 240.669L295.976 242.909L301.112 244.69L305.151 248.406L305.001 249.933L304.553 251.308L304.403 253.802L304.453 256.347L305.749 258.993L307.794 261.386L298.668 267.596L288.695 261.335L283.16 255.736L277.176 251.155L271.99 250.697L271.891 251.766L270.893 253.242L269.996 254.107L268.949 254.362L262.466 254.209L260.471 254.769L258.826 255.939L257.479 257.365L258.277 253.598L261.917 250.29L265.558 248.101L266.106 244.64L263.164 242.4L260.122 239.804L257.33 237.208L254.138 235.528L254.687 232.22L256.133 228.148L254.537 227.079L253.54 225.297L254.787 223.618L256.482 222.6L259.823 220.157L259.973 215.728L257.18 212.369L254.138 209.111L257.729 205.701L258.626 207.635L260.322 207.126L261.169 206.668L262.067 206.821L262.865 207.177L264.51 207.839L265.907 209.417L266.405 209.824L267.004 209.569L267.752 208.602L268.749 208.399L271.392 209.773L272.389 209.976L272.888 209.417L272.788 206.973L272.838 205.701L273.137 204.734L274.035 204.225L275.082 204.734L276.079 205.548L276.927 205.904L278.672 204.785L280.368 203.258L281.714 203.207L282.213 206.363L282.861 207.686L287.449 210.587L288.247 210.893L288.895 210.944L289.294 211.402L289.194 212.98L291.937 211.554L293.482 211.198L294.978 211.402L296.424 212.471L297.023 213.234L297.621 215.117L298.319 214.863L299.367 213.692L300.663 212.98H301.361L302.059 213.438L302.458 214.099Z" fill="#4E4E4E" stroke="#5E5D5D" stroke-width="2" stroke-linecap="round" stroke-linejoin="round"/>
<path d="M308.592 110.313L312.381 114.793L316.819 117.999L317.418 123.089L314.725 128.078L313.08 133.727L310.487 138.461L305.4 142.381L297.023 146.504L296.325 147.522L295.876 148.641L293.881 150.067L291.737 151.339L289.992 152.764L288.546 154.546L287.897 157.905L286.352 159.127L284.706 158.058L281.315 159.381L277.825 160.247L277.476 155.666L279.57 150.423L275.98 147.318L271.492 146.045L267.153 144.62L262.865 144.162L260.771 144.315L255.684 142.533L252.742 141.719L255.036 138.818L257.18 135.764L258.926 132.404L261.419 130.215L265.308 128.434L268.599 125.787L268.649 123.14L268.949 120.595L270.046 120.137L271.342 119.933L273.785 117.796L274.085 114.182L272.04 110.568L271.143 106.801L271.591 105.427L272.339 104.205L274.733 104.663L275.431 102.78L275.88 100.693L276.827 98.708L278.124 97.1301L280.667 97.7409L283.21 97.9445L285.604 99.0134L292.535 103.085L297.172 105.274L303.605 105.783L308.592 110.313Z" fill="#4E4E4E" stroke="#5E5D5D" stroke-width="2" stroke-linecap="round" stroke-linejoin="round"/>
<path d="M312.93 186.97L314.476 189.871L314.925 193.739L315.124 198.269L314.426 203.003L311.634 204.581L309.39 206.872L306.647 208.5L304.453 210.689L303.755 212.216L302.459 214.1L302.06 213.438L301.362 212.98H300.663L299.367 213.692L298.32 214.863L297.622 215.118L297.023 213.234L296.425 212.471L294.979 211.402L293.483 211.198L291.937 211.555L289.194 212.98L289.294 211.402L288.895 210.944L288.247 210.893L287.449 210.587L282.861 207.686L282.213 206.363L281.714 203.207L280.368 203.258L278.673 204.785L276.927 205.905L276.08 205.548L275.082 204.734L274.035 204.225L273.138 204.734L272.838 205.701L272.789 206.973L272.888 209.417L272.39 209.977L271.392 209.773L268.749 208.399L267.752 208.602L267.004 209.569L266.406 209.824L265.907 209.417L264.511 207.839L262.865 207.177L264.96 205.599L267.453 204.378L269.398 202.24L270.744 199.644L269.797 191.5L269.896 183.05L272.09 180.658L273.686 177.604L274.434 173.125L274.883 168.391L278.473 166.304L277.825 160.247L281.316 159.381L284.706 158.058L283.011 162.741L282.263 167.627L284.607 169.867L287.599 169.256L290.89 172.514L295.777 168.34L299.566 168.035L302.907 169.714L303.107 174.244L303.207 178.52L305.75 179.436L308.143 180.658L310.038 184.526L312.93 186.97Z" fill="#4E4E4E" stroke="#5E5D5D" stroke-width="2" stroke-linecap="round" stroke-linejoin="round"/>
<path d="M351.726 343.387L349.332 346.39L346.241 345.575L346.29 349.546L346.49 351.327L346.889 353.109L347.537 354.839L345.792 355.959V359.42L345.991 360.896L346.44 361.66L347.587 361.151L348.933 359.319L349.382 375.454L342.501 377.388L334.871 377.795L336.617 375.149L337.614 372.451L336.168 370.669L334.422 369.397L334.273 367.514L334.472 365.427L333.375 363.034L332.079 360.693L328.389 358.097L324.599 355.603L323.602 350.716L325.995 346.034L328.738 348.477L331.73 350.36L335.021 349.647L338.063 347.611L340.755 346.288L343.249 344.71L344.396 343.387L345.692 342.572L348.983 342.623L351.726 343.387ZM380.498 313.712L380.099 315.646L378.903 319.311L378.504 321.041L378.254 324.961L377.855 327.353L377.057 329.338L370.675 333.919L367.284 335.293L364.94 333.308L365.189 331.985L365.289 330.356L366.087 329.491L369.927 328.727L371.223 328.015L372.37 326.335L373.018 324.095L373.118 321.856L372.171 319.718L370.475 318.853L366.386 318.7V317.733L365.888 313.152L365.588 311.828L364.043 310.556L362.447 310.098L358.807 310.25L357.809 310.607L357.311 311.523L356.962 312.643L356.264 314.272L356.214 316.053L356.064 316.918L355.017 317.275L354.867 322.467L355.167 325.266L356.513 327.658L356.164 330.356L353.92 338.398L353.621 339.111L353.072 336.719L351.776 333.105L351.476 330.153V327.557L349.532 325.571L347.537 323.739L347.487 320.074L348.185 316.46L351.127 312.49L354.468 308.774L358.308 304.346L362.547 300.936L365.04 303.124L366.735 306.789L369.378 308.571L372.32 309.487L375.661 311.167L379.152 312.083L380.498 313.712Z" fill="#DB0505" stroke="#5E5D5D" stroke-width="2" stroke-linecap="round" stroke-linejoin="round"/>
<path d="M338.2 314.509L342.738 316.596L347.924 316.24L347.226 319.854L347.276 323.519L349.27 325.351L351.215 327.336V329.932L351.514 332.884L352.811 336.498L353.359 338.891L351.664 342.912L351.464 343.166L348.722 342.403L345.431 342.352L344.134 343.166L342.987 344.49L340.494 346.068L337.801 347.391L334.759 349.427L331.468 350.14L328.476 348.256L325.734 345.813L324.637 341.181L321.794 337.669L317.456 337.007L315.86 332.579L320.099 331.408L323.191 327.998L325.086 325.504L327.479 323.824L329.873 322.908L331.867 321.432L330.521 318.887L330.621 316.291L332.216 315.884L333.812 316.393L334.61 315.578L334.759 313.797L336.505 313.746L338.2 314.509Z" fill="#4E4E4E" stroke="#5E5D5D" stroke-width="2" stroke-linecap="round" stroke-linejoin="round"/>
<path d="M325.995 346.034L323.602 350.716L324.599 355.603L328.389 358.097L332.079 360.693L333.375 363.034L334.472 365.427L334.273 367.514L334.423 369.397L336.168 370.669L337.614 372.451L336.617 375.149L334.871 377.796L333.026 378.915L331.131 379.679L329.237 379.424L327.242 380.035L325.447 381.053L323.901 382.58L323.303 385.176L322.006 387.467L321.059 390.266L318.964 387.568L317.668 385.736L316.272 384.107L314.875 381.868L313.479 380.595L312.382 379.068L311.784 376.167L310.836 373.723H308.842L304.503 375.81L301.91 375.76L300.364 374.233L299.018 372.247L294.879 368.837L294.73 366.954L295.079 364.765L294.68 363.187L296.624 362.169L297.821 360.337L298.968 358.911L299.367 356.468L300.165 354.33L301.611 352.345L303.207 350.666L305.102 349.444L306.847 347.968L314.626 343.234L322.056 337.889L324.898 341.402L325.995 346.034Z" fill="#DB0505" stroke="#5E5D5D" stroke-width="2" stroke-linecap="round" stroke-linejoin="round"/>
<path d="M384.836 274.162L384.886 275.638L385.734 277.725L393.613 285.157L394.66 286.429L395.358 287.854L394.859 288.77L394.361 292.537L394.46 293.657L395.158 294.929L394.111 294.37L393.363 293.657L392.266 291.875H391.768L392.067 293.504L392.815 295.337L393.862 296.965L395.158 297.933V298.747L393.264 298.289L392.067 296.915L390.97 295.337L386.631 292.384L383.789 293.453L381.595 296.406L380.697 299.969L380.797 312.236L380.498 313.712L379.152 312.083L375.661 311.167L372.32 309.487L369.378 308.571L366.735 306.789L365.04 303.124L362.546 300.936L358.308 304.346L354.468 308.774L351.127 312.49L348.185 316.46L342.999 316.817L338.461 314.73L339.409 307.095L336.367 299.969L335.719 295.693L336.367 291.417L338.262 288.261L340.456 285.36L344.345 288.312L348.135 291.468L351.327 292.079L354.368 289.687L355.964 289.33L356.862 287.905L356.363 285.309L356.114 282.51L358.158 278.692L359.405 277.776L359.654 277.114L362.048 274.773L362.945 271.77L365.04 269.683L367.882 272.737L370.824 276.402L372.719 277.369L374.714 277.725L376.259 277.42L377.755 276.351L381.047 275.231L384.338 274.264L384.836 274.162Z" fill="#4E4E4E" stroke="#5E5D5D" stroke-width="2" stroke-linecap="round" stroke-linejoin="round"/>
<path d="M382.941 161.061L381.146 164.421L378.803 166.864L376.359 168.849L373.816 170.02L371.123 170.529L368.68 172.005L367.383 174.499L365.688 176.331L362.746 177.298L358.507 181.828L356.662 183.763L355.116 185.493L350.778 182.49L347.836 181.269L343.199 181.778L339.01 179.436L335.619 179.843L332.328 179.945L331.779 178.215L334.173 176.84L335.669 175.517L336.167 173.226L338.162 169.154L338.661 167.271L337.614 165.642L337.265 164.013L337.414 162.028L337.065 159.534L336.467 157.193V155.055L336.068 153.121L334.771 152.052L333.973 150.626L335.27 148.387L336.766 146.249L336.467 141.261L337.564 136.425L340.705 133.88L344.246 131.793L349.133 133.269L353.72 136.782L355.715 138.716L357.56 141.159L360.851 144.875L364.591 147.725L369.179 149.354L377.406 158.058L382.941 161.061Z" fill="#5E5D5D" stroke="#5E5D5D" stroke-width="2" stroke-linecap="round" stroke-linejoin="round"/>
<path d="M375.213 88.3244L375.712 89.546L377.158 97.7919L381.247 104.714L391.419 116.574L392.167 117.643L391.768 117.796L388.378 117.745L385.086 118.305L381.097 119.425L376.958 119.068L373.368 117.745L369.977 115.505L367.534 114.589L365.439 113.062L364.841 108.786L362.946 107.158L361.101 107.768L359.755 109.346L359.356 111.179L358.807 112.858L356.015 114.538L352.973 115.556L350.18 116.574L347.338 116.778L346.241 111.484L345.543 106.241L346.79 103.187L349.233 101.406L352.574 100.795L353.821 99.2171L354.668 97.232L354.619 92.9054L353.073 88.9861L355.865 84.965H361.999L364.691 83.7943L367.384 82.929L370.625 85.6776L374.016 88.4262L375.213 88.3244Z" fill="#4E4E4E" stroke="#5E5D5D" stroke-width="2" stroke-linecap="round" stroke-linejoin="round"/>
<path d="M324.998 258.027L321.508 262.2L317.269 259.859L312.432 256.856L307.794 261.386L305.75 258.994L304.453 256.347L304.404 253.802L304.553 251.308L305.002 249.933L305.152 248.406L301.112 244.691L295.976 242.909L294.58 240.67L293.782 238.023L294.48 235.07L295.877 232.373L296.974 229.929L296.625 227.334L295.577 226.061L294.73 224.738L295.577 222.803L296.724 220.92L298.17 223.262L299.966 223.058L302.21 221.836L304.453 220.513L307.346 219.139L310.338 218.63L312.332 219.597L314.127 221.175L312.931 224.483L313.778 226.163L315.075 227.181L316.172 227.283L317.02 226.316L318.865 225.196L321.009 225.298L324.649 227.384L328.189 229.777L331.78 231.457L334.473 235.07V237.259L333.924 239.295L334.223 242.197L335.37 244.742V248.661L333.276 251.969L329.336 253.904L325.198 254.769L322.704 256.907L324.998 258.027Z" fill="#4E4E4E" stroke="#5E5D5D" stroke-width="2" stroke-linecap="round" stroke-linejoin="round"/>
<path d="M349.781 220.716L349.531 224.076L349.481 225.603L350.13 227.13L350.728 227.944L352.324 228.708L352.872 229.319V229.726L354.219 232.271L355.216 233.645L355.615 234.714V238.481L355.864 239.397L356.562 240.619L356.762 241.637L355.964 243.265L355.615 244.182L355.914 245.098L358.557 247.694L359.853 249.272L359.953 250.493L359.056 252.122L357.859 255.227L356.762 256.347L355.166 256.958L353.421 258.892L350.828 260.266L351.177 262.811L350.778 264.745L348.883 263.829L346.789 262.608L343.747 262.964L340.755 263.218L336.566 261.793L332.378 260.266L328.687 258.637L324.997 258.027L322.704 256.907L325.197 254.769L329.336 253.904L333.275 251.969L335.369 248.661V244.742L334.223 242.197L333.923 239.295L334.472 237.259V235.07L331.779 231.456L328.189 229.777L324.648 227.384L321.008 225.298L318.864 225.196L317.019 226.316L316.171 227.283L315.074 227.181L313.778 226.163L312.93 224.483L314.127 221.175L312.332 219.597L310.337 218.63L307.345 219.139L304.453 220.513L302.209 221.836L299.965 223.058L298.17 223.262L296.724 220.92L298.419 219.24L300.214 217.764L301.91 217.306L302.957 216.492L303.106 215.168L302.458 214.099L303.755 212.216L304.453 210.689L306.647 208.5L309.389 206.872L311.633 204.581L314.426 203.003L322.355 203.105L330.034 205.243L331.879 206.312L331.729 207.737L332.028 209.824L332.278 210.027L332.378 212.674L332.976 212.725L335.17 213.947L337.115 214.303L338.661 214.863L339.309 216.441L340.356 216.899L345.193 217.764L346.888 218.324L349.781 220.716Z" fill="#4E4E4E" stroke="#5E5D5D" stroke-width="2" stroke-linecap="round" stroke-linejoin="round"/>
<path d="M390.92 239.906L389.674 244.233L389.873 249.119L390.222 252.937L391.07 256.347L389.225 258.587L387.629 261.437L387.679 263.371L386.682 265.254L385.834 267.698L385.136 270.345L384.787 272.584L384.837 274.162L384.338 274.264L381.047 275.231L377.756 276.351L376.26 277.42L374.714 277.725L372.72 277.369L370.825 276.402L367.883 272.737L365.04 269.683L362.946 271.77L362.048 274.773L359.655 277.114L359.405 277.776L358.159 278.692L356.114 282.51L356.364 285.309L356.862 287.905L355.965 289.33L354.369 289.687L351.327 292.079L348.136 291.468L344.346 288.312L340.457 285.36L341.304 282.357L341.703 279.354L340.157 277.012L338.462 274.824L338.911 269.021L340.756 263.218L343.748 262.964L346.789 262.608L348.884 263.829L350.779 264.745L351.178 262.811L350.829 260.266L353.422 258.892L355.167 256.958L356.763 256.347L357.86 255.227L359.056 252.122L359.954 250.493L359.854 249.272L358.558 247.694L355.915 245.098L355.616 244.182L355.965 243.265L356.763 241.637L356.563 240.619L355.865 239.397L355.616 238.481V234.714L355.217 233.645L354.219 232.271L352.873 229.726V229.319L353.521 229.573L354.718 228.403L357.56 228.046L360.602 227.843L363.893 230.133L367.234 232.016L371.623 232.729L375.911 233.136L378.803 233.747L383.092 232.576L384.588 233.849L385.834 235.681L388.327 237.819L390.92 239.906Z" fill="#4E4E4E"/>
<path d="M333.325 116.472L337.713 118.661L342.002 121.053L340.905 126.856L344.246 131.793L340.705 133.88L337.564 136.425L336.467 141.261L336.766 146.249L335.27 148.387L333.973 150.627L334.771 152.052L336.068 153.121L336.467 155.055V157.193L337.065 159.534L337.414 162.028L337.264 164.013L337.614 165.642L338.661 167.271L338.162 169.154L336.167 173.226L335.669 175.517L334.173 176.84L331.779 178.215L332.328 179.945L335.619 179.843L339.01 179.436L337.913 183.865L335.419 186.715L332.627 188.191L329.735 186.715L326.045 184.933L322.604 182.796L319.213 181.829L315.772 180.963L317.667 178.673L319.313 176.331L319.861 170.783L323.551 167.729L327.89 165.795L329.635 164.879L330.981 163.25L329.535 162.028L327.64 161.112L325.895 159.789L324.05 158.771L318.166 158.618L314.925 157.244L312.531 154.037L313.479 149.303L317.169 145.689L318.415 143.806L318.365 141.821L319.413 139.683L320.31 137.545L318.714 133.931L316.072 131.183L315.473 129.656L314.725 128.078L317.418 123.089L316.82 117.999L312.382 114.793L308.592 110.313L315.473 110.415L322.155 112.349L327.64 114.742L333.325 116.472Z" fill="#4E4E4E" stroke="#5E5D5D" stroke-width="2" stroke-linecap="round" stroke-linejoin="round"/>
<path d="M420.94 151.899L420.69 153.019L419.294 155.615L414.956 157.142L410.667 156.735L409.171 154.342L407.825 151.797L404.883 148.336L401.592 146.096L402.34 143.806L405.232 143.45L405.781 143.093L406.379 144.111L407.925 145.587L409.57 146.86L410.717 147.42L414.407 147.623L416.053 148.082L417.399 148.896L420.441 151.645L420.94 151.899Z" fill="#4E4E4E" stroke="#5E5D5D" stroke-width="2" stroke-linecap="round" stroke-linejoin="round"/>
<path d="M240.326 158.822L241.772 160.552L243.567 162.028L247.058 160.807L249.302 162.079L251.396 163.81L253.441 164.726L255.136 163.81L256.532 162.588L258.228 162.741L264.012 165.795L267.154 167.271L270.445 167.729L272.689 167.475L274.883 168.391L274.434 173.125L273.686 177.604L272.09 180.658L269.896 183.05L265.109 183.356L260.372 184.17L255.884 183.559L251.645 183.712L249.551 185.137L247.407 185.442L246.061 183.559L244.664 181.37L239.877 177.604L234.941 174.193L233.644 171.598L231.25 170.172L230.054 167.322L231.3 159.84L233.843 158.109L237.035 157.753L240.326 158.822Z" fill="#4E4E4E" stroke="#5E5D5D" stroke-width="2" stroke-linecap="round" stroke-linejoin="round"/>
<path d="M392.167 117.643L393.065 119.73L394.86 121.359L398.7 123.802L400.594 123.293L402.24 124.718L403.736 126.652L405.431 127.62L406.379 128.739L405.98 131.284L404.534 135.56L404.035 137.749L403.886 138.97L403.985 140.243L404.334 140.955L405.481 142.432L405.78 143.093L405.232 143.45L402.34 143.806L401.592 146.096L399.896 149.049L397.553 151.186L396.406 152.561L395.458 153.986L394.66 158.312L389.175 160.857L382.942 161.061L377.407 158.058L369.179 149.354L364.591 147.725L360.852 144.875L357.56 141.159L355.715 138.716L353.721 136.782L349.133 133.269L344.246 131.793L340.905 126.856L342.002 121.053L344.545 118.559L347.338 116.778L350.18 116.574L352.973 115.556L356.015 114.538L358.807 112.858L359.356 111.179L359.754 109.346L361.101 107.768L362.946 107.158L364.841 108.786L365.439 113.062L367.534 114.589L369.977 115.505L373.368 117.745L376.958 119.068L381.097 119.425L385.086 118.305L388.377 117.745L391.768 117.796L392.167 117.643Z" fill="#4E4E4E" stroke="#5E5D5D" stroke-width="2" stroke-linecap="round" stroke-linejoin="round"/>
<path d="M316.122 332.799L317.718 337.228L322.056 337.889L314.626 343.234L306.847 347.968L305.102 349.444L303.207 350.665L301.611 352.345L300.165 354.33L299.367 356.468L298.968 358.911L297.821 360.336L296.624 362.169L294.68 363.187L294.48 362.271L293.383 361.304L282.114 355.603L276.628 351.073L274.933 347.917L274.733 343.336L275.531 342.063L279.969 339.213L280.219 338.5L280.169 337.686L280.468 336.922L296.176 334.123L299.666 331.883L300.464 330.662L301.162 329.185L306.847 328.931L308.841 328.269L310.836 327.811L313.778 329.796L316.122 332.799Z" fill="#4E4E4E" stroke="#5E5D5D" stroke-width="2" stroke-linecap="round" stroke-linejoin="round"/>
<path d="M269.897 183.05L269.797 191.5L270.744 199.644L269.398 202.24L267.453 204.377L264.96 205.599L262.866 207.177L262.068 206.821L261.17 206.668L260.323 207.126L258.627 207.635L257.73 205.701L257.63 205.446L257.181 202.596L257.081 201.222L255.984 200.611L254.787 200.509L253.042 200.051L252.444 198.575L252.045 195.572L251.048 195.622L248.405 199.033L247.407 198.32L245.911 199.084L244.914 199.033L244.366 198.524L243.867 197.2L243.169 196.539L241.124 196.284L239.429 197.302L238.033 198.575L236.686 199.033L236.487 198.422L234.442 195.012L232.697 191.194L231.65 189.82L232.049 188.853L232.747 188.14L234.343 187.478L235.041 186.511L228.309 185.646L228.109 184.73L229.755 183.254L232.498 180.2L233.794 177.298L234.941 174.193L239.878 177.604L244.665 181.37L246.061 183.559L247.407 185.442L249.552 185.137L251.646 183.712L255.885 183.559L260.372 184.17L265.11 183.355L269.897 183.05Z" fill="#4E4E4E" stroke="#5E5D5D" stroke-width="2" stroke-linecap="round" stroke-linejoin="round"/>
<path d="M254.787 200.509L251.147 208.958L249.252 213.285L248.404 218.782L247.457 224.076L246.16 228.097L243.667 230.795L240.825 231.609L238.082 232.78L236.037 232.984L233.993 232.78L232.996 233.493L232.447 234.663L229.854 235.783L228.408 238.277L229.505 241.586L228.358 242.349L227.261 243.316L228.458 245.556L230.054 248.254L223.471 249.883L216.939 251.664L219.332 246.879L218.036 242.553L213.797 239.804L211.603 234.816L212.95 233.849L214.745 229.879L212.8 226.621L209.06 227.181L205.47 228.606L198.489 227.079L196.594 221.48L197.691 220.767L198.738 219.902L198.987 216.746L199.087 213.641L202.278 212.623L204.622 210.435L202.079 208.195L202.428 205.599L206.417 202.952L209.908 199.338L209.758 197.557L211.952 199.389L214.446 201.222L217.288 200.254L224.469 195.368L231.649 189.82L232.696 191.194L234.442 195.012L236.486 198.422L236.686 199.033L238.032 198.575L239.428 197.302L241.124 196.284L243.168 196.539L243.866 197.2L244.365 198.524L244.913 199.033L245.911 199.084L247.407 198.32L248.404 199.033L251.047 195.622L252.044 195.572L252.443 198.575L253.042 200.051L254.787 200.509Z" fill="#4E4E4E" stroke="#5E5D5D" stroke-width="2" stroke-linecap="round" stroke-linejoin="round"/>
<path d="M165.727 7.698L166.325 10.3448L165.129 14.366L162.236 17.5218L158.945 19.9141L156.302 21.6447L153.809 23.6807L152.413 26.9384L151.415 30.5014L149.471 33.1482L146.928 34.9297L143.986 35.9478L141.043 36.6095L136.406 40.0707L133.813 40.3252L131.27 38.8491L129.225 38.391L129.076 37.5257L127.181 33.8608L126.981 33.1991L125.834 33.25L125.236 34.1153L124.837 35.1842L124.089 35.7951L121.795 33.8608L120.698 28.6181L120.648 22.7136L121.496 18.7434L123.092 16.9619L124.987 16.7583L128.976 17.6745L130.721 17.5218L132.068 16.8092L133.314 15.6894L136.954 11.1083L138.8 8.10521L142.041 1.23364L143.886 1.74265L146.18 1.64085L150.069 2.20075L151.615 3.11696L152.114 5.30568L151.715 10.0394L152.163 12.0245L153.659 13.348L155.305 13.2971L156.751 12.3299L159.544 9.83582L161.289 9.22502L164.73 8.51241L165.727 7.698Z" fill="#4E4E4E" stroke="#5E5D5D" stroke-width="2" stroke-linecap="round" stroke-linejoin="round"/>
<path d="M259.624 81.6564L260.272 83.1325L263.014 84.965L266.106 85.6776L269.248 86.2375L271.442 93.1091L278.124 97.1302L276.827 98.7081L275.88 100.693L275.431 102.78L274.733 104.663L272.339 104.205L271.591 105.427L271.143 106.801L272.04 110.568L274.085 114.182L273.785 117.796L271.342 119.934L270.046 120.137L268.949 120.595L268.649 123.14L268.599 125.787L265.308 128.434L261.419 130.216L258.926 132.404L257.18 135.764L255.036 138.818L252.742 141.719L249.95 143.093L246.958 143.195L243.617 143.959L240.525 145.791L237.733 144.111L235.688 141.821L235.439 136.833L235.14 131.793L238.132 130.928L238.929 127.874L239.029 120.901L240.774 114.233L243.617 109.143L243.916 106.343L243.567 103.645L246.21 98.7081L248.603 93.2618L249.252 90.3095L250 87.6118L249.351 84.9141L249.401 81.9109L249.551 80.5366L252.094 81.86L253.69 82.2163L259.624 81.6564Z" fill="#4E4E4E" stroke="#5E5D5D" stroke-width="2" stroke-linecap="round" stroke-linejoin="round"/>
<path d="M249.551 80.5366L249.401 81.9109L249.351 84.914L250 87.6117L249.252 90.3095L248.603 93.2617L246.21 98.7081L243.567 103.645L243.916 106.343L243.617 109.143L240.775 114.233L239.029 120.901L238.93 127.874L230.752 123.446L223.172 117.49L221.726 115.811L220.579 113.775L220.13 111.28L219.632 109.244L218.435 109.143L217.188 109.55L216.39 108.481L216.739 106.954L214.844 104.765L213.448 102.067L214.446 97.3846L216.34 93.109L219.931 85.1176L220.928 78.9078L221.676 74.2249L222.374 74.4794L231.2 75.3447L233.045 76.0064L235.439 79.4677L236.985 80.6893L238.73 80.7402L241.772 78.6533L243.417 77.9916L245.113 78.1952L249.551 80.5366Z" fill="#4E4E4E" stroke="#5E5D5D" stroke-width="2" stroke-linecap="round" stroke-linejoin="round"/>
<path d="M205.72 47.604L205.47 48.113L204.573 52.7958L202.578 56.5116L195.597 61.398L184.527 66.4372L181.236 68.575L179.839 70.3565L178.992 72.4434L177.895 74.0723L176.349 75.3957L174.554 79.7222L174.005 85.2195L174.504 89.6987L178.344 91.7856L184.228 101.559L184.477 114.64L177.346 110.619L170.016 108.328L169.617 105.274L168.37 102.627L167.872 99.268L167.523 96.0613L164.132 93.9744L160.242 93.8217L157.749 91.8874L158.248 91.2257L158.946 87.51L159.395 83.5398L160.192 80.4348L160.691 79.7222L161.838 78.6533L162.337 77.8898L162.536 77.1263L162.636 75.1412L162.785 74.225L163.533 73.3088H164.481L163.932 71.629L161.289 67.4043L159.644 65.521L158.946 64.4521L159.594 61.1944L163.334 56.308L166.126 50.0472L168.919 45.4153L173.307 43.9392L178.942 44.2446L184.427 46.0261L189.464 44.9063L192.854 40.0198L196.345 39.5617L197.941 38.9L199.586 38.5437L201.132 38.9509L202.478 40.5797L203.077 42.5648L203.376 44.55L204.024 46.2297L205.72 47.604Z" fill="#4E4E4E" stroke="#5E5D5D" stroke-width="2" stroke-linecap="round" stroke-linejoin="round"/>
<path d="M221.676 74.2249L220.928 78.9077L219.931 85.1176L216.341 93.109L214.446 97.3846L213.449 102.067L214.845 104.765L216.74 106.954L216.391 108.481L217.189 109.55L218.435 109.143L219.632 109.244L220.131 111.28L220.579 113.775L221.726 115.811L223.172 117.49L230.752 123.446L238.93 127.874L238.132 130.928L235.14 131.793L231.799 132.455L228.558 131.692L227.062 130.928L225.566 130.47L224.02 131.284L221.976 131.233L219.831 130.317L216.341 129.401L212.8 128.688L206.318 125.787L199.835 123.038L192.206 118.661L184.477 114.64L184.227 101.558L178.343 91.7855L174.504 89.6986L174.005 85.2194L174.553 79.7221L176.349 75.3956L177.894 74.0722L178.991 72.4434L179.839 70.3565L181.235 68.5749L184.527 66.4371L195.597 61.398L202.578 56.5115L204.572 52.7958L205.47 48.1129L205.719 47.6039L206.368 48.3166L207.066 50.4544L207.515 51.6251L210.157 55.0354L210.806 56.4097L211.105 59.2602L210.955 65.3173L211.803 67.9641L213.299 69.4911L219.732 73.4614L221.676 74.2249ZM207.764 85.8302L209.11 82.7762L208.861 80.4347L207.116 77.3298L206.118 76.5663L205.171 77.3298L204.572 79.1622L203.974 81.351L203.226 83.7433L203.027 85.5248L206.517 86.4919L207.764 85.8302Z" fill="#4E4E4E" stroke="#5E5D5D" stroke-width="2" stroke-linecap="round" stroke-linejoin="round"/>
<path d="M338.811 64.1975L337.813 68.9821L337.913 73.665L339.06 75.0902V76.7699L336.866 79.6203L332.428 83.6415L330.184 89.1896L333.774 92.9054L336.866 97.0283L335.719 99.9805L333.575 101.711L331.929 104.256L333.176 107.005L333.625 111.382L333.325 116.472L327.641 114.742L322.155 112.349L315.473 110.415L308.592 110.313L303.605 105.783L297.173 105.274L292.535 103.085L285.604 99.0134L283.21 97.9445L280.667 97.7409L278.124 97.1301L271.442 93.109L269.248 86.2374L285.704 73.3596L302.558 61.2962L308.343 56.3079L314.626 52.9994L319.712 51.3706L324.449 48.571L326.195 52.0323L328.389 55.4935L329.934 58.7002L331.48 61.8561L332.976 63.943L335.071 63.434L337.115 62.6705L338.811 64.1975Z" fill="#4E4E4E" stroke="#5E5D5D" stroke-width="2" stroke-linecap="round" stroke-linejoin="round"/>
<path d="M324.449 48.5711L319.712 51.3706L314.626 52.9994L308.343 56.3079L302.558 61.2962L285.704 73.3596L269.248 86.2374L266.107 85.6775L263.015 84.9649L260.272 83.1325L259.624 81.6564L260.921 81.5546L264.561 80.4348L266.555 79.1114L266.904 77.9916L266.456 76.5154L266.107 74.1231L266.306 71.7308L267.104 70.611L268.251 69.7966L269.497 68.2187L270.245 66.1317L270.644 64.2993L271.542 63.3322L273.736 63.7394L275.631 62.6196L278.423 54.3228L280.069 51.1161L282.861 49.3346L292.685 47.4004L295.178 46.0261L299.616 42.0558L306.996 37.3221L308.941 35.1842L310.636 31.8248L314.227 21.7465L314.825 20.983L317.019 20.7794L319.263 23.3244L317.318 29.4325L318.864 35.0825L321.158 35.2861L323.252 35.8969L323.203 38.1874L321.806 40.2234L323.402 43.7355L324.449 48.5711Z" fill="#4E4E4E" stroke="#5E5D5D" stroke-width="2" stroke-linecap="round" stroke-linejoin="round"/>
<path d="M367.234 63.1795L366.735 63.3322L362.198 63.4849L357.759 62.6705L353.77 62.3142L349.881 63.8412L346.939 63.6376L344.246 62.6196L341.553 63.8921L338.811 64.1975L337.115 62.6705L335.071 63.434L332.976 63.943L331.48 61.8561L329.934 58.7002L328.389 55.4935L326.195 52.0323L324.449 48.5711L323.402 43.7355L321.806 40.2234L323.203 38.1874L323.252 35.8968L321.158 35.286L318.864 35.0824L317.318 29.4325L319.263 23.3244L317.019 20.7794L314.825 20.983L320.659 13.2461L324.748 6.47638L325.646 7.29079L328.239 8.9196L331.231 11.7191L338.761 22.3573L341.653 25.4114L342.85 27.1929L343.348 30.0433L349.133 36.7622L352.374 43.9391L354.119 44.6008L355.565 46.1278L356.613 47.9094L357.361 49.4364L360.103 53.5593L362.198 54.221L362.896 54.6282L364.192 56.5624L367.234 63.1795Z" fill="#4E4E4E" stroke="#5E5D5D" stroke-width="2" stroke-linecap="round" stroke-linejoin="round"/>
<path d="M192.854 40.0197L189.463 44.9062L184.427 46.026L178.942 44.2445L173.307 43.9391L168.919 45.4152L166.126 50.0471L163.334 56.3079L159.594 61.1943L158.946 64.4519L158.397 64.0447L157.051 64.6046L155.704 61.347L151.516 58.802L143.238 55.239L139.249 51.4214L137.553 51.0142L136.556 50.5052L132.118 47.3494L130.622 45.4661L129.874 42.9211L129.226 38.3909L131.27 38.849L133.813 40.3251L136.406 40.0706L141.044 36.6094L143.986 35.9477L146.928 34.9297L149.471 33.1482L151.416 30.5014L152.413 26.9383L153.809 23.6807L156.303 21.6447L158.946 19.9141L162.237 17.5217L165.129 14.3659L166.326 10.3448L165.727 7.69795L166.276 7.29075L167.672 5.76373L168.42 5.81463L168.769 7.08714L169.517 11.6682L169.966 13.2461L170.814 14.6204L176.398 19.9141L177.845 20.8303L178.942 21.1357L181.136 21.4411L182.133 21.9501L182.532 22.6118L182.981 24.7496L183.28 25.6149L184.477 27.2437L188.665 30.9086L190.81 34.4207L191.508 37.8819L192.754 40.0197H192.854Z" fill="#4E4E4E" stroke="#5E5D5D" stroke-width="2" stroke-linecap="round" stroke-linejoin="round"/>
<path d="M211.603 234.816L213.797 239.804L218.036 242.553L219.332 246.879L216.939 251.664L213.698 252.478L210.406 253.14L207.813 253.853L205.27 254.311L203.675 255.227L202.179 256.856L200.284 257.976L198.339 258.79L194.449 259.095L192.953 261.691L196.145 262.353L198.887 261.946L196.943 264.44L193.452 265.254L192.056 266.934L192.604 268.817L194.499 268.614L196.245 267.087L198.738 266.018L199.386 268.512L198.538 269.734L197.84 271.057L198.339 273.297L198.738 275.485L197.242 275.944L195.646 276.249V277.471L194.998 278.947L193.203 281.848L194.25 285.309L194.2 286.785L192.904 286.836L191.208 287.091L189.762 288.465L187.618 288.821L186.521 286.785L183.678 285.156L181.185 282.968L181.285 281.39L180.736 280.117L178.094 279.099L175.949 277.623L174.104 278.896L175.401 282.51L174.304 286.174L171.162 285.869L167.771 284.546L169.317 282.255L170.115 279.608L169.118 277.878L167.622 276.758L164.031 277.725L161.987 277.369L159.893 276.962L162.236 275.333L163.832 272.94L163.333 270.039L161.887 268.41L164.131 265.763L167.971 265.102L170.265 261.386L172.558 257.568L174.703 259.554L176.947 260.826L179.839 258.688L182.482 256.143L181.435 251.766L177.146 246.981L176.149 244.843L176.897 243.367L177.944 241.789L181.135 240.11L184.476 238.786L186.172 236.038L187.069 232.78L190.759 231.864L194.3 233.645L198.937 236.852L203.774 238.023L204.871 236.241L206.218 234.409L208.91 234.103L211.603 234.816Z" fill="#4E4E4E" stroke="#5E5D5D" stroke-width="2" stroke-linecap="round" stroke-linejoin="round"/>
<path d="M151.366 246.065L152.214 249.577L152.762 253.089L151.316 255.991L150.169 259.095L150.518 262.099L152.413 262.811L154.059 263.626L155.505 264.949L159.045 264.542L161.688 260.012L163.982 259.197L166.326 259.452L167.523 261.895L167.971 265.102L164.132 265.763L161.888 268.41L163.334 270.039L163.833 272.94L162.237 275.333L159.893 276.962L156.552 279.354L153.211 282.001L149.372 281.543L146.13 279.405L147.177 278.896L147.776 278.081L147.826 277.012L147.227 275.842V273.958L148.225 273.042L149.471 272.228L150.219 270.803L149.97 268.97L148.923 267.494L147.526 266.578L146.18 266.222L140.795 266.781L139.099 266.476L137.853 265.509L135.858 262.76L134.611 261.742L131.719 261.539L125.935 264.593L122.943 265.204L121.048 264.593L119.801 263.371L117.807 259.503L116.61 257.976L115.114 257.11L111.922 256.143L109.23 253.955L105.939 247.134L103.645 244.843L98.2593 243.164L95.4668 241.687L97.0625 240.415L100.403 237.972L103.495 235.121L105.091 231.355L106.786 228.606L108.98 230.438L111.125 232.882L114.017 232.525L117.009 231.558L123.142 230.642L129.126 228.555L132.766 226.926L136.606 226.315L140.196 224.992L143.737 223.363L142.59 226.774L143.238 229.675L145.183 230.998L146.978 232.729L149.92 238.99L151.366 246.065Z" fill="#4E4E4E" stroke="#5E5D5D" stroke-width="2" stroke-linecap="round" stroke-linejoin="round"/>
<path d="M167.772 284.546L165.777 286.531L165.229 289.992L166.426 292.435L168.071 294.929L168.37 298.645L169.667 301.801L172.609 303.582L175.402 305.669L171.961 307.604L168.62 309.843L165.777 313.152L163.334 316.817L159.893 314.679L158.946 306.535L156.353 306.28L156.253 305.975L155.106 304.804L151.466 302.157L149.422 299.969L148.624 298.289L148.175 296.507L147.527 294.878L146.18 293.759L140.047 290.959L137.254 288.719L136.107 285.207L137.204 282.306L139.897 280.575L146.13 279.405L149.372 281.542L153.211 282.001L156.552 279.354L159.893 276.961L161.988 277.369L164.032 277.725L167.622 276.758L169.118 277.878L170.116 279.608L169.318 282.255L167.772 284.546Z" fill="#4E4E4E" stroke="#5E5D5D" stroke-width="2" stroke-linecap="round" stroke-linejoin="round"/>
<path d="M168.42 244.436L167.722 245.607L167.821 246.828L168.619 247.439L170.015 247.388L170.614 246.676L171.462 246.167L172.359 250.035L172.559 253.242L172.608 255.481L172.559 257.568L170.265 261.386L167.971 265.102L167.522 261.895L166.325 259.452L163.982 259.197L161.688 260.012L159.045 264.542L155.505 264.949L154.058 263.626L152.413 262.811L150.518 262.099L150.169 259.095L151.316 255.99L152.762 253.089L152.213 249.577L151.366 246.065L155.205 245.454L158.746 243.673L162.336 243.214L166.226 243.876L168.42 244.436Z" fill="#4E4E4E" stroke="#5E5D5D" stroke-width="2" stroke-linecap="round" stroke-linejoin="round"/>
<path d="M187.817 171.343L188.964 176.637L189.862 177.858L191.059 178.724L192.555 181.523L194.599 183.406L197.042 184.323L196.693 191.5L196.893 195.419L197.392 197.506L197.79 199.695L195.397 200L193.153 199.287L192.355 196.386L190.759 194.299L188.815 195.164L186.67 194.757L185.773 193.841L184.676 193.434L184.077 194.859L184.576 196.691L179.24 199.389L174.653 201.527L174.005 205.395L171.81 207.737L170.564 210.791L170.165 214.863L168.17 212.572L167.073 210.027L166.026 207.737L163.832 205.955L159.593 201.832L154.507 201.323L152.612 202.85L150.667 203.461L149.57 200.356L148.822 196.641L147.875 192.569L148.274 188.395L149.969 186.919L150.518 185.035L150.867 183.05L153.809 179.131L158.496 177.247L162.585 174.601L166.824 172.717L170.015 172.819L173.157 172.717L175.002 171.648L178.393 169.002L180.038 167.933L183.978 164.013L184.626 165.795L185.025 167.678L186.321 169.612L187.817 171.343Z" fill="#4E4E4E" stroke="#5E5D5D" stroke-width="2" stroke-linecap="round" stroke-linejoin="round"/>
<path d="M177.945 241.789L176.897 243.367L176.149 244.843L177.147 246.981L181.435 251.766L182.482 256.143L179.839 258.688L176.947 260.826L174.703 259.554L172.559 257.568L172.609 255.482L172.559 253.242L172.36 250.035L171.462 246.167L169.916 244.843L168.42 244.436L166.226 243.876L162.337 243.215L158.746 243.673L155.206 245.454L151.366 246.065L149.92 238.99L146.978 232.729L145.183 230.998L143.238 229.675L142.59 226.774L143.737 223.363L148.723 220.258L151.316 221.582L153.61 223.312L156.253 221.735L158.148 218.884L161.24 217.204L164.78 216.543L167.772 218.833L171.263 217.815L175.352 219.953L177.496 224.992L180.488 227.843L183.978 229.522L183.23 232.576L181.485 234.918L179.59 238.277L177.945 241.789ZM171.612 240.313L172.808 237.106L173.556 237.005L173.856 236.139L173.207 234.816L171.711 234.103L171.113 234.46L169.866 235.579L168.42 237.666L168.67 240.313L170.016 241.28L171.612 240.313Z" fill="#4E4E4E" stroke="#5E5D5D" stroke-width="2" stroke-linecap="round" stroke-linejoin="round"/>
<path d="M179.091 312.694L177.794 313.762L176.598 315.137L174.453 319.056L173.955 319.718L173.257 320.278L171.86 321.092L171.212 321.652L170.165 323.281L168.769 326.691L167.373 328.065L162.436 330.61L160.89 331.985L159.743 333.461L157.35 338.551L156.352 340.129L155.205 341.503L153.859 342.623L152.513 343.488L150.668 344.252L149.122 344.354L146.18 337.94L145.781 336.668L145.731 335.293L145.88 333.919L146.329 331.883L147.476 328.32L147.726 325.215L147.227 322.008L146.18 318.343L144.085 316.664L141.293 314.984L139.099 312.795L138.999 309.334L140.994 307.451L143.936 307.858L149.122 310.556L150.169 310.403L154.108 307.502L155.903 307.451L156.651 307.044L156.352 306.28L158.945 306.535L159.893 314.679L163.333 316.816L165.777 313.152L168.619 309.843L171.96 307.603L175.401 305.669L178.293 309.538L179.091 312.694Z" fill="#4E4E4E" stroke="#5E5D5D" stroke-width="2" stroke-linecap="round" stroke-linejoin="round"/>
<path d="M5.35961 260.419L4.16283 259.655L2.96606 257.925L2.01861 253.649L1.1709 252.224L3.56445 251.155L7.5537 250.442L11.2437 250.493L14.136 249.781L16.3799 248.508V249.17L14.5349 251.46L11.1939 252.478L7.70329 255.99L5.35961 260.419Z" fill="#4E4E4E" stroke="#5E5D5D" stroke-width="2" stroke-linecap="round" stroke-linejoin="round"/>
<path d="M85.6926 337.991L87.2883 335.141L84.7452 332.494L81.7034 330.254L81.5039 329.134L81.9028 328.065L82.202 326.029L82.7007 324.197L86.291 319.565L89.2829 312.897L90.0808 310.759L90.6293 308.571L91.0282 306.636L91.5768 304.855L93.3719 302.921L95.0673 300.885L97.062 298.238L101.899 300.681L103.644 302.361L104.193 303.277L104.392 304.091L104.193 304.906L101.6 308.418L101.051 311.268L101.849 314.221L103.644 317.275L105.838 320.481L107.584 324.044L111.972 336.719L116.958 346.39L116.111 346.491L111.174 345.219L105.539 342.623L87.6374 338.755L85.6926 337.991Z" fill="#4E4E4E" stroke="#5E5D5D" stroke-width="2" stroke-linecap="round" stroke-linejoin="round"/>
<path d="M34.6305 267.749L32.7854 273.755L31.2396 280.372L28.4471 285.004L24.7072 287.803L21.6654 285.666L20.8676 284.342L20.2193 284.139L18.873 284.088L16.6789 282.459L16.3797 281.695L17.0778 280.321L15.2826 278.692L14.2355 276.453L11.6923 265.611L10.695 263.168L8.89983 261.844L9.49822 261.03L7.5036 260.979L5.70843 260.572L5.35938 260.419L7.70306 255.991L11.1936 252.478L14.5346 251.46L16.3797 249.17V248.508L16.8783 248.203L20.0199 245.709L23.2113 244.589L26.1035 246.116L32.3367 254.311L33.2342 256.194L33.5833 258.281L33.4836 260.928L32.6359 265L32.9849 266.629L34.6305 267.749Z" fill="#4E4E4E" stroke="#5E5D5D" stroke-width="2" stroke-linecap="round" stroke-linejoin="round"/>
<path d="M56.4218 275.791L55.5242 277.012L52.7816 279.354L50.7371 282.561L52.0336 283.579L53.8787 284.342L54.6266 286.683L55.5242 289.127L59.314 291.01L63.2534 293.046L65.0486 295.387L64.8491 297.627L65.6469 299.154L67.093 298.9L68.0405 302.055L65.4973 303.735L60.2116 303.837L54.8261 304.244L50.1387 303.99L46.8476 306.586L52.7318 311.014L60.1119 310.149L62.8046 311.167L65.1982 312.948L64.9488 316.969L63.3531 320.431L64.9488 324.146L67.1928 327.506L66.6941 329.033L65.5472 330.509L65.8963 334.683L65.4973 334.632L63.7521 333.563L61.4084 332.901L59.4636 331.934L57.6685 330.712L56.6711 329.542L56.5215 328.32L57.1199 326.437L57.3194 325.266L56.8706 324.553L54.876 323.586L54.0781 322.976L53.6293 322.059L52.9811 319.616L52.632 318.751L51.7843 317.886L50.2883 316.817L49.69 315.697L50.4379 314.017L49.9393 312.846L48.8422 312.134L47.6455 311.879L46.7977 311.472L46.8476 310.505L47.0471 309.436L46.7977 308.723L45.9999 308.622L45.2519 308.978L44.4042 309.589L35.578 306.586L33.334 307.298L32.7855 305.568L31.8879 300.019L31.2895 298.798L30.5914 297.729L30.0928 296.558L31.9877 297.322L33.8826 297.933L36.1265 297.22L38.3206 296.151L40.016 294.98L40.3651 292.486L39.2182 289.839L39.667 288.516L40.2155 287.396L39.5672 284.291L38.3206 281.339L37.7721 278.336L38.4203 275.333L39.268 271.821L40.3651 268.461L42.3098 265.356L43.008 264.644L45.1023 267.698L46.0996 270.039L46.9473 271.312L48.194 271.821L52.2331 272.177L53.7291 272.991L56.4218 275.791Z" fill="#4E4E4E" stroke="#5E5D5D" stroke-width="2" stroke-linecap="round" stroke-linejoin="round"/>
<path d="M97.0617 298.238L95.0671 300.885L93.3717 302.921L91.5765 304.855L91.028 306.637L90.6291 308.571L90.0806 310.759L89.2827 312.897L86.2908 319.565L82.7004 324.197L82.2018 326.03L81.9026 328.066L81.5037 329.135L81.7031 330.254L84.7449 332.494L87.2881 335.141L85.6924 337.991L81.3042 336.21L73.7246 336.159L68.8877 334.937L66.544 334.835L65.8957 334.683L65.5467 330.509L66.6936 329.033L67.1922 327.506L64.9483 324.146L63.3526 320.431L64.9483 316.969L65.1976 312.948L62.8041 311.167L60.1113 310.149L63.7515 307.807L65.4968 303.735L68.04 302.056L67.0925 298.9L70.7327 296.762L74.4726 295.286L76.916 293.911L78.8109 295.998L80.9551 296.406L82.7503 294.115L85.3433 290.959L85.5926 291.468L90.4296 292.741L92.1749 294.217L93.7706 295.998L95.8151 297.627L97.0617 298.238Z" fill="#4E4E4E" stroke="#5E5D5D" stroke-width="2" stroke-linecap="round" stroke-linejoin="round"/>
<path d="M60.1119 310.149L52.7318 311.014L46.8477 306.586L50.1388 303.99L54.8262 304.244L60.2116 303.837L65.4974 303.735L63.7521 307.807L60.1119 310.149Z" fill="#4E4E4E" stroke="#5E5D5D" stroke-width="2" stroke-linecap="round" stroke-linejoin="round"/>
<path d="M85.344 290.959L82.751 294.115L80.9558 296.406L78.8116 295.998L76.9167 293.911L74.4733 295.286L70.7334 296.762L67.0932 298.9L65.6471 299.154L64.8493 297.627L65.0487 295.388L63.2536 293.046L59.3142 291.01L55.5244 289.127L54.6268 286.684L53.8788 284.342L52.0338 283.579L50.7373 282.561L52.7818 279.354L55.5244 277.012L56.422 275.791L57.3196 276.351L58.267 276.503L59.2643 276.3L61.1093 275.435L67.9409 270.955L70.2347 269.988L81.1054 267.29L83.1001 267.24L85.4437 268.156L87.3885 269.581L88.1365 271.006V272.94L87.8872 275.791L88.6351 280.932L88.2861 282.713L85.3939 287.549L84.8454 289.788L85.344 290.959Z" fill="#4E4E4E" stroke="#5E5D5D" stroke-width="2" stroke-linecap="round" stroke-linejoin="round"/>
<path d="M171.611 240.313L170.016 241.28L168.669 240.313L168.42 237.666L169.866 235.579L171.113 234.459L171.711 234.103L173.207 234.816L173.855 236.139L173.556 237.005L172.808 237.106L171.611 240.313Z" fill="#4E4E4E" stroke="#5E5D5D" stroke-width="2" stroke-linecap="round" stroke-linejoin="round"/>
<path d="M175.999 162.181L175.251 162.232L174.703 161.672L174.403 160.959L175.75 159.432L176.897 160.501L176.797 161.621L175.999 162.181Z" fill="#4E4E4E" stroke="#5E5D5D" stroke-width="2" stroke-linecap="round" stroke-linejoin="round"/>
<path d="M348.934 359.318L347.587 361.151L346.44 361.66L345.991 360.896L345.792 359.42V355.959L347.537 354.839L348.934 358.351V359.318Z" fill="#4E4E4E" stroke="#5E5D5D" stroke-width="2" stroke-linecap="round" stroke-linejoin="round"/>
<path d="M354.717 228.402L353.521 229.573L352.872 229.319L352.324 228.708L350.728 227.944L350.13 227.13L349.481 225.603L349.531 224.076L349.781 220.716L351.027 220.309L352.872 220.818L355.116 220.92L356.114 220.767L356.911 221.276L357.26 222.243L357.161 225.603L356.014 226.977L354.717 228.402Z" fill="#4E4E4E" stroke="#5E5D5D" stroke-width="2" stroke-linecap="round" stroke-linejoin="round"/>
<path d="M207.764 85.8302L206.517 86.492L203.026 85.5248L203.226 83.7433L203.974 81.351L204.572 79.1623L205.171 77.3299L206.118 76.5663L207.115 77.3299L208.861 80.4348L209.11 82.7762L207.764 85.8302Z" fill="#4E4E4E" stroke="#5E5D5D" stroke-width="2" stroke-linecap="round" stroke-linejoin="round"/>
<path d="M171.462 246.167L170.614 246.676L170.016 247.388L168.619 247.439L167.821 246.828L167.722 245.607L168.42 244.436L169.916 244.843L171.462 246.167Z" fill="#4E4E4E" stroke="#5E5D5D" stroke-width="2" stroke-linecap="round" stroke-linejoin="round"/>
<path d="M206.018 152.561L205.22 153.731L202.278 153.579L199.585 151.95L198.389 148.234L199.885 145.791H203.774L205.619 145.689L206.567 145.791L206.966 146.147L206.816 147.623L205.968 149.659L205.769 150.474L205.819 151.848L206.018 152.561Z" fill="#4E4E4E" stroke="#5E5D5D" stroke-width="2" stroke-linecap="round" stroke-linejoin="round"/>
<path d="M43.0077 264.644L42.3096 265.356L40.3648 268.461L39.2678 271.821L38.4201 275.333L37.7718 278.336L38.3203 281.339L39.567 284.291L40.2152 287.396L39.6667 288.516L39.2179 289.839L40.3648 292.486L40.0158 294.98L38.3203 296.151L36.1263 297.22L33.8823 297.932L31.9874 297.322L30.0925 296.558L28.4968 292.944L27.8486 291.875L27.0507 291.417L26.203 290.348L25.5049 289.229L25.2057 288.414L24.707 287.803L28.447 285.004L31.2394 280.372L32.7853 273.755L34.6303 267.749L37.7718 266.985L40.1654 264.644L42.4592 263.88L43.0077 264.644Z" fill="#4E4E4E" stroke="#5E5D5D" stroke-width="2" stroke-linecap="round" stroke-linejoin="round"/>
</svg>
