<svg width="19" height="18" viewBox="0 0 19 18" fill="none" xmlns="http://www.w3.org/2000/svg">
<g clip-path="url(#clip0)">
<path d="M16.5645 1.40625H15.7207V0H14.3145V1.40625H5.0332V0H3.62695V1.40625H2.7832C1.62009 1.40625 0.673828 2.35252 0.673828 3.51562V15.8906C0.673828 17.0537 1.62009 18 2.7832 18H16.5645C17.7276 18 18.6738 17.0537 18.6738 15.8906V3.51562C18.6738 2.35252 17.7276 1.40625 16.5645 1.40625ZM17.2676 15.8906C17.2676 16.2783 16.9522 16.5938 16.5645 16.5938H2.7832C2.3955 16.5938 2.08008 16.2783 2.08008 15.8906V6.60938H17.2676V15.8906ZM17.2676 5.20312H2.08008V3.51562C2.08008 3.12792 2.3955 2.8125 2.7832 2.8125H3.62695V4.21875H5.0332V2.8125H14.3145V4.21875H15.7207V2.8125H16.5645C16.9522 2.8125 17.2676 3.12792 17.2676 3.51562V5.20312Z" fill="#9E9E9E"/>
<path d="M4.75195 8.08594H3.3457V9.49219H4.75195V8.08594Z" fill="#9E9E9E"/>
<path d="M7.56445 8.08594H6.1582V9.49219H7.56445V8.08594Z" fill="#9E9E9E"/>
<path d="M10.377 8.08594H8.9707V9.49219H10.377V8.08594Z" fill="#9E9E9E"/>
<path d="M13.1895 8.08594H11.7832V9.49219H13.1895V8.08594Z" fill="#9E9E9E"/>
<path d="M16.002 8.08594H14.5957V9.49219H16.002V8.08594Z" fill="#9E9E9E"/>
<path d="M4.75195 10.8984H3.3457V12.3047H4.75195V10.8984Z" fill="#9E9E9E"/>
<path d="M7.56445 10.8984H6.1582V12.3047H7.56445V10.8984Z" fill="#9E9E9E"/>
<path d="M10.377 10.8984H8.9707V12.3047H10.377V10.8984Z" fill="#9E9E9E"/>
<path d="M13.1895 10.8984H11.7832V12.3047H13.1895V10.8984Z" fill="#9E9E9E"/>
<path d="M4.75195 13.7109H3.3457V15.1172H4.75195V13.7109Z" fill="#9E9E9E"/>
<path d="M7.56445 13.7109H6.1582V15.1172H7.56445V13.7109Z" fill="#9E9E9E"/>
<path d="M10.377 13.7109H8.9707V15.1172H10.377V13.7109Z" fill="#9E9E9E"/>
<path d="M13.1895 13.7109H11.7832V15.1172H13.1895V13.7109Z" fill="#9E9E9E"/>
<path d="M16.002 10.8984H14.5957V12.3047H16.002V10.8984Z" fill="#9E9E9E"/>
</g>
<defs>
<clipPath id="clip0">
<rect x="0.673828" width="18" height="18" fill="white"/>
</clipPath>
</defs>
</svg>
