<svg width="24" height="24" viewBox="0 0 24 24" fill="none" xmlns="http://www.w3.org/2000/svg">
    <path d="M12 24C18.6274 24 24 18.6274 24 12C24 5.37258 18.6274 0 12 0C5.37258 0 0 5.37258 0 12C0 18.6274 5.37258 24 12 24Z" fill="#333333"/>
    <path d="M18.96 11.81L7.56476 18.8888L12.9229 23.9652C19.1191 23.4939 24 18.317 24 12.0001C24 11.8453 23.9961 11.6914 23.9903 11.5379L16 4L18.96 10.89L23.8834 13.6794L23.8468 13.9224L23.6929 14.7091L18.96 11.81Z" fill="#1A1A1A"/>
    <path d="M6 15.5185C6 19.1296 8.87037 22 12.4815 22C16.0926 22 18.963 19.1296 18.963 15.5185V11.8148H6V15.5185ZM16.2778 4.77778L18.2222 2.83333L17.4815 2.09259L15.3519 4.22222C14.5185 3.75926 13.5 3.48148 12.4815 3.48148C11.463 3.48148 10.4444 3.75926 9.61111 4.12963L7.48148 2L6.74074 2.83333L8.68519 4.77778C7.01852 5.88889 6 7.83333 6 9.96296V10.8889H18.963V9.96296C18.963 7.83333 17.9444 5.88889 16.2778 4.77778ZM9.7037 9.03704C9.14815 9.03704 8.77778 8.66667 8.77778 8.11111C8.77778 7.55556 9.14815 7.18519 9.7037 7.18519C10.2593 7.18519 10.6296 7.55556 10.6296 8.11111C10.6296 8.66667 10.2593 9.03704 9.7037 9.03704ZM15.2593 9.03704C14.7037 9.03704 14.3333 8.66667 14.3333 8.11111C14.3333 7.55556 14.7037 7.18519 15.2593 7.18519C15.8148 7.18519 16.1852 7.55556 16.1852 8.11111C16.1852 8.66667 15.8148 9.03704 15.2593 9.03704Z" fill="white"/>
    <path d="M12.4815 11.8148L12.4815 21.9999C16.0926 21.9999 18.963 19.1296 18.963 15.5185V11.8148H12.4815ZM16.2778 4.77771L18.2222 2.83327L17.4815 2.09253L15.3519 4.22216C14.5185 3.7592 13.5 3.48142 12.4815 3.48142V10.8888H18.963V9.9629C18.963 7.83327 17.9445 5.88883 16.2778 4.77771ZM15.2593 9.03697C14.7037 9.03697 14.3334 8.6666 14.3334 8.11105C14.3334 7.55549 14.7037 7.18512 15.2593 7.18512C15.8148 7.18512 16.1852 7.55549 16.1852 8.11105C16.1852 8.6666 15.8148 9.03697 15.2593 9.03697Z" fill="#CCCCCC"/>
</svg>
