<svg width="24" height="24" viewBox="0 0 24 24" fill="none" xmlns="http://www.w3.org/2000/svg">
    <path d="M12 24C18.6274 24 24 18.6274 24 12C24 5.37258 18.6274 0 12 0C5.37258 0 0 5.37258 0 12C0 18.6274 5.37258 24 12 24Z" fill="#333333"/>
    <path d="M11.6713 6.55189L14.8125 9.68173L7.56476 18.8888L12.9229 23.9652C19.1191 23.4939 24 18.317 24 12.0001C24 11.8453 23.9961 11.6914 23.9903 11.5379L15.0722 2.61987L11.6713 6.55189Z" fill="#1A1A1A"/>
    <path d="M8.96191 19.6658C8.4806 19.6471 7.76158 19.1223 7.45014 18.7692C6.65317 17.8655 6.00396 16.8642 5.54481 15.7485C5.02216 14.4784 4.71039 13.1613 4.72619 11.7786C4.73753 10.784 4.93169 9.83002 5.4296 8.96185C6.04521 7.88846 6.95407 7.18252 8.16874 6.89714C8.65207 6.78361 9.14477 6.73805 9.62782 6.88097C10.1108 7.02385 10.5866 7.1925 11.0605 7.36393C11.4711 7.51247 11.874 7.61996 12.3051 7.43316C12.5883 7.31039 12.8829 7.21374 13.1729 7.107C13.648 6.93216 14.1282 6.77007 14.6396 6.75483C15.6288 6.7253 16.5414 6.96793 17.3463 7.5601C17.6783 7.80432 17.9574 8.10104 18.1889 8.44866C18.157 8.47266 18.1327 8.49254 18.1068 8.5103C17.7602 8.74866 17.4531 9.03 17.1875 9.35654C16.4825 10.2232 16.2378 11.2125 16.4043 12.3096C16.5204 13.075 16.8502 13.7358 17.3883 14.2928C17.7172 14.6332 18.2694 14.9893 18.6944 15.1956C18.6203 15.3712 18.4751 15.6546 18.4046 15.8318C18.1035 16.5883 17.6984 17.2866 17.2217 17.9452C16.8827 18.4135 16.5415 18.8779 16.0783 19.2375C15.6545 19.5666 15.1855 19.7311 14.6449 19.6935C14.2332 19.6649 13.852 19.5363 13.4831 19.3655C12.677 18.9923 11.8496 18.9178 10.9994 19.184C10.7873 19.2503 10.5873 19.3545 10.3758 19.4232C10.0401 19.5323 9.31469 19.6796 8.96191 19.6658Z" fill="white"/>
    <path d="M17.3883 14.2925C16.8502 13.7355 16.5203 13.0748 16.4043 12.3093C16.2379 11.2123 16.4825 10.223 17.1875 9.35628C17.4531 9.02975 17.7602 8.74841 18.1069 8.51005C18.1327 8.49228 18.157 8.47241 18.1888 8.44841C17.9573 8.10078 17.6783 7.80406 17.3463 7.55985C16.5413 6.96772 15.6288 6.7251 14.6396 6.75458C14.1282 6.76986 13.648 6.93191 13.1729 7.10675C12.8828 7.21349 12.5882 7.31019 12.305 7.43291C12.0947 7.52408 11.891 7.54485 11.6898 7.52525V19.042C12.2992 18.9813 12.8968 19.0939 13.4831 19.3653C13.852 19.5361 14.2332 19.6647 14.6449 19.6933C15.1855 19.7308 15.6545 19.5663 16.0783 19.2373C16.5415 18.8776 16.8826 18.4132 17.2216 17.9449C17.6983 17.2863 18.1035 16.588 18.4045 15.8315C18.475 15.6544 18.6203 15.371 18.6943 15.1954C18.2694 14.989 17.7172 14.633 17.3883 14.2925Z" fill="#CCCCCC"/>
    <path d="M15.0723 2.61987C15.0702 2.89114 15.1011 3.16751 15.0601 3.43273C14.908 4.41579 14.4465 5.23573 13.6696 5.86043C13.0937 6.32346 12.4419 6.59979 11.6714 6.55188C11.6276 6.25498 11.6373 5.96037 11.7013 5.67195C11.9302 4.64046 12.4788 3.81931 13.3599 3.23323C13.8146 2.93075 14.3136 2.72426 14.8593 2.64458C14.8854 2.64073 15.0267 2.61987 15.0723 2.61987Z" fill="#CCCCCC"/>
</svg>
