<svg width="35" height="35" viewBox="0 0 35 35" fill="none" xmlns="http://www.w3.org/2000/svg">
    <circle cx="17.5" cy="17.5" r="17.5" fill="white"/>
    <g clip-path="url(#clip0)">
        <path d="M20.8944 8.44824H14.1056C10.9816 8.44824 8.44824 10.9816 8.44824 14.1056V20.8944C8.44824 24.0183 10.9816 26.5517 14.1056 26.5517H20.8944C24.0183 26.5517 26.5517 24.0183 26.5517 20.8944V14.1056C26.5517 10.9816 24.0183 8.44824 20.8944 8.44824ZM24.8545 20.8944C24.8545 23.0781 23.0781 24.8545 20.8944 24.8545H14.1056C11.9218 24.8545 10.1454 23.0781 10.1454 20.8944V14.1056C10.1454 11.9218 11.9218 10.1454 14.1056 10.1454H20.8944C23.0781 10.1454 24.8545 11.9218 24.8545 14.1056V20.8944Z" fill="#1E2023"/>
        <path d="M17.5 12.9741C15.0006 12.9741 12.9741 15.0006 12.9741 17.5C12.9741 19.9994 15.0006 22.0258 17.5 22.0258C19.9994 22.0258 22.0258 19.9994 22.0258 17.5C22.0258 15.0006 19.9994 12.9741 17.5 12.9741ZM17.5 20.3286C15.9408 20.3286 14.6713 19.0591 14.6713 17.5C14.6713 15.9397 15.9408 14.6713 17.5 14.6713C19.0591 14.6713 20.3286 15.9397 20.3286 17.5C20.3286 19.0591 19.0591 20.3286 17.5 20.3286Z" fill="#1E2023"/>
        <path d="M22.3653 13.2376C22.6983 13.2376 22.9683 12.9676 22.9683 12.6346C22.9683 12.3015 22.6983 12.0315 22.3653 12.0315C22.0322 12.0315 21.7622 12.3015 21.7622 12.6346C21.7622 12.9676 22.0322 13.2376 22.3653 13.2376Z" fill="#1E2023"/>
    </g>
    <defs>
        <clipPath id="clip0">
            <rect x="8.44824" y="8.44824" width="18.1034" height="18.1034" fill="white"/>
        </clipPath>
    </defs>
</svg>
