<svg width="35" height="35" viewBox="0 0 35 35" fill="none" xmlns="http://www.w3.org/2000/svg">
    <circle cx="17.5" cy="17.5" r="17.5" fill="white"/>
    <g clip-path="url(#clip0)">
        <path d="M17.7187 24.6651C20.5323 24.6651 24.4622 24.733 25.8917 21.8734C26.431 20.7804 26.5517 19.5185 26.5517 18.3282H26.5509C26.5509 16.7645 26.1172 15.2755 25.08 14.0656C25.2724 13.4878 25.3704 12.879 25.3704 12.2665C25.3704 11.464 25.1894 11.0612 24.8198 10.3333C23.1301 10.3333 22.0364 10.6501 20.7541 11.6473C19.7659 11.4127 18.7401 11.304 17.7217 11.304C16.594 11.304 15.4694 11.4202 14.3764 11.6774C13.0752 10.6697 11.9814 10.334 10.2729 10.334C9.90783 11.0619 9.72303 11.4647 9.72303 12.2673C9.72303 12.879 9.81732 13.4983 10.0134 14.0882C8.97249 15.2868 8.44824 16.7645 8.44824 18.3282C8.44824 19.5185 8.6602 20.7918 9.2101 21.8742C10.6961 24.767 14.8599 24.6651 17.7187 24.6651ZM13.7292 17.1296C14.4458 17.1296 15.136 17.2563 15.8412 17.3536C18.4195 17.7459 19.775 17.1296 21.3552 17.1296C23.1196 17.1296 24.1273 18.5741 24.1273 20.2125C24.1273 23.4929 21.0988 23.9931 18.4474 23.9931H16.6295C13.9894 23.9931 10.9571 23.4899 10.9571 20.2125C10.9571 18.5741 11.9633 17.1296 13.7292 17.1296Z" fill="black"/>
        <path d="M21.0112 22.2695C21.9843 22.2695 22.3954 20.9932 22.3954 20.2125C22.3954 19.4318 21.9843 18.1555 21.0112 18.1555C20.0382 18.1555 19.6271 19.4318 19.6271 20.2125C19.6271 20.9932 20.0382 22.2695 21.0112 22.2695Z" fill="black"/>
        <path d="M14.0829 22.2695C15.056 22.2695 15.4671 20.9932 15.4671 20.2125C15.4671 19.4318 15.0552 18.1562 14.0829 18.1562C13.1106 18.1562 12.6987 19.4325 12.6987 20.2132C12.6987 20.994 13.1098 22.2695 14.0829 22.2695Z" fill="black"/>
    </g>
    <defs>
        <clipPath id="clip0">
            <rect x="8.44824" y="8.44824" width="18.1034" height="18.1034" fill="white"/>
        </clipPath>
    </defs>
</svg>
