<svg width="126" height="33" viewBox="0 0 126 33" fill="none" xmlns="http://www.w3.org/2000/svg">
    <path d="M11.6547 31.3892C11.0072 30.7597 10.6835 29.8914 10.6835 28.8277V5.77423H3.34532C1.10072 5.77423 0 4.79739 0 2.86541C0 0.955138 1.1223 0 3.34532 0H122.655C124.899 0 126 0.955138 126 2.86541C126 4.81909 124.878 5.77423 122.655 5.77423H17.7626V28.8494C17.7626 29.9131 17.4388 30.7597 16.8129 31.4109C16.187 32.0404 15.3237 32.3661 14.223 32.3661C13.1655 32.3443 12.3237 32.0404 11.6547 31.3892Z" fill="black"/>
    <path d="M43.7051 9.81186C44.2015 9.48625 44.741 9.33429 45.3238 9.33429C46.1655 9.33429 46.9209 9.6165 47.5899 10.1809C48.259 10.7453 48.5828 11.4182 48.5828 12.1997C48.5828 12.6556 48.4748 13.0897 48.259 13.5239L40.1007 30.3473C39.7986 31.0202 39.3453 31.5195 38.741 31.8668C38.1367 32.2141 37.4892 32.3878 36.7986 32.3878C36.1079 32.3878 35.4605 32.2141 34.8561 31.8668C34.2518 31.5195 33.777 30.9985 33.4533 30.3473L25.295 13.5239C25.1223 13.0897 25.0144 12.699 25.0144 12.2865C25.0144 11.4616 25.3597 10.767 26.072 10.1809C26.7842 9.59479 27.5827 9.31259 28.4461 9.31259C29.072 9.31259 29.6547 9.46454 30.1727 9.79016C30.6907 10.1158 31.1007 10.5933 31.4029 11.2229L36.9712 23.4877L42.4964 11.2229C42.8202 10.615 43.2087 10.1375 43.7051 9.81186Z" fill="black"/>
    <path d="M57.3885 10.1158C56.741 9.57309 55.9209 9.29089 54.9712 9.29089C54 9.29089 53.1798 9.57309 52.5324 10.1158C51.8633 10.6585 51.5396 11.4617 51.5396 12.5253V29.1534C51.5396 30.217 51.8633 31.0202 52.5108 31.5629C53.1583 32.1056 53.9784 32.3878 54.9712 32.3878C55.9424 32.3878 56.741 32.1056 57.3885 31.5629C58.036 31.0202 58.3597 30.217 58.3597 29.1534V12.5253C58.3813 11.4617 58.036 10.6585 57.3885 10.1158Z" fill="black"/>
    <path d="M67.2518 32.0405C65.8921 31.7366 64.7051 31.259 63.6691 30.5861C63.2159 30.3039 62.8706 29.9566 62.6331 29.5007C62.3957 29.0448 62.2662 28.5239 62.2662 27.9595C62.2662 27.2648 62.4605 26.6787 62.849 26.2011C63.2375 25.7236 63.7339 25.4848 64.295 25.4848C64.6835 25.4848 65.072 25.5499 65.4821 25.6802C65.8706 25.8104 66.2806 25.9841 66.7123 26.1577C67.554 26.5485 68.3957 26.8741 69.1943 27.0912C70.0144 27.3299 71.0288 27.4385 72.2375 27.4385C73.295 27.4385 74.1152 27.2648 74.6979 26.9392C75.2806 26.6136 75.5828 26.1577 75.5828 25.5716C75.5828 25.1375 75.4533 24.8119 75.1943 24.5514C74.9353 24.2909 74.4605 24.0521 73.7698 23.835C73.0792 23.6179 71.9785 23.3574 70.4677 23.0535C67.7698 22.5326 65.849 21.7728 64.6619 20.7308C63.4749 19.6889 62.8921 18.2562 62.8921 16.3893C62.8921 15.0217 63.3022 13.7844 64.1439 12.699C64.9641 11.6136 66.108 10.7453 67.5756 10.1158C69.0216 9.48628 70.6619 9.18237 72.4749 9.18237C73.7698 9.18237 75.0432 9.35603 76.2734 9.68165C77.5036 10.0073 78.6044 10.4848 79.5756 11.0926C80.5036 11.6787 80.9785 12.5253 80.9785 13.6541C80.9785 14.3922 80.7842 15 80.3957 15.4776C80.0072 15.9551 79.5108 16.2156 78.9497 16.2156C78.259 16.2156 77.4173 15.9334 76.4677 15.3908C75.7123 15 75.0216 14.6961 74.3957 14.5007C73.7698 14.3054 73.036 14.1968 72.1943 14.1968C71.2662 14.1968 70.5108 14.3705 69.9713 14.7178C69.4317 15.0651 69.1511 15.5427 69.1511 16.1505C69.1511 16.78 69.4749 17.2793 70.1008 17.6049C70.7267 17.9305 71.9569 18.2779 73.7698 18.6035C75.7986 18.9942 77.3741 19.4718 78.518 20.0362C79.6619 20.6006 80.5037 21.2952 81.0216 22.1635C81.5396 23.0101 81.7986 24.0955 81.7986 25.398C81.7986 27.547 80.9137 29.2836 79.1439 30.5427C77.3742 31.8234 75.0216 32.4529 72.0432 32.4529C70.2087 32.4963 68.6116 32.3444 67.2518 32.0405Z" fill="black"/>
    <path d="M105.022 26.2011C105.389 26.6787 105.583 27.3082 105.583 28.068C105.583 28.589 105.432 29.0665 105.13 29.5007C104.827 29.9349 104.396 30.3039 103.856 30.6078C102.82 31.1505 101.633 31.6063 100.273 31.9537C98.9137 32.301 97.6619 32.4746 96.518 32.4746C94.1008 32.4746 91.9857 31.9971 90.1943 31.0636C88.4029 30.1302 87.0216 28.7843 86.0504 27.026C85.0792 25.2894 84.6044 23.2272 84.6044 20.8394C84.6044 18.5601 85.0792 16.5413 86.0072 14.7829C86.9353 13.0246 88.2518 11.6353 89.9137 10.6585C91.5756 9.68165 93.4533 9.18237 95.59 9.18237C97.6188 9.18237 99.3885 9.63823 100.921 10.5282C102.453 11.4183 103.64 12.699 104.482 14.3488C105.324 15.9986 105.755 17.9522 105.755 20.1664C105.755 20.8394 105.604 21.3386 105.281 21.686C104.957 22.0333 104.525 22.2069 103.942 22.2069H91.2518C91.4677 24.0087 92.0073 25.2894 92.8921 26.1143C93.777 26.9175 95.0288 27.3299 96.6475 27.3299C97.5324 27.3299 98.3094 27.2214 99.0001 27.0043C99.6907 26.7872 100.468 26.505 101.309 26.136C101.741 25.9624 102.13 25.7887 102.54 25.6584C102.928 25.5282 103.273 25.4631 103.576 25.4631C104.158 25.4631 104.655 25.7019 105.022 26.2011ZM92.6332 15.1954C91.8562 16.042 91.3814 17.2359 91.2303 18.8206H99.9713C99.8849 17.2142 99.4749 15.9986 98.7626 15.1737C98.0504 14.3488 97.0576 13.9363 95.7411 13.9363C94.4677 13.9363 93.4317 14.3488 92.6332 15.1954Z" fill="black"/>
    <path d="M123.285 10.012C124.065 9.952 124.68 10.117 125.13 10.507C125.58 10.897 125.805 11.482 125.805 12.262C125.805 13.072 125.61 13.672 125.22 14.062C124.83 14.452 124.125 14.707 123.105 14.827L121.755 14.962C119.985 15.142 118.68 15.742 117.84 16.762C117.03 17.782 116.625 19.057 116.625 20.587V30.037C116.625 30.907 116.355 31.582 115.815 32.062C115.275 32.512 114.6 32.737 113.79 32.737C112.98 32.737 112.305 32.512 111.765 32.062C111.255 31.582 111 30.907 111 30.037V12.622C111 11.782 111.255 11.137 111.765 10.687C112.305 10.237 112.965 10.012 113.745 10.012C114.525 10.012 115.155 10.237 115.635 10.687C116.115 11.107 116.355 11.722 116.355 12.532V14.332C116.925 13.012 117.765 11.992 118.875 11.272C120.015 10.552 121.275 10.147 122.655 10.057L123.285 10.012Z" fill="black"/>
</svg>
