<?xml version="1.0" encoding="UTF-8"?>
<svg version="1.1" xmlns="http://www.w3.org/2000/svg" xmlns:xlink="http://www.w3.org/1999/xlink">
<defs>
<clipPath id="clip0"><path fill="#fff" d="M8.448 8.448h18.103v18.103H8.448z"/></clipPath>
<clipPath id="clip0"><path fill="#fff" d="M8.448 8.448h18.103v18.103H8.448z"/></clipPath>
<filter id="filter0_d" x="29" y="36" width="49" height="49" filterUnits="userSpaceOnUse" color-interpolation-filters="sRGB"><feFlood flood-opacity="0" result="BackgroundImageFix"/><feColorMatrix in="SourceAlpha" values="0 0 0 0 0 0 0 0 0 0 0 0 0 0 0 0 0 0 127 0"/><feOffset dy="4"/><feGaussianBlur stdDeviation="9"/><feColorMatrix values="0 0 0 0 0 0 0 0 0 0 0 0 0 0 0 0 0 0 0.3 0"/><feBlend in2="BackgroundImageFix" result="effect1_dropShadow"/><feBlend in="SourceGraphic" in2="effect1_dropShadow" result="shape"/></filter><filter id="filter1_d" x="49" y="36" width="49" height="49" filterUnits="userSpaceOnUse" color-interpolation-filters="sRGB"><feFlood flood-opacity="0" result="BackgroundImageFix"/><feColorMatrix in="SourceAlpha" values="0 0 0 0 0 0 0 0 0 0 0 0 0 0 0 0 0 0 127 0"/><feOffset dy="4"/><feGaussianBlur stdDeviation="9"/><feColorMatrix values="0 0 0 0 0 0 0 0 0 0 0 0 0 0 0 0 0 0 0.3 0"/><feBlend in2="BackgroundImageFix" result="effect1_dropShadow"/><feBlend in="SourceGraphic" in2="effect1_dropShadow" result="shape"/></filter><filter id="filter2_d" x="69" y="36" width="49" height="49" filterUnits="userSpaceOnUse" color-interpolation-filters="sRGB"><feFlood flood-opacity="0" result="BackgroundImageFix"/><feColorMatrix in="SourceAlpha" values="0 0 0 0 0 0 0 0 0 0 0 0 0 0 0 0 0 0 127 0"/><feOffset dy="4"/><feGaussianBlur stdDeviation="9"/><feColorMatrix values="0 0 0 0 0 0 0 0 0 0 0 0 0 0 0 0 0 0 0.3 0"/><feBlend in2="BackgroundImageFix" result="effect1_dropShadow"/><feBlend in="SourceGraphic" in2="effect1_dropShadow" result="shape"/></filter><filter id="filter3_d" x="29" y="54" width="49" height="49" filterUnits="userSpaceOnUse" color-interpolation-filters="sRGB"><feFlood flood-opacity="0" result="BackgroundImageFix"/><feColorMatrix in="SourceAlpha" values="0 0 0 0 0 0 0 0 0 0 0 0 0 0 0 0 0 0 127 0"/><feOffset dy="4"/><feGaussianBlur stdDeviation="9"/><feColorMatrix values="0 0 0 0 0 0 0 0 0 0 0 0 0 0 0 0 0 0 0.3 0"/><feBlend in2="BackgroundImageFix" result="effect1_dropShadow"/><feBlend in="SourceGraphic" in2="effect1_dropShadow" result="shape"/></filter><filter id="filter4_d" x="49" y="54" width="49" height="49" filterUnits="userSpaceOnUse" color-interpolation-filters="sRGB"><feFlood flood-opacity="0" result="BackgroundImageFix"/><feColorMatrix in="SourceAlpha" values="0 0 0 0 0 0 0 0 0 0 0 0 0 0 0 0 0 0 127 0"/><feOffset dy="4"/><feGaussianBlur stdDeviation="9"/><feColorMatrix values="0 0 0 0 0 0 0 0 0 0 0 0 0 0 0 0 0 0 0.3 0"/><feBlend in2="BackgroundImageFix" result="effect1_dropShadow"/><feBlend in="SourceGraphic" in2="effect1_dropShadow" result="shape"/></filter><filter id="filter5_d" x="69" y="54" width="49" height="49" filterUnits="userSpaceOnUse" color-interpolation-filters="sRGB"><feFlood flood-opacity="0" result="BackgroundImageFix"/><feColorMatrix in="SourceAlpha" values="0 0 0 0 0 0 0 0 0 0 0 0 0 0 0 0 0 0 127 0"/><feOffset dy="4"/><feGaussianBlur stdDeviation="9"/><feColorMatrix values="0 0 0 0 0 0 0 0 0 0 0 0 0 0 0 0 0 0 0.3 0"/><feBlend in2="BackgroundImageFix" result="effect1_dropShadow"/><feBlend in="SourceGraphic" in2="effect1_dropShadow" result="shape"/></filter><clipPath id="clip0"><path fill="#fff" d="M43.679 66.815h4.198v4.191h-4.198z"/></clipPath><clipPath id="clip1"><path fill="#fff" d="M88.718 80.283h4.198v4.191h-4.198z"/></clipPath>
</defs>
<symbol id="i-android" viewBox="0 0 24 24" fill="none" xmlns="http://www.w3.org/2000/svg"><path d="M12 24c6.627 0 12-5.373 12-12S18.627 0 12 0 0 5.373 0 12s5.373 12 12 12z" fill="#333"/><path d="M18.96 11.81L7.565 18.889l5.358 5.076C19.119 23.494 24 18.317 24 12c0-.155-.004-.309-.01-.462L16 4l2.96 6.89 4.923 2.79-.036.242-.154.787-4.733-2.899z" fill="#1A1A1A"/><path d="M6 15.518A6.442 6.442 0 0012.482 22a6.442 6.442 0 006.481-6.482v-3.703H6v3.704zm10.278-10.74l1.944-1.945-.74-.74-2.13 2.13a6.015 6.015 0 00-2.87-.742c-1.019 0-2.038.278-2.87.649L7.481 2l-.741.833 1.944 1.945C7.02 5.888 6 7.833 6 9.963v.926h12.963v-.926c0-2.13-1.019-4.074-2.685-5.185zM9.704 9.037c-.556 0-.926-.37-.926-.926 0-.555.37-.926.926-.926.555 0 .926.37.926.926s-.37.926-.926.926zm5.555 0c-.555 0-.926-.37-.926-.926 0-.555.37-.926.926-.926s.926.37.926.926-.37.926-.926.926z" fill="#fff"/><path d="M12.482 11.815V22a6.442 6.442 0 006.481-6.482v-3.703h-6.482zm3.796-7.037l1.944-1.945-.74-.74-2.13 2.13a6.015 6.015 0 00-2.87-.742v7.408h6.481v-.926c0-2.13-1.018-4.074-2.685-5.185zm-1.019 4.259c-.555 0-.926-.37-.926-.926s.37-.926.926-.926.926.37.926.926-.37.926-.926.926z" fill="#CCC"/></symbol>
<symbol id="i-apple" viewBox="0 0 24 24" fill="none" xmlns="http://www.w3.org/2000/svg"><path d="M12 24c6.627 0 12-5.373 12-12S18.627 0 12 0 0 5.373 0 12s5.373 12 12 12z" fill="#333"/><path d="M11.671 6.552l3.142 3.13-7.248 9.207 5.358 5.076C19.119 23.494 24 18.317 24 12c0-.155-.004-.309-.01-.462L15.072 2.62l-3.4 3.932z" fill="#1A1A1A"/><path d="M8.962 19.666c-.481-.019-1.2-.544-1.512-.897a10.735 10.735 0 01-1.905-3.02c-.523-1.27-.835-2.588-.819-3.97.012-.995.206-1.949.704-2.817.615-1.074 1.524-1.78 2.739-2.065.483-.113.976-.159 1.459-.016.483.143.959.311 1.432.483.411.148.814.256 1.245.07.283-.124.578-.22.868-.327.475-.175.955-.337 1.467-.352.989-.03 1.901.213 2.706.805.332.244.611.541.843.889-.032.024-.056.044-.082.061-.347.239-.654.52-.92.847-.704.866-.95 1.856-.783 2.953a3.56 3.56 0 00.984 1.983c.33.34.881.696 1.306.903-.074.175-.219.459-.29.636a9.763 9.763 0 01-1.182 2.113c-.34.468-.68.933-1.144 1.293-.423.329-.893.493-1.433.456-.412-.03-.793-.158-1.162-.328-.806-.374-1.633-.448-2.484-.182-.212.066-.412.17-.623.24-.336.108-1.061.256-1.414.242z" fill="#fff"/><path d="M17.388 14.293a3.559 3.559 0 01-.984-1.984c-.166-1.097.079-2.086.784-2.953.265-.326.572-.608.919-.846.026-.018.05-.038.082-.062a3.496 3.496 0 00-.843-.888c-.805-.592-1.717-.835-2.706-.805-.512.015-.992.177-1.467.352-.29.106-.585.203-.868.326-.21.091-.414.112-.615.092v11.517c.61-.06 1.207.052 1.793.323.369.171.75.3 1.162.328.54.038 1.01-.127 1.433-.456.463-.36.805-.824 1.144-1.292a9.759 9.759 0 001.182-2.114c.071-.177.216-.46.29-.636-.425-.206-.977-.562-1.306-.902zM15.072 2.62c-.002.271.03.548-.012.813-.152.983-.614 1.803-1.39 2.427-.576.463-1.228.74-1.999.692a2.412 2.412 0 01.03-.88c.23-1.032.778-1.853 1.659-2.439a3.64 3.64 0 011.5-.588c.025-.004.167-.025.212-.025z" fill="#CCC"/></symbol>
<symbol id="i-facebook" viewBox="0 0 35 35" fill="none" xmlns="http://www.w3.org/2000/svg"><circle cx="17.5" cy="17.5" r="17.5" fill="#fff"/><path d="M26.5 17.6a9.051 9.051 0 00-18.1 0 9.051 9.051 0 009.05 9.05c.053 0 .106 0 .16-.002v-7.045h-1.945v-2.266h1.944V15.67c0-1.934 1.18-2.987 2.906-2.987.826 0 1.536.062 1.743.09v2.02h-1.19c-.938 0-1.12.447-1.12 1.101v1.443h2.244l-.292 2.266h-1.952v6.698c3.783-1.085 6.552-4.57 6.552-8.7z" fill="#000"/></symbol>
<symbol id="i-instagram" viewBox="0 0 35 35" fill="none" xmlns="http://www.w3.org/2000/svg"><circle cx="17.5" cy="17.5" r="17.5" fill="#fff"/><g clip-path="url(#clip0)" fill="#1E2023"><path d="M20.894 8.448h-6.788a5.658 5.658 0 00-5.658 5.658v6.788a5.658 5.658 0 005.658 5.658h6.788a5.658 5.658 0 005.658-5.658v-6.788a5.658 5.658 0 00-5.658-5.658zm3.96 12.446a3.964 3.964 0 01-3.96 3.96h-6.788a3.964 3.964 0 01-3.96-3.96v-6.788a3.965 3.965 0 013.96-3.96h6.788a3.964 3.964 0 013.96 3.96v6.788z"/><path d="M17.5 12.974a4.526 4.526 0 100 9.052 4.526 4.526 0 000-9.052zm0 7.355a2.833 2.833 0 01-2.829-2.829c0-1.56 1.27-2.829 2.829-2.829a2.832 2.832 0 012.829 2.829c0 1.56-1.27 2.829-2.829 2.829zM22.365 13.238a.603.603 0 100-1.206.603.603 0 000 1.206z"/></g></symbol>
<symbol id="i-linkedin" viewBox="0 0 35 35" fill="none" xmlns="http://www.w3.org/2000/svg"><circle cx="17.5" cy="17.5" r="17.5" fill="#fff"/><g clip-path="url(#clip0)" fill="#000"><path d="M17.719 24.665c2.813 0 6.743.068 8.173-2.792.539-1.093.66-2.355.66-3.545h-.001c0-1.563-.434-3.053-1.471-4.262a5.7 5.7 0 00.29-1.8c0-.802-.18-1.205-.55-1.933-1.69 0-2.784.317-4.066 1.314a13.17 13.17 0 00-3.032-.343c-1.128 0-2.253.116-3.346.373-1.3-1.007-2.395-1.343-4.103-1.343-.365.728-.55 1.13-.55 1.933 0 .612.094 1.231.29 1.821-1.04 1.199-1.565 2.677-1.565 4.24 0 1.19.212 2.464.762 3.546 1.486 2.893 5.65 2.791 8.509 2.791zm-3.99-7.535c.717 0 1.407.126 2.112.224 2.579.392 3.934-.224 5.514-.224 1.765 0 2.772 1.444 2.772 3.082 0 3.28-3.028 3.781-5.68 3.781H16.63c-2.64 0-5.673-.503-5.673-3.78 0-1.639 1.006-3.083 2.772-3.083z"/><path d="M21.011 22.27c.973 0 1.384-1.277 1.384-2.058 0-.78-.41-2.056-1.384-2.056-.973 0-1.384 1.276-1.384 2.056 0 .781.411 2.058 1.384 2.058zM14.083 22.27c.973 0 1.384-1.277 1.384-2.058 0-.78-.412-2.056-1.384-2.056s-1.384 1.277-1.384 2.057c0 .781.41 2.056 1.384 2.056z"/></g></symbol>
<symbol id="i-ratting-job" viewBox="0 0 21 46" fill="none" xmlns="http://www.w3.org/2000/svg"><path d="M0 1.127A.711.711 0 011.017.484a22.056 22.056 0 0018.966 0A.711.711 0 0121 1.127V46H0V1.127z" fill="#1E2023"/></symbol>
<symbol id="i-scope" viewBox="0 0 145 145" fill="none" xmlns="http://www.w3.org/2000/svg"><rect x=".965" y=".306" width="143.952" height="143.952" rx="71.976" fill="#233044"/><path d="M3.325 89.98h139.232c-5.899 27.533-32.906 54.278-69.616 54.278S8.831 116.726 3.325 89.981z" fill="#3C4B63"/><path d="M37.936 30.285c0-2.22 1.813-4.02 4.049-4.02h62.751c2.236 0 4.049 1.8 4.049 4.02v84.627c0 2.22-1.813 4.02-4.049 4.02H41.985c-2.236 0-4.049-1.8-4.049-4.02V30.285z" fill="#fff"/><path d="M60.823 40.41c-.158-.152-.237-.363-.237-.621v-5.591h-1.793c-.548 0-.817-.237-.817-.706 0-.463.274-.695.817-.695h29.14c.549 0 .818.232.818.695 0 .474-.275.706-.817.706h-25.62v5.596c0 .258-.078.464-.231.622-.153.152-.364.231-.633.231-.258-.005-.464-.079-.627-.237z" fill="#233044"/><path d="M68.65 35.177a.708.708 0 01.396-.116c.206 0 .39.069.554.206.163.136.242.3.242.49 0 .11-.026.215-.079.32l-1.993 4.08a.782.782 0 01-.332.37.942.942 0 01-.474.126.942.942 0 01-.474-.127.86.86 0 01-.343-.368l-1.993-4.08a.798.798 0 01-.068-.3c0-.2.084-.37.258-.511a.895.895 0 01.58-.211c.153 0 .295.037.422.116a.814.814 0 01.3.347l1.36 2.975 1.35-2.975a.902.902 0 01.295-.342zM71.993 35.25a.9.9 0 00-.59-.2.904.904 0 00-.596.2c-.164.133-.243.327-.243.585v4.033c0 .258.08.453.238.585a.91.91 0 00.6.2.89.89 0 00.59-.2c.159-.132.238-.327.238-.585v-4.033c.005-.258-.079-.453-.237-.584zM74.402 40.569a2.654 2.654 0 01-.875-.353.674.674 0 01-.253-.263.799.799 0 01-.09-.374c0-.169.047-.31.142-.427a.444.444 0 01.354-.173c.094 0 .19.016.29.047.094.032.195.074.3.116.206.095.411.174.606.226.2.058.448.084.743.084.259 0 .46-.042.601-.12.143-.08.216-.19.216-.332a.33.33 0 00-.094-.248c-.064-.063-.18-.12-.348-.174a8.752 8.752 0 00-.807-.189c-.659-.126-1.128-.31-1.418-.563-.29-.253-.432-.6-.432-1.053 0-.332.1-.632.306-.895.2-.264.48-.474.838-.627a2.994 2.994 0 011.197-.226c.316 0 .627.042.927.12.3.08.57.196.807.343a.69.69 0 01.342.621c0 .18-.047.327-.142.442a.45.45 0 01-.353.18c-.169 0-.374-.069-.606-.2a3.227 3.227 0 00-.506-.216 1.817 1.817 0 00-.538-.074c-.227 0-.411.042-.543.126-.132.085-.2.2-.2.348 0 .152.079.273.232.352.153.08.453.164.896.243.495.094.88.21 1.16.347.279.137.484.306.61.516.127.206.19.469.19.785 0 .52-.215.942-.648 1.247-.432.311-1.007.464-1.734.464a4.893 4.893 0 01-1.17-.1zM83.627 39.152c.09.116.137.269.137.453a.592.592 0 01-.11.348.92.92 0 01-.312.268 4.04 4.04 0 01-.875.327 3.748 3.748 0 01-.917.126c-.59 0-1.107-.116-1.545-.342a2.388 2.388 0 01-1.012-.98c-.237-.42-.353-.92-.353-1.5 0-.553.116-1.042.343-1.469.226-.426.548-.763.954-1a2.692 2.692 0 011.386-.358c.496 0 .928.11 1.302.326.374.216.664.527.87.927.206.4.311.874.311 1.41 0 .164-.037.285-.116.37a.422.422 0 01-.327.126h-3.1c.053.437.185.747.401.947.216.195.522.295.918.295.216 0 .405-.026.574-.079.169-.052.358-.12.564-.21.106-.043.2-.085.3-.116a.814.814 0 01.254-.048c.142 0 .263.058.353.18zM80.6 36.483c-.19.205-.306.495-.343.88h2.135c-.02-.39-.121-.685-.295-.885-.174-.2-.416-.3-.738-.3-.311 0-.564.1-.759.305zM88.088 35.226c.19-.015.34.025.45.12.11.094.165.236.165.425 0 .197-.048.342-.143.437-.095.095-.267.156-.516.186l-.33.032c-.433.044-.751.19-.956.437-.198.247-.297.556-.297.928v2.292c0 .21-.066.374-.198.49a.75.75 0 01-.495.164.75.75 0 01-.494-.163c-.125-.117-.187-.28-.187-.491v-4.224c0-.204.062-.36.187-.47a.734.734 0 01.483-.163.65.65 0 01.462.163c.117.102.176.251.176.448v.436c.14-.32.344-.567.615-.742.279-.174.587-.273.924-.294l.154-.011z" fill="#233044"/><g clip-path="url(#clip0)" fill="#fff"><path d="M46.765 67.876a.059.059 0 00.06-.06.059.059 0 00-.06-.058h-.111a.059.059 0 00-.059.059c0 .033.026.059.059.059h.111z"/><path d="M47.69 67.106h-3.82a.192.192 0 00-.19.19v2.412c0 .033.025.06.058.06s.06-.027.06-.06v-1.833h2.6a.059.059 0 00.06-.059.059.059 0 00-.06-.059h-2.604v-.462c0-.039.033-.072.075-.075h3.821c.04 0 .073.033.076.076v.464h-.741a.059.059 0 100 .118h.737v2.649c0 .039-.032.072-.075.075H43.87c-.039 0-.072-.033-.075-.075v-.36a.059.059 0 00-.06-.06.053.053 0 00-.055.056v.36c0 .105.085.187.19.19h3.821a.192.192 0 00.19-.19v-3.227a.197.197 0 00-.19-.19z"/><path d="M45.778 68.101c-.338 0-.656.148-.872.406l-.01.01v.004a1.137 1.137 0 000 1.437v.003l.01.01a1.136 1.136 0 001.741.003 1.132 1.132 0 000-1.467 1.132 1.132 0 00-.869-.406zm1.023 1.078h-.38a1.822 1.822 0 00-.062-.442 1.23 1.23 0 00.24-.112c.12.16.19.354.203.553zm-.203.67a1.313 1.313 0 00-.24-.11c.04-.145.06-.295.063-.443h.38c-.013.2-.082.39-.203.554zm-1.843-.556h.38c.004.15.023.298.063.442-.086.03-.164.066-.24.111-.121-.16-.19-.35-.203-.553zm.203-.668c.076.046.158.082.24.112a1.84 1.84 0 00-.063.442h-.38c.013-.2.082-.393.203-.554zm.88.203c.137-.003.275-.023.41-.059.035.134.055.272.058.41h-.469v-.35zm0-.114v-.491c.153.032.291.203.376.442-.124.029-.252.045-.377.049zm-.116-.495v.495a1.635 1.635 0 01-.377-.053c.086-.239.22-.406.377-.442zm0 .61v.35h-.472c.003-.138.023-.276.06-.41.134.036.271.056.412.06zm-.472.464h.47v.35a1.748 1.748 0 00-.41.06 1.712 1.712 0 01-.06-.41zm.472.465v.494c-.154-.032-.291-.203-.377-.442.122-.03.25-.046.377-.052zm.115.494v-.494c.128.003.253.02.377.052-.088.24-.223.41-.377.442zm0-.609v-.35h.47a1.741 1.741 0 01-.06.41 2.18 2.18 0 00-.41-.06zm.686-1.106a1.104 1.104 0 01-.2.091 1.08 1.08 0 00-.2-.353c.154.056.291.144.4.262zm-1.093-.262a1.049 1.049 0 00-.2.353 1.218 1.218 0 01-.2-.091c.112-.118.25-.206.4-.262zm-.396 1.663c.062-.036.13-.069.2-.092.042.128.111.25.2.354a1.04 1.04 0 01-.4-.262zm1.092.262c.088-.105.157-.223.2-.354.069.023.134.056.2.092-.112.115-.25.206-.4.262zM44.046 67.433a.059.059 0 00-.059.06c0 .032.027.059.06.059h.196a.059.059 0 00.059-.06.059.059 0 00-.06-.059h-.196zM44.597 67.433a.059.059 0 00-.059.06c0 .032.027.059.06.059h.196a.059.059 0 00.059-.06.059.059 0 00-.06-.059h-.196zM45.152 67.433a.059.059 0 00-.06.06c0 .032.027.059.06.059h.196a.059.059 0 00.059-.06.059.059 0 00-.059-.059h-.196z"/></g><path d="M53.81 67.507a.078.078 0 01.03-.04.088.088 0 01.047-.014c.022 0 .04.007.056.02a.067.067 0 01.024.055c0 .008-.002.02-.006.035l-.292.807a.083.083 0 01-.037.042.109.109 0 01-.11 0 .076.076 0 01-.035-.042l-.226-.639-.23.639a.082.082 0 01-.036.042.109.109 0 01-.11 0 .078.078 0 01-.034-.042l-.292-.807a.112.112 0 01-.007-.035c0-.023.008-.041.025-.055a.094.094 0 01.06-.02.09.09 0 01.048.014.075.075 0 01.031.04l.231.663.238-.659a.082.082 0 01.031-.042.077.077 0 01.095 0 .08.08 0 01.033.044l.23.665.236-.67zM54.55 68.235c.015 0 .027.006.036.018.01.012.015.028.015.047 0 .029-.016.052-.05.071a.479.479 0 01-.216.057.346.346 0 01-.254-.092.337.337 0 01-.094-.252c0-.068.014-.128.041-.18a.298.298 0 01.114-.123.33.33 0 01.169-.043c.06 0 .111.013.156.04a.268.268 0 01.103.11.369.369 0 01.037.17c0 .039-.017.058-.052.058h-.4c.005.063.023.109.052.138.03.03.074.044.13.044a.242.242 0 00.077-.011.724.724 0 00.076-.03.15.15 0 01.06-.022zm-.235-.378a.148.148 0 00-.112.043.207.207 0 00-.049.125h.307c-.001-.055-.015-.097-.04-.125a.134.134 0 00-.106-.043zM55.127 67.738a.28.28 0 01.154.042.277.277 0 01.103.12.403.403 0 01.038.18.42.42 0 01-.038.183.282.282 0 01-.105.121.272.272 0 01-.152.044.264.264 0 01-.129-.031.214.214 0 01-.085-.087v.034a.076.076 0 01-.023.058.086.086 0 01-.062.022.086.086 0 01-.06-.022.079.079 0 01-.022-.058v-.81c0-.024.007-.043.023-.058a.09.09 0 01.062-.022.09.09 0 01.061.02.07.07 0 01.023.056v.32a.198.198 0 01.086-.082c.037-.02.08-.03.126-.03zm-.044.558a.15.15 0 00.124-.056.253.253 0 00.045-.16.239.239 0 00-.045-.156.15.15 0 00-.124-.055.153.153 0 00-.127.056.247.247 0 00-.043.157c0 .069.014.122.043.159.03.037.072.055.127.055zM50.583 69.303a.09.09 0 01.063.022.073.073 0 01.024.057v.81a.076.076 0 01-.023.059.086.086 0 01-.061.022.086.086 0 01-.061-.022.076.076 0 01-.023-.058v-.034a.211.211 0 01-.087.087.257.257 0 01-.128.03.28.28 0 01-.154-.043.295.295 0 01-.104-.122.434.434 0 01-.037-.183c0-.069.012-.129.037-.18a.287.287 0 01.104-.12.282.282 0 01.154-.041c.048 0 .09.01.128.03.037.02.065.047.085.084v-.322a.07.07 0 01.022-.054.086.086 0 01.061-.022zm-.251.842a.15.15 0 00.125-.055.247.247 0 00.044-.16c0-.068-.014-.12-.044-.156a.148.148 0 00-.124-.056.155.155 0 00-.126.054.239.239 0 00-.045.156c0 .069.015.122.045.16a.15.15 0 00.125.057zM51.37 70.084c.016 0 .028.006.037.018a.07.07 0 01.015.047c0 .028-.017.052-.05.07a.472.472 0 01-.216.058.347.347 0 01-.254-.093.338.338 0 01-.094-.252c0-.067.014-.128.04-.18a.298.298 0 01.115-.122.328.328 0 01.168-.043c.06 0 .112.013.156.039a.266.266 0 01.104.111.368.368 0 01.036.17c0 .038-.017.058-.051.058h-.401c.005.062.023.108.053.138.03.029.073.044.13.044a.242.242 0 00.076-.011.728.728 0 00.076-.03.151.151 0 01.06-.022zm-.235-.378a.148.148 0 00-.111.043.207.207 0 00-.049.125h.307c-.002-.055-.015-.097-.04-.125a.133.133 0 00-.107-.043zM52.019 69.638a.085.085 0 01.028-.037.074.074 0 01.041-.012c.02 0 .04.008.056.022.017.013.026.03.026.051 0 .011-.003.022-.009.033l-.25.525a.088.088 0 01-.036.039.09.09 0 01-.05.014.102.102 0 01-.05-.014.088.088 0 01-.035-.04l-.252-.524a.067.067 0 01-.007-.031c0-.02.008-.039.026-.053a.095.095 0 01.06-.022c.033 0 .057.016.073.048l.19.419.189-.418zM52.786 70.084c.015 0 .027.006.036.018a.07.07 0 01.015.047c0 .028-.017.052-.05.07a.472.472 0 01-.216.058.347.347 0 01-.254-.093.338.338 0 01-.094-.252c0-.067.014-.128.041-.18a.298.298 0 01.114-.122.328.328 0 01.169-.043c.06 0 .111.013.156.039a.266.266 0 01.103.111.368.368 0 01.037.17c0 .038-.018.058-.052.058h-.4c.005.062.022.108.052.138.03.029.074.044.13.044a.242.242 0 00.077-.011.728.728 0 00.076-.03.151.151 0 01.06-.022zm-.235-.378a.148.148 0 00-.112.043.207.207 0 00-.049.125h.307c-.002-.055-.015-.097-.04-.125a.133.133 0 00-.106-.043zM53.066 70.274a.092.092 0 01-.061-.02.08.08 0 01-.024-.061v-.81c0-.026.008-.046.024-.06a.092.092 0 01.06-.02c.025 0 .046.007.062.02.016.014.024.034.024.06v.81a.077.077 0 01-.024.06.092.092 0 01-.061.021zM53.63 70.277a.369.369 0 01-.18-.042.292.292 0 01-.118-.121.382.382 0 01-.042-.183c0-.07.014-.13.042-.182a.293.293 0 01.118-.12.37.37 0 01.18-.042c.067 0 .127.014.177.042a.282.282 0 01.118.12.375.375 0 01.043.182c0 .07-.015.13-.043.183a.282.282 0 01-.118.12.361.361 0 01-.178.043zm-.002-.132c.055 0 .097-.018.126-.054.03-.036.044-.09.044-.16a.25.25 0 00-.044-.159.15.15 0 00-.125-.055.153.153 0 00-.126.055.25.25 0 00-.044.159c0 .07.015.124.044.16a.15.15 0 00.125.054zM54.49 69.587a.272.272 0 01.256.166.412.412 0 01.038.182.403.403 0 01-.038.18.278.278 0 01-.103.12.28.28 0 01-.154.042.263.263 0 01-.126-.03.209.209 0 01-.086-.083v.277a.07.07 0 01-.023.055.089.089 0 01-.06.02.09.09 0 01-.063-.021.074.074 0 01-.023-.057v-.769c0-.024.007-.044.021-.058a.085.085 0 01.062-.022c.025 0 .045.008.06.022a.076.076 0 01.024.058v.034a.204.204 0 01.085-.085.264.264 0 01.13-.031zm-.046.558a.153.153 0 00.125-.054.242.242 0 00.045-.156.253.253 0 00-.045-.16.15.15 0 00-.125-.057.153.153 0 00-.126.056.252.252 0 00-.043.158c0 .068.014.12.043.158.03.037.072.055.127.055zM55.712 69.587c.073 0 .128.021.166.065.04.042.059.111.059.207v.334a.077.077 0 01-.025.06.089.089 0 01-.06.021.092.092 0 01-.062-.02.08.08 0 01-.023-.061v-.334c0-.05-.01-.085-.027-.106-.018-.021-.044-.032-.08-.032a.132.132 0 00-.106.046.18.18 0 00-.04.123v.303a.077.077 0 01-.024.06.087.087 0 01-.06.021.092.092 0 01-.061-.02.077.077 0 01-.025-.061v-.334c0-.05-.009-.085-.027-.106-.017-.021-.044-.032-.08-.032a.132.132 0 00-.106.046.184.184 0 00-.038.123v.303a.077.077 0 01-.024.06.092.092 0 01-.061.021.092.092 0 01-.062-.02.08.08 0 01-.023-.061v-.525c0-.025.008-.045.025-.058a.093.093 0 01.061-.02.08.08 0 01.057.02c.015.012.023.03.023.055v.033a.213.213 0 01.083-.083.252.252 0 01.12-.028c.1 0 .167.041.2.124a.224.224 0 01.089-.09.257.257 0 01.131-.034zM56.635 70.084c.015 0 .028.006.037.018a.07.07 0 01.015.047c0 .028-.017.052-.05.07a.472.472 0 01-.217.058.346.346 0 01-.254-.093.338.338 0 01-.093-.252c0-.067.013-.128.04-.18a.297.297 0 01.114-.122.328.328 0 01.169-.043c.06 0 .112.013.156.039a.266.266 0 01.103.111.368.368 0 01.037.17c0 .038-.017.058-.052.058h-.4c.005.062.023.108.053.138.03.029.073.044.13.044a.242.242 0 00.076-.011.728.728 0 00.076-.03.151.151 0 01.06-.022zm-.235-.378a.148.148 0 00-.111.043.207.207 0 00-.05.125h.308c-.002-.055-.016-.097-.041-.125a.133.133 0 00-.106-.043zM57.217 69.587c.08 0 .139.022.178.067.038.046.058.114.058.205v.334a.078.078 0 01-.023.06.083.083 0 01-.061.021.088.088 0 01-.063-.022.078.078 0 01-.023-.06v-.323c0-.052-.01-.09-.03-.113-.019-.023-.05-.035-.09-.035a.158.158 0 00-.119.046.173.173 0 00-.043.123v.303a.078.078 0 01-.023.06.088.088 0 01-.063.021.088.088 0 01-.063-.022.08.08 0 01-.021-.06v-.524c0-.024.008-.043.023-.057a.087.087 0 01.062-.022c.024 0 .043.008.057.022a.069.069 0 01.023.054v.037a.23.23 0 01.091-.086.274.274 0 01.13-.03zM57.97 70.148c.046.003.068.023.068.06a.056.056 0 01-.027.051.127.127 0 01-.075.014l-.036-.003c-.152-.011-.228-.092-.228-.244v-.296h-.068a.089.089 0 01-.057-.016c-.013-.01-.02-.027-.02-.047 0-.021.007-.037.02-.048a.09.09 0 01.057-.016h.068v-.125c0-.024.007-.044.023-.058a.088.088 0 01.062-.022c.025 0 .046.007.061.022a.076.076 0 01.023.058v.125h.116c.024 0 .043.005.055.016.014.011.02.027.02.048 0 .02-.006.036-.02.047-.012.01-.03.016-.055.016h-.116v.308c0 .067.031.103.093.107l.036.003z" fill="#fff"/><g clip-path="url(#clip1)" fill="#fff"><path d="M91.805 81.344a.059.059 0 00.058-.059.059.059 0 00-.058-.06h-.112a.059.059 0 00-.059.06c0 .033.026.06.06.06h.11z"/><path d="M92.73 80.574h-3.821a.192.192 0 00-.19.19v2.412c0 .033.026.06.058.06.033 0 .06-.027.06-.06v-1.833h2.6c.033 0 .06-.026.06-.059a.059.059 0 00-.06-.059h-2.604v-.461c0-.04.033-.072.076-.076h3.82c.04 0 .073.033.076.076v.465h-.741a.059.059 0 100 .118h.738v2.648c0 .04-.033.072-.076.075H88.91c-.04 0-.073-.033-.076-.075v-.36a.059.059 0 00-.059-.06.053.053 0 00-.056.056v.36c0 .105.086.187.19.19h3.822a.192.192 0 00.19-.19v-3.227a.197.197 0 00-.19-.19z"/><path d="M90.817 81.57c-.337 0-.655.147-.872.406l-.01.01v.003a1.137 1.137 0 000 1.437v.003l.01.01a1.136 1.136 0 001.742.003 1.132 1.132 0 000-1.467 1.132 1.132 0 00-.87-.405zm1.024 1.077h-.38a1.824 1.824 0 00-.063-.442 1.23 1.23 0 00.24-.112c.12.16.19.354.203.554zm-.204.67a1.326 1.326 0 00-.239-.11c.04-.145.059-.295.062-.442h.38c-.012.2-.081.39-.203.553zm-1.843-.556h.38c.004.15.023.298.063.442a1.23 1.23 0 00-.24.111c-.12-.16-.19-.35-.203-.553zm.204-.668c.075.046.157.082.239.112-.04.144-.06.294-.062.442h-.38c.012-.2.081-.393.203-.554zm.878.203c.138-.003.276-.023.41-.059.037.135.056.272.06.41h-.47v-.35zm0-.114v-.491c.155.032.292.203.378.442a1.87 1.87 0 01-.378.049zm-.114-.495v.495a1.64 1.64 0 01-.377-.053c.085-.239.22-.406.377-.442zm0 .61v.35h-.473c.004-.138.023-.275.06-.41.134.037.272.056.413.06zm-.473.464h.47v.35a1.743 1.743 0 00-.41.06 1.713 1.713 0 01-.06-.41zm.473.465v.495c-.154-.033-.292-.204-.377-.443.12-.029.249-.045.377-.052zm.114.495v-.495c.128.003.253.02.378.052-.089.24-.223.41-.378.442zm0-.61v-.35h.47a1.741 1.741 0 01-.06.41 2.164 2.164 0 00-.41-.06zm.686-1.106a1.104 1.104 0 01-.2.092 1.082 1.082 0 00-.2-.354c.154.056.292.144.4.262zm-1.092-.262a1.05 1.05 0 00-.2.354 1.218 1.218 0 01-.2-.092c.111-.118.249-.206.4-.262zm-.397 1.663c.062-.036.131-.069.2-.092.043.128.112.25.2.354a1.037 1.037 0 01-.4-.262zm1.092.262c.089-.105.157-.223.2-.354.07.023.135.056.2.092-.111.115-.249.206-.4.262zM89.086 80.902a.059.059 0 00-.06.059c0 .033.027.06.06.06h.196a.059.059 0 00.059-.06.059.059 0 00-.059-.06h-.196zM89.637 80.902a.059.059 0 00-.06.059c0 .033.027.06.06.06h.196a.059.059 0 00.059-.06.059.059 0 00-.059-.06h-.196zM90.191 80.902a.059.059 0 00-.059.059c0 .033.026.06.059.06h.196a.059.059 0 00.06-.06.059.059 0 00-.06-.06h-.196z"/></g><path d="M98.85 80.976a.078.078 0 01.029-.04.088.088 0 01.047-.015c.022 0 .04.007.056.02a.067.067 0 01.025.055c0 .008-.003.02-.007.035l-.292.807a.083.083 0 01-.037.042.109.109 0 01-.11 0 .076.076 0 01-.035-.042l-.226-.639-.23.639a.082.082 0 01-.036.042.11.11 0 01-.11 0 .078.078 0 01-.034-.042l-.292-.807a.112.112 0 01-.007-.035c0-.022.009-.04.025-.054a.094.094 0 01.06-.02.09.09 0 01.049.013.075.075 0 01.03.04l.232.664.237-.66a.082.082 0 01.032-.041.077.077 0 01.095 0 .08.08 0 01.032.043l.231.666.235-.671zM99.589 81.704c.015 0 .028.006.037.017.01.012.015.028.015.048 0 .028-.017.051-.05.07a.484.484 0 01-.217.057.346.346 0 01-.254-.092.338.338 0 01-.093-.252c0-.068.013-.128.04-.18a.298.298 0 01.115-.122.33.33 0 01.168-.044c.06 0 .112.013.156.04a.268.268 0 01.103.11.369.369 0 01.037.17c0 .039-.017.059-.052.059h-.4c.005.062.023.108.053.138.03.029.073.043.13.043a.242.242 0 00.076-.01.734.734 0 00.076-.03.149.149 0 01.06-.022zm-.235-.378a.148.148 0 00-.111.043.207.207 0 00-.05.125h.308c-.002-.055-.016-.097-.041-.125a.134.134 0 00-.106-.043zM100.167 81.206c.058 0 .109.014.153.042a.277.277 0 01.103.12.395.395 0 01.038.18c0 .069-.012.13-.038.183a.274.274 0 01-.256.165.264.264 0 01-.129-.03.21.21 0 01-.086-.088v.034a.076.076 0 01-.023.059.085.085 0 01-.061.021.085.085 0 01-.061-.021.079.079 0 01-.022-.059v-.81c0-.024.008-.043.023-.057a.09.09 0 01.063-.022c.025 0 .045.007.06.02a.07.07 0 01.024.056v.32a.2.2 0 01.085-.083c.037-.02.08-.03.127-.03zm-.045.559a.15.15 0 00.125-.057.252.252 0 00.045-.16.238.238 0 00-.045-.156.151.151 0 00-.125-.054.152.152 0 00-.126.055.247.247 0 00-.044.158c0 .068.014.121.044.158.029.037.071.056.126.056zM95.622 82.772a.09.09 0 01.063.021.073.073 0 01.024.057v.811a.076.076 0 01-.023.058.086.086 0 01-.06.022.086.086 0 01-.062-.022.076.076 0 01-.023-.058v-.034a.211.211 0 01-.087.087.257.257 0 01-.128.031.279.279 0 01-.258-.165.434.434 0 01-.037-.183c0-.07.013-.13.037-.18a.287.287 0 01.105-.12.281.281 0 01.153-.042c.048 0 .09.01.128.03.037.02.066.048.086.084v-.322a.07.07 0 01.021-.054.086.086 0 01.061-.021zm-.25.841a.15.15 0 00.124-.055.247.247 0 00.045-.159c0-.068-.015-.12-.045-.157a.148.148 0 00-.124-.056.155.155 0 00-.126.055.239.239 0 00-.045.156c0 .068.015.122.045.16a.15.15 0 00.125.056zM96.41 83.552c.015 0 .027.006.036.018a.07.07 0 01.015.048c0 .028-.017.051-.05.07a.472.472 0 01-.216.057.346.346 0 01-.254-.092.338.338 0 01-.094-.252c0-.068.014-.128.041-.18a.297.297 0 01.114-.123.328.328 0 01.169-.043c.06 0 .111.013.156.04a.266.266 0 01.103.11.367.367 0 01.037.17c0 .039-.018.058-.052.058h-.4c.005.063.022.109.052.138.03.03.074.044.13.044a.239.239 0 00.077-.011.704.704 0 00.076-.03.151.151 0 01.06-.022zm-.235-.378a.148.148 0 00-.112.044.207.207 0 00-.049.124h.307c-.001-.055-.015-.096-.04-.124a.133.133 0 00-.106-.044zM97.058 83.106a.084.084 0 01.029-.036.073.073 0 01.04-.012c.021 0 .04.007.056.021.017.014.026.031.026.052 0 .01-.003.022-.008.032l-.252.525a.088.088 0 01-.035.04.09.09 0 01-.049.013.102.102 0 01-.05-.014.088.088 0 01-.035-.039l-.253-.525a.068.068 0 01-.007-.03c0-.021.009-.04.026-.054a.095.095 0 01.061-.021c.033 0 .057.015.072.047l.19.42.19-.419zM97.825 83.552c.015 0 .028.006.037.018a.07.07 0 01.014.048c0 .028-.016.051-.05.07a.472.472 0 01-.216.057.346.346 0 01-.254-.092.338.338 0 01-.093-.252c0-.068.013-.128.04-.18a.297.297 0 01.114-.123.328.328 0 01.169-.043c.06 0 .112.013.156.04a.266.266 0 01.103.11.367.367 0 01.037.17c0 .039-.017.058-.052.058h-.4c.005.063.023.109.053.138.03.03.073.044.13.044a.239.239 0 00.076-.011.704.704 0 00.076-.03.151.151 0 01.06-.022zm-.235-.378a.148.148 0 00-.112.044.207.207 0 00-.048.124h.307c-.002-.055-.016-.096-.041-.124a.133.133 0 00-.106-.044zM98.105 83.742a.092.092 0 01-.061-.02.08.08 0 01-.023-.061v-.81c0-.026.007-.046.023-.059a.092.092 0 01.061-.02c.024 0 .045.006.061.02.016.013.025.033.025.06v.809a.077.077 0 01-.025.061.092.092 0 01-.061.02zM98.669 83.745a.37.37 0 01-.18-.042.292.292 0 01-.118-.12.382.382 0 01-.042-.184c0-.07.014-.13.042-.181a.292.292 0 01.118-.121.37.37 0 01.18-.042c.068 0 .127.014.178.042a.282.282 0 01.118.12.374.374 0 01.042.182c0 .07-.014.13-.042.183a.282.282 0 01-.118.121.362.362 0 01-.178.042zm-.002-.132c.055 0 .097-.017.126-.054.03-.036.044-.09.044-.16s-.014-.122-.044-.158a.15.15 0 00-.124-.056.153.153 0 00-.127.056.25.25 0 00-.043.158c0 .07.014.124.043.16a.15.15 0 00.125.055zM99.529 83.055c.057 0 .107.014.152.043a.28.28 0 01.104.124.412.412 0 01.038.181.403.403 0 01-.038.18.278.278 0 01-.103.12.281.281 0 01-.153.042.263.263 0 01-.127-.03.21.21 0 01-.085-.083v.277a.07.07 0 01-.023.056.09.09 0 01-.061.02.09.09 0 01-.063-.022.074.074 0 01-.023-.057v-.768c0-.025.007-.044.022-.059a.085.085 0 01.06-.021c.026 0 .046.007.062.021a.076.076 0 01.023.059v.034a.204.204 0 01.086-.086.264.264 0 01.129-.031zm-.045.558a.153.153 0 00.125-.054.242.242 0 00.045-.156.253.253 0 00-.045-.16.15.15 0 00-.125-.056.153.153 0 00-.126.055.252.252 0 00-.044.159c0 .068.015.12.044.157.03.037.072.055.126.055zM100.752 83.055c.072 0 .128.022.166.065.038.042.058.112.058.207v.334a.078.078 0 01-.024.061.091.091 0 01-.062.02.094.094 0 01-.061-.02.081.081 0 01-.023-.061v-.334c0-.05-.009-.084-.027-.105-.017-.022-.044-.033-.08-.033a.131.131 0 00-.106.046.181.181 0 00-.039.124v.302a.079.079 0 01-.025.061.086.086 0 01-.06.02.092.092 0 01-.061-.02.078.078 0 01-.024-.061v-.334c0-.05-.009-.084-.027-.105-.018-.022-.044-.033-.081-.033a.13.13 0 00-.105.046.181.181 0 00-.039.124v.302a.078.078 0 01-.024.061.092.092 0 01-.061.02.091.091 0 01-.061-.02.08.08 0 01-.023-.061v-.525c0-.025.008-.044.024-.058a.092.092 0 01.061-.02c.024 0 .043.006.057.02.016.013.023.031.023.056v.032a.219.219 0 01.204-.111c.1 0 .166.041.2.125a.223.223 0 01.088-.091.258.258 0 01.132-.034zM101.674 83.552c.016 0 .028.006.037.018a.07.07 0 01.015.048c0 .028-.017.051-.05.07a.48.48 0 01-.216.057.346.346 0 01-.254-.092.336.336 0 01-.094-.252c0-.068.013-.128.041-.18a.295.295 0 01.114-.123.326.326 0 01.168-.043.3.3 0 01.156.04.268.268 0 01.104.11.374.374 0 01.036.17c0 .039-.017.058-.051.058h-.401c.005.063.023.109.053.138.03.03.073.044.13.044a.236.236 0 00.076-.011.672.672 0 00.076-.03.155.155 0 01.06-.022zm-.235-.378a.147.147 0 00-.111.044.205.205 0 00-.049.124h.307a.193.193 0 00-.041-.124.133.133 0 00-.106-.044zM102.256 83.055c.08 0 .139.023.178.068.039.045.058.113.058.204v.334a.08.08 0 01-.023.06c-.014.014-.035.021-.061.021a.09.09 0 01-.063-.021.08.08 0 01-.023-.06v-.324c0-.052-.01-.09-.029-.113-.02-.023-.05-.035-.091-.035a.16.16 0 00-.119.046.172.172 0 00-.043.124v.302a.08.08 0 01-.023.06.089.089 0 01-.063.021.086.086 0 01-.062-.021.078.078 0 01-.022-.06v-.525c0-.023.008-.042.023-.057a.089.089 0 01.063-.021c.023 0 .042.007.057.021a.07.07 0 01.023.055v.036a.225.225 0 01.091-.085.274.274 0 01.129-.03zM103.01 83.616c.045.003.068.023.068.061 0 .022-.01.039-.028.05a.125.125 0 01-.074.014l-.037-.003c-.152-.01-.228-.092-.228-.244V83.2h-.068c-.025 0-.044-.006-.057-.017-.013-.01-.019-.026-.019-.047 0-.02.006-.037.019-.047.013-.011.032-.017.057-.017h.068v-.124c0-.025.007-.044.023-.059a.086.086 0 01.062-.022c.026 0 .046.008.061.022a.075.075 0 01.024.058v.125h.115c.024 0 .043.006.056.017.013.01.02.026.02.047 0 .02-.007.037-.02.047a.086.086 0 01-.056.017h-.115v.307c0 .067.03.103.092.108l.037.002z" fill="#fff"/><path fill-rule="evenodd" clip-rule="evenodd" d="M105.141 93.906a.302.302 0 01-.302.301H41.882a.302.302 0 010-.603h62.957c.167 0 .302.135.302.302zM76.498 99.333a.302.302 0 01-.302.302h-6.684a.302.302 0 010-.603h6.684c.167 0 .302.135.302.301zM105.141 99.333a.302.302 0 01-.302.302h-3.141a.302.302 0 110-.603h3.141c.167 0 .302.135.302.301zM97.752 99.333a.302.302 0 01-.301.302H80.038a.302.302 0 010-.603h17.413c.167 0 .302.135.302.301zM64.859 99.333a.302.302 0 01-.302.302H41.882a.302.302 0 010-.603h22.675c.167 0 .302.135.302.301zM77.004 104.761a.301.301 0 01-.301.301H41.88a.301.301 0 110-.603h34.822c.166 0 .301.135.301.302zM105.141 104.761a.301.301 0 01-.301.301H82.872a.301.301 0 110-.603h21.968c.166 0 .301.135.301.302zM74.98 110.188a.302.302 0 01-.302.302H71.03a.302.302 0 010-.603h3.648c.167 0 .302.135.302.301zM67.693 110.188a.302.302 0 01-.302.302h-3.648a.302.302 0 010-.603h3.648c.167 0 .302.135.302.301zM60.405 110.188a.302.302 0 01-.301.302h-3.648a.302.302 0 010-.603h3.648c.166 0 .301.135.301.301zM53.118 110.188a.302.302 0 01-.301.302h-3.648a.302.302 0 010-.603h3.648c.166 0 .301.135.301.301zM105.141 110.188a.302.302 0 01-.302.302H78.318a.302.302 0 010-.603h26.521c.167 0 .302.135.302.301zM45.83 110.188a.302.302 0 01-.3.302h-3.648a.302.302 0 010-.603h3.647c.167 0 .302.135.302.301z" fill="#212936"/><g filter="url(#filter0_d)"><path d="M47 50h13v13H47V50z" fill="#233044"/><path d="M47 58.106h13V63H47v-4.894z" fill="#fff"/></g><path fill-rule="evenodd" clip-rule="evenodd" d="M60 50.459H47v-.077h13v.077zM60 50.917H47v-.076h13v.076zM60 51.377H47V51.3h13v.077zM60 51.835H47v-.076h13v.076zM60 52.294H47v-.076h13v.076zM60 52.753H47v-.077h13v.077zM60 53.212H47v-.077h13v.077zM60 53.67H47v-.076h13v.076zM60 54.13H47v-.077h13v.076zM60 54.588H47v-.076h13v.076zM60 55.047H47v-.076h13v.076zM60 55.506H47v-.077h13v.077zM60 55.965H47v-.077h13v.077zM60 56.423H47v-.076h13v.076zM60 56.882H47v-.076h13v.076zM60 57.341H47v-.076h13v.076z" fill="#fff" fill-opacity=".04"/><path d="M54.655 52.714a.07.07 0 00.07-.074.07.07 0 00-.07-.073h-.13a.07.07 0 00-.07.073c0 .041.031.074.07.074h.13z" fill="#fff"/><path fill-rule="evenodd" clip-rule="evenodd" d="M54.739 52.64c0 .05-.038.089-.084.089h-.13a.086.086 0 01-.084-.089c0-.049.037-.088.084-.088h.13c.046 0 .084.04.084.088zm-.015 0a.07.07 0 01-.069.074h-.13a.07.07 0 01-.07-.074c0-.04.031-.073.07-.073h.13a.07.07 0 01.07.073z" fill="#fff"/><path d="M55.739 51.76h-4.47a.232.232 0 00-.223.235v2.994c0 .041.031.074.07.074a.07.07 0 00.069-.074v-2.275h3.042a.07.07 0 00.07-.073.07.07 0 00-.07-.073h-3.046v-.573c0-.048.038-.089.088-.093h4.47c.046 0 .084.04.088.093v.577h-.867a.07.07 0 00-.07.073c0 .041.032.073.07.073h.863v3.287c0 .049-.038.09-.088.093h-4.466c-.046 0-.084-.04-.088-.093v-.447a.07.07 0 00-.07-.073c-.038 0-.065.029-.065.07V56c0 .13.1.232.223.236h4.47c.123 0 .219-.106.222-.236v-4.006a.237.237 0 00-.222-.235z" fill="#fff"/><path fill-rule="evenodd" clip-rule="evenodd" d="M51.267 51.743h4.47v.016h-4.47a.232.232 0 00-.222.235v2.995c0 .04.03.073.069.073a.07.07 0 00.069-.073v-2.275h3.042a.07.07 0 00.07-.074.07.07 0 00-.07-.073H51.18v-.573c0-.048.038-.089.088-.093h4.47c.046 0 .084.04.088.093v.577h-.867a.07.07 0 00-.069.073c0 .041.03.074.07.074h.862v3.286c0 .049-.038.09-.088.093h-4.466c-.046 0-.084-.04-.088-.093v-.447a.07.07 0 00-.07-.073c-.038 0-.064.029-.064.07V56c0 .13.1.232.222.236h4.47c.123 0 .219-.106.222-.236v-4.006a.237.237 0 00-.222-.235v-.016a.253.253 0 01.237.251v4.007c-.004.137-.106.25-.237.25h-4.47A.247.247 0 0151.03 56v-.447c0-.024.008-.045.023-.06a.077.077 0 01.057-.024c.046 0 .083.04.083.088v.447c.004.045.037.078.074.078h4.466a.08.08 0 00.074-.078v-3.271h-.849a.086.086 0 01-.083-.089c0-.049.037-.088.083-.088h.853v-.56c-.004-.047-.037-.08-.074-.08h-4.47a.08.08 0 00-.074.078v.558h3.032c.047 0 .084.04.084.088a.086.086 0 01-.084.089h-3.028v2.26c0 .049-.037.088-.083.088a.086.086 0 01-.084-.088v-2.995c0-.138.107-.246.237-.25z" fill="#fff"/><path d="M53.5 52.994c-.395 0-.767.183-1.02.504l-.012.012v.004a1.478 1.478 0 000 1.783v.004l.012.012a1.277 1.277 0 001.872.175c.058-.053.115-.11.165-.17a1.471 1.471 0 000-1.82 1.295 1.295 0 00-1.017-.504zm1.197 1.336h-.445a2.38 2.38 0 00-.073-.548c.1-.037.192-.081.28-.138.142.199.223.439.238.686zm-.238.833a1.518 1.518 0 00-.28-.138 2.41 2.41 0 00.073-.548h.445a1.336 1.336 0 01-.238.686zm-2.156-.69h.445c.004.186.027.37.073.548-.1.036-.192.081-.28.138a1.311 1.311 0 01-.238-.687zm.238-.83c.088.058.184.102.28.139a2.41 2.41 0 00-.073.548h-.445c.016-.247.096-.487.238-.686zm1.028.253a1.93 1.93 0 00.48-.074c.042.167.065.338.069.508h-.549v-.434zm0-.142v-.61c.18.04.342.252.441.549a2.06 2.06 0 01-.44.06zm-.134-.614v.614a1.815 1.815 0 01-.441-.066c.1-.296.257-.503.441-.548zm0 .756v.434h-.553c.004-.17.027-.34.07-.508.157.045.318.07.483.074zm-.553.576h.55v.435a1.935 1.935 0 00-.48.073 2.243 2.243 0 01-.07-.508zm.553.577v.614c-.18-.04-.342-.252-.441-.549.142-.036.291-.056.441-.065zm.134.614v-.614c.15.004.296.025.441.065-.103.297-.26.508-.44.549zm0-.756v-.434h.549c-.004.17-.027.34-.07.507a2.406 2.406 0 00-.479-.073zm.802-1.373a1.255 1.255 0 01-.234.114 1.368 1.368 0 00-.234-.439c.18.07.342.179.468.325zm-1.278-.325c-.103.13-.184.276-.234.439a1.385 1.385 0 01-.234-.114c.13-.146.292-.256.468-.325zm-.464 2.064c.073-.045.154-.086.234-.114.05.159.13.309.234.439a1.21 1.21 0 01-.468-.325zm1.278.325c.104-.13.184-.276.234-.439.08.029.157.07.234.114a1.27 1.27 0 01-.468.325z" fill="#fff"/><path fill-rule="evenodd" clip-rule="evenodd" d="M52.468 53.51l.011-.012a1.297 1.297 0 011.021-.504 1.295 1.295 0 011.036.528 1.472 1.472 0 010 1.771 1.696 1.696 0 01-.184.195c-.564.5-1.4.423-1.872-.175l-.012-.012v-.004a1.478 1.478 0 010-1.783v-.004zm-.014-.002v-.005l.015-.016a1.311 1.311 0 011.031-.509 1.31 1.31 0 011.048.535 1.487 1.487 0 010 1.789c-.005.01-.013.018-.02.025v.001c-.051.061-.109.119-.167.172a1.291 1.291 0 01-1.892-.176l-.015-.016v-.005c-.4-.524-.4-1.27 0-1.795zm.98.388a1.942 1.942 0 01-.482-.073 2.274 2.274 0 00-.069.492v.015h.552v-.434zm-.014.42v-.405a1.95 1.95 0 01-.458-.07c-.039.156-.06.315-.065.474h.523zm-.537.172v-.016h.548v.435a1.936 1.936 0 00-.48.073c0-.005-.002-.01-.003-.014a2.236 2.236 0 01-.065-.478zm.014 0c.005.163.026.318.065.474.15-.042.302-.065.455-.07v-.404h-.52zm1.464-.965l.01.011-.013.008a1.259 1.259 0 01-.22.106h-.001a1.366 1.366 0 00-.234-.439l.027.01c.165.068.312.17.431.304zm-.013.007a1.151 1.151 0 00-.4-.286c.085.117.153.247.198.384.07-.025.138-.06.202-.098zm-1.709 1.754a1.153 1.153 0 01-.01-.011 1.266 1.266 0 01.22-.109l.014-.005a1.366 1.366 0 00.234.439 1.21 1.21 0 01-.458-.314zm.013-.008c.111.121.248.22.4.287a1.386 1.386 0 01-.198-.385c-.069.026-.138.06-.202.098zm1.282.31l-.027.012a1.322 1.322 0 00.234-.439l.014.005c.07.026.139.062.207.101l.013.008a1.275 1.275 0 01-.44.314zm.019-.024c.148-.066.284-.165.398-.285a1.35 1.35 0 00-.201-.098c-.045.14-.112.267-.197.383zm.744-1.232v-.015a1.321 1.321 0 00-.238-.671c-.088.057-.18.101-.28.138.046.179.07.362.073.548h.445zm-.015-.015h-.416a2.401 2.401 0 00-.07-.523c.092-.035.178-.076.26-.128.132.19.208.416.226.651zm-.227.828c.133-.194.21-.417.227-.651h-.416a2.428 2.428 0 01-.07.524c.089.034.177.075.26.127zm-.276-.118c.096.037.192.081.28.138.14-.199.22-.429.237-.671l.001-.015h-.445a2.41 2.41 0 01-.073.548zm-1.876-.553l.001.016c.018.246.098.476.237.671.088-.057.18-.102.28-.138a2.387 2.387 0 01-.073-.549h-.445zm.016.016c.017.238.093.46.226.65a1.41 1.41 0 01.259-.127 2.395 2.395 0 01-.07-.523h-.416zm.226-.824c-.133.19-.21.416-.227.651h.416c.005-.174.027-.352.07-.523a1.516 1.516 0 01-.26-.128zm.276.118a1.505 1.505 0 01-.28-.138c-.14.195-.22.429-.237.671l-.001.015h.445c.004-.182.027-.37.073-.548zm.763.129v.404h.519a2.264 2.264 0 00-.065-.474c-.149.041-.302.065-.454.07zm.465-.088a1.94 1.94 0 01-.48.073v.434h.549v-.015a2.274 2.274 0 00-.066-.478l-.003-.014zm-.48-.07h.015c.136-.005.276-.024.412-.057l.014-.003-.005-.015c-.097-.281-.25-.483-.421-.53a.379.379 0 00-.015-.004v.61zm.015-.59c.08.024.156.082.225.17.071.089.134.209.182.349a2.048 2.048 0 01-.407.056v-.574zm-.15-.023a.258.258 0 00-.014.004c-.175.05-.324.249-.421.53l-.005.014.014.004c.136.037.273.056.412.061h.015v-.613zm-.014.02v.578a1.794 1.794 0 01-.407-.06c.096-.277.241-.468.407-.518zm.015 1.89h-.015c-.14.009-.28.028-.412.06l-.014.004.005.015c.097.281.25.483.421.53l.015.004v-.614zm-.015.016a2.257 2.257 0 00-.407.06c.048.14.11.259.182.349a.467.467 0 00.225.168v-.577zm.15.597a.252.252 0 00.014-.004c.171-.047.32-.25.421-.53l.005-.015-.014-.003a1.806 1.806 0 00-.427-.062v.614zm.014-.02a.463.463 0 00.223-.168c.071-.09.134-.21.184-.35a1.791 1.791 0 00-.407-.06v.578zm-.015-.736v-.434h.549v.015a2.278 2.278 0 01-.07.492 2.405 2.405 0 00-.479-.073zm.47.055a2.26 2.26 0 00.064-.474h-.52v.405c.153.008.306.031.455.069zm-.946-1.753l-.027.011a1.224 1.224 0 00-.44.314l.012.008a1.39 1.39 0 00.221.106l.005-.015a1.32 1.32 0 01.23-.424zm-.045.036a1.208 1.208 0 00-.4.285c.067.038.134.073.202.098a1.33 1.33 0 01.198-.383z" fill="#fff"/><path d="M51.474 52.165a.07.07 0 00-.069.073c0 .04.031.073.07.073h.23a.07.07 0 00.069-.073.07.07 0 00-.07-.073h-.23z" fill="#fff"/><path fill-rule="evenodd" clip-rule="evenodd" d="M51.39 52.238c0-.049.038-.088.084-.088h.23c.047 0 .084.04.084.088 0 .05-.037.089-.083.089h-.23a.086.086 0 01-.084-.089zm.015 0c0-.04.031-.073.07-.073h.23a.07.07 0 01.069.073.07.07 0 01-.07.073h-.23a.07.07 0 01-.069-.073z" fill="#fff"/><path d="M52.119 52.165a.07.07 0 00-.07.073c0 .04.032.073.07.073h.23a.07.07 0 00.07-.073.07.07 0 00-.07-.073h-.23z" fill="#fff"/><path fill-rule="evenodd" clip-rule="evenodd" d="M52.035 52.238c0-.049.038-.088.084-.088h.23c.047 0 .084.04.084.088 0 .05-.038.089-.084.089h-.23a.086.086 0 01-.084-.089zm.015 0c0-.04.03-.073.069-.073h.23a.07.07 0 01.07.073.07.07 0 01-.07.073h-.23a.07.07 0 01-.07-.073z" fill="#fff"/><path d="M52.767 52.165a.07.07 0 00-.069.073c0 .04.03.073.07.073h.23a.07.07 0 00.069-.073.07.07 0 00-.07-.073h-.23z" fill="#fff"/><path fill-rule="evenodd" clip-rule="evenodd" d="M52.684 52.238c0-.049.037-.088.083-.088h.23c.047 0 .084.04.084.088 0 .05-.037.089-.083.089h-.23a.086.086 0 01-.084-.089zm.014 0c0-.04.031-.073.07-.073h.23a.07.07 0 01.069.073.07.07 0 01-.07.073h-.23a.07.07 0 01-.069-.073z" fill="#fff"/><path fill-rule="evenodd" clip-rule="evenodd" d="M55.595 58.794h-7.8v-.076h7.8v.076zM55.595 60.553h-7.8v-.077h7.8v.077zM59.278 61.47H47.722v-.076h11.556v.077zM59.278 59.635H55.16v-.076h4.117v.076zM54.078 59.635h-1.372v-.076h1.372v.076zM59.278 60.553h-2.745v-.077h2.745v.077zM51.911 59.635h-4.116v-.076h4.116v.076zM59.278 58.794h-2.383v-.076h2.383v.076z" fill="#000"/><g filter="url(#filter1_d)"><path d="M67 50h13v13H67V50z" fill="#233044"/><path d="M67 58.106h13V63H67v-4.894z" fill="#fff"/></g><path fill-rule="evenodd" clip-rule="evenodd" d="M80 50.459H67v-.077h13v.077zM80 50.917H67v-.076h13v.076zM80 51.377H67V51.3h13v.077zM80 51.835H67v-.076h13v.076zM80 52.294H67v-.076h13v.076zM80 52.753H67v-.077h13v.077zM80 53.212H67v-.077h13v.077zM80 53.67H67v-.076h13v.076zM80 54.13H67v-.077h13v.076zM80 54.588H67v-.076h13v.076zM80 55.047H67v-.076h13v.076zM80 55.506H67v-.077h13v.077zM80 55.965H67v-.077h13v.077zM80 56.423H67v-.076h13v.076zM80 56.882H67v-.076h13v.076zM80 57.341H67v-.076h13v.076z" fill="#fff" fill-opacity=".04"/><path d="M74.655 52.714a.07.07 0 00.07-.074.07.07 0 00-.07-.073h-.13a.07.07 0 00-.07.073c0 .041.031.074.07.074h.13z" fill="#fff"/><path fill-rule="evenodd" clip-rule="evenodd" d="M74.739 52.64c0 .05-.038.089-.084.089h-.13a.086.086 0 01-.084-.089c0-.049.037-.088.084-.088h.13c.046 0 .084.04.084.088zm-.015 0a.07.07 0 01-.069.074h-.13a.07.07 0 01-.07-.074c0-.04.031-.073.07-.073h.13a.07.07 0 01.07.073z" fill="#fff"/><path d="M75.739 51.76h-4.47a.232.232 0 00-.223.235v2.994c0 .04.031.073.07.073a.07.07 0 00.069-.073v-2.275h3.042a.07.07 0 00.07-.073.07.07 0 00-.07-.073h-3.046v-.573c0-.048.038-.09.088-.093h4.47c.046 0 .084.04.088.093v.577h-.867c-.038 0-.07.033-.07.073 0 .04.032.073.07.073h.863v3.287c0 .049-.038.09-.088.093h-4.466c-.046 0-.085-.04-.088-.093v-.447a.07.07 0 00-.07-.073c-.038 0-.065.028-.065.069v.447c0 .13.1.231.223.236h4.47c.123 0 .218-.106.222-.236v-4.006a.238.238 0 00-.222-.235z" fill="#fff"/><path fill-rule="evenodd" clip-rule="evenodd" d="M71.267 51.743h4.47v.016h-4.47a.232.232 0 00-.222.235v2.994c0 .041.03.074.069.074a.07.07 0 00.069-.074v-2.275h3.042a.07.07 0 00.07-.073.07.07 0 00-.07-.073H71.18v-.573c0-.048.038-.089.088-.093h4.47c.046 0 .084.04.088.093v.577h-.867a.07.07 0 00-.069.073c0 .04.03.073.07.073h.862v3.287c0 .049-.038.09-.088.093h-4.466c-.046 0-.084-.04-.088-.093v-.447a.07.07 0 00-.07-.073c-.037 0-.064.028-.064.069V56c0 .13.1.231.222.236h4.47c.123 0 .219-.106.223-.236v-4.006a.238.238 0 00-.223-.235v-.016a.252.252 0 01.237.25V56c-.004.138-.106.25-.237.25h-4.47a.247.247 0 01-.237-.25v-.447c0-.024.008-.045.023-.06a.077.077 0 01.057-.024c.046 0 .083.039.083.088v.446c.004.046.037.08.074.08h4.466a.08.08 0 00.074-.079v-3.271h-.849a.086.086 0 01-.083-.089c0-.049.037-.088.083-.088h.853v-.561c-.004-.046-.037-.079-.074-.079h-4.47a.08.08 0 00-.074.078v.558h3.032c.047 0 .084.04.084.088a.086.086 0 01-.084.089h-3.028v2.26a.086.086 0 01-.083.088.086.086 0 01-.084-.089v-2.994c0-.139.107-.246.237-.25z" fill="#fff"/><path d="M73.5 52.994c-.395 0-.767.182-1.02.503l-.012.013v.004a1.478 1.478 0 000 1.783v.004l.012.012a1.277 1.277 0 001.872.175 1.683 1.683 0 00.184-.195 1.471 1.471 0 00-.02-1.796 1.295 1.295 0 00-1.016-.503zm1.197 1.336h-.445a2.38 2.38 0 00-.073-.548 1.4 1.4 0 00.28-.138c.142.199.223.438.238.686zm-.238.833a1.505 1.505 0 00-.28-.138 2.41 2.41 0 00.073-.548h.445a1.336 1.336 0 01-.238.686zm-2.156-.69h.445c.004.186.027.37.073.548-.1.036-.192.081-.28.138a1.31 1.31 0 01-.238-.687zm.238-.83c.088.057.184.102.28.139a2.41 2.41 0 00-.073.548h-.445c.016-.248.096-.487.238-.686zm1.028.252a1.93 1.93 0 00.48-.073c.042.167.065.338.069.508h-.549v-.434zm0-.142v-.609c.18.04.342.252.441.548a2.053 2.053 0 01-.44.061zm-.134-.613v.613a1.805 1.805 0 01-.441-.065c.1-.296.257-.503.441-.548zm0 .755v.435h-.553c.004-.17.027-.341.07-.508.157.045.318.07.483.073zm-.553.577h.55v.435a1.93 1.93 0 00-.48.073 2.244 2.244 0 01-.07-.508zm.553.577v.614c-.18-.04-.341-.252-.441-.549.142-.036.291-.057.441-.065zm.134.614v-.614c.15.004.296.025.441.065-.103.297-.26.508-.44.549zm0-.756v-.435h.549c-.004.171-.027.342-.07.508a2.406 2.406 0 00-.479-.073zm.802-1.373a1.261 1.261 0 01-.234.114 1.368 1.368 0 00-.234-.439c.18.069.341.179.468.325zm-1.277-.325c-.104.13-.185.276-.235.439a1.393 1.393 0 01-.234-.114c.13-.146.292-.256.469-.325zm-.465 2.064c.073-.045.154-.086.234-.114.05.158.13.309.234.439a1.212 1.212 0 01-.468-.325zm1.278.325c.103-.13.184-.277.234-.44.08.03.157.07.234.115a1.27 1.27 0 01-.468.325z" fill="#fff"/><path fill-rule="evenodd" clip-rule="evenodd" d="M72.468 53.51l.011-.012a1.297 1.297 0 011.021-.504 1.295 1.295 0 011.036.528 1.472 1.472 0 010 1.771 1.696 1.696 0 01-.184.195c-.564.5-1.4.423-1.873-.175l-.011-.012v-.004a1.478 1.478 0 010-1.783v-.004zm-.014-.002v-.005l.015-.016a1.311 1.311 0 011.031-.509 1.31 1.31 0 011.048.535 1.487 1.487 0 010 1.789c-.005.01-.013.018-.02.025v.001c-.051.061-.109.119-.167.172a1.291 1.291 0 01-1.892-.176l-.015-.016v-.005c-.4-.524-.4-1.27 0-1.795zm.98.388a1.942 1.942 0 01-.483-.073c0 .005-.002.01-.003.014a2.274 2.274 0 00-.066.493h.553v-.434zm-.014.42v-.405a1.95 1.95 0 01-.458-.07c-.039.156-.06.315-.065.474h.523zm-.537.172v-.016h.548v.435a1.936 1.936 0 00-.48.073c0-.005-.002-.01-.003-.014a2.236 2.236 0 01-.065-.478zm.014 0c.005.163.026.318.065.474.15-.042.302-.065.455-.07v-.404h-.52zm1.464-.965l.01.011-.013.008a1.259 1.259 0 01-.22.106h-.001a1.366 1.366 0 00-.234-.439l.027.01c.165.068.312.17.431.304zm-.013.007a1.151 1.151 0 00-.4-.286c.086.117.153.247.198.384.07-.025.138-.06.202-.098zm-1.709 1.754l-.01-.011a1.266 1.266 0 01.22-.109l.014-.005a1.366 1.366 0 00.234.439 1.21 1.21 0 01-.458-.314zm.013-.008c.111.121.248.22.4.287a1.386 1.386 0 01-.198-.385c-.069.026-.138.06-.202.098zm1.282.31l-.027.012a1.322 1.322 0 00.234-.439l.013.005c.072.026.14.062.208.101l.013.008-.01.011c-.122.13-.27.235-.43.303zm.019-.024c.148-.066.284-.165.398-.285a1.35 1.35 0 00-.201-.098c-.045.14-.112.267-.197.383zm.744-1.232v-.015a1.321 1.321 0 00-.238-.671c-.088.057-.18.101-.28.138.046.179.07.362.073.548h.445zm-.015-.015h-.416a2.401 2.401 0 00-.07-.523c.092-.035.178-.076.26-.128.132.19.208.416.226.651zm-.227.828c.133-.194.21-.417.227-.651h-.416a2.428 2.428 0 01-.07.524c.089.034.177.075.26.127zm-.276-.118c.096.037.192.081.28.138.14-.199.22-.429.237-.671l.001-.015h-.445a2.41 2.41 0 01-.073.548zm-1.876-.553l.001.016c.018.246.098.476.237.671.088-.057.18-.102.28-.138a2.387 2.387 0 01-.073-.549h-.445zm.016.016c.017.238.093.46.226.65a1.41 1.41 0 01.259-.127 2.395 2.395 0 01-.07-.523h-.415zm.226-.824c-.133.19-.21.416-.227.651h.416c.005-.174.027-.352.07-.523a1.516 1.516 0 01-.26-.128zm.276.118a1.505 1.505 0 01-.28-.138c-.14.195-.22.429-.237.671l-.001.015h.445c.004-.182.027-.37.073-.548zm.763.129v.404h.519a2.264 2.264 0 00-.064-.474c-.15.041-.303.065-.455.07zm.465-.088a1.94 1.94 0 01-.48.073v.434h.549v-.015a2.274 2.274 0 00-.066-.478l-.003-.014zm-.48-.07h.015c.136-.005.276-.024.412-.057l.014-.003-.005-.015c-.097-.281-.25-.483-.421-.53a.379.379 0 00-.015-.004v.61zm.015-.59c.08.024.156.082.225.17.071.089.134.209.182.349a2.048 2.048 0 01-.407.056v-.574zm-.15-.023a.258.258 0 00-.014.004c-.174.05-.324.249-.421.53l-.005.014.014.004c.136.037.273.056.412.061h.015v-.613zm-.014.02v.578a1.794 1.794 0 01-.407-.06c.096-.277.241-.468.407-.518zm.015 1.89h-.015c-.14.009-.28.028-.412.06l-.014.004.005.015c.097.281.25.483.421.53l.015.004v-.614zm-.015.016a2.257 2.257 0 00-.407.06c.048.14.11.259.182.349a.467.467 0 00.225.168v-.577zm.15.597l.014-.004c.171-.047.32-.25.421-.53l.005-.015-.014-.003a1.806 1.806 0 00-.412-.061h-.015v.613zm.014-.02a.463.463 0 00.224-.168c.07-.09.133-.21.183-.35a1.791 1.791 0 00-.407-.06v.578zm-.015-.736v-.434h.549v.015a2.278 2.278 0 01-.07.492 2.405 2.405 0 00-.479-.073zm.47.055a2.26 2.26 0 00.064-.474h-.52v.405c.153.008.306.031.455.069zm-.946-1.753l-.027.011a1.224 1.224 0 00-.44.314l.012.008a1.39 1.39 0 00.221.106l.005-.015a1.32 1.32 0 01.23-.424zm-.045.036a1.208 1.208 0 00-.4.285c.067.038.134.073.202.098a1.33 1.33 0 01.198-.383z" fill="#fff"/><path d="M71.474 52.165a.07.07 0 00-.069.073c0 .04.031.073.07.073h.23a.07.07 0 00.069-.073.07.07 0 00-.07-.073h-.23z" fill="#fff"/><path fill-rule="evenodd" clip-rule="evenodd" d="M71.39 52.238c0-.049.038-.088.084-.088h.23c.047 0 .084.04.084.088 0 .05-.037.089-.083.089h-.23a.086.086 0 01-.084-.089zm.015 0c0-.04.031-.073.07-.073h.23a.07.07 0 01.069.073.07.07 0 01-.07.073h-.23a.07.07 0 01-.069-.073z" fill="#fff"/><path d="M72.119 52.165a.07.07 0 00-.07.073c0 .04.031.073.07.073h.23a.07.07 0 00.07-.073.07.07 0 00-.07-.073h-.23z" fill="#fff"/><path fill-rule="evenodd" clip-rule="evenodd" d="M72.035 52.238c0-.049.038-.088.084-.088h.23c.046 0 .084.04.084.088 0 .05-.038.089-.084.089h-.23a.086.086 0 01-.084-.089zm.015 0c0-.04.03-.073.069-.073h.23a.07.07 0 01.07.073.07.07 0 01-.07.073h-.23a.07.07 0 01-.07-.073z" fill="#fff"/><path d="M72.767 52.165a.07.07 0 00-.069.073c0 .04.03.073.07.073h.23a.07.07 0 00.069-.073.07.07 0 00-.07-.073h-.23z" fill="#fff"/><path fill-rule="evenodd" clip-rule="evenodd" d="M72.684 52.238c0-.049.037-.088.083-.088h.23c.047 0 .084.04.084.088 0 .05-.037.089-.083.089h-.23a.086.086 0 01-.084-.089zm.014 0c0-.04.031-.073.07-.073h.23a.07.07 0 01.069.073.07.07 0 01-.07.073h-.23a.07.07 0 01-.069-.073z" fill="#fff"/><path fill-rule="evenodd" clip-rule="evenodd" d="M75.595 58.794h-7.8v-.076h7.8v.076zM75.595 60.553h-7.8v-.077h7.8v.077zM79.278 61.47H67.722v-.076h11.556v.077zM79.278 59.635H75.16v-.076h4.117v.076zM74.078 59.635h-1.372v-.076h1.372v.076zM79.278 60.553h-2.745v-.077h2.745v.077zM71.911 59.635h-4.116v-.076h4.116v.076zM79.278 58.794h-2.384v-.076h2.384v.076z" fill="#000"/><g filter="url(#filter2_d)"><path d="M87 50h13v13H87V50z" fill="#233044"/><path d="M87 58.106h13V63H87v-4.894z" fill="#fff"/></g><path fill-rule="evenodd" clip-rule="evenodd" d="M100 50.459H87v-.077h13v.077zM100 50.917H87v-.076h13v.076zM100 51.377H87V51.3h13v.077zM100 51.835H87v-.076h13v.076zM100 52.294H87v-.076h13v.076zM100 52.753H87v-.077h13v.077zM100 53.212H87v-.077h13v.077zM100 53.67H87v-.076h13v.076zM100 54.13H87v-.077h13v.076zM100 54.588H87v-.076h13v.076zM100 55.047H87v-.076h13v.076zM100 55.506H87v-.077h13v.077zM100 55.965H87v-.077h13v.077zM100 56.423H87v-.076h13v.076zM100 56.882H87v-.076h13v.076zM100 57.341H87v-.076h13v.076z" fill="#fff" fill-opacity=".04"/><path d="M94.655 52.714a.07.07 0 00.07-.074.07.07 0 00-.07-.073h-.13a.07.07 0 00-.07.073c0 .041.031.074.07.074h.13z" fill="#fff"/><path fill-rule="evenodd" clip-rule="evenodd" d="M94.739 52.64c0 .05-.038.089-.084.089h-.13a.086.086 0 01-.084-.089c0-.049.037-.088.084-.088h.13c.046 0 .084.04.084.088zm-.015 0a.07.07 0 01-.069.074h-.13a.07.07 0 01-.07-.074c0-.04.031-.073.07-.073h.13a.07.07 0 01.07.073z" fill="#fff"/><path d="M95.739 51.76h-4.47a.232.232 0 00-.223.235v2.994c0 .04.031.073.07.073a.07.07 0 00.069-.073v-2.275h3.042a.07.07 0 00.07-.073.07.07 0 00-.07-.073h-3.046v-.573c0-.048.038-.09.088-.093h4.47c.046 0 .084.04.088.093v.577h-.867c-.038 0-.07.033-.07.073 0 .04.032.073.07.073h.863v3.287c0 .049-.038.09-.088.093h-4.466c-.046 0-.085-.04-.088-.093v-.447a.07.07 0 00-.07-.073c-.038 0-.065.028-.065.069v.447c0 .13.1.231.223.236h4.47c.123 0 .218-.106.222-.236v-4.006a.238.238 0 00-.222-.235z" fill="#fff"/><path fill-rule="evenodd" clip-rule="evenodd" d="M91.267 51.743h4.47v.016h-4.47a.232.232 0 00-.222.235v2.994c0 .041.03.074.069.074a.07.07 0 00.069-.074v-2.275h3.042a.07.07 0 00.07-.073.07.07 0 00-.07-.073H91.18v-.573c0-.048.038-.089.088-.093h4.47c.046 0 .084.04.088.093v.577h-.867a.07.07 0 00-.069.073c0 .04.03.073.07.073h.862v3.287c0 .049-.038.09-.088.093h-4.466c-.046 0-.084-.04-.088-.093v-.447a.07.07 0 00-.07-.073c-.037 0-.064.028-.064.069V56c0 .13.1.231.222.236h4.47c.123 0 .219-.106.223-.236v-4.006a.238.238 0 00-.223-.235v-.016a.252.252 0 01.237.25V56c-.004.138-.106.25-.237.25h-4.47a.247.247 0 01-.237-.25v-.447c0-.024.008-.045.023-.06a.077.077 0 01.057-.024c.046 0 .083.039.083.088v.446c.004.046.037.08.074.08h4.466a.08.08 0 00.074-.079v-3.271h-.849a.086.086 0 01-.083-.089c0-.049.037-.088.083-.088h.853v-.561c-.004-.046-.037-.079-.074-.079h-4.47a.08.08 0 00-.074.078v.558h3.032c.047 0 .084.04.084.088a.086.086 0 01-.084.089h-3.028v2.26a.086.086 0 01-.083.088.086.086 0 01-.084-.089v-2.994c0-.139.107-.246.237-.25z" fill="#fff"/><path d="M93.5 52.994a1.297 1.297 0 00-1.032.516v.004c-.4.52-.4 1.263 0 1.783v.004l.011.012a1.277 1.277 0 001.873.175 1.684 1.684 0 00.184-.195 1.471 1.471 0 00-.02-1.796 1.295 1.295 0 00-1.016-.503zm1.197 1.336h-.445a2.39 2.39 0 00-.073-.548c.1-.037.192-.081.28-.138.142.199.223.438.238.686zm-.238.833a1.505 1.505 0 00-.28-.138c.046-.179.07-.366.073-.548h.445a1.337 1.337 0 01-.238.686zm-2.156-.69h.445c.004.186.027.37.073.548-.1.036-.192.081-.28.138a1.31 1.31 0 01-.238-.687zm.238-.83c.088.057.184.102.28.139a2.41 2.41 0 00-.073.548h-.445c.015-.248.096-.487.238-.686zm1.028.252a1.93 1.93 0 00.48-.073c.042.167.065.338.069.508h-.549v-.434zm0-.142v-.609c.18.04.342.252.441.548a2.054 2.054 0 01-.44.061zm-.134-.613v.613a1.805 1.805 0 01-.441-.065c.1-.296.257-.503.44-.548zm0 .755v.435h-.553c.004-.17.027-.341.07-.508.157.045.318.07.483.073zm-.553.577h.549v.435a1.93 1.93 0 00-.48.073 2.25 2.25 0 01-.069-.508zm.553.577v.614c-.18-.04-.342-.252-.441-.549.142-.036.291-.057.44-.065zm.134.614v-.614c.15.004.296.025.441.065-.103.297-.26.508-.44.549zm0-.756v-.435h.549c-.004.171-.027.342-.07.508a2.404 2.404 0 00-.479-.073zm.802-1.373a1.261 1.261 0 01-.234.114 1.368 1.368 0 00-.234-.439c.18.069.341.179.468.325zm-1.278-.325c-.103.13-.184.276-.234.439a1.393 1.393 0 01-.234-.114c.13-.146.292-.256.468-.325zm-.464 2.064c.073-.045.154-.086.234-.114.05.158.13.309.234.439a1.21 1.21 0 01-.468-.325zm1.278.325c.103-.13.184-.277.234-.44.08.03.157.07.234.115a1.27 1.27 0 01-.468.325z" fill="#fff"/><path fill-rule="evenodd" clip-rule="evenodd" d="M92.468 53.51l.011-.012a1.297 1.297 0 011.021-.504 1.295 1.295 0 011.036.528 1.472 1.472 0 010 1.771 1.696 1.696 0 01-.184.195c-.564.5-1.4.423-1.873-.175l-.011-.012v-.004a1.478 1.478 0 010-1.783v-.004zm-.014-.002v-.005l.015-.016a1.311 1.311 0 011.031-.509 1.31 1.31 0 011.048.535 1.487 1.487 0 010 1.789c-.005.01-.013.018-.02.025v.001c-.051.061-.109.119-.167.172a1.291 1.291 0 01-1.892-.176l-.015-.016v-.005c-.4-.524-.4-1.27 0-1.795zm.98.388a1.942 1.942 0 01-.483-.073c0 .005-.002.01-.003.014a2.274 2.274 0 00-.066.493h.553v-.434zm-.014.42v-.405a1.95 1.95 0 01-.458-.07c-.039.156-.06.315-.065.474h.523zm-.537.172v-.016h.548v.435a1.936 1.936 0 00-.48.073c0-.005-.002-.01-.003-.014a2.236 2.236 0 01-.065-.478zm.014 0c.005.163.026.318.065.474.15-.042.302-.065.455-.07v-.404h-.52zm1.464-.965l.01.011-.013.008a1.259 1.259 0 01-.22.106h-.001a1.366 1.366 0 00-.234-.439l.027.01c.165.068.312.17.431.304zm-.013.007a1.151 1.151 0 00-.4-.286c.086.117.153.247.198.384.07-.025.138-.06.202-.098zm-1.709 1.754l-.01-.011a1.266 1.266 0 01.22-.109l.014-.005a1.366 1.366 0 00.234.439 1.21 1.21 0 01-.458-.314zm.013-.008c.111.121.248.22.4.287a1.386 1.386 0 01-.198-.385c-.069.026-.138.06-.202.098zm1.282.31l-.027.012a1.322 1.322 0 00.234-.439l.013.005c.072.026.14.062.208.101l.013.008-.01.011c-.122.13-.27.235-.43.303zm.019-.024c.148-.066.284-.165.398-.285a1.35 1.35 0 00-.201-.098c-.045.14-.112.267-.197.383zm.744-1.232v-.015a1.321 1.321 0 00-.238-.671c-.088.057-.18.101-.28.138.046.179.07.362.073.548h.445zm-.015-.015h-.416a2.401 2.401 0 00-.07-.523c.092-.035.178-.076.26-.128.132.19.208.416.226.651zm-.227.828c.133-.194.21-.417.227-.651h-.416a2.428 2.428 0 01-.07.524c.089.034.177.075.26.127zm-.276-.118c.096.037.192.081.28.138.14-.199.22-.429.237-.671l.001-.015h-.445a2.41 2.41 0 01-.073.548zm-1.876-.553l.001.016c.018.246.098.476.237.671.088-.057.18-.102.28-.138a2.387 2.387 0 01-.073-.549h-.445zm.016.016c.017.238.093.46.226.65a1.41 1.41 0 01.259-.127 2.395 2.395 0 01-.07-.523h-.415zm.226-.824c-.133.19-.21.416-.227.651h.416c.005-.174.027-.352.07-.523a1.516 1.516 0 01-.26-.128zm.276.118a1.505 1.505 0 01-.28-.138c-.14.195-.22.429-.237.671l-.001.015h.445c.004-.182.027-.37.073-.548zm.763.129v.404h.519a2.264 2.264 0 00-.064-.474c-.15.041-.303.065-.455.07zm.465-.088a1.94 1.94 0 01-.48.073v.434h.549v-.015a2.274 2.274 0 00-.066-.478l-.003-.014zm-.48-.07h.015a2.06 2.06 0 00.412-.057l.014-.003-.005-.015c-.097-.281-.25-.483-.421-.53a.379.379 0 00-.015-.004v.61zm.015-.59c.08.024.156.082.225.17.071.089.134.209.182.349a2.048 2.048 0 01-.407.056v-.574zm-.15-.023a.258.258 0 00-.014.004c-.174.05-.324.249-.421.53l-.005.014.014.004c.136.037.273.056.412.061h.015v-.613zm-.014.02v.578a1.794 1.794 0 01-.407-.06c.096-.277.241-.468.407-.518zm.015 1.89h-.015c-.14.009-.28.028-.412.06l-.014.004.005.015c.097.281.25.483.421.53l.015.004v-.614zm-.015.016a2.257 2.257 0 00-.407.06c.048.14.11.259.182.349a.467.467 0 00.225.168v-.577zm.15.597l.014-.004c.171-.047.32-.25.421-.53l.005-.015-.014-.003a1.806 1.806 0 00-.412-.061h-.015v.613zm.014-.02a.463.463 0 00.224-.168c.07-.09.133-.21.183-.35a1.791 1.791 0 00-.407-.06v.578zm-.015-.736v-.434h.549v.015a2.278 2.278 0 01-.07.492 2.405 2.405 0 00-.479-.073zm.47.055a2.26 2.26 0 00.064-.474h-.52v.405c.153.008.306.031.455.069zm-.946-1.753l-.027.011a1.224 1.224 0 00-.44.314l.012.008a1.39 1.39 0 00.221.106l.005-.015a1.32 1.32 0 01.23-.424zm-.045.036a1.208 1.208 0 00-.4.285c.067.038.134.073.202.098a1.33 1.33 0 01.198-.383z" fill="#fff"/><path d="M91.474 52.165a.07.07 0 00-.069.073c0 .04.031.073.07.073h.23a.07.07 0 00.069-.073.07.07 0 00-.07-.073h-.23z" fill="#fff"/><path fill-rule="evenodd" clip-rule="evenodd" d="M91.39 52.238c0-.049.038-.088.084-.088h.23c.047 0 .084.04.084.088 0 .05-.037.089-.083.089h-.23a.086.086 0 01-.084-.089zm.015 0c0-.04.031-.073.07-.073h.23a.07.07 0 01.069.073.07.07 0 01-.07.073h-.23a.07.07 0 01-.069-.073z" fill="#fff"/><path d="M92.119 52.165a.07.07 0 00-.07.073c0 .04.031.073.07.073h.23a.07.07 0 00.07-.073.07.07 0 00-.07-.073h-.23z" fill="#fff"/><path fill-rule="evenodd" clip-rule="evenodd" d="M92.035 52.238c0-.049.038-.088.084-.088h.23c.046 0 .084.04.084.088 0 .05-.038.089-.084.089h-.23a.086.086 0 01-.084-.089zm.015 0c0-.04.03-.073.069-.073h.23a.07.07 0 01.07.073.07.07 0 01-.07.073h-.23a.07.07 0 01-.07-.073z" fill="#fff"/><path d="M92.767 52.165a.07.07 0 00-.069.073c0 .04.03.073.07.073h.23a.07.07 0 00.069-.073.07.07 0 00-.07-.073h-.23z" fill="#fff"/><path fill-rule="evenodd" clip-rule="evenodd" d="M92.684 52.238c0-.049.037-.088.083-.088h.23c.047 0 .084.04.084.088 0 .05-.037.089-.083.089h-.23a.086.086 0 01-.084-.089zm.014 0c0-.04.031-.073.07-.073h.23a.07.07 0 01.069.073.07.07 0 01-.07.073h-.23a.07.07 0 01-.069-.073z" fill="#fff"/><path fill-rule="evenodd" clip-rule="evenodd" d="M95.595 58.794h-7.8v-.076h7.8v.076zM95.595 60.553h-7.8v-.077h7.8v.077zM99.278 61.47H87.722v-.076h11.556v.077zM99.278 59.635H95.16v-.076h4.117v.076zM94.078 59.635h-1.372v-.076h1.372v.076zM99.278 60.553h-2.745v-.077h2.745v.077zM91.911 59.635h-4.116v-.076h4.116v.076zM99.278 58.794h-2.384v-.076h2.384v.076z" fill="#000"/><g filter="url(#filter3_d)"><path d="M47 68h13v13H47V68z" fill="#233044"/><path d="M47 76.106h13V81H47v-4.894z" fill="#fff"/></g><path fill-rule="evenodd" clip-rule="evenodd" d="M60 68.459H47v-.077h13v.077zM60 68.918H47v-.077h13v.077zM60 69.376H47V69.3h13v.076zM60 69.835H47v-.076h13v.076zM60 70.294H47v-.076h13v.076zM60 70.753H47v-.076h13v.076zM60 71.212H47v-.077h13v.077zM60 71.67H47v-.076h13v.077zM60 72.13H47v-.077h13v.076zM60 72.588H47v-.076h13v.076zM60 73.047H47v-.076h13v.076zM60 73.506H47v-.077h13v.077zM60 73.965H47v-.077h13v.076zM60 74.423H47v-.076h13v.076zM60 74.882H47v-.076h13v.076zM60 75.341H47v-.076h13v.076z" fill="#fff" fill-opacity=".04"/><path d="M54.655 70.713a.07.07 0 00.07-.073.07.07 0 00-.07-.073h-.13a.07.07 0 00-.07.073c0 .041.031.073.07.073h.13z" fill="#fff"/><path fill-rule="evenodd" clip-rule="evenodd" d="M54.739 70.64c0 .05-.038.089-.084.089h-.13a.086.086 0 01-.084-.089c0-.049.037-.088.084-.088h.13c.046 0 .084.04.084.088zm-.015 0a.07.07 0 01-.069.073h-.13a.07.07 0 01-.07-.073c0-.04.031-.073.07-.073h.13a.07.07 0 01.07.073z" fill="#fff"/><path d="M55.739 69.76h-4.47a.232.232 0 00-.223.235v2.994c0 .041.031.073.07.073a.07.07 0 00.069-.073v-2.275h3.042a.07.07 0 00.07-.073.07.07 0 00-.07-.073h-3.046v-.573c0-.048.038-.089.088-.093h4.47c.046 0 .084.04.088.093v.577h-.867a.07.07 0 00-.07.073c0 .041.032.074.07.074h.863v3.286c0 .049-.038.09-.088.094h-4.466c-.046 0-.084-.041-.088-.094v-.447a.07.07 0 00-.07-.073c-.038 0-.065.028-.065.07V74c0 .13.1.231.223.236h4.47c.123 0 .219-.106.222-.236v-4.006a.237.237 0 00-.222-.235z" fill="#fff"/><path fill-rule="evenodd" clip-rule="evenodd" d="M51.267 69.743h4.47v.016h-4.47a.232.232 0 00-.222.235v2.995c0 .04.03.073.069.073a.07.07 0 00.069-.073v-2.276h3.042a.07.07 0 00.07-.073.07.07 0 00-.07-.073H51.18v-.573c0-.048.038-.089.088-.093h4.47c.046 0 .084.04.088.093v.577h-.867a.07.07 0 00-.069.073c0 .041.03.074.07.074h.862v3.286c0 .049-.038.09-.088.093h-4.466c-.046 0-.084-.04-.088-.093v-.447a.07.07 0 00-.07-.073c-.038 0-.064.029-.064.07V74c0 .13.1.232.222.236h4.47c.123 0 .219-.106.222-.236v-4.006a.237.237 0 00-.222-.235v-.016a.253.253 0 01.237.251v4.007c-.004.137-.106.25-.237.25h-4.47A.247.247 0 0151.03 74v-.447c0-.024.008-.045.023-.06a.077.077 0 01.057-.024c.046 0 .083.04.083.088v.447c.004.045.037.078.074.078h4.466a.08.08 0 00.074-.078v-3.271h-.849a.086.086 0 01-.083-.089c0-.049.037-.088.083-.088h.853v-.56c-.004-.047-.037-.08-.074-.08h-4.47a.08.08 0 00-.074.078v.558h3.032c.047 0 .084.04.084.088a.086.086 0 01-.084.089h-3.028v2.26c0 .049-.037.088-.083.088a.086.086 0 01-.084-.088v-2.995c0-.138.107-.246.237-.25z" fill="#fff"/><path d="M53.5 70.994c-.395 0-.767.183-1.02.504l-.012.012v.004a1.478 1.478 0 000 1.783v.004l.012.012a1.277 1.277 0 001.872.175c.058-.053.115-.11.165-.17a1.471 1.471 0 000-1.82 1.295 1.295 0 00-1.017-.504zm1.197 1.336h-.445a2.38 2.38 0 00-.073-.548c.1-.037.192-.081.28-.138.142.199.223.438.238.686zm-.238.833a1.518 1.518 0 00-.28-.138 2.41 2.41 0 00.073-.548h.445a1.336 1.336 0 01-.238.686zm-2.156-.69h.445c.004.186.027.37.073.548-.1.037-.192.081-.28.138a1.311 1.311 0 01-.238-.687zm.238-.83c.088.058.184.102.28.139a2.41 2.41 0 00-.073.548h-.445c.016-.248.096-.487.238-.686zm1.028.253a1.93 1.93 0 00.48-.073c.042.166.065.337.069.507h-.549v-.434zm0-.142v-.61c.18.04.342.252.441.548a2.06 2.06 0 01-.44.062zm-.134-.614v.614a1.815 1.815 0 01-.441-.066c.1-.296.257-.503.441-.548zm0 .756v.434h-.553c.004-.17.027-.34.07-.507.157.044.318.069.483.073zm-.553.576h.55v.435a1.935 1.935 0 00-.48.073 2.243 2.243 0 01-.07-.508zm.553.577v.614c-.18-.04-.342-.252-.441-.549.142-.036.291-.056.441-.065zm.134.614v-.614c.15.004.296.025.441.065-.103.297-.26.508-.44.549zm0-.756v-.434h.549c-.004.17-.027.34-.07.507a2.406 2.406 0 00-.479-.073zm.802-1.373a1.255 1.255 0 01-.234.114 1.368 1.368 0 00-.234-.439c.18.07.342.179.468.325zm-1.278-.325c-.103.13-.184.276-.234.439a1.385 1.385 0 01-.234-.114c.13-.146.292-.256.468-.325zm-.464 2.064c.073-.045.154-.085.234-.114.05.158.13.309.234.439a1.21 1.21 0 01-.468-.325zm1.278.325c.104-.13.184-.276.234-.439.08.028.157.07.234.114a1.27 1.27 0 01-.468.325z" fill="#fff"/><path fill-rule="evenodd" clip-rule="evenodd" d="M52.468 71.51l.011-.012a1.297 1.297 0 011.021-.504 1.295 1.295 0 011.036.528 1.472 1.472 0 010 1.771 1.696 1.696 0 01-.184.195c-.564.5-1.4.423-1.872-.174l-.012-.013v-.004a1.478 1.478 0 010-1.783v-.004zm-.014-.002v-.005l.015-.016a1.311 1.311 0 011.031-.508 1.31 1.31 0 011.048.534 1.487 1.487 0 010 1.789c-.005.01-.013.018-.02.025v.001c-.051.061-.109.119-.167.172a1.291 1.291 0 01-1.892-.176l-.015-.016v-.005c-.4-.524-.4-1.27 0-1.795zm.98.388a1.942 1.942 0 01-.482-.073 2.274 2.274 0 00-.069.493v.014h.552v-.434zm-.014.42v-.405a1.95 1.95 0 01-.458-.07c-.039.156-.06.315-.065.474h.523zm-.537.172v-.016h.548v.435a1.936 1.936 0 00-.48.073c0-.005-.002-.01-.003-.014a2.236 2.236 0 01-.065-.478zm.014 0c.005.162.026.318.065.474.15-.042.302-.065.455-.07v-.404h-.52zm1.464-.965l.01.011-.013.008c-.065.039-.136.075-.207.1l-.014.006a1.366 1.366 0 00-.234-.439l.027.01c.165.068.312.17.431.304zm-.013.007a1.151 1.151 0 00-.4-.286c.085.117.153.247.198.384.07-.025.138-.06.202-.098zm-1.709 1.754a1.153 1.153 0 01-.01-.011 1.266 1.266 0 01.22-.109l.014-.005a1.366 1.366 0 00.234.439 1.21 1.21 0 01-.458-.314zm.013-.008c.111.121.248.22.4.287a1.386 1.386 0 01-.198-.385c-.069.026-.138.06-.202.098zm1.282.31l-.027.012a1.322 1.322 0 00.234-.439l.014.005c.07.026.139.062.207.101l.013.008a1.275 1.275 0 01-.44.314zm.019-.024c.148-.066.284-.165.398-.285a1.35 1.35 0 00-.201-.098c-.045.14-.112.267-.197.383zm.744-1.232v-.015a1.321 1.321 0 00-.238-.671c-.088.057-.18.101-.28.138.046.179.07.362.073.548h.445zm-.015-.015h-.416a2.401 2.401 0 00-.07-.523c.092-.035.178-.076.26-.128.132.19.208.416.226.651zm-.227.828c.133-.194.21-.417.227-.651h-.416a2.428 2.428 0 01-.07.523c.089.035.177.076.26.128zm-.276-.118c.096.037.192.081.28.138.14-.199.22-.429.237-.671l.001-.015h-.445a2.41 2.41 0 01-.073.548zm-1.876-.553l.001.016c.018.246.098.476.237.671.088-.057.18-.102.28-.138a2.387 2.387 0 01-.073-.549h-.445zm.016.016c.017.238.093.46.226.65a1.41 1.41 0 01.259-.127 2.395 2.395 0 01-.07-.523h-.416zm.226-.824c-.133.19-.21.416-.227.651h.416c.005-.174.027-.352.07-.523a1.516 1.516 0 01-.26-.128zm.276.118a1.505 1.505 0 01-.28-.138c-.14.195-.22.429-.237.671l-.001.015h.445c.004-.183.027-.37.073-.548zm.763.129v.404h.519a2.264 2.264 0 00-.065-.474c-.149.041-.302.065-.454.07zm.465-.088a1.94 1.94 0 01-.48.073v.434h.549v-.015a2.274 2.274 0 00-.066-.478l-.003-.014zm-.48-.07h.015c.136-.005.276-.024.412-.057l.014-.003-.005-.015c-.097-.281-.25-.483-.421-.53a.379.379 0 00-.015-.004v.61zm.015-.59c.08.024.156.082.225.17.071.089.134.209.182.349a2.048 2.048 0 01-.407.056v-.574zm-.15-.023a.258.258 0 00-.014.004c-.175.05-.324.249-.421.53l-.005.014.014.004c.136.037.273.056.412.061h.015v-.613zm-.014.02v.578a1.794 1.794 0 01-.407-.06c.096-.277.241-.468.407-.518zm.015 1.89h-.015c-.14.009-.28.028-.412.06l-.014.004.005.015c.097.281.25.483.421.53l.015.004v-.614zm-.015.016a2.257 2.257 0 00-.407.06c.048.14.11.259.182.349a.467.467 0 00.225.168v-.577zm.15.597a.252.252 0 00.014-.004c.171-.047.32-.25.421-.53l.005-.015-.014-.003a1.806 1.806 0 00-.412-.061h-.015v.613zm.014-.02a.463.463 0 00.223-.168c.071-.09.134-.21.184-.35a1.791 1.791 0 00-.407-.06v.578zm-.015-.736v-.434h.549v.015a2.278 2.278 0 01-.07.492 2.405 2.405 0 00-.479-.073zm.47.055a2.26 2.26 0 00.064-.474h-.52v.405c.153.008.306.031.455.069zm-.946-1.753l-.027.011a1.224 1.224 0 00-.44.314l.012.008a1.39 1.39 0 00.221.106l.005-.015a1.32 1.32 0 01.23-.424zm-.045.036a1.208 1.208 0 00-.4.285c.067.038.134.073.202.098a1.33 1.33 0 01.198-.383z" fill="#fff"/><path d="M51.474 70.165a.07.07 0 00-.069.073c0 .04.031.073.07.073h.23a.07.07 0 00.069-.073.07.07 0 00-.07-.073h-.23z" fill="#fff"/><path fill-rule="evenodd" clip-rule="evenodd" d="M51.39 70.238c0-.049.038-.088.084-.088h.23c.047 0 .084.04.084.088 0 .05-.037.089-.083.089h-.23a.086.086 0 01-.084-.089zm.015 0c0-.04.031-.073.07-.073h.23a.07.07 0 01.069.073.07.07 0 01-.07.073h-.23a.07.07 0 01-.069-.073z" fill="#fff"/><path d="M52.119 70.165a.07.07 0 00-.07.073c0 .04.032.073.07.073h.23a.07.07 0 00.07-.073.07.07 0 00-.07-.073h-.23z" fill="#fff"/><path fill-rule="evenodd" clip-rule="evenodd" d="M52.035 70.238c0-.049.038-.088.084-.088h.23c.047 0 .084.04.084.088 0 .05-.038.089-.084.089h-.23a.086.086 0 01-.084-.089zm.015 0c0-.04.03-.073.069-.073h.23a.07.07 0 01.07.073.07.07 0 01-.07.073h-.23a.07.07 0 01-.07-.073z" fill="#fff"/><path d="M52.767 70.165a.07.07 0 00-.069.073c0 .04.03.073.07.073h.23a.07.07 0 00.069-.073.07.07 0 00-.07-.073h-.23z" fill="#fff"/><path fill-rule="evenodd" clip-rule="evenodd" d="M52.684 70.238c0-.049.037-.088.083-.088h.23c.047 0 .084.04.084.088 0 .05-.037.089-.083.089h-.23a.086.086 0 01-.084-.089zm.014 0c0-.04.031-.073.07-.073h.23a.07.07 0 01.069.073.07.07 0 01-.07.073h-.23a.07.07 0 01-.069-.073z" fill="#fff"/><path fill-rule="evenodd" clip-rule="evenodd" d="M55.595 76.794h-7.8v-.076h7.8v.076zM55.595 78.553h-7.8v-.077h7.8v.077zM59.278 79.47H47.722v-.076h11.556v.076zM59.278 77.635H55.16v-.076h4.117v.076zM54.078 77.635h-1.372v-.076h1.372v.076zM59.278 78.553h-2.745v-.077h2.745v.077zM51.911 77.635h-4.116v-.076h4.116v.076zM59.278 76.794h-2.383v-.076h2.383v.076z" fill="#000"/><g filter="url(#filter4_d)"><path d="M67 68h13v13H67V68z" fill="#233044"/><path d="M67 76.106h13V81H67v-4.894z" fill="#fff"/></g><path fill-rule="evenodd" clip-rule="evenodd" d="M80 68.459H67v-.077h13v.077zM80 68.918H67v-.077h13v.077zM80 69.376H67V69.3h13v.076zM80 69.835H67v-.076h13v.076zM80 70.294H67v-.076h13v.076zM80 70.753H67v-.076h13v.076zM80 71.212H67v-.077h13v.077zM80 71.67H67v-.076h13v.077zM80 72.13H67v-.077h13v.076zM80 72.588H67v-.076h13v.076zM80 73.047H67v-.076h13v.076zM80 73.506H67v-.077h13v.077zM80 73.965H67v-.077h13v.076zM80 74.423H67v-.076h13v.076zM80 74.882H67v-.076h13v.076zM80 75.341H67v-.076h13v.076z" fill="#fff" fill-opacity=".04"/><path d="M74.655 70.713a.07.07 0 00.07-.073.07.07 0 00-.07-.073h-.13a.07.07 0 00-.07.073c0 .041.031.073.07.073h.13z" fill="#fff"/><path fill-rule="evenodd" clip-rule="evenodd" d="M74.739 70.64c0 .05-.038.089-.084.089h-.13a.086.086 0 01-.084-.089c0-.049.037-.088.084-.088h.13c.046 0 .084.04.084.088zm-.015 0a.07.07 0 01-.069.073h-.13a.07.07 0 01-.07-.073c0-.04.031-.073.07-.073h.13a.07.07 0 01.07.073z" fill="#fff"/><path d="M75.739 69.76h-4.47a.232.232 0 00-.223.235v2.994c0 .04.031.073.07.073a.07.07 0 00.069-.073v-2.275h3.042a.07.07 0 00.07-.073.07.07 0 00-.07-.073h-3.046v-.573c0-.049.038-.09.088-.093h4.47c.046 0 .084.04.088.093v.577h-.867c-.038 0-.07.033-.07.073 0 .04.032.073.07.073h.863v3.287c0 .049-.038.09-.088.093h-4.466c-.046 0-.085-.04-.088-.093v-.447a.07.07 0 00-.07-.073c-.038 0-.065.028-.065.069v.447c0 .13.1.231.223.236h4.47c.123 0 .218-.106.222-.236v-4.006a.238.238 0 00-.222-.235z" fill="#fff"/><path fill-rule="evenodd" clip-rule="evenodd" d="M71.267 69.743h4.47v.016h-4.47a.232.232 0 00-.222.235v2.994c0 .041.03.073.069.073a.07.07 0 00.069-.073v-2.275h3.042a.07.07 0 00.07-.073.07.07 0 00-.07-.073H71.18v-.573c0-.048.038-.089.088-.093h4.47c.046 0 .084.04.088.093v.577h-.867a.07.07 0 00-.069.073c0 .04.03.073.07.073h.862v3.287c0 .049-.038.09-.088.093h-4.466c-.046 0-.084-.04-.088-.093v-.447a.07.07 0 00-.07-.073c-.037 0-.064.028-.064.069V74c0 .13.1.231.222.236h4.47c.123 0 .219-.106.223-.236v-4.006a.238.238 0 00-.223-.235v-.016a.252.252 0 01.237.25V74c-.004.138-.106.25-.237.25h-4.47a.247.247 0 01-.237-.25v-.447c0-.024.008-.045.023-.06a.077.077 0 01.057-.024c.046 0 .083.039.083.088v.446c.004.046.037.08.074.08h4.466a.08.08 0 00.074-.079v-3.271h-.849a.086.086 0 01-.083-.089c0-.049.037-.088.083-.088h.853v-.561c-.004-.046-.037-.079-.074-.079h-4.47a.08.08 0 00-.074.078v.558h3.032c.047 0 .084.04.084.088a.086.086 0 01-.084.089h-3.028v2.26a.086.086 0 01-.083.088.086.086 0 01-.084-.089v-2.994c0-.138.107-.246.237-.25z" fill="#fff"/><path d="M73.5 70.994c-.395 0-.767.183-1.02.503l-.012.013v.004a1.478 1.478 0 000 1.783v.004l.012.012a1.277 1.277 0 001.872.175 1.683 1.683 0 00.184-.195 1.471 1.471 0 00-.02-1.796 1.295 1.295 0 00-1.016-.503zm1.197 1.336h-.445a2.38 2.38 0 00-.073-.548 1.4 1.4 0 00.28-.138c.142.199.223.438.238.686zm-.238.833a1.505 1.505 0 00-.28-.138 2.41 2.41 0 00.073-.549h.445a1.336 1.336 0 01-.238.687zm-2.156-.69h.445c.004.186.027.37.073.548-.1.036-.192.081-.28.138a1.31 1.31 0 01-.238-.687zm.238-.83c.088.058.184.102.28.139a2.41 2.41 0 00-.073.548h-.445c.016-.248.096-.487.238-.686zm1.028.252a1.93 1.93 0 00.48-.073c.042.167.065.338.069.508h-.549v-.434zm0-.142v-.609c.18.04.342.252.441.548a2.053 2.053 0 01-.44.061zm-.134-.613v.613a1.805 1.805 0 01-.441-.065c.1-.296.257-.503.441-.548zm0 .755v.435h-.553c.004-.17.027-.341.07-.508.157.045.318.07.483.073zm-.553.577h.55v.435a1.93 1.93 0 00-.48.073 2.244 2.244 0 01-.07-.508zm.553.577v.614c-.18-.04-.341-.252-.441-.549.142-.036.291-.057.441-.065zm.134.614v-.614c.15.004.296.025.441.065-.103.297-.26.508-.44.549zm0-.756v-.435h.549c-.004.171-.027.342-.07.508a2.406 2.406 0 00-.479-.073zm.802-1.373a1.261 1.261 0 01-.234.114 1.368 1.368 0 00-.234-.439c.18.069.341.179.468.325zm-1.277-.325c-.104.13-.185.276-.235.439a1.393 1.393 0 01-.234-.114c.13-.146.292-.256.469-.325zm-.465 2.064c.073-.045.154-.086.234-.114.05.158.13.309.234.439a1.212 1.212 0 01-.468-.325zm1.278.325c.103-.13.184-.277.234-.44.08.03.157.07.234.115a1.27 1.27 0 01-.468.325z" fill="#fff"/><path fill-rule="evenodd" clip-rule="evenodd" d="M72.468 71.51l.011-.012a1.297 1.297 0 011.021-.504 1.295 1.295 0 011.036.528 1.472 1.472 0 010 1.771 1.696 1.696 0 01-.184.195c-.564.5-1.4.423-1.873-.174l-.011-.013v-.004a1.478 1.478 0 010-1.783v-.004zm-.014-.002v-.005l.015-.016a1.311 1.311 0 011.031-.508 1.31 1.31 0 011.048.534 1.487 1.487 0 010 1.789c-.005.01-.013.018-.02.025v.001c-.051.061-.109.119-.167.172a1.291 1.291 0 01-1.892-.176l-.015-.016v-.005c-.4-.524-.4-1.27 0-1.795zm.98.388a1.942 1.942 0 01-.483-.073c0 .005-.002.01-.003.014a2.274 2.274 0 00-.066.493h.553v-.434zm-.014.42v-.405a1.95 1.95 0 01-.458-.07c-.039.156-.06.315-.065.474h.523zm-.537.172v-.016h.548v.435a1.936 1.936 0 00-.48.073c0-.005-.002-.01-.003-.014a2.236 2.236 0 01-.065-.478zm.014 0c.005.162.026.318.065.474.15-.042.302-.065.455-.07v-.404h-.52zm1.464-.965l.01.011-.013.008c-.065.039-.136.075-.207.1l-.014.006a1.366 1.366 0 00-.234-.439l.027.01c.165.068.312.17.431.304zm-.013.007a1.151 1.151 0 00-.4-.286c.086.117.153.247.198.384.07-.025.138-.06.202-.098zm-1.709 1.754l-.01-.011a1.266 1.266 0 01.22-.109l.014-.005a1.366 1.366 0 00.234.439 1.21 1.21 0 01-.458-.314zm.013-.008c.111.121.248.22.4.287a1.386 1.386 0 01-.198-.385c-.069.026-.138.06-.202.098zm1.282.31l-.027.012a1.322 1.322 0 00.234-.439l.013.005c.072.026.14.062.208.101l.013.008-.01.011c-.122.13-.27.235-.43.303zm.019-.024c.148-.066.284-.165.398-.285a1.35 1.35 0 00-.201-.098c-.045.14-.112.267-.197.383zm.744-1.232v-.015a1.321 1.321 0 00-.238-.671c-.088.057-.18.101-.28.138.046.179.07.362.073.548h.445zm-.015-.015h-.416a2.401 2.401 0 00-.07-.523c.092-.035.178-.076.26-.128.132.19.208.416.226.651zm-.227.828c.133-.194.21-.417.227-.651h-.416a2.428 2.428 0 01-.07.523c.089.035.177.076.26.128zm-.276-.118c.096.037.192.081.28.138.14-.199.22-.429.237-.671l.001-.015h-.445a2.41 2.41 0 01-.073.548zm-1.876-.553l.001.016c.018.246.098.476.237.671.088-.057.18-.102.28-.138a2.387 2.387 0 01-.073-.549h-.445zm.016.016c.017.238.093.46.226.65a1.41 1.41 0 01.259-.127 2.395 2.395 0 01-.07-.523h-.415zm.226-.824c-.133.19-.21.416-.227.651h.416c.005-.174.027-.352.07-.523a1.516 1.516 0 01-.26-.128zm.276.118a1.505 1.505 0 01-.28-.138c-.14.195-.22.429-.237.671l-.001.015h.445c.004-.183.027-.37.073-.548zm.763.129v.404h.519a2.264 2.264 0 00-.064-.474c-.15.041-.303.065-.455.07zm.465-.088a1.94 1.94 0 01-.48.073v.434h.549v-.015a2.274 2.274 0 00-.066-.478l-.003-.014zm-.48-.07h.015c.136-.005.276-.024.412-.057l.014-.003-.005-.015c-.097-.281-.25-.483-.421-.53a.379.379 0 00-.015-.004v.61zm.015-.59c.08.024.156.082.225.17.071.089.134.209.182.349a2.048 2.048 0 01-.407.056v-.574zm-.15-.023a.258.258 0 00-.014.004c-.174.05-.324.249-.421.53l-.005.014.014.004c.136.037.273.056.412.061h.015v-.613zm-.014.02v.578a1.794 1.794 0 01-.407-.06c.096-.277.241-.468.407-.518zm.015 1.89h-.015c-.14.009-.28.028-.412.06l-.014.004.005.015c.097.281.25.483.421.53l.015.004v-.614zm-.015.016a2.257 2.257 0 00-.407.06c.048.14.11.259.182.349a.467.467 0 00.225.168v-.577zm.15.597l.014-.004c.171-.047.32-.25.421-.53l.005-.015a1.806 1.806 0 00-.427-.065h-.014v.614zm.014-.02a.463.463 0 00.224-.168c.07-.09.133-.21.183-.35a1.791 1.791 0 00-.407-.06v.578zm-.015-.736v-.434h.549v.015a2.278 2.278 0 01-.07.492 2.405 2.405 0 00-.479-.073zm.47.055a2.26 2.26 0 00.064-.474h-.52v.405c.153.008.306.031.455.069zm-.946-1.753l-.027.011a1.224 1.224 0 00-.44.314l.012.008a1.39 1.39 0 00.221.106l.005-.015a1.32 1.32 0 01.23-.424zm-.045.036a1.208 1.208 0 00-.4.285c.067.038.134.073.202.098a1.33 1.33 0 01.198-.383z" fill="#fff"/><path d="M71.474 70.165a.07.07 0 00-.069.073c0 .04.031.073.07.073h.23a.07.07 0 00.069-.073.07.07 0 00-.07-.073h-.23z" fill="#fff"/><path fill-rule="evenodd" clip-rule="evenodd" d="M71.39 70.238c0-.049.038-.088.084-.088h.23c.047 0 .084.04.084.088 0 .05-.037.089-.083.089h-.23a.086.086 0 01-.084-.089zm.015 0c0-.04.031-.073.07-.073h.23a.07.07 0 01.069.073.07.07 0 01-.07.073h-.23a.07.07 0 01-.069-.073z" fill="#fff"/><path d="M72.119 70.165a.07.07 0 00-.07.073c0 .04.031.073.07.073h.23a.07.07 0 00.07-.073.07.07 0 00-.07-.073h-.23z" fill="#fff"/><path fill-rule="evenodd" clip-rule="evenodd" d="M72.035 70.238c0-.049.038-.088.084-.088h.23c.046 0 .084.04.084.088 0 .05-.038.089-.084.089h-.23a.086.086 0 01-.084-.089zm.015 0c0-.04.03-.073.069-.073h.23a.07.07 0 01.07.073.07.07 0 01-.07.073h-.23a.07.07 0 01-.07-.073z" fill="#fff"/><path d="M72.767 70.165a.07.07 0 00-.069.073c0 .04.03.073.07.073h.23a.07.07 0 00.069-.073.07.07 0 00-.07-.073h-.23z" fill="#fff"/><path fill-rule="evenodd" clip-rule="evenodd" d="M72.684 70.238c0-.049.037-.088.083-.088h.23c.047 0 .084.04.084.088 0 .05-.037.089-.083.089h-.23a.086.086 0 01-.084-.089zm.014 0c0-.04.031-.073.07-.073h.23a.07.07 0 01.069.073.07.07 0 01-.07.073h-.23a.07.07 0 01-.069-.073z" fill="#fff"/><path fill-rule="evenodd" clip-rule="evenodd" d="M75.595 76.794h-7.8v-.076h7.8v.076zM75.595 78.553h-7.8v-.077h7.8v.077zM79.278 79.47H67.722v-.076h11.556v.076zM79.278 77.635H75.16v-.076h4.117v.076zM74.078 77.635h-1.372v-.076h1.372v.076zM79.278 78.553h-2.745v-.077h2.745v.077zM71.911 77.635h-4.116v-.076h4.116v.076zM79.278 76.794h-2.384v-.076h2.384v.076z" fill="#000"/><g filter="url(#filter5_d)"><path d="M87 68h13v13H87V68z" fill="#233044"/><path d="M87 76.106h13V81H87v-4.894z" fill="#fff"/></g><path fill-rule="evenodd" clip-rule="evenodd" d="M100 68.459H87v-.077h13v.077zM100 68.918H87v-.077h13v.077zM100 69.376H87V69.3h13v.076zM100 69.835H87v-.076h13v.076zM100 70.294H87v-.076h13v.076zM100 70.753H87v-.076h13v.076zM100 71.212H87v-.077h13v.077zM100 71.67H87v-.076h13v.077zM100 72.13H87v-.077h13v.076zM100 72.588H87v-.076h13v.076zM100 73.047H87v-.076h13v.076zM100 73.506H87v-.077h13v.077zM100 73.965H87v-.077h13v.076zM100 74.423H87v-.076h13v.076zM100 74.882H87v-.076h13v.076zM100 75.341H87v-.076h13v.076z" fill="#fff" fill-opacity=".04"/><path d="M94.655 70.713a.07.07 0 00.07-.073.07.07 0 00-.07-.073h-.13a.07.07 0 00-.07.073c0 .041.031.073.07.073h.13z" fill="#fff"/><path fill-rule="evenodd" clip-rule="evenodd" d="M94.739 70.64c0 .05-.038.089-.084.089h-.13a.086.086 0 01-.084-.089c0-.049.037-.088.084-.088h.13c.046 0 .084.04.084.088zm-.015 0a.07.07 0 01-.069.073h-.13a.07.07 0 01-.07-.073c0-.04.031-.073.07-.073h.13a.07.07 0 01.07.073z" fill="#fff"/><path d="M95.739 69.76h-4.47a.232.232 0 00-.223.235v2.994c0 .04.031.073.07.073a.07.07 0 00.069-.073v-2.275h3.042a.07.07 0 00.07-.073.07.07 0 00-.07-.073h-3.046v-.573c0-.049.038-.09.088-.093h4.47c.046 0 .084.04.088.093v.577h-.867c-.038 0-.07.033-.07.073 0 .04.032.073.07.073h.863v3.287c0 .049-.038.09-.088.093h-4.466c-.046 0-.085-.04-.088-.093v-.447a.07.07 0 00-.07-.073c-.038 0-.065.028-.065.069v.447c0 .13.1.231.223.236h4.47c.123 0 .218-.106.222-.236v-4.006a.238.238 0 00-.222-.235z" fill="#fff"/><path fill-rule="evenodd" clip-rule="evenodd" d="M91.267 69.743h4.47v.016h-4.47a.232.232 0 00-.222.235v2.994c0 .041.03.073.069.073a.07.07 0 00.069-.073v-2.275h3.042a.07.07 0 00.07-.073.07.07 0 00-.07-.073H91.18v-.573c0-.048.038-.089.088-.093h4.47c.046 0 .084.04.088.093v.577h-.867a.07.07 0 00-.069.073c0 .04.03.073.07.073h.862v3.287c0 .049-.038.09-.088.093h-4.466c-.046 0-.084-.04-.088-.093v-.447a.07.07 0 00-.07-.073c-.037 0-.064.028-.064.069V74c0 .13.1.231.222.236h4.47c.123 0 .219-.106.223-.236v-4.006a.238.238 0 00-.223-.235v-.016a.252.252 0 01.237.25V74c-.004.138-.106.25-.237.25h-4.47a.247.247 0 01-.237-.25v-.447c0-.024.008-.045.023-.06a.077.077 0 01.057-.024c.046 0 .083.039.083.088v.446c.004.046.037.08.074.08h4.466a.08.08 0 00.074-.079v-3.271h-.849a.086.086 0 01-.083-.089c0-.049.037-.088.083-.088h.853v-.561c-.004-.046-.037-.079-.074-.079h-4.47a.08.08 0 00-.074.078v.558h3.032c.047 0 .084.04.084.088a.086.086 0 01-.084.089h-3.028v2.26a.086.086 0 01-.083.088.086.086 0 01-.084-.089v-2.994c0-.138.107-.246.237-.25z" fill="#fff"/><path d="M93.5 70.994a1.297 1.297 0 00-1.032.516v.004c-.4.52-.4 1.263 0 1.783v.004l.011.012a1.277 1.277 0 001.873.175 1.684 1.684 0 00.184-.195 1.471 1.471 0 00-.02-1.796 1.295 1.295 0 00-1.016-.503zm1.197 1.336h-.445a2.39 2.39 0 00-.073-.548c.1-.037.192-.081.28-.138.142.199.223.438.238.686zm-.238.833a1.505 1.505 0 00-.28-.138c.046-.179.07-.366.073-.549h.445a1.337 1.337 0 01-.238.687zm-2.156-.69h.445c.004.186.027.37.073.548-.1.036-.192.081-.28.138a1.31 1.31 0 01-.238-.687zm.238-.83c.088.058.184.102.28.139a2.41 2.41 0 00-.073.548h-.445c.015-.248.096-.487.238-.686zm1.028.252a1.93 1.93 0 00.48-.073c.042.167.065.338.069.508h-.549v-.434zm0-.142v-.609c.18.04.342.252.441.548a2.054 2.054 0 01-.44.061zm-.134-.613v.613a1.805 1.805 0 01-.441-.065c.1-.296.257-.503.44-.548zm0 .755v.435h-.553c.004-.17.027-.341.07-.508.157.045.318.07.483.073zm-.553.577h.549v.435a1.93 1.93 0 00-.48.073 2.25 2.25 0 01-.069-.508zm.553.577v.614c-.18-.04-.342-.252-.441-.549.142-.036.291-.057.44-.065zm.134.614v-.614c.15.004.296.025.441.065-.103.297-.26.508-.44.549zm0-.756v-.435h.549c-.004.171-.027.342-.07.508a2.404 2.404 0 00-.479-.073zm.802-1.373a1.261 1.261 0 01-.234.114 1.368 1.368 0 00-.234-.439c.18.069.341.179.468.325zm-1.278-.325c-.103.13-.184.276-.234.439a1.393 1.393 0 01-.234-.114c.13-.146.292-.256.468-.325zm-.464 2.064c.073-.045.154-.086.234-.114.05.158.13.309.234.439a1.21 1.21 0 01-.468-.325zm1.278.325c.103-.13.184-.277.234-.44.08.03.157.07.234.115a1.27 1.27 0 01-.468.325z" fill="#fff"/><path fill-rule="evenodd" clip-rule="evenodd" d="M92.468 71.51l.011-.012a1.297 1.297 0 011.021-.504 1.295 1.295 0 011.036.528 1.472 1.472 0 010 1.771 1.696 1.696 0 01-.184.195c-.564.5-1.4.423-1.873-.174l-.011-.013v-.004a1.478 1.478 0 010-1.783v-.004zm-.014-.002v-.005l.015-.016a1.311 1.311 0 011.031-.508 1.31 1.31 0 011.048.534 1.487 1.487 0 010 1.789c-.005.01-.013.018-.02.025v.001c-.051.061-.109.119-.167.172a1.291 1.291 0 01-1.892-.176l-.015-.016v-.005c-.4-.524-.4-1.27 0-1.795zm.98.388a1.942 1.942 0 01-.483-.073c0 .005-.002.01-.003.014a2.274 2.274 0 00-.066.493h.553v-.434zm-.014.42v-.405a1.95 1.95 0 01-.458-.07c-.039.156-.06.315-.065.474h.523zm-.537.172v-.016h.548v.435a1.936 1.936 0 00-.48.073c0-.005-.002-.01-.003-.014a2.236 2.236 0 01-.065-.478zm.014 0c.005.162.026.318.065.474.15-.042.302-.065.455-.07v-.404h-.52zm1.464-.965l.01.011-.013.008c-.065.039-.136.075-.207.1l-.014.006a1.366 1.366 0 00-.234-.439l.027.01c.165.068.312.17.431.304zm-.013.007a1.151 1.151 0 00-.4-.286c.086.117.153.247.198.384.07-.025.138-.06.202-.098zm-1.709 1.754l-.01-.011a1.266 1.266 0 01.22-.109l.014-.005a1.366 1.366 0 00.234.439 1.21 1.21 0 01-.458-.314zm.013-.008c.111.121.248.22.4.287a1.386 1.386 0 01-.198-.385c-.069.026-.138.06-.202.098zm1.282.31l-.027.012a1.322 1.322 0 00.234-.439l.013.005c.072.026.14.062.208.101l.013.008-.01.011c-.122.13-.27.235-.43.303zm.019-.024c.148-.066.284-.165.398-.285a1.35 1.35 0 00-.201-.098c-.045.14-.112.267-.197.383zm.744-1.232v-.015a1.321 1.321 0 00-.238-.671c-.088.057-.18.101-.28.138.046.179.07.362.073.548h.445zm-.015-.015h-.416a2.401 2.401 0 00-.07-.523c.092-.035.178-.076.26-.128.132.19.208.416.226.651zm-.227.828c.133-.194.21-.417.227-.651h-.416a2.428 2.428 0 01-.07.523c.089.035.177.076.26.128zm-.276-.118c.096.037.192.081.28.138.14-.199.22-.429.237-.671l.001-.015h-.445a2.41 2.41 0 01-.073.548zm-1.876-.553l.001.016c.018.246.098.476.237.671.088-.057.18-.102.28-.138a2.387 2.387 0 01-.073-.549h-.445zm.016.016c.017.238.093.46.226.65a1.41 1.41 0 01.259-.127 2.395 2.395 0 01-.07-.523h-.415zm.226-.824c-.133.19-.21.416-.227.651h.416c.005-.174.027-.352.07-.523a1.516 1.516 0 01-.26-.128zm.276.118a1.505 1.505 0 01-.28-.138c-.14.195-.22.429-.237.671l-.001.015h.445c.004-.183.027-.37.073-.548zm.763.129v.404h.519a2.264 2.264 0 00-.064-.474c-.15.041-.303.065-.455.07zm.465-.088a1.94 1.94 0 01-.48.073v.434h.549v-.015a2.274 2.274 0 00-.066-.478l-.003-.014zm-.48-.07h.015a2.06 2.06 0 00.412-.057l.014-.003-.005-.015c-.097-.281-.25-.483-.421-.53a.379.379 0 00-.015-.004v.61zm.015-.59c.08.024.156.082.225.17.071.089.134.209.182.349a2.048 2.048 0 01-.407.056v-.574zm-.15-.023a.258.258 0 00-.014.004c-.174.05-.324.249-.421.53l-.005.014.014.004c.136.037.273.056.412.061h.015v-.613zm-.014.02v.578a1.794 1.794 0 01-.407-.06c.096-.277.241-.468.407-.518zm.015 1.89h-.015c-.14.009-.28.028-.412.06l-.014.004.005.015c.097.281.25.483.421.53l.015.004v-.614zm-.015.016a2.257 2.257 0 00-.407.06c.048.14.11.259.182.349a.467.467 0 00.225.168v-.577zm.15.597l.014-.004c.171-.047.32-.25.421-.53l.005-.015a1.806 1.806 0 00-.427-.065h-.014v.614zm.014-.02a.463.463 0 00.224-.168c.07-.09.133-.21.183-.35a1.791 1.791 0 00-.407-.06v.578zm-.015-.736v-.434h.549v.015a2.278 2.278 0 01-.07.492 2.405 2.405 0 00-.479-.073zm.47.055a2.26 2.26 0 00.064-.474h-.52v.405c.153.008.306.031.455.069zm-.946-1.753l-.027.011a1.224 1.224 0 00-.44.314l.012.008a1.39 1.39 0 00.221.106l.005-.015a1.32 1.32 0 01.23-.424zm-.045.036a1.208 1.208 0 00-.4.285c.067.038.134.073.202.098a1.33 1.33 0 01.198-.383z" fill="#fff"/><path d="M91.474 70.165a.07.07 0 00-.069.073c0 .04.031.073.07.073h.23a.07.07 0 00.069-.073.07.07 0 00-.07-.073h-.23z" fill="#fff"/><path fill-rule="evenodd" clip-rule="evenodd" d="M91.39 70.238c0-.049.038-.088.084-.088h.23c.047 0 .084.04.084.088 0 .05-.037.089-.083.089h-.23a.086.086 0 01-.084-.089zm.015 0c0-.04.031-.073.07-.073h.23a.07.07 0 01.069.073.07.07 0 01-.07.073h-.23a.07.07 0 01-.069-.073z" fill="#fff"/><path d="M92.119 70.165a.07.07 0 00-.07.073c0 .04.031.073.07.073h.23a.07.07 0 00.07-.073.07.07 0 00-.07-.073h-.23z" fill="#fff"/><path fill-rule="evenodd" clip-rule="evenodd" d="M92.035 70.238c0-.049.038-.088.084-.088h.23c.046 0 .084.04.084.088 0 .05-.038.089-.084.089h-.23a.086.086 0 01-.084-.089zm.015 0c0-.04.03-.073.069-.073h.23a.07.07 0 01.07.073.07.07 0 01-.07.073h-.23a.07.07 0 01-.07-.073z" fill="#fff"/><path d="M92.767 70.165a.07.07 0 00-.069.073c0 .04.03.073.07.073h.23a.07.07 0 00.069-.073.07.07 0 00-.07-.073h-.23z" fill="#fff"/><path fill-rule="evenodd" clip-rule="evenodd" d="M92.684 70.238c0-.049.037-.088.083-.088h.23c.047 0 .084.04.084.088 0 .05-.037.089-.083.089h-.23a.086.086 0 01-.084-.089zm.014 0c0-.04.031-.073.07-.073h.23a.07.07 0 01.069.073.07.07 0 01-.07.073h-.23a.07.07 0 01-.069-.073z" fill="#fff"/><path fill-rule="evenodd" clip-rule="evenodd" d="M95.595 76.794h-7.8v-.076h7.8v.076zM95.595 78.553h-7.8v-.077h7.8v.077zM99.278 79.47H87.722v-.076h11.556v.076zM99.278 77.635H95.16v-.076h4.117v.076zM94.078 77.635h-1.372v-.076h1.372v.076zM99.278 78.553h-2.745v-.077h2.745v.077zM91.911 77.635h-4.116v-.076h4.116v.076zM99.278 76.794h-2.384v-.076h2.384v.076z" fill="#000"/></symbol>
<symbol id="i-work" viewBox="0 0 70 60" fill="none" xmlns="http://www.w3.org/2000/svg"><path d="M50.99 13.584c.587 0 1.057-.47 1.057-1.056 0-.586-.47-1.056-1.056-1.056h-1.807c-.586 0-1.056.47-1.056 1.056 0 .587.47 1.056 1.056 1.056h1.807z" fill="#fff" stroke="#fff" stroke-width=".2"/><path d="M65.975.9v0H4.082v0h-.004C2.328.955.9 2.323.9 4.081v39.153c0 .587.47 1.057 1.056 1.057.587 0 1.057-.47 1.057-1.057v-29.65H45.04c.586 0 1.056-.47 1.056-1.056 0-.586-.47-1.056-1.056-1.056H2.959v-7.39c0-.578.482-1.071 1.126-1.123h61.887c.577 0 1.07.482 1.122 1.126v7.44H55.188c-.587 0-1.057.47-1.057 1.056 0 .587.47 1.056 1.056 1.056h11.854v42.879c0 .577-.482 1.07-1.126 1.122H4.08c-.577 0-1.07-.482-1.122-1.126v-5.84c0-.587-.47-1.056-1.056-1.056-.29 0-.542.101-.721.281-.18.18-.282.432-.282.722v5.843c0 1.758 1.428 3.127 3.178 3.182h61.893c1.759 0 3.127-1.428 3.182-3.178V4.078A3.292 3.292 0 0065.975.9z" fill="#fff" stroke="#fff" stroke-width=".2"/><path d="M20.639 23.826l-.03.03v.059a18.58 18.58 0 000 23.392v.059l.03.03.156.156c6.57 7.849 18.212 8.862 26.063 2.294l.001-.002c.798-.69 1.598-1.437 2.292-2.238l.005-.005c.098-.098.21-.21.272-.327a18.493 18.493 0 000-23.272 1.223 1.223 0 00-.118-.186.627.627 0 00-.167-.157A18.426 18.426 0 0035 17.05c-5.5 0-10.68 2.402-14.205 6.62l-.156.156zm27.617 1.956c1.898 2.544 2.986 5.592 3.212 8.746H45.51c-.059-2.386-.37-4.722-.986-7.008a19.945 19.945 0 003.732-1.738zm3.212 10.859a16.745 16.745 0 01-3.213 8.745c-1.18-.71-2.456-1.273-3.731-1.736.615-2.288.927-4.673.986-7.01h5.958zm-29.724 8.692c-1.898-2.543-2.986-5.541-3.212-8.745h5.958c.059 2.385.37 4.721.986 7.008a19.945 19.945 0 00-3.732 1.737zm2.746-10.805h-5.958c.227-3.154 1.314-6.202 3.212-8.746 1.181.71 2.457 1.273 3.732 1.737-.615 2.287-.927 4.673-.986 7.01zm11.566 0v-5.487c2.174-.059 4.347-.37 6.47-.931.557 2.106.865 4.262.925 6.418h-7.395zm0-7.546V19.24c1.176.286 2.297 1.08 3.297 2.27 1.014 1.208 1.898 2.82 2.58 4.705a30.017 30.017 0 01-5.877.766zm-7.937-.817c1.357-3.75 3.454-6.35 5.878-6.975v7.792a26.346 26.346 0 01-5.878-.817zm-.645 1.945a28.37 28.37 0 006.523.931v5.487h-7.448c.06-2.156.368-4.312.925-6.418zm6.47 13.964c-2.174.06-4.347.37-6.47.932a27.714 27.714 0 01-.925-6.419h7.395v5.487zm.053 2.063v7.79c-1.176-.285-2.297-1.079-3.296-2.269-1.015-1.208-1.899-2.82-2.582-4.706 1.893-.452 3.884-.708 5.878-.815zm2.06 7.79v-7.793c1.992.058 3.935.314 5.876.816-.708 1.887-1.592 3.5-2.6 4.708-.993 1.19-2.102 1.984-3.277 2.27zm6.468-8.92a35.223 35.223 0 00-6.469-.93v-5.49h7.395a28.133 28.133 0 01-.925 6.42zm1.357-17.43a17.662 17.662 0 00-2.989-5.387c2.302.888 4.362 2.236 6.008 4.002a17.806 17.806 0 01-3.02 1.384zM29.05 20.193c-1.305 1.61-2.328 3.403-2.985 5.382-1.033-.354-2.023-.844-3.015-1.386a16.871 16.871 0 016-3.995zM23.1 46.978c.947-.54 1.982-1.03 3.018-1.385a17.661 17.661 0 002.988 5.386 16.715 16.715 0 01-6.005-4.002zm23.849 0a17.58 17.58 0 01-5.998 3.997c1.304-1.609 2.328-3.403 2.984-5.381 1.033.353 2.022.843 3.014 1.384zM6.95 6.213c-.586 0-1.056.47-1.056 1.056 0 .586.47 1.056 1.056 1.056h3.187c.587 0 1.057-.47 1.057-1.056 0-.587-.47-1.056-1.057-1.056H6.95zM15.875 6.213c-.586 0-1.056.47-1.056 1.056 0 .586.47 1.056 1.056 1.056h3.187c.587 0 1.057-.47 1.057-1.056 0-.587-.47-1.056-1.057-1.056h-3.187zM24.853 6.213c-.586 0-1.056.47-1.056 1.056 0 .586.47 1.056 1.056 1.056h3.188c.586 0 1.056-.47 1.056-1.056 0-.587-.47-1.056-1.056-1.056h-3.188z" fill="#fff" stroke="#fff" stroke-width=".2"/></symbol>
<symbol id="i-youtube" viewBox="0 0 35 35" fill="none" xmlns="http://www.w3.org/2000/svg"><circle cx="17.5" cy="17.5" r="17.5" fill="#fff"/><path d="M26.329 12.7c-.491-.874-1.024-1.035-2.11-1.096-1.083-.073-3.808-.104-6.169-.104-2.365 0-5.092.03-6.174.103-1.083.062-1.617.222-2.112 1.096-.506.872-.766 2.375-.766 5.02v.008c0 2.634.26 4.148.766 5.01.495.874 1.028 1.033 2.11 1.106 1.084.063 3.81.1 6.176.1 2.361 0 5.086-.037 6.171-.099 1.085-.073 1.618-.232 2.109-1.105.51-.863.768-2.377.768-5.01V17.72c0-2.646-.258-4.149-.77-5.02zm-10.544 8.416v-6.788l5.657 3.394-5.657 3.394z" fill="#000"/></symbol>
</svg>