<svg width="46" height="53" viewBox="0 0 46 53" fill="none" xmlns="http://www.w3.org/2000/svg">
<path d="M43.7692 22.1107L34.9589 17.0225L22.8882 26.0414L34.9587 35.0604L43.799 29.9547C45.1774 29.1173 46 27.654 46 26.0416C46 24.4293 45.1773 22.9661 43.7692 22.1107Z" fill="#FF9100"/>
<path d="M25.94 26.0417C25.9267 26.0587 15.2674 39.7636 15.2588 39.7747L1.37329 50.7101C0.518698 49.8555 0 48.6961 0 47.4141V4.59365C0 3.31201 0.518698 2.15224 1.37329 1.29785L15.2588 12.3088C15.2674 12.3199 25.9267 26.0247 25.94 26.0417Z" fill="#25D9F8"/>
<path d="M25.9399 26.0416L22.8882 29.9783V22.1047L25.9399 26.0416Z" fill="#00C0F1"/>
<path d="M34.9733 17.0083L25.94 26.0416L1.37329 1.29787C1.67837 1.02311 1.98364 0.809483 2.31934 0.59586C3.78408 -0.228014 5.52368 -0.197598 6.95811 0.687514L22.8882 10.0504L34.9733 17.0083Z" fill="#7FE881"/>
<path d="M34.9733 17.0082L25.9399 26.0415L22.8882 22.9898V10.0503L34.9733 17.0082Z" fill="#5BC980"/>
<path d="M34.9733 35.0746L22.8882 42.0327L6.9276 51.3508C6.19517 51.7779 5.40172 52.0221 4.57764 52.0221C3.8147 52.0221 3.05176 51.8084 2.31934 51.4117C1.98364 51.1981 1.67837 50.9846 1.37329 50.7099L25.94 26.0415L34.9733 35.0746Z" fill="#FF637B"/>
<path d="M34.9733 35.0746L22.8882 42.0327V29.0933L25.9399 26.0415L34.9733 35.0746Z" fill="#E63950"/>
</svg>
