<svg width="52" height="52" viewBox="0 0 52 52" fill="none" xmlns="http://www.w3.org/2000/svg">
<path d="M41.3359 52H10.6641C4.7839 52 0 47.2161 0 41.3359V10.6641C0 4.7839 4.7839 0 10.6641 0H41.3359C47.2161 0 52 4.7839 52 10.6641V41.3359C52 47.2161 47.2161 52 41.3359 52Z" fill="#00C3FF"/>
<path d="M41.3359 0H26V52H41.3359C47.2161 52 52 47.2161 52 41.3359V10.6641C52 4.7839 47.2161 0 41.3359 0Z" fill="#00AAF0"/>
<path d="M16.0112 40.0679C15.5414 40.8815 14.6862 41.3369 13.808 41.337C13.3775 41.337 12.9416 41.2276 12.5427 40.9973C11.3303 40.2974 10.9133 38.7414 11.6133 37.529L12.1127 36.6641H17.9764L16.0112 40.0679Z" fill="white"/>
<path d="M11.2227 34.6328C9.82262 34.6328 8.68359 33.4938 8.68359 32.0938C8.68359 30.6937 9.82262 29.5547 11.2227 29.5547H16.2173L23.0681 17.6887L21.2114 14.4729C20.5115 13.2604 20.9283 11.7045 22.1407 11.0044H22.1408C23.3533 10.3044 24.9092 10.7215 25.6092 11.9338L26 12.6107L26.3908 11.9339C27.0911 10.7214 28.647 10.3045 29.8592 11.0045C30.4465 11.3436 30.8667 11.8912 31.0422 12.5462C31.2178 13.2013 31.1276 13.8856 30.7885 14.473L22.081 29.5547H27.5734L30.5053 34.6328H11.2227Z" fill="white"/>
<path d="M40.7773 34.6329H38.7145L40.3865 37.529C41.0866 38.7413 40.6697 40.2972 39.4573 40.9973C39.066 41.2232 38.6317 41.3387 38.1917 41.3387C37.9711 41.3387 37.7493 41.3097 37.5305 41.251C36.8753 41.0754 36.3278 40.6552 35.9886 40.0678L27.1726 24.7981L30.1044 19.72L35.7827 29.5548H40.7773C42.1773 29.5548 43.3164 30.6938 43.3164 32.0938C43.3164 33.4939 42.1773 34.6329 40.7773 34.6329Z" fill="#F2F2F2"/>
<path d="M26 29.5547V34.6328H30.5053L27.5735 29.5547H26Z" fill="#F2F2F2"/>
<path d="M31.0422 12.5462C30.8666 11.8911 30.4465 11.3435 29.8592 11.0045C28.6469 10.3045 27.091 10.7212 26.3908 11.9339L26 12.6107V22.7669L30.7885 14.4729C31.1276 13.8856 31.2178 13.2014 31.0422 12.5462Z" fill="#F2F2F2"/>
</svg>
