<svg width="70" height="60" viewBox="0 0 70 60" fill="none" xmlns="http://www.w3.org/2000/svg">
    <path d="M50.9906 13.5844C51.5771 13.5844 52.0469 13.1146 52.0469 12.5282C52.0469 11.9417 51.5771 11.4719 50.9906 11.4719H49.1844C48.5979 11.4719 48.1281 11.9417 48.1281 12.5282C48.1281 13.1146 48.5979 13.5844 49.1844 13.5844H50.9906Z" fill="white" stroke="white" stroke-width="0.2"/>
    <path d="M65.9751 0.900052V0.9H65.9719H4.08125V0.899951L4.07813 0.900049C2.3282 0.954734 0.9 2.32327 0.9 4.08125V43.2344C0.9 43.8209 1.36977 44.2906 1.95625 44.2906C2.54273 44.2906 3.0125 43.8209 3.0125 43.2344V13.5844H45.0406C45.6271 13.5844 46.0969 13.1146 46.0969 12.5281C46.0969 11.9416 45.6271 11.4719 45.0406 11.4719H2.95938V4.08125C2.95938 3.50396 3.44142 3.01066 4.08516 2.95938H65.9719C66.5492 2.95938 67.0425 3.44145 67.0938 4.08522V11.525H55.1875C54.601 11.525 54.1312 11.9948 54.1312 12.5813C54.1312 13.1677 54.601 13.6375 55.1875 13.6375H67.0406V56.5156C67.0406 57.0929 66.5586 57.5862 65.9148 57.6375H4.08125C3.50396 57.6375 3.01066 57.1555 2.95938 56.5117V50.6719C2.95938 50.0854 2.4896 49.6156 1.90313 49.6156C1.61355 49.6156 1.3615 49.7174 1.18163 49.8973C1.00176 50.0771 0.9 50.3292 0.9 50.6188V56.4625C0.9 58.2205 2.3282 59.589 4.07813 59.6437L4.07813 59.6437H4.08125H65.9719C67.7299 59.6437 69.0984 58.2156 69.1531 56.4656V56.4625L69.1532 4.08125L69.1531 4.07813C69.0983 2.3242 67.6735 0.95484 65.9751 0.900052Z" fill="white" stroke="white" stroke-width="0.2"/>
    <path d="M20.6387 23.8262L20.6094 23.8555V23.8969V23.9146C15.0844 30.7408 15.0844 40.4811 20.6094 47.3074V47.325V47.3664L20.6387 47.3957L20.795 47.552C27.3654 55.4007 39.0075 56.4142 46.858 49.8455L46.8593 49.8443C47.6569 49.1531 48.4569 48.4067 49.1514 47.6057L49.1563 47.6008C49.2541 47.5031 49.3663 47.3909 49.428 47.2737C54.9209 40.4932 54.9209 30.7821 49.4282 24.0016C49.3992 23.9452 49.358 23.8775 49.3098 23.8156C49.265 23.7579 49.2078 23.697 49.1428 23.6589C45.6177 19.4482 40.4421 17.05 35 17.05C29.5003 17.05 24.3203 19.4523 20.7949 23.67L20.6387 23.8262ZM48.2557 25.7824C50.1539 28.3263 51.2416 31.3738 51.4679 34.5281H45.5103C45.4514 32.1424 45.1392 29.8063 44.5241 27.5201C45.8484 27.0558 47.0768 26.4922 48.2557 25.7824ZM51.4679 36.6407C51.2416 39.7935 50.1541 42.7911 48.2549 45.3859C47.0741 44.6763 45.7989 44.1133 44.5238 43.6498C45.139 41.3625 45.4513 38.977 45.5102 36.6407H51.4679ZM21.7444 45.3332C19.8457 42.7897 18.7581 39.792 18.532 36.5875H24.4898C24.5487 38.9733 24.8609 41.3094 25.476 43.5956C24.1517 44.0599 22.9233 44.6234 21.7444 45.3332ZM24.4899 34.5281H18.5322C18.7585 31.3738 19.8462 28.3263 21.7445 25.7824C22.9254 26.4922 24.2009 27.0554 25.4763 27.519C24.8611 29.8063 24.5488 32.1918 24.4899 34.5281ZM36.0563 34.5281V29.0413C38.2299 28.982 40.4027 28.6715 42.526 28.1099C43.0832 30.2164 43.3914 32.3719 43.4506 34.5281H36.0563ZM36.0563 26.9816V19.241C37.232 19.5268 38.3534 20.3204 39.3528 21.5108C40.3671 22.7189 41.251 24.3303 41.9337 26.2158C39.9903 26.6683 37.9994 26.9235 36.0563 26.9816ZM28.1186 26.1652C29.4756 22.4142 31.5728 19.8143 33.9969 19.1898V26.9816C32.0041 26.9237 30.0608 26.6674 28.1186 26.1652ZM27.4741 28.1099C29.5982 28.6717 31.7725 28.9822 33.9969 29.0413V34.5281H26.5495C26.6087 32.3719 26.9169 30.2164 27.4741 28.1099ZM33.9438 42.0744C31.7702 42.1337 29.5974 42.4441 27.4741 43.0058C26.9167 40.8999 26.6085 38.7929 26.5495 36.5875H33.9438V42.0744ZM33.9969 44.1367V51.9278C32.8212 51.642 31.6999 50.8484 30.7005 49.658C29.686 48.4497 28.802 46.8381 28.1193 44.9524C30.0123 44.5003 32.0031 44.2441 33.9969 44.1367ZM36.0563 51.9278V44.134C38.0486 44.192 39.9916 44.4482 41.9333 44.9501C41.2252 46.8371 40.341 48.4495 39.3326 49.6582C38.3395 50.8487 37.2309 51.6421 36.0563 51.9278ZM42.5255 43.0079C40.4023 42.4965 38.2296 42.186 36.0563 42.0767V36.5875H43.4506C43.3913 38.7445 43.083 40.9008 42.5255 43.0079ZM43.8816 25.5764C43.2242 23.6433 42.1995 21.8052 40.8933 20.1901C43.1953 21.0779 45.2554 22.4264 46.9009 24.1915C45.9537 24.7321 44.9183 25.2225 43.8816 25.5764ZM29.0497 20.1945C27.7455 21.8032 26.7216 23.5971 26.0646 25.5761C25.0317 25.2225 24.0417 24.7324 23.0496 24.1904C24.7406 22.4284 26.798 21.0819 29.0497 20.1945ZM23.1008 46.9765C24.0475 46.4362 25.0823 45.9461 26.1185 45.5924C26.7758 47.5253 27.8004 49.3632 29.1064 50.9782C26.8066 50.0868 24.7468 48.6951 23.1008 46.9765ZM46.9488 46.9775C45.2573 48.6932 43.2003 50.0826 40.9508 50.9738C42.2548 49.3652 43.2785 47.5714 43.9355 45.5927C44.9679 45.9461 45.9573 46.4359 46.9488 46.9775Z" fill="white" stroke="white" stroke-width="0.2"/>
    <path d="M6.95002 6.2125C6.36355 6.2125 5.89377 6.68227 5.89377 7.26875C5.89377 7.85523 6.36355 8.325 6.95002 8.325H10.1375C10.724 8.325 11.1938 7.85523 11.1938 7.26875C11.1938 6.68227 10.724 6.2125 10.1375 6.2125H6.95002Z" fill="white" stroke="white" stroke-width="0.2"/>
    <path d="M15.875 6.2125C15.2885 6.2125 14.8187 6.68227 14.8187 7.26875C14.8187 7.85523 15.2885 8.325 15.875 8.325H19.0624C19.6489 8.325 20.1187 7.85523 20.1187 7.26875C20.1187 6.68227 19.6489 6.2125 19.0624 6.2125H15.875Z" fill="white" stroke="white" stroke-width="0.2"/>
    <path d="M24.8531 6.2125C24.2666 6.2125 23.7969 6.68227 23.7969 7.26875C23.7969 7.85523 24.2666 8.325 24.8531 8.325H28.0406C28.6271 8.325 29.0968 7.85523 29.0968 7.26875C29.0968 6.68227 28.6271 6.2125 28.0406 6.2125H24.8531Z" fill="white" stroke="white" stroke-width="0.2"/>
</svg>
