<svg width="35" height="35" viewBox="0 0 35 35" fill="none" xmlns="http://www.w3.org/2000/svg">
    <circle cx="17.5" cy="17.5" r="17.5" fill="white"/>
    <path d="M26.3286 12.6991C25.8376 11.8258 25.3048 11.6652 24.2199 11.6041C23.1362 11.5305 20.411 11.5 18.0501 11.5C15.6846 11.5 12.9583 11.5305 11.8757 11.6029C10.7931 11.6652 10.2591 11.8247 9.76366 12.6991C9.25799 13.5713 8.9978 15.0736 8.9978 17.7185C8.9978 17.7207 8.9978 17.7219 8.9978 17.7219C8.9978 17.7241 8.9978 17.7253 8.9978 17.7253V17.7275C8.9978 20.3611 9.25799 21.8747 9.76366 22.7378C10.2591 23.6112 10.792 23.7695 11.8746 23.8431C12.9583 23.9064 15.6846 23.9438 18.0501 23.9438C20.411 23.9438 23.1362 23.9064 24.221 23.8442C25.3059 23.7707 25.8387 23.6123 26.3297 22.739C26.8399 21.8758 27.0978 20.3622 27.0978 17.7287C27.0978 17.7287 27.0978 17.7253 27.0978 17.723V17.7196C27.0978 15.0736 26.8399 13.5713 26.3286 12.6991ZM15.7853 21.1156V14.3281L21.4416 17.7219L15.7853 21.1156Z" fill="black"/>
</svg>
